<?xml version="1.0" encoding="utf-8" standalone="no"?>
<!DOCTYPE svg PUBLIC "-//W3C//DTD SVG 1.1//EN"
  "http://www.w3.org/Graphics/SVG/1.1/DTD/svg11.dtd">
<!-- Created with matplotlib (https://matplotlib.org/) -->
<svg height="280.512pt" version="1.1" viewBox="0 0 371.52 280.512" width="371.52pt" xmlns="http://www.w3.org/2000/svg" xmlns:xlink="http://www.w3.org/1999/xlink">
 <defs>
  <style type="text/css">
*{stroke-linecap:butt;stroke-linejoin:round;}
  </style>
 </defs>
 <g id="figure_1">
  <g id="patch_1">
   <path d="M 0 280.512 
L 371.52 280.512 
L 371.52 0 
L 0 0 
z
" style="fill:#ffffff;"/>
  </g>
  <g id="patch_2">
   <path d="M 7.2 273.312 
L 364.32 273.312 
L 364.32 7.2 
L 7.2 7.2 
z
" style="fill:#ffffff;"/>
  </g>
  <g id="pane3d_1">
   <g id="patch_3">
    <path d="M 54.541774 214.510626 
L 156.751387 149.265994 
L 155.049705 24.594209 
L 47.141237 83.21517 
" style="fill:#f2f2f2;opacity:0.5;stroke:#f2f2f2;stroke-linejoin:miter;"/>
   </g>
  </g>
  <g id="pane3d_2">
   <g id="patch_4">
    <path d="M 156.751387 149.265994 
L 322.32135 185.741954 
L 329.248599 57.310742 
L 155.049705 24.594209 
" style="fill:#e6e6e6;opacity:0.5;stroke:#e6e6e6;stroke-linejoin:miter;"/>
   </g>
  </g>
  <g id="pane3d_3">
   <g id="patch_5">
    <path d="M 54.541774 214.510626 
L 228.743747 256.992825 
L 322.32135 185.741954 
L 156.751387 149.265994 
" style="fill:#ececec;opacity:0.5;stroke:#ececec;stroke-linejoin:miter;"/>
   </g>
  </g>
  <g id="axis3d_1">
   <g id="line2d_1">
    <path d="M 54.541774 214.510626 
L 228.743747 256.992825 
" style="fill:none;stroke:#000000;stroke-linecap:square;stroke-width:0.8;"/>
   </g>
   <g id="Line3DCollection_1">
    <path d="M 65.162252 217.100616 
L 166.877438 151.496818 
L 165.681723 26.591023 
" style="fill:none;stroke:#b0b0b0;stroke-width:0.8;"/>
    <path d="M 83.510384 221.575129 
L 184.361622 155.348678 
L 184.046201 30.040081 
" style="fill:none;stroke:#b0b0b0;stroke-width:0.8;"/>
    <path d="M 102.03966 226.093817 
L 202.005875 159.235803 
L 202.587369 33.522323 
" style="fill:none;stroke:#b0b0b0;stroke-width:0.8;"/>
    <path d="M 120.752775 230.657337 
L 219.812405 163.158678 
L 221.307787 37.03823 
" style="fill:none;stroke:#b0b0b0;stroke-width:0.8;"/>
    <path d="M 139.652479 235.266361 
L 237.783461 167.117799 
L 240.210069 40.588294 
" style="fill:none;stroke:#b0b0b0;stroke-width:0.8;"/>
    <path d="M 158.741577 239.921571 
L 255.921335 171.113671 
L 259.296877 44.173013 
" style="fill:none;stroke:#b0b0b0;stroke-width:0.8;"/>
    <path d="M 178.02293 244.623667 
L 274.228359 175.146807 
L 278.570927 47.792899 
" style="fill:none;stroke:#b0b0b0;stroke-width:0.8;"/>
    <path d="M 197.499457 249.373358 
L 292.706911 179.217732 
L 298.034987 51.448471 
" style="fill:none;stroke:#b0b0b0;stroke-width:0.8;"/>
    <path d="M 217.174137 254.171373 
L 311.359413 183.32698 
L 317.691882 55.140259 
" style="fill:none;stroke:#b0b0b0;stroke-width:0.8;"/>
   </g>
   <g id="xtick_1">
    <g id="line2d_2">
     <path d="M 66.038581 216.535405 
L 63.406326 218.233145 
" style="fill:none;stroke:#000000;stroke-linecap:square;stroke-width:0.8;"/>
    </g>
    <g id="text_1">
     <!-- 2.00 -->
     <defs>
      <path d="M 19.1875 8.296875 
L 53.609375 8.296875 
L 53.609375 0 
L 7.328125 0 
L 7.328125 8.296875 
Q 12.9375 14.109375 22.625 23.890625 
Q 32.328125 33.6875 34.8125 36.53125 
Q 39.546875 41.84375 41.421875 45.53125 
Q 43.3125 49.21875 43.3125 52.78125 
Q 43.3125 58.59375 39.234375 62.25 
Q 35.15625 65.921875 28.609375 65.921875 
Q 23.96875 65.921875 18.8125 64.3125 
Q 13.671875 62.703125 7.8125 59.421875 
L 7.8125 69.390625 
Q 13.765625 71.78125 18.9375 73 
Q 24.125 74.21875 28.421875 74.21875 
Q 39.75 74.21875 46.484375 68.546875 
Q 53.21875 62.890625 53.21875 53.421875 
Q 53.21875 48.921875 51.53125 44.890625 
Q 49.859375 40.875 45.40625 35.40625 
Q 44.1875 33.984375 37.640625 27.21875 
Q 31.109375 20.453125 19.1875 8.296875 
z
" id="DejaVuSans-50"/>
      <path d="M 10.6875 12.40625 
L 21 12.40625 
L 21 0 
L 10.6875 0 
z
" id="DejaVuSans-46"/>
      <path d="M 31.78125 66.40625 
Q 24.171875 66.40625 20.328125 58.90625 
Q 16.5 51.421875 16.5 36.375 
Q 16.5 21.390625 20.328125 13.890625 
Q 24.171875 6.390625 31.78125 6.390625 
Q 39.453125 6.390625 43.28125 13.890625 
Q 47.125 21.390625 47.125 36.375 
Q 47.125 51.421875 43.28125 58.90625 
Q 39.453125 66.40625 31.78125 66.40625 
z
M 31.78125 74.21875 
Q 44.046875 74.21875 50.515625 64.515625 
Q 56.984375 54.828125 56.984375 36.375 
Q 56.984375 17.96875 50.515625 8.265625 
Q 44.046875 -1.421875 31.78125 -1.421875 
Q 19.53125 -1.421875 13.0625 8.265625 
Q 6.59375 17.96875 6.59375 36.375 
Q 6.59375 54.828125 13.0625 64.515625 
Q 19.53125 74.21875 31.78125 74.21875 
z
" id="DejaVuSans-48"/>
     </defs>
     <g transform="translate(46.709317 238.57252)scale(0.1 -0.1)">
      <use xlink:href="#DejaVuSans-50"/>
      <use x="63.623047" xlink:href="#DejaVuSans-46"/>
      <use x="95.410156" xlink:href="#DejaVuSans-48"/>
      <use x="159.033203" xlink:href="#DejaVuSans-48"/>
     </g>
    </g>
   </g>
   <g id="xtick_2">
    <g id="line2d_3">
     <path d="M 84.379574 221.004354 
L 81.768746 222.718818 
" style="fill:none;stroke:#000000;stroke-linecap:square;stroke-width:0.8;"/>
    </g>
    <g id="text_2">
     <!-- 2.25 -->
     <defs>
      <path d="M 10.796875 72.90625 
L 49.515625 72.90625 
L 49.515625 64.59375 
L 19.828125 64.59375 
L 19.828125 46.734375 
Q 21.96875 47.46875 24.109375 47.828125 
Q 26.265625 48.1875 28.421875 48.1875 
Q 40.625 48.1875 47.75 41.5 
Q 54.890625 34.8125 54.890625 23.390625 
Q 54.890625 11.625 47.5625 5.09375 
Q 40.234375 -1.421875 26.90625 -1.421875 
Q 22.3125 -1.421875 17.546875 -0.640625 
Q 12.796875 0.140625 7.71875 1.703125 
L 7.71875 11.625 
Q 12.109375 9.234375 16.796875 8.0625 
Q 21.484375 6.890625 26.703125 6.890625 
Q 35.15625 6.890625 40.078125 11.328125 
Q 45.015625 15.765625 45.015625 23.390625 
Q 45.015625 31 40.078125 35.4375 
Q 35.15625 39.890625 26.703125 39.890625 
Q 22.75 39.890625 18.8125 39.015625 
Q 14.890625 38.140625 10.796875 36.28125 
z
" id="DejaVuSans-53"/>
     </defs>
     <g transform="translate(65.055286 243.123564)scale(0.1 -0.1)">
      <use xlink:href="#DejaVuSans-50"/>
      <use x="63.623047" xlink:href="#DejaVuSans-46"/>
      <use x="95.410156" xlink:href="#DejaVuSans-50"/>
      <use x="159.033203" xlink:href="#DejaVuSans-53"/>
     </g>
    </g>
   </g>
   <g id="xtick_3">
    <g id="line2d_4">
     <path d="M 102.901527 225.517394 
L 100.312679 227.248832 
" style="fill:none;stroke:#000000;stroke-linecap:square;stroke-width:0.8;"/>
    </g>
    <g id="text_3">
     <!-- 2.50 -->
     <g transform="translate(83.582713 247.719621)scale(0.1 -0.1)">
      <use xlink:href="#DejaVuSans-50"/>
      <use x="63.623047" xlink:href="#DejaVuSans-46"/>
      <use x="95.410156" xlink:href="#DejaVuSans-53"/>
      <use x="159.033203" xlink:href="#DejaVuSans-48"/>
     </g>
    </g>
   </g>
   <g id="xtick_4">
    <g id="line2d_5">
     <path d="M 121.607132 230.075184 
L 119.040828 231.823848 
" style="fill:none;stroke:#000000;stroke-linecap:square;stroke-width:0.8;"/>
    </g>
    <g id="text_4">
     <!-- 2.75 -->
     <defs>
      <path d="M 8.203125 72.90625 
L 55.078125 72.90625 
L 55.078125 68.703125 
L 28.609375 0 
L 18.3125 0 
L 43.21875 64.59375 
L 8.203125 64.59375 
z
" id="DejaVuSans-55"/>
     </defs>
     <g transform="translate(102.294304 252.361363)scale(0.1 -0.1)">
      <use xlink:href="#DejaVuSans-50"/>
      <use x="63.623047" xlink:href="#DejaVuSans-46"/>
      <use x="95.410156" xlink:href="#DejaVuSans-55"/>
      <use x="159.033203" xlink:href="#DejaVuSans-53"/>
     </g>
    </g>
   </g>
   <g id="xtick_5">
    <g id="line2d_6">
     <path d="M 140.499132 234.67839 
L 137.955953 236.444539 
" style="fill:none;stroke:#000000;stroke-linecap:square;stroke-width:0.8;"/>
    </g>
    <g id="text_5">
     <!-- 3.00 -->
     <defs>
      <path d="M 40.578125 39.3125 
Q 47.65625 37.796875 51.625 33 
Q 55.609375 28.21875 55.609375 21.1875 
Q 55.609375 10.40625 48.1875 4.484375 
Q 40.765625 -1.421875 27.09375 -1.421875 
Q 22.515625 -1.421875 17.65625 -0.515625 
Q 12.796875 0.390625 7.625 2.203125 
L 7.625 11.71875 
Q 11.71875 9.328125 16.59375 8.109375 
Q 21.484375 6.890625 26.8125 6.890625 
Q 36.078125 6.890625 40.9375 10.546875 
Q 45.796875 14.203125 45.796875 21.1875 
Q 45.796875 27.640625 41.28125 31.265625 
Q 36.765625 34.90625 28.71875 34.90625 
L 20.21875 34.90625 
L 20.21875 43.015625 
L 29.109375 43.015625 
Q 36.375 43.015625 40.234375 45.921875 
Q 44.09375 48.828125 44.09375 54.296875 
Q 44.09375 59.90625 40.109375 62.90625 
Q 36.140625 65.921875 28.71875 65.921875 
Q 24.65625 65.921875 20.015625 65.03125 
Q 15.375 64.15625 9.8125 62.3125 
L 9.8125 71.09375 
Q 15.4375 72.65625 20.34375 73.4375 
Q 25.25 74.21875 29.59375 74.21875 
Q 40.828125 74.21875 47.359375 69.109375 
Q 53.90625 64.015625 53.90625 55.328125 
Q 53.90625 49.265625 50.4375 45.09375 
Q 46.96875 40.921875 40.578125 39.3125 
z
" id="DejaVuSans-51"/>
     </defs>
     <g transform="translate(121.192818 257.049475)scale(0.1 -0.1)">
      <use xlink:href="#DejaVuSans-51"/>
      <use x="63.623047" xlink:href="#DejaVuSans-46"/>
      <use x="95.410156" xlink:href="#DejaVuSans-48"/>
      <use x="159.033203" xlink:href="#DejaVuSans-48"/>
     </g>
    </g>
   </g>
   <g id="xtick_6">
    <g id="line2d_7">
     <path d="M 159.580329 239.327695 
L 157.060868 241.111594 
" style="fill:none;stroke:#000000;stroke-linecap:square;stroke-width:0.8;"/>
    </g>
    <g id="text_6">
     <!-- 3.25 -->
     <g transform="translate(140.28107 261.784655)scale(0.1 -0.1)">
      <use xlink:href="#DejaVuSans-51"/>
      <use x="63.623047" xlink:href="#DejaVuSans-46"/>
      <use x="95.410156" xlink:href="#DejaVuSans-50"/>
      <use x="159.033203" xlink:href="#DejaVuSans-53"/>
     </g>
    </g>
   </g>
   <g id="xtick_7">
    <g id="line2d_8">
     <path d="M 178.853578 244.023796 
L 176.358444 245.825712 
" style="fill:none;stroke:#000000;stroke-linecap:square;stroke-width:0.8;"/>
    </g>
    <g id="text_7">
     <!-- 3.50 -->
     <g transform="translate(159.561932 266.567615)scale(0.1 -0.1)">
      <use xlink:href="#DejaVuSans-51"/>
      <use x="63.623047" xlink:href="#DejaVuSans-46"/>
      <use x="95.410156" xlink:href="#DejaVuSans-53"/>
      <use x="159.033203" xlink:href="#DejaVuSans-48"/>
     </g>
    </g>
   </g>
   <g id="xtick_8">
    <g id="line2d_9">
     <path d="M 198.321793 248.767403 
L 195.851609 250.58761 
" style="fill:none;stroke:#000000;stroke-linecap:square;stroke-width:0.8;"/>
    </g>
    <g id="text_8">
     <!-- 3.75 -->
     <g transform="translate(179.038335 271.399082)scale(0.1 -0.1)">
      <use xlink:href="#DejaVuSans-51"/>
      <use x="63.623047" xlink:href="#DejaVuSans-46"/>
      <use x="95.410156" xlink:href="#DejaVuSans-55"/>
      <use x="159.033203" xlink:href="#DejaVuSans-53"/>
     </g>
    </g>
   </g>
   <g id="xtick_9">
    <g id="line2d_10">
     <path d="M 217.987949 253.559239 
L 215.543353 255.398018 
" style="fill:none;stroke:#000000;stroke-linecap:square;stroke-width:0.8;"/>
    </g>
    <g id="text_9">
     <!-- 4.00 -->
     <defs>
      <path d="M 37.796875 64.3125 
L 12.890625 25.390625 
L 37.796875 25.390625 
z
M 35.203125 72.90625 
L 47.609375 72.90625 
L 47.609375 25.390625 
L 58.015625 25.390625 
L 58.015625 17.1875 
L 47.609375 17.1875 
L 47.609375 0 
L 37.796875 0 
L 37.796875 17.1875 
L 4.890625 17.1875 
L 4.890625 26.703125 
z
" id="DejaVuSans-52"/>
     </defs>
     <g transform="translate(198.713268 276.279799)scale(0.1 -0.1)">
      <use xlink:href="#DejaVuSans-52"/>
      <use x="63.623047" xlink:href="#DejaVuSans-46"/>
      <use x="95.410156" xlink:href="#DejaVuSans-48"/>
      <use x="159.033203" xlink:href="#DejaVuSans-48"/>
     </g>
    </g>
   </g>
  </g>
  <g id="axis3d_2">
   <g id="line2d_11">
    <path d="M 322.32135 185.741954 
L 228.743747 256.992825 
" style="fill:none;stroke:#000000;stroke-linecap:square;stroke-width:0.8;"/>
   </g>
   <g id="Line3DCollection_2">
    <path d="M 54.530092 79.201196 
L 61.515028 210.059309 
L 235.148062 252.11652 
" style="fill:none;stroke:#b0b0b0;stroke-width:0.8;"/>
    <path d="M 74.410294 68.401334 
L 80.295501 198.070955 
L 252.38167 238.994688 
" style="fill:none;stroke:#b0b0b0;stroke-width:0.8;"/>
    <path d="M 93.742663 57.899081 
L 98.584318 186.396445 
L 269.1437 226.231919 
" style="fill:none;stroke:#b0b0b0;stroke-width:0.8;"/>
    <path d="M 112.549534 47.682303 
L 116.400537 175.023614 
L 285.453248 213.813675 
" style="fill:none;stroke:#b0b0b0;stroke-width:0.8;"/>
    <path d="M 130.852048 37.739516 
L 133.762243 163.940917 
L 301.328392 201.726191 
" style="fill:none;stroke:#b0b0b0;stroke-width:0.8;"/>
    <path d="M 148.670224 28.059844 
L 150.686609 153.137393 
L 316.786258 189.956425 
" style="fill:none;stroke:#b0b0b0;stroke-width:0.8;"/>
   </g>
   <g id="xtick_10">
    <g id="line2d_12">
     <path d="M 233.694906 251.764538 
L 238.057621 252.82127 
" style="fill:none;stroke:#000000;stroke-linecap:square;stroke-width:0.8;"/>
    </g>
    <g id="text_10">
     <!-- 0.0 -->
     <g transform="translate(239.895847 271.872728)scale(0.1 -0.1)">
      <use xlink:href="#DejaVuSans-48"/>
      <use x="63.623047" xlink:href="#DejaVuSans-46"/>
      <use x="95.410156" xlink:href="#DejaVuSans-48"/>
     </g>
    </g>
   </g>
   <g id="xtick_11">
    <g id="line2d_13">
     <path d="M 250.942341 238.652401 
L 255.2635 239.680014 
" style="fill:none;stroke:#000000;stroke-linecap:square;stroke-width:0.8;"/>
    </g>
    <g id="text_11">
     <!-- 0.2 -->
     <g transform="translate(256.944719 258.588928)scale(0.1 -0.1)">
      <use xlink:href="#DejaVuSans-48"/>
      <use x="63.623047" xlink:href="#DejaVuSans-46"/>
      <use x="95.410156" xlink:href="#DejaVuSans-50"/>
     </g>
    </g>
   </g>
   <g id="xtick_12">
    <g id="line2d_14">
     <path d="M 267.71799 225.898933 
L 271.998219 226.898614 
" style="fill:none;stroke:#000000;stroke-linecap:square;stroke-width:0.8;"/>
    </g>
    <g id="text_12">
     <!-- 0.4 -->
     <g transform="translate(273.527299 245.668443)scale(0.1 -0.1)">
      <use xlink:href="#DejaVuSans-48"/>
      <use x="63.623047" xlink:href="#DejaVuSans-46"/>
      <use x="95.410156" xlink:href="#DejaVuSans-52"/>
     </g>
    </g>
   </g>
   <g id="xtick_13">
    <g id="line2d_15">
     <path d="M 284.040952 213.489616 
L 288.28087 214.462488 
" style="fill:none;stroke:#000000;stroke-linecap:square;stroke-width:0.8;"/>
    </g>
    <g id="text_13">
     <!-- 0.6 -->
     <defs>
      <path d="M 33.015625 40.375 
Q 26.375 40.375 22.484375 35.828125 
Q 18.609375 31.296875 18.609375 23.390625 
Q 18.609375 15.53125 22.484375 10.953125 
Q 26.375 6.390625 33.015625 6.390625 
Q 39.65625 6.390625 43.53125 10.953125 
Q 47.40625 15.53125 47.40625 23.390625 
Q 47.40625 31.296875 43.53125 35.828125 
Q 39.65625 40.375 33.015625 40.375 
z
M 52.59375 71.296875 
L 52.59375 62.3125 
Q 48.875 64.0625 45.09375 64.984375 
Q 41.3125 65.921875 37.59375 65.921875 
Q 27.828125 65.921875 22.671875 59.328125 
Q 17.53125 52.734375 16.796875 39.40625 
Q 19.671875 43.65625 24.015625 45.921875 
Q 28.375 48.1875 33.59375 48.1875 
Q 44.578125 48.1875 50.953125 41.515625 
Q 57.328125 34.859375 57.328125 23.390625 
Q 57.328125 12.15625 50.6875 5.359375 
Q 44.046875 -1.421875 33.015625 -1.421875 
Q 20.359375 -1.421875 13.671875 8.265625 
Q 6.984375 17.96875 6.984375 36.375 
Q 6.984375 53.65625 15.1875 63.9375 
Q 23.390625 74.21875 37.203125 74.21875 
Q 40.921875 74.21875 44.703125 73.484375 
Q 48.484375 72.75 52.59375 71.296875 
z
" id="DejaVuSans-54"/>
     </defs>
     <g transform="translate(289.66246 233.09657)scale(0.1 -0.1)">
      <use xlink:href="#DejaVuSans-48"/>
      <use x="63.623047" xlink:href="#DejaVuSans-46"/>
      <use x="95.410156" xlink:href="#DejaVuSans-54"/>
     </g>
    </g>
   </g>
   <g id="xtick_14">
    <g id="line2d_16">
     <path d="M 299.929304 201.410704 
L 304.129527 202.357832 
" style="fill:none;stroke:#000000;stroke-linecap:square;stroke-width:0.8;"/>
    </g>
    <g id="text_14">
     <!-- 0.8 -->
     <defs>
      <path d="M 31.78125 34.625 
Q 24.75 34.625 20.71875 30.859375 
Q 16.703125 27.09375 16.703125 20.515625 
Q 16.703125 13.921875 20.71875 10.15625 
Q 24.75 6.390625 31.78125 6.390625 
Q 38.8125 6.390625 42.859375 10.171875 
Q 46.921875 13.96875 46.921875 20.515625 
Q 46.921875 27.09375 42.890625 30.859375 
Q 38.875 34.625 31.78125 34.625 
z
M 21.921875 38.8125 
Q 15.578125 40.375 12.03125 44.71875 
Q 8.5 49.078125 8.5 55.328125 
Q 8.5 64.0625 14.71875 69.140625 
Q 20.953125 74.21875 31.78125 74.21875 
Q 42.671875 74.21875 48.875 69.140625 
Q 55.078125 64.0625 55.078125 55.328125 
Q 55.078125 49.078125 51.53125 44.71875 
Q 48 40.375 41.703125 38.8125 
Q 48.828125 37.15625 52.796875 32.3125 
Q 56.78125 27.484375 56.78125 20.515625 
Q 56.78125 9.90625 50.3125 4.234375 
Q 43.84375 -1.421875 31.78125 -1.421875 
Q 19.734375 -1.421875 13.25 4.234375 
Q 6.78125 9.90625 6.78125 20.515625 
Q 6.78125 27.484375 10.78125 32.3125 
Q 14.796875 37.15625 21.921875 38.8125 
z
M 18.3125 54.390625 
Q 18.3125 48.734375 21.84375 45.5625 
Q 25.390625 42.390625 31.78125 42.390625 
Q 38.140625 42.390625 41.71875 45.5625 
Q 45.3125 48.734375 45.3125 54.390625 
Q 45.3125 60.0625 41.71875 63.234375 
Q 38.140625 66.40625 31.78125 66.40625 
Q 25.390625 66.40625 21.84375 63.234375 
Q 18.3125 60.0625 18.3125 54.390625 
z
" id="DejaVuSans-56"/>
     </defs>
     <g transform="translate(305.368069 220.859387)scale(0.1 -0.1)">
      <use xlink:href="#DejaVuSans-48"/>
      <use x="63.623047" xlink:href="#DejaVuSans-46"/>
      <use x="95.410156" xlink:href="#DejaVuSans-56"/>
     </g>
    </g>
   </g>
   <g id="xtick_15">
    <g id="line2d_17">
     <path d="M 315.400177 189.649175 
L 319.561313 190.571567 
" style="fill:none;stroke:#000000;stroke-linecap:square;stroke-width:0.8;"/>
    </g>
    <g id="text_15">
     <!-- 1.0 -->
     <defs>
      <path d="M 12.40625 8.296875 
L 28.515625 8.296875 
L 28.515625 63.921875 
L 10.984375 60.40625 
L 10.984375 69.390625 
L 28.421875 72.90625 
L 38.28125 72.90625 
L 38.28125 8.296875 
L 54.390625 8.296875 
L 54.390625 0 
L 12.40625 0 
z
" id="DejaVuSans-49"/>
     </defs>
     <g transform="translate(320.661053 208.943704)scale(0.1 -0.1)">
      <use xlink:href="#DejaVuSans-49"/>
      <use x="63.623047" xlink:href="#DejaVuSans-46"/>
      <use x="95.410156" xlink:href="#DejaVuSans-48"/>
     </g>
    </g>
   </g>
  </g>
  <g id="axis3d_3">
   <g id="line2d_18">
    <path d="M 322.32135 185.741954 
L 329.248599 57.310742 
" style="fill:none;stroke:#000000;stroke-linecap:square;stroke-width:0.8;"/>
   </g>
   <g id="Line3DCollection_3">
    <path d="M 323.630043 161.478769 
L 156.429337 125.671397 
L 53.145618 189.740942 
" style="fill:none;stroke:#b0b0b0;stroke-width:0.8;"/>
    <path d="M 324.957314 136.871166 
L 156.102987 101.761714 
L 51.728716 164.603199 
" style="fill:none;stroke:#b0b0b0;stroke-width:0.8;"/>
    <path d="M 326.311334 111.767636 
L 155.77034 77.390731 
L 50.282295 138.941755 
" style="fill:none;stroke:#b0b0b0;stroke-width:0.8;"/>
    <path d="M 327.69292 86.153035 
L 155.431213 52.544969 
L 48.805424 112.740074 
" style="fill:none;stroke:#b0b0b0;stroke-width:0.8;"/>
    <path d="M 329.102921 60.011596 
L 155.085415 27.210418 
L 47.29713 85.980914 
" style="fill:none;stroke:#b0b0b0;stroke-width:0.8;"/>
   </g>
   <g id="xtick_16">
    <g id="line2d_19">
     <path d="M 322.23448 161.179898 
L 326.4241 162.077138 
" style="fill:none;stroke:#000000;stroke-linecap:square;stroke-width:0.8;"/>
    </g>
    <g id="text_16">
     <!-- 0.92 -->
     <defs>
      <path d="M 10.984375 1.515625 
L 10.984375 10.5 
Q 14.703125 8.734375 18.5 7.8125 
Q 22.3125 6.890625 25.984375 6.890625 
Q 35.75 6.890625 40.890625 13.453125 
Q 46.046875 20.015625 46.78125 33.40625 
Q 43.953125 29.203125 39.59375 26.953125 
Q 35.25 24.703125 29.984375 24.703125 
Q 19.046875 24.703125 12.671875 31.3125 
Q 6.296875 37.9375 6.296875 49.421875 
Q 6.296875 60.640625 12.9375 67.421875 
Q 19.578125 74.21875 30.609375 74.21875 
Q 43.265625 74.21875 49.921875 64.515625 
Q 56.59375 54.828125 56.59375 36.375 
Q 56.59375 19.140625 48.40625 8.859375 
Q 40.234375 -1.421875 26.421875 -1.421875 
Q 22.703125 -1.421875 18.890625 -0.6875 
Q 15.09375 0.046875 10.984375 1.515625 
z
M 30.609375 32.421875 
Q 37.25 32.421875 41.125 36.953125 
Q 45.015625 41.5 45.015625 49.421875 
Q 45.015625 57.28125 41.125 61.84375 
Q 37.25 66.40625 30.609375 66.40625 
Q 23.96875 66.40625 20.09375 61.84375 
Q 16.21875 57.28125 16.21875 49.421875 
Q 16.21875 41.5 20.09375 36.953125 
Q 23.96875 32.421875 30.609375 32.421875 
z
" id="DejaVuSans-57"/>
     </defs>
     <g transform="translate(331.007802 167.143088)scale(0.1 -0.1)">
      <use xlink:href="#DejaVuSans-48"/>
      <use x="63.623047" xlink:href="#DejaVuSans-46"/>
      <use x="95.410156" xlink:href="#DejaVuSans-57"/>
      <use x="159.033203" xlink:href="#DejaVuSans-50"/>
     </g>
    </g>
   </g>
   <g id="xtick_17">
    <g id="line2d_20">
     <path d="M 323.547365 136.577999 
L 327.780202 137.458122 
" style="fill:none;stroke:#000000;stroke-linecap:square;stroke-width:0.8;"/>
    </g>
    <g id="text_17">
     <!-- 0.94 -->
     <g transform="translate(332.516285 142.572433)scale(0.1 -0.1)">
      <use xlink:href="#DejaVuSans-48"/>
      <use x="63.623047" xlink:href="#DejaVuSans-46"/>
      <use x="95.410156" xlink:href="#DejaVuSans-57"/>
      <use x="159.033203" xlink:href="#DejaVuSans-52"/>
     </g>
    </g>
   </g>
   <g id="xtick_18">
    <g id="line2d_21">
     <path d="M 324.886699 111.480465 
L 329.163654 112.342594 
" style="fill:none;stroke:#000000;stroke-linecap:square;stroke-width:0.8;"/>
    </g>
    <g id="text_18">
     <!-- 0.96 -->
     <g transform="translate(334.055098 117.507739)scale(0.1 -0.1)">
      <use xlink:href="#DejaVuSans-48"/>
      <use x="63.623047" xlink:href="#DejaVuSans-46"/>
      <use x="95.410156" xlink:href="#DejaVuSans-57"/>
      <use x="159.033203" xlink:href="#DejaVuSans-54"/>
     </g>
    </g>
   </g>
   <g id="xtick_19">
    <g id="line2d_22">
     <path d="M 326.253291 85.872166 
L 330.575291 86.715383 
" style="fill:none;stroke:#000000;stroke-linecap:square;stroke-width:0.8;"/>
    </g>
    <g id="text_19">
     <!-- 0.98 -->
     <g transform="translate(335.625166 91.933953)scale(0.1 -0.1)">
      <use xlink:href="#DejaVuSans-48"/>
      <use x="63.623047" xlink:href="#DejaVuSans-46"/>
      <use x="95.410156" xlink:href="#DejaVuSans-57"/>
      <use x="159.033203" xlink:href="#DejaVuSans-56"/>
     </g>
    </g>
   </g>
   <g id="xtick_20">
    <g id="line2d_23">
     <path d="M 327.64798 59.737349 
L 332.015984 60.560689 
" style="fill:none;stroke:#000000;stroke-linecap:square;stroke-width:0.8;"/>
    </g>
    <g id="text_20">
     <!-- 1.00 -->
     <g transform="translate(337.227451 65.835407)scale(0.1 -0.1)">
      <use xlink:href="#DejaVuSans-49"/>
      <use x="63.623047" xlink:href="#DejaVuSans-46"/>
      <use x="95.410156" xlink:href="#DejaVuSans-48"/>
      <use x="159.033203" xlink:href="#DejaVuSans-48"/>
     </g>
    </g>
   </g>
  </g>
  <g id="axes_1">
   <g id="Poly3DCollection_1">
    <path clip-path="url(#p26ccc246ea)" d="M 215.246566 143.962232 
L 231.513185 154.877487 
L 240.08472 170.523542 
L 224.103832 157.043481 
z
" style="fill:#ff0100;"/>
    <path clip-path="url(#p26ccc246ea)" d="M 199.059421 121.36998 
L 215.246566 143.962232 
L 224.103832 157.043481 
L 208.228997 129.033924 
z
" style="fill:#ff2700;"/>
    <path clip-path="url(#p26ccc246ea)" d="M 231.513185 154.877487 
L 248.147279 151.733672 
L 256.554431 165.890709 
L 240.08472 170.523542 
z
" style="fill:#ff0000;"/>
    <path clip-path="url(#p26ccc246ea)" d="M 182.741601 92.696902 
L 199.059421 121.36998 
L 208.228997 129.033924 
L 192.175904 92.653703 
z
" style="fill:#ff6500;"/>
    <path clip-path="url(#p26ccc246ea)" d="M 248.147279 151.733672 
L 265.397222 135.795818 
L 273.769104 146.409362 
L 256.554431 165.890709 
z
" style="fill:#ff2300;"/>
    <path clip-path="url(#p26ccc246ea)" d="M 166.249343 65.438782 
L 182.741601 92.696902 
L 192.175904 92.653703 
L 175.87581 63.24931 
z
" style="fill:#ffa700;"/>
    <path clip-path="url(#p26ccc246ea)" d="M 206.099696 133.453874 
L 222.610731 142.473098 
L 231.513185 154.877487 
L 215.246566 143.962232 
z
" style="fill:#ff3000;"/>
    <path clip-path="url(#p26ccc246ea)" d="M 189.653236 115.190211 
L 206.099696 133.453874 
L 215.246566 143.962232 
L 199.059421 121.36998 
z
" style="fill:#ff4d00;"/>
    <path clip-path="url(#p26ccc246ea)" d="M 173.118116 91.837603 
L 189.653236 115.190211 
L 199.059421 121.36998 
L 182.741601 92.696902 
z
" style="fill:#ff7c00;"/>
    <path clip-path="url(#p26ccc246ea)" d="M 222.610731 142.473098 
L 239.409653 140.34817 
L 248.147279 151.733672 
L 231.513185 154.877487 
z
" style="fill:#ff3000;"/>
    <path clip-path="url(#p26ccc246ea)" d="M 149.588891 38.09638 
L 166.249343 65.438782 
L 175.87581 63.24931 
L 159.367498 32.706597 
z
" style="fill:#ffe300;"/>
    <path clip-path="url(#p26ccc246ea)" d="M 156.45554 67.797666 
L 173.118116 91.837603 
L 182.741601 92.696902 
L 166.249343 65.438782 
z
" style="fill:#ffb200;"/>
    <path clip-path="url(#p26ccc246ea)" d="M 139.664115 43.566728 
L 156.45554 67.797666 
L 166.249343 65.438782 
L 149.588891 38.09638 
z
" style="fill:#ffe700;"/>
    <path clip-path="url(#p26ccc246ea)" d="M 180.019048 110.159351 
L 196.685411 125.049281 
L 206.099696 133.453874 
L 189.653236 115.190211 
z
" style="fill:#ff6d00;"/>
    <path clip-path="url(#p26ccc246ea)" d="M 239.409653 140.34817 
L 256.715369 127.467847 
L 265.397222 135.795818 
L 248.147279 151.733672 
z
" style="fill:#ff4d00;"/>
    <path clip-path="url(#p26ccc246ea)" d="M 196.685411 125.049281 
L 213.41138 132.617974 
L 222.610731 142.473098 
L 206.099696 133.453874 
z
" style="fill:#ff5800;"/>
    <path clip-path="url(#p26ccc246ea)" d="M 265.397222 135.795818 
L 283.488126 108.198209 
L 291.916466 115.043937 
L 273.769104 146.409362 
z
" style="fill:#ff6500;"/>
    <path clip-path="url(#p26ccc246ea)" d="M 163.298605 90.91376 
L 180.019048 110.159351 
L 189.653236 115.190211 
L 173.118116 91.837603 
z
" style="fill:#ff9200;"/>
    <path clip-path="url(#p26ccc246ea)" d="M 146.489703 70.226085 
L 163.298605 90.91376 
L 173.118116 91.837603 
L 156.45554 67.797666 
z
" style="fill:#ffbe00;"/>
    <path clip-path="url(#p26ccc246ea)" d="M 213.41138 132.617974 
L 230.370182 131.341966 
L 239.409653 140.34817 
L 222.610731 142.473098 
z
" style="fill:#ff5900;"/>
    <path clip-path="url(#p26ccc246ea)" d="M 129.589867 49.119462 
L 146.489703 70.226085 
L 156.45554 67.797666 
L 139.664115 43.566728 
z
" style="fill:#ffeb00;"/>
    <path clip-path="url(#p26ccc246ea)" d="M 170.161964 106.106731 
L 187.019574 118.325549 
L 196.685411 125.049281 
L 180.019048 110.159351 
z
" style="fill:#ff8a00;"/>
    <path clip-path="url(#p26ccc246ea)" d="M 153.281087 90.237413 
L 170.161964 106.106731 
L 180.019048 110.159351 
L 163.298605 90.91376 
z
" style="fill:#ffa700;"/>
    <path clip-path="url(#p26ccc246ea)" d="M 230.370182 131.341966 
L 247.744471 121.271985 
L 256.715369 127.467847 
L 239.409653 140.34817 
z
" style="fill:#ff7100;"/>
    <path clip-path="url(#p26ccc246ea)" d="M 256.715369 127.467847 
L 274.725616 104.693557 
L 283.488126 108.198209 
L 265.397222 135.795818 
z
" style="fill:#ff8500;"/>
    <path clip-path="url(#p26ccc246ea)" d="M 187.019574 118.325549 
L 203.938808 124.788816 
L 213.41138 132.617974 
L 196.685411 125.049281 
z
" style="fill:#ff7a00;"/>
    <path clip-path="url(#p26ccc246ea)" d="M 136.34846 72.767177 
L 153.281087 90.237413 
L 163.298605 90.91376 
L 146.489703 70.226085 
z
" style="fill:#ffc900;"/>
    <path clip-path="url(#p26ccc246ea)" d="M 119.362745 54.756458 
L 136.34846 72.767177 
L 146.489703 70.226085 
L 129.589867 49.119462 
z
" style="fill:#ffee00;"/>
    <path clip-path="url(#p26ccc246ea)" d="M 203.938808 124.788816 
L 221.052574 124.316076 
L 230.370182 131.341966 
L 213.41138 132.617974 
z
" style="fill:#ff7b00;"/>
    <path clip-path="url(#p26ccc246ea)" d="M 283.488126 108.198209 
L 302.73518 67.441459 
L 311.730221 61.612546 
L 291.916466 115.043937 
z
" style="fill:#ffc700;"/>
    <path clip-path="url(#p26ccc246ea)" d="M 143.064359 89.90811 
L 160.084903 102.8839 
L 170.161964 106.106731 
L 153.281087 90.237413 
z
" style="fill:#ffb900;"/>
    <path clip-path="url(#p26ccc246ea)" d="M 126.02899 75.464899 
L 143.064359 89.90811 
L 153.281087 90.237413 
L 136.34846 72.767177 
z
" style="fill:#ffd500;"/>
    <path clip-path="url(#p26ccc246ea)" d="M 160.084903 102.8839 
L 177.11241 112.926265 
L 187.019574 118.325549 
L 170.161964 106.106731 
z
" style="fill:#ffa400;"/>
    <path clip-path="url(#p26ccc246ea)" d="M 108.979243 60.479647 
L 126.02899 75.464899 
L 136.34846 72.767177 
L 119.362745 54.756458 
z
" style="fill:#fff200;"/>
    <path clip-path="url(#p26ccc246ea)" d="M 247.744471 121.271985 
L 265.695678 103.269622 
L 274.725616 104.693557 
L 256.715369 127.467847 
z
" style="fill:#ff9f00;"/>
    <path clip-path="url(#p26ccc246ea)" d="M 221.052574 124.316076 
L 238.507561 116.862075 
L 247.744471 121.271985 
L 230.370182 131.341966 
z
" style="fill:#ff8f00;"/>
    <path clip-path="url(#p26ccc246ea)" d="M 177.11241 112.926265 
L 194.20927 118.551581 
L 203.938808 124.788816 
L 187.019574 118.325549 
z
" style="fill:#ff9800;"/>
    <path clip-path="url(#p26ccc246ea)" d="M 194.20927 118.551581 
L 211.475078 118.883558 
L 221.052574 124.316076 
L 203.938808 124.788816 
z
" style="fill:#ff9a00;"/>
    <path clip-path="url(#p26ccc246ea)" d="M 274.725616 104.693557 
L 293.600249 73.361022 
L 302.73518 67.441459 
L 283.488126 108.198209 
z
" style="fill:#ffd400;"/>
    <path clip-path="url(#p26ccc246ea)" d="M 98.435746 66.291023 
L 115.52826 78.336568 
L 126.02899 75.464899 
L 108.979243 60.479647 
z
" style="fill:#fff600;"/>
    <path clip-path="url(#p26ccc246ea)" d="M 115.52826 78.336568 
L 132.646473 89.92651 
L 143.064359 89.90811 
L 126.02899 75.464899 
z
" style="fill:#ffdf00;"/>
    <path clip-path="url(#p26ccc246ea)" d="M 132.646473 89.92651 
L 149.788461 100.335964 
L 160.084903 102.8839 
L 143.064359 89.90811 
z
" style="fill:#ffcb00;"/>
    <path clip-path="url(#p26ccc246ea)" d="M 149.788461 100.335964 
L 166.969352 108.541458 
L 177.11241 112.926265 
L 160.084903 102.8839 
z
" style="fill:#ffbb00;"/>
    <path clip-path="url(#p26ccc246ea)" d="M 238.507561 116.862075 
L 256.432327 103.257764 
L 265.695678 103.269622 
L 247.744471 121.271985 
z
" style="fill:#ffb400;"/>
    <path clip-path="url(#p26ccc246ea)" d="M 211.475078 118.883558 
L 229.023375 113.873726 
L 238.507561 116.862075 
L 221.052574 124.316076 
z
" style="fill:#ffa900;"/>
    <path clip-path="url(#p26ccc246ea)" d="M 166.969352 108.541458 
L 184.232913 113.527778 
L 194.20927 118.551581 
L 177.11241 112.926265 
z
" style="fill:#ffb300;"/>
    <path clip-path="url(#p26ccc246ea)" d="M 87.728528 72.192638 
L 104.842542 81.374442 
L 115.52826 78.336568 
L 98.435746 66.291023 
z
" style="fill:#fff900;"/>
    <path clip-path="url(#p26ccc246ea)" d="M 265.695678 103.269622 
L 284.32214 79.373366 
L 293.600249 73.361022 
L 274.725616 104.693557 
z
" style="fill:#ffde00;"/>
    <path clip-path="url(#p26ccc246ea)" d="M 104.842542 81.374442 
L 122.024018 90.241738 
L 132.646473 89.92651 
L 115.52826 78.336568 
z
" style="fill:#ffe900;"/>
    <path clip-path="url(#p26ccc246ea)" d="M 184.232913 113.527778 
L 201.650391 114.680265 
L 211.475078 118.883558 
L 194.20927 118.551581 
z
" style="fill:#ffb400;"/>
    <path clip-path="url(#p26ccc246ea)" d="M 122.024018 90.241738 
L 139.270592 98.298215 
L 149.788461 100.335964 
L 132.646473 89.92651 
z
" style="fill:#ffdb00;"/>
    <path clip-path="url(#p26ccc246ea)" d="M 139.270592 98.298215 
L 156.591465 104.888761 
L 166.969352 108.541458 
L 149.788461 100.335964 
z
" style="fill:#ffd000;"/>
    <path clip-path="url(#p26ccc246ea)" d="M 229.023375 113.873726 
L 246.954307 104.25545 
L 256.432327 103.257764 
L 238.507561 116.862075 
z
" style="fill:#ffc600;"/>
    <path clip-path="url(#p26ccc246ea)" d="M 76.853745 78.186612 
L 93.967146 84.552741 
L 104.842542 81.374442 
L 87.728528 72.192638 
z
" style="fill:#fffc00;"/>
    <path clip-path="url(#p26ccc246ea)" d="M 201.650391 114.680265 
L 219.305214 111.971653 
L 229.023375 113.873726 
L 211.475078 118.883558 
z
" style="fill:#ffc000;"/>
    <path clip-path="url(#p26ccc246ea)" d="M 256.432327 103.257764 
L 274.897459 85.480691 
L 284.32214 79.373366 
L 265.695678 103.269622 
z
" style="fill:#ffe600;"/>
    <path clip-path="url(#p26ccc246ea)" d="M 156.591465 104.888761 
L 174.014444 109.374681 
L 184.232913 113.527778 
L 166.969352 108.541458 
z
" style="fill:#ffcb00;"/>
    <path clip-path="url(#p26ccc246ea)" d="M 93.967146 84.552741 
L 111.191724 90.773905 
L 122.024018 90.241738 
L 104.842542 81.374442 
z
" style="fill:#fff300;"/>
    <path clip-path="url(#p26ccc246ea)" d="M 111.191724 90.773905 
L 128.526302 96.597126 
L 139.270592 98.298215 
L 122.024018 90.241738 
z
" style="fill:#ffeb00;"/>
    <path clip-path="url(#p26ccc246ea)" d="M 174.014444 109.374681 
L 191.585832 111.366195 
L 201.650391 114.680265 
L 184.232913 113.527778 
z
" style="fill:#ffcc00;"/>
    <path clip-path="url(#p26ccc246ea)" d="M 65.807433 84.27513 
L 82.896291 87.834266 
L 93.967146 84.552741 
L 76.853745 78.186612 
z
" style="fill:#ffff00;"/>
    <path clip-path="url(#p26ccc246ea)" d="M 219.305214 111.971653 
L 237.27223 105.988722 
L 246.954307 104.25545 
L 229.023375 113.873726 
z
" style="fill:#ffd500;"/>
    <path clip-path="url(#p26ccc246ea)" d="M 128.526302 96.597126 
L 145.975537 101.699771 
L 156.591465 104.888761 
L 139.270592 98.298215 
z
" style="fill:#ffe400;"/>
    <path clip-path="url(#p26ccc246ea)" d="M 246.954307 104.25545 
L 265.322706 91.685265 
L 274.897459 85.480691 
L 256.432327 103.257764 
z
" style="fill:#ffec00;"/>
    <path clip-path="url(#p26ccc246ea)" d="M 191.585832 111.366195 
L 209.361222 110.854777 
L 219.305214 111.971653 
L 201.650391 114.680265 
z
" style="fill:#ffd400;"/>
    <path clip-path="url(#p26ccc246ea)" d="M 82.896291 87.834266 
L 100.1422 91.426111 
L 111.191724 90.773905 
L 93.967146 84.552741 
z
" style="fill:#fffc00;"/>
    <path clip-path="url(#p26ccc246ea)" d="M 145.975537 101.699771 
L 163.553414 105.77067 
L 174.014444 109.374681 
L 156.591465 104.888761 
z
" style="fill:#ffe100;"/>
    <path clip-path="url(#p26ccc246ea)" d="M 100.1422 91.426111 
L 117.547337 95.051119 
L 128.526302 96.597126 
L 111.191724 90.773905 
z
" style="fill:#fffa00;"/>
    <path clip-path="url(#p26ccc246ea)" d="M 163.553414 105.77067 
L 181.283533 108.620051 
L 191.585832 111.366195 
L 174.014444 109.374681 
z
" style="fill:#ffe200;"/>
    <path clip-path="url(#p26ccc246ea)" d="M 237.27223 105.988722 
L 255.594267 97.989429 
L 265.322706 91.685265 
L 246.954307 104.25545 
z
" style="fill:#fff200;"/>
    <path clip-path="url(#p26ccc246ea)" d="M 209.361222 110.854777 
L 227.391694 108.250274 
L 237.27223 105.988722 
L 219.305214 111.971653 
z
" style="fill:#ffe300;"/>
    <path clip-path="url(#p26ccc246ea)" d="M 117.547337 95.051119 
L 135.113915 98.709751 
L 145.975537 101.699771 
L 128.526302 96.597126 
z
" style="fill:#fff800;"/>
    <path clip-path="url(#p26ccc246ea)" d="M 181.283533 108.620051 
L 199.194838 110.248304 
L 209.361222 110.854777 
L 191.585832 111.366195 
z
" style="fill:#ffe700;"/>
    <path clip-path="url(#p26ccc246ea)" d="M 135.113915 98.709751 
L 152.844193 102.402477 
L 163.553414 105.77067 
L 145.975537 101.699771 
z
" style="fill:#fff700;"/>
    <path clip-path="url(#p26ccc246ea)" d="M 227.391694 108.250274 
L 245.708413 104.3956 
L 255.594267 97.989429 
L 237.27223 105.988722 
z
" style="fill:#fff600;"/>
    <path clip-path="url(#p26ccc246ea)" d="M 199.194838 110.248304 
L 217.314721 110.868575 
L 227.391694 108.250274 
L 209.361222 110.854777 
z
" style="fill:#fff000;"/>
    <path clip-path="url(#p26ccc246ea)" d="M 152.844193 102.402477 
L 170.740468 106.129776 
L 181.283533 108.620051 
L 163.553414 105.77067 
z
" style="fill:#fff700;"/>
    <path clip-path="url(#p26ccc246ea)" d="M 170.740468 106.129776 
L 188.805083 109.892135 
L 199.194838 110.248304 
L 181.283533 108.620051 
z
" style="fill:#fff800;"/>
    <path clip-path="url(#p26ccc246ea)" d="M 217.314721 110.868575 
L 235.661291 110.906275 
L 245.708413 104.3956 
L 227.391694 108.250274 
z
" style="fill:#fffb00;"/>
    <path clip-path="url(#p26ccc246ea)" d="M 188.805083 109.892135 
L 207.040424 113.690052 
L 217.314721 110.868575 
L 199.194838 110.248304 
z
" style="fill:#fffb00;"/>
    <path clip-path="url(#p26ccc246ea)" d="M 207.040424 113.690052 
L 225.448924 117.524032 
L 235.661291 110.906275 
L 217.314721 110.868575 
z
" style="fill:#ffff00;"/>
   </g>
   <g id="text_21">
    <!-- Con nr=10- surf del potencial de la Reg.1-Eo. -->
    <defs>
     <path d="M 64.40625 67.28125 
L 64.40625 56.890625 
Q 59.421875 61.53125 53.78125 63.8125 
Q 48.140625 66.109375 41.796875 66.109375 
Q 29.296875 66.109375 22.65625 58.46875 
Q 16.015625 50.828125 16.015625 36.375 
Q 16.015625 21.96875 22.65625 14.328125 
Q 29.296875 6.6875 41.796875 6.6875 
Q 48.140625 6.6875 53.78125 8.984375 
Q 59.421875 11.28125 64.40625 15.921875 
L 64.40625 5.609375 
Q 59.234375 2.09375 53.4375 0.328125 
Q 47.65625 -1.421875 41.21875 -1.421875 
Q 24.65625 -1.421875 15.125 8.703125 
Q 5.609375 18.84375 5.609375 36.375 
Q 5.609375 53.953125 15.125 64.078125 
Q 24.65625 74.21875 41.21875 74.21875 
Q 47.75 74.21875 53.53125 72.484375 
Q 59.328125 70.75 64.40625 67.28125 
z
" id="DejaVuSans-67"/>
     <path d="M 30.609375 48.390625 
Q 23.390625 48.390625 19.1875 42.75 
Q 14.984375 37.109375 14.984375 27.296875 
Q 14.984375 17.484375 19.15625 11.84375 
Q 23.34375 6.203125 30.609375 6.203125 
Q 37.796875 6.203125 41.984375 11.859375 
Q 46.1875 17.53125 46.1875 27.296875 
Q 46.1875 37.015625 41.984375 42.703125 
Q 37.796875 48.390625 30.609375 48.390625 
z
M 30.609375 56 
Q 42.328125 56 49.015625 48.375 
Q 55.71875 40.765625 55.71875 27.296875 
Q 55.71875 13.875 49.015625 6.21875 
Q 42.328125 -1.421875 30.609375 -1.421875 
Q 18.84375 -1.421875 12.171875 6.21875 
Q 5.515625 13.875 5.515625 27.296875 
Q 5.515625 40.765625 12.171875 48.375 
Q 18.84375 56 30.609375 56 
z
" id="DejaVuSans-111"/>
     <path d="M 54.890625 33.015625 
L 54.890625 0 
L 45.90625 0 
L 45.90625 32.71875 
Q 45.90625 40.484375 42.875 44.328125 
Q 39.84375 48.1875 33.796875 48.1875 
Q 26.515625 48.1875 22.3125 43.546875 
Q 18.109375 38.921875 18.109375 30.90625 
L 18.109375 0 
L 9.078125 0 
L 9.078125 54.6875 
L 18.109375 54.6875 
L 18.109375 46.1875 
Q 21.34375 51.125 25.703125 53.5625 
Q 30.078125 56 35.796875 56 
Q 45.21875 56 50.046875 50.171875 
Q 54.890625 44.34375 54.890625 33.015625 
z
" id="DejaVuSans-110"/>
     <path id="DejaVuSans-32"/>
     <path d="M 41.109375 46.296875 
Q 39.59375 47.171875 37.8125 47.578125 
Q 36.03125 48 33.890625 48 
Q 26.265625 48 22.1875 43.046875 
Q 18.109375 38.09375 18.109375 28.8125 
L 18.109375 0 
L 9.078125 0 
L 9.078125 54.6875 
L 18.109375 54.6875 
L 18.109375 46.1875 
Q 20.953125 51.171875 25.484375 53.578125 
Q 30.03125 56 36.53125 56 
Q 37.453125 56 38.578125 55.875 
Q 39.703125 55.765625 41.0625 55.515625 
z
" id="DejaVuSans-114"/>
     <path d="M 10.59375 45.40625 
L 73.1875 45.40625 
L 73.1875 37.203125 
L 10.59375 37.203125 
z
M 10.59375 25.484375 
L 73.1875 25.484375 
L 73.1875 17.1875 
L 10.59375 17.1875 
z
" id="DejaVuSans-61"/>
     <path d="M 4.890625 31.390625 
L 31.203125 31.390625 
L 31.203125 23.390625 
L 4.890625 23.390625 
z
" id="DejaVuSans-45"/>
     <path d="M 44.28125 53.078125 
L 44.28125 44.578125 
Q 40.484375 46.53125 36.375 47.5 
Q 32.28125 48.484375 27.875 48.484375 
Q 21.1875 48.484375 17.84375 46.4375 
Q 14.5 44.390625 14.5 40.28125 
Q 14.5 37.15625 16.890625 35.375 
Q 19.28125 33.59375 26.515625 31.984375 
L 29.59375 31.296875 
Q 39.15625 29.25 43.1875 25.515625 
Q 47.21875 21.78125 47.21875 15.09375 
Q 47.21875 7.46875 41.1875 3.015625 
Q 35.15625 -1.421875 24.609375 -1.421875 
Q 20.21875 -1.421875 15.453125 -0.5625 
Q 10.6875 0.296875 5.421875 2 
L 5.421875 11.28125 
Q 10.40625 8.6875 15.234375 7.390625 
Q 20.0625 6.109375 24.8125 6.109375 
Q 31.15625 6.109375 34.5625 8.28125 
Q 37.984375 10.453125 37.984375 14.40625 
Q 37.984375 18.0625 35.515625 20.015625 
Q 33.0625 21.96875 24.703125 23.78125 
L 21.578125 24.515625 
Q 13.234375 26.265625 9.515625 29.90625 
Q 5.8125 33.546875 5.8125 39.890625 
Q 5.8125 47.609375 11.28125 51.796875 
Q 16.75 56 26.8125 56 
Q 31.78125 56 36.171875 55.265625 
Q 40.578125 54.546875 44.28125 53.078125 
z
" id="DejaVuSans-115"/>
     <path d="M 8.5 21.578125 
L 8.5 54.6875 
L 17.484375 54.6875 
L 17.484375 21.921875 
Q 17.484375 14.15625 20.5 10.265625 
Q 23.53125 6.390625 29.59375 6.390625 
Q 36.859375 6.390625 41.078125 11.03125 
Q 45.3125 15.671875 45.3125 23.6875 
L 45.3125 54.6875 
L 54.296875 54.6875 
L 54.296875 0 
L 45.3125 0 
L 45.3125 8.40625 
Q 42.046875 3.421875 37.71875 1 
Q 33.40625 -1.421875 27.6875 -1.421875 
Q 18.265625 -1.421875 13.375 4.4375 
Q 8.5 10.296875 8.5 21.578125 
z
M 31.109375 56 
z
" id="DejaVuSans-117"/>
     <path d="M 37.109375 75.984375 
L 37.109375 68.5 
L 28.515625 68.5 
Q 23.6875 68.5 21.796875 66.546875 
Q 19.921875 64.59375 19.921875 59.515625 
L 19.921875 54.6875 
L 34.71875 54.6875 
L 34.71875 47.703125 
L 19.921875 47.703125 
L 19.921875 0 
L 10.890625 0 
L 10.890625 47.703125 
L 2.296875 47.703125 
L 2.296875 54.6875 
L 10.890625 54.6875 
L 10.890625 58.5 
Q 10.890625 67.625 15.140625 71.796875 
Q 19.390625 75.984375 28.609375 75.984375 
z
" id="DejaVuSans-102"/>
     <path d="M 45.40625 46.390625 
L 45.40625 75.984375 
L 54.390625 75.984375 
L 54.390625 0 
L 45.40625 0 
L 45.40625 8.203125 
Q 42.578125 3.328125 38.25 0.953125 
Q 33.9375 -1.421875 27.875 -1.421875 
Q 17.96875 -1.421875 11.734375 6.484375 
Q 5.515625 14.40625 5.515625 27.296875 
Q 5.515625 40.1875 11.734375 48.09375 
Q 17.96875 56 27.875 56 
Q 33.9375 56 38.25 53.625 
Q 42.578125 51.265625 45.40625 46.390625 
z
M 14.796875 27.296875 
Q 14.796875 17.390625 18.875 11.75 
Q 22.953125 6.109375 30.078125 6.109375 
Q 37.203125 6.109375 41.296875 11.75 
Q 45.40625 17.390625 45.40625 27.296875 
Q 45.40625 37.203125 41.296875 42.84375 
Q 37.203125 48.484375 30.078125 48.484375 
Q 22.953125 48.484375 18.875 42.84375 
Q 14.796875 37.203125 14.796875 27.296875 
z
" id="DejaVuSans-100"/>
     <path d="M 56.203125 29.59375 
L 56.203125 25.203125 
L 14.890625 25.203125 
Q 15.484375 15.921875 20.484375 11.0625 
Q 25.484375 6.203125 34.421875 6.203125 
Q 39.59375 6.203125 44.453125 7.46875 
Q 49.3125 8.734375 54.109375 11.28125 
L 54.109375 2.78125 
Q 49.265625 0.734375 44.1875 -0.34375 
Q 39.109375 -1.421875 33.890625 -1.421875 
Q 20.796875 -1.421875 13.15625 6.1875 
Q 5.515625 13.8125 5.515625 26.8125 
Q 5.515625 40.234375 12.765625 48.109375 
Q 20.015625 56 32.328125 56 
Q 43.359375 56 49.78125 48.890625 
Q 56.203125 41.796875 56.203125 29.59375 
z
M 47.21875 32.234375 
Q 47.125 39.59375 43.09375 43.984375 
Q 39.0625 48.390625 32.421875 48.390625 
Q 24.90625 48.390625 20.390625 44.140625 
Q 15.875 39.890625 15.1875 32.171875 
z
" id="DejaVuSans-101"/>
     <path d="M 9.421875 75.984375 
L 18.40625 75.984375 
L 18.40625 0 
L 9.421875 0 
z
" id="DejaVuSans-108"/>
     <path d="M 18.109375 8.203125 
L 18.109375 -20.796875 
L 9.078125 -20.796875 
L 9.078125 54.6875 
L 18.109375 54.6875 
L 18.109375 46.390625 
Q 20.953125 51.265625 25.265625 53.625 
Q 29.59375 56 35.59375 56 
Q 45.5625 56 51.78125 48.09375 
Q 58.015625 40.1875 58.015625 27.296875 
Q 58.015625 14.40625 51.78125 6.484375 
Q 45.5625 -1.421875 35.59375 -1.421875 
Q 29.59375 -1.421875 25.265625 0.953125 
Q 20.953125 3.328125 18.109375 8.203125 
z
M 48.6875 27.296875 
Q 48.6875 37.203125 44.609375 42.84375 
Q 40.53125 48.484375 33.40625 48.484375 
Q 26.265625 48.484375 22.1875 42.84375 
Q 18.109375 37.203125 18.109375 27.296875 
Q 18.109375 17.390625 22.1875 11.75 
Q 26.265625 6.109375 33.40625 6.109375 
Q 40.53125 6.109375 44.609375 11.75 
Q 48.6875 17.390625 48.6875 27.296875 
z
" id="DejaVuSans-112"/>
     <path d="M 18.3125 70.21875 
L 18.3125 54.6875 
L 36.8125 54.6875 
L 36.8125 47.703125 
L 18.3125 47.703125 
L 18.3125 18.015625 
Q 18.3125 11.328125 20.140625 9.421875 
Q 21.96875 7.515625 27.59375 7.515625 
L 36.8125 7.515625 
L 36.8125 0 
L 27.59375 0 
Q 17.1875 0 13.234375 3.875 
Q 9.28125 7.765625 9.28125 18.015625 
L 9.28125 47.703125 
L 2.6875 47.703125 
L 2.6875 54.6875 
L 9.28125 54.6875 
L 9.28125 70.21875 
z
" id="DejaVuSans-116"/>
     <path d="M 48.78125 52.59375 
L 48.78125 44.1875 
Q 44.96875 46.296875 41.140625 47.34375 
Q 37.3125 48.390625 33.40625 48.390625 
Q 24.65625 48.390625 19.8125 42.84375 
Q 14.984375 37.3125 14.984375 27.296875 
Q 14.984375 17.28125 19.8125 11.734375 
Q 24.65625 6.203125 33.40625 6.203125 
Q 37.3125 6.203125 41.140625 7.25 
Q 44.96875 8.296875 48.78125 10.40625 
L 48.78125 2.09375 
Q 45.015625 0.34375 40.984375 -0.53125 
Q 36.96875 -1.421875 32.421875 -1.421875 
Q 20.0625 -1.421875 12.78125 6.34375 
Q 5.515625 14.109375 5.515625 27.296875 
Q 5.515625 40.671875 12.859375 48.328125 
Q 20.21875 56 33.015625 56 
Q 37.15625 56 41.109375 55.140625 
Q 45.0625 54.296875 48.78125 52.59375 
z
" id="DejaVuSans-99"/>
     <path d="M 9.421875 54.6875 
L 18.40625 54.6875 
L 18.40625 0 
L 9.421875 0 
z
M 9.421875 75.984375 
L 18.40625 75.984375 
L 18.40625 64.59375 
L 9.421875 64.59375 
z
" id="DejaVuSans-105"/>
     <path d="M 34.28125 27.484375 
Q 23.390625 27.484375 19.1875 25 
Q 14.984375 22.515625 14.984375 16.5 
Q 14.984375 11.71875 18.140625 8.90625 
Q 21.296875 6.109375 26.703125 6.109375 
Q 34.1875 6.109375 38.703125 11.40625 
Q 43.21875 16.703125 43.21875 25.484375 
L 43.21875 27.484375 
z
M 52.203125 31.203125 
L 52.203125 0 
L 43.21875 0 
L 43.21875 8.296875 
Q 40.140625 3.328125 35.546875 0.953125 
Q 30.953125 -1.421875 24.3125 -1.421875 
Q 15.921875 -1.421875 10.953125 3.296875 
Q 6 8.015625 6 15.921875 
Q 6 25.140625 12.171875 29.828125 
Q 18.359375 34.515625 30.609375 34.515625 
L 43.21875 34.515625 
L 43.21875 35.40625 
Q 43.21875 41.609375 39.140625 45 
Q 35.0625 48.390625 27.6875 48.390625 
Q 23 48.390625 18.546875 47.265625 
Q 14.109375 46.140625 10.015625 43.890625 
L 10.015625 52.203125 
Q 14.9375 54.109375 19.578125 55.046875 
Q 24.21875 56 28.609375 56 
Q 40.484375 56 46.34375 49.84375 
Q 52.203125 43.703125 52.203125 31.203125 
z
" id="DejaVuSans-97"/>
     <path d="M 44.390625 34.1875 
Q 47.5625 33.109375 50.5625 29.59375 
Q 53.5625 26.078125 56.59375 19.921875 
L 66.609375 0 
L 56 0 
L 46.6875 18.703125 
Q 43.0625 26.03125 39.671875 28.421875 
Q 36.28125 30.8125 30.421875 30.8125 
L 19.671875 30.8125 
L 19.671875 0 
L 9.8125 0 
L 9.8125 72.90625 
L 32.078125 72.90625 
Q 44.578125 72.90625 50.734375 67.671875 
Q 56.890625 62.453125 56.890625 51.90625 
Q 56.890625 45.015625 53.6875 40.46875 
Q 50.484375 35.9375 44.390625 34.1875 
z
M 19.671875 64.796875 
L 19.671875 38.921875 
L 32.078125 38.921875 
Q 39.203125 38.921875 42.84375 42.21875 
Q 46.484375 45.515625 46.484375 51.90625 
Q 46.484375 58.296875 42.84375 61.546875 
Q 39.203125 64.796875 32.078125 64.796875 
z
" id="DejaVuSans-82"/>
     <path d="M 45.40625 27.984375 
Q 45.40625 37.75 41.375 43.109375 
Q 37.359375 48.484375 30.078125 48.484375 
Q 22.859375 48.484375 18.828125 43.109375 
Q 14.796875 37.75 14.796875 27.984375 
Q 14.796875 18.265625 18.828125 12.890625 
Q 22.859375 7.515625 30.078125 7.515625 
Q 37.359375 7.515625 41.375 12.890625 
Q 45.40625 18.265625 45.40625 27.984375 
z
M 54.390625 6.78125 
Q 54.390625 -7.171875 48.1875 -13.984375 
Q 42 -20.796875 29.203125 -20.796875 
Q 24.46875 -20.796875 20.265625 -20.09375 
Q 16.0625 -19.390625 12.109375 -17.921875 
L 12.109375 -9.1875 
Q 16.0625 -11.328125 19.921875 -12.34375 
Q 23.78125 -13.375 27.78125 -13.375 
Q 36.625 -13.375 41.015625 -8.765625 
Q 45.40625 -4.15625 45.40625 5.171875 
L 45.40625 9.625 
Q 42.625 4.78125 38.28125 2.390625 
Q 33.9375 0 27.875 0 
Q 17.828125 0 11.671875 7.65625 
Q 5.515625 15.328125 5.515625 27.984375 
Q 5.515625 40.671875 11.671875 48.328125 
Q 17.828125 56 27.875 56 
Q 33.9375 56 38.28125 53.609375 
Q 42.625 51.21875 45.40625 46.390625 
L 45.40625 54.6875 
L 54.390625 54.6875 
z
" id="DejaVuSans-103"/>
     <path d="M 9.8125 72.90625 
L 55.90625 72.90625 
L 55.90625 64.59375 
L 19.671875 64.59375 
L 19.671875 43.015625 
L 54.390625 43.015625 
L 54.390625 34.71875 
L 19.671875 34.71875 
L 19.671875 8.296875 
L 56.78125 8.296875 
L 56.78125 0 
L 9.8125 0 
z
" id="DejaVuSans-69"/>
    </defs>
    <g transform="translate(49.572188 22.48896)scale(0.12 -0.12)">
     <use xlink:href="#DejaVuSans-67"/>
     <use x="69.824219" xlink:href="#DejaVuSans-111"/>
     <use x="131.005859" xlink:href="#DejaVuSans-110"/>
     <use x="194.384766" xlink:href="#DejaVuSans-32"/>
     <use x="226.171875" xlink:href="#DejaVuSans-110"/>
     <use x="289.550781" xlink:href="#DejaVuSans-114"/>
     <use x="330.664062" xlink:href="#DejaVuSans-61"/>
     <use x="414.453125" xlink:href="#DejaVuSans-49"/>
     <use x="478.076172" xlink:href="#DejaVuSans-48"/>
     <use x="541.699219" xlink:href="#DejaVuSans-45"/>
     <use x="577.783203" xlink:href="#DejaVuSans-32"/>
     <use x="609.570312" xlink:href="#DejaVuSans-115"/>
     <use x="661.669922" xlink:href="#DejaVuSans-117"/>
     <use x="725.048828" xlink:href="#DejaVuSans-114"/>
     <use x="766.162109" xlink:href="#DejaVuSans-102"/>
     <use x="801.367188" xlink:href="#DejaVuSans-32"/>
     <use x="833.154297" xlink:href="#DejaVuSans-100"/>
     <use x="896.630859" xlink:href="#DejaVuSans-101"/>
     <use x="958.154297" xlink:href="#DejaVuSans-108"/>
     <use x="985.9375" xlink:href="#DejaVuSans-32"/>
     <use x="1017.724609" xlink:href="#DejaVuSans-112"/>
     <use x="1081.201172" xlink:href="#DejaVuSans-111"/>
     <use x="1142.382812" xlink:href="#DejaVuSans-116"/>
     <use x="1181.591797" xlink:href="#DejaVuSans-101"/>
     <use x="1243.115234" xlink:href="#DejaVuSans-110"/>
     <use x="1306.494141" xlink:href="#DejaVuSans-99"/>
     <use x="1361.474609" xlink:href="#DejaVuSans-105"/>
     <use x="1389.257812" xlink:href="#DejaVuSans-97"/>
     <use x="1450.537109" xlink:href="#DejaVuSans-108"/>
     <use x="1478.320312" xlink:href="#DejaVuSans-32"/>
     <use x="1510.107422" xlink:href="#DejaVuSans-100"/>
     <use x="1573.583984" xlink:href="#DejaVuSans-101"/>
     <use x="1635.107422" xlink:href="#DejaVuSans-32"/>
     <use x="1666.894531" xlink:href="#DejaVuSans-108"/>
     <use x="1694.677734" xlink:href="#DejaVuSans-97"/>
     <use x="1755.957031" xlink:href="#DejaVuSans-32"/>
     <use x="1787.744141" xlink:href="#DejaVuSans-82"/>
     <use x="1857.164062" xlink:href="#DejaVuSans-101"/>
     <use x="1918.6875" xlink:href="#DejaVuSans-103"/>
     <use x="1982.164062" xlink:href="#DejaVuSans-46"/>
     <use x="2013.951172" xlink:href="#DejaVuSans-49"/>
     <use x="2077.574219" xlink:href="#DejaVuSans-45"/>
     <use x="2113.658203" xlink:href="#DejaVuSans-69"/>
     <use x="2176.841797" xlink:href="#DejaVuSans-111"/>
     <use x="2238.007812" xlink:href="#DejaVuSans-46"/>
    </g>
   </g>
  </g>
 </g>
 <defs>
  <clipPath id="p26ccc246ea">
   <rect height="266.112" width="357.12" x="7.2" y="7.2"/>
  </clipPath>
 </defs>
</svg>
