<?xml version="1.0" encoding="utf-8" standalone="no"?>
<!DOCTYPE svg PUBLIC "-//W3C//DTD SVG 1.1//EN"
  "http://www.w3.org/Graphics/SVG/1.1/DTD/svg11.dtd">
<!-- Created with matplotlib (https://matplotlib.org/) -->
<svg height="345.6pt" version="1.1" viewBox="0 0 460.8 345.6" width="460.8pt" xmlns="http://www.w3.org/2000/svg" xmlns:xlink="http://www.w3.org/1999/xlink">
 <defs>
  <style type="text/css">
*{stroke-linecap:butt;stroke-linejoin:round;}
  </style>
 </defs>
 <g id="figure_1">
  <g id="patch_1">
   <path d="M 0 345.6 
L 460.8 345.6 
L 460.8 0 
L 0 0 
z
" style="fill:#ffffff;"/>
  </g>
  <g id="patch_2">
   <path d="M 57.6 307.584 
L 414.72 307.584 
L 414.72 41.472 
L 57.6 41.472 
z
" style="fill:#ffffff;"/>
  </g>
  <g id="pane3d_1">
   <g id="patch_3">
    <path d="M 104.941774 248.782626 
L 207.151387 183.537994 
L 205.449705 58.866209 
L 97.541237 117.48717 
" style="fill:#f2f2f2;opacity:0.5;stroke:#f2f2f2;stroke-linejoin:miter;"/>
   </g>
  </g>
  <g id="pane3d_2">
   <g id="patch_4">
    <path d="M 207.151387 183.537994 
L 372.72135 220.013954 
L 379.648599 91.582742 
L 205.449705 58.866209 
" style="fill:#e6e6e6;opacity:0.5;stroke:#e6e6e6;stroke-linejoin:miter;"/>
   </g>
  </g>
  <g id="pane3d_3">
   <g id="patch_5">
    <path d="M 104.941774 248.782626 
L 279.143747 291.264825 
L 372.72135 220.013954 
L 207.151387 183.537994 
" style="fill:#ececec;opacity:0.5;stroke:#ececec;stroke-linejoin:miter;"/>
   </g>
  </g>
  <g id="axis3d_1">
   <g id="line2d_1">
    <path d="M 104.941774 248.782626 
L 279.143747 291.264825 
" style="fill:none;stroke:#000000;stroke-linecap:square;stroke-width:0.8;"/>
   </g>
   <g id="Line3DCollection_1">
    <path d="M 115.562252 251.372616 
L 217.277438 185.768818 
L 216.081723 60.863023 
" style="fill:none;stroke:#b0b0b0;stroke-width:0.8;"/>
    <path d="M 140.06655 257.348417 
L 240.625146 190.912444 
L 240.606833 65.469117 
" style="fill:none;stroke:#b0b0b0;stroke-width:0.8;"/>
    <path d="M 164.894475 263.403141 
L 264.258726 196.11905 
L 265.44757 70.13449 
" style="fill:none;stroke:#b0b0b0;stroke-width:0.8;"/>
    <path d="M 190.052479 269.538361 
L 288.183461 201.389799 
L 290.610069 74.860294 
" style="fill:none;stroke:#b0b0b0;stroke-width:0.8;"/>
    <path d="M 215.547191 275.755692 
L 312.404765 206.725883 
L 316.10062 79.647709 
" style="fill:none;stroke:#b0b0b0;stroke-width:0.8;"/>
    <path d="M 241.385413 282.056795 
L 336.928186 212.128526 
L 341.925682 84.497949 
" style="fill:none;stroke:#b0b0b0;stroke-width:0.8;"/>
    <path d="M 267.574137 288.443373 
L 361.759413 217.59898 
L 368.091882 89.412259 
" style="fill:none;stroke:#b0b0b0;stroke-width:0.8;"/>
   </g>
   <g id="xtick_1">
    <g id="line2d_2">
     <path d="M 116.438581 250.807405 
L 113.806326 252.505145 
" style="fill:none;stroke:#000000;stroke-linecap:square;stroke-width:0.8;"/>
    </g>
    <g id="text_1">
     <!-- 0 -->
     <defs>
      <path d="M 31.78125 66.40625 
Q 24.171875 66.40625 20.328125 58.90625 
Q 16.5 51.421875 16.5 36.375 
Q 16.5 21.390625 20.328125 13.890625 
Q 24.171875 6.390625 31.78125 6.390625 
Q 39.453125 6.390625 43.28125 13.890625 
Q 47.125 21.390625 47.125 36.375 
Q 47.125 51.421875 43.28125 58.90625 
Q 39.453125 66.40625 31.78125 66.40625 
z
M 31.78125 74.21875 
Q 44.046875 74.21875 50.515625 64.515625 
Q 56.984375 54.828125 56.984375 36.375 
Q 56.984375 17.96875 50.515625 8.265625 
Q 44.046875 -1.421875 31.78125 -1.421875 
Q 19.53125 -1.421875 13.0625 8.265625 
Q 6.59375 17.96875 6.59375 36.375 
Q 6.59375 54.828125 13.0625 64.515625 
Q 19.53125 74.21875 31.78125 74.21875 
z
" id="DejaVuSans-48"/>
     </defs>
     <g transform="translate(105.060879 272.84452)scale(0.1 -0.1)">
      <use xlink:href="#DejaVuSans-48"/>
     </g>
    </g>
   </g>
   <g id="xtick_2">
    <g id="line2d_3">
     <path d="M 140.93332 256.775769 
L 138.329756 258.495864 
" style="fill:none;stroke:#000000;stroke-linecap:square;stroke-width:0.8;"/>
    </g>
    <g id="text_2">
     <!-- 1 -->
     <defs>
      <path d="M 12.40625 8.296875 
L 28.515625 8.296875 
L 28.515625 63.921875 
L 10.984375 60.40625 
L 10.984375 69.390625 
L 28.421875 72.90625 
L 38.28125 72.90625 
L 38.28125 8.296875 
L 54.390625 8.296875 
L 54.390625 0 
L 12.40625 0 
z
" id="DejaVuSans-49"/>
     </defs>
     <g transform="translate(129.562363 278.922548)scale(0.1 -0.1)">
      <use xlink:href="#DejaVuSans-49"/>
     </g>
    </g>
   </g>
   <g id="xtick_3">
    <g id="line2d_4">
     <path d="M 165.751356 262.822908 
L 163.177474 264.565801 
" style="fill:none;stroke:#000000;stroke-linecap:square;stroke-width:0.8;"/>
    </g>
    <g id="text_3">
     <!-- 2 -->
     <defs>
      <path d="M 19.1875 8.296875 
L 53.609375 8.296875 
L 53.609375 0 
L 7.328125 0 
L 7.328125 8.296875 
Q 12.9375 14.109375 22.625 23.890625 
Q 32.328125 33.6875 34.8125 36.53125 
Q 39.546875 41.84375 41.421875 45.53125 
Q 43.3125 49.21875 43.3125 52.78125 
Q 43.3125 58.59375 39.234375 62.25 
Q 35.15625 65.921875 28.609375 65.921875 
Q 23.96875 65.921875 18.8125 64.3125 
Q 13.671875 62.703125 7.8125 59.421875 
L 7.8125 69.390625 
Q 13.765625 71.78125 18.9375 73 
Q 24.125 74.21875 28.421875 74.21875 
Q 39.75 74.21875 46.484375 68.546875 
Q 53.21875 62.890625 53.21875 53.421875 
Q 53.21875 48.921875 51.53125 44.890625 
Q 49.859375 40.875 45.40625 35.40625 
Q 44.1875 33.984375 37.640625 27.21875 
Q 31.109375 20.453125 19.1875 8.296875 
z
" id="DejaVuSans-50"/>
     </defs>
     <g transform="translate(154.388037 285.080998)scale(0.1 -0.1)">
      <use xlink:href="#DejaVuSans-50"/>
     </g>
    </g>
   </g>
   <g id="xtick_4">
    <g id="line2d_5">
     <path d="M 190.899132 268.95039 
L 188.355953 270.716539 
" style="fill:none;stroke:#000000;stroke-linecap:square;stroke-width:0.8;"/>
    </g>
    <g id="text_4">
     <!-- 3 -->
     <defs>
      <path d="M 40.578125 39.3125 
Q 47.65625 37.796875 51.625 33 
Q 55.609375 28.21875 55.609375 21.1875 
Q 55.609375 10.40625 48.1875 4.484375 
Q 40.765625 -1.421875 27.09375 -1.421875 
Q 22.515625 -1.421875 17.65625 -0.515625 
Q 12.796875 0.390625 7.625 2.203125 
L 7.625 11.71875 
Q 11.71875 9.328125 16.59375 8.109375 
Q 21.484375 6.890625 26.8125 6.890625 
Q 36.078125 6.890625 40.9375 10.546875 
Q 45.796875 14.203125 45.796875 21.1875 
Q 45.796875 27.640625 41.28125 31.265625 
Q 36.765625 34.90625 28.71875 34.90625 
L 20.21875 34.90625 
L 20.21875 43.015625 
L 29.109375 43.015625 
Q 36.375 43.015625 40.234375 45.921875 
Q 44.09375 48.828125 44.09375 54.296875 
Q 44.09375 59.90625 40.109375 62.90625 
Q 36.140625 65.921875 28.71875 65.921875 
Q 24.65625 65.921875 20.015625 65.03125 
Q 15.375 64.15625 9.8125 62.3125 
L 9.8125 71.09375 
Q 15.4375 72.65625 20.34375 73.4375 
Q 25.25 74.21875 29.59375 74.21875 
Q 40.828125 74.21875 47.359375 69.109375 
Q 53.90625 64.015625 53.90625 55.328125 
Q 53.90625 49.265625 50.4375 45.09375 
Q 46.96875 40.921875 40.578125 39.3125 
z
" id="DejaVuSans-51"/>
     </defs>
     <g transform="translate(179.54438 291.321475)scale(0.1 -0.1)">
      <use xlink:href="#DejaVuSans-51"/>
     </g>
    </g>
   </g>
   <g id="xtick_5">
    <g id="line2d_6">
     <path d="M 216.383263 275.159828 
L 213.871843 276.949702 
" style="fill:none;stroke:#000000;stroke-linecap:square;stroke-width:0.8;"/>
    </g>
    <g id="text_5">
     <!-- 4 -->
     <defs>
      <path d="M 37.796875 64.3125 
L 12.890625 25.390625 
L 37.796875 25.390625 
z
M 35.203125 72.90625 
L 47.609375 72.90625 
L 47.609375 25.390625 
L 58.015625 25.390625 
L 58.015625 17.1875 
L 47.609375 17.1875 
L 47.609375 0 
L 37.796875 0 
L 37.796875 17.1875 
L 4.890625 17.1875 
L 4.890625 26.703125 
z
" id="DejaVuSans-52"/>
     </defs>
     <g transform="translate(205.038042 297.64563)scale(0.1 -0.1)">
      <use xlink:href="#DejaVuSans-52"/>
     </g>
    </g>
   </g>
   <g id="xtick_6">
    <g id="line2d_7">
     <path d="M 242.210543 281.452878 
L 239.731972 283.266957 
" style="fill:none;stroke:#000000;stroke-linecap:square;stroke-width:0.8;"/>
    </g>
    <g id="text_6">
     <!-- 5 -->
     <defs>
      <path d="M 10.796875 72.90625 
L 49.515625 72.90625 
L 49.515625 64.59375 
L 19.828125 64.59375 
L 19.828125 46.734375 
Q 21.96875 47.46875 24.109375 47.828125 
Q 26.265625 48.1875 28.421875 48.1875 
Q 40.625 48.1875 47.75 41.5 
Q 54.890625 34.8125 54.890625 23.390625 
Q 54.890625 11.625 47.5625 5.09375 
Q 40.234375 -1.421875 26.90625 -1.421875 
Q 22.3125 -1.421875 17.546875 -0.640625 
Q 12.796875 0.140625 7.71875 1.703125 
L 7.71875 11.625 
Q 12.109375 9.234375 16.796875 8.0625 
Q 21.484375 6.890625 26.703125 6.890625 
Q 35.15625 6.890625 40.078125 11.328125 
Q 45.015625 15.765625 45.015625 23.390625 
Q 45.015625 31 40.078125 35.4375 
Q 35.15625 39.890625 26.703125 39.890625 
Q 22.75 39.890625 18.8125 39.015625 
Q 14.890625 38.140625 10.796875 36.28125 
z
" id="DejaVuSans-53"/>
     </defs>
     <g transform="translate(230.875853 304.055158)scale(0.1 -0.1)">
      <use xlink:href="#DejaVuSans-53"/>
     </g>
    </g>
   </g>
   <g id="xtick_7">
    <g id="line2d_8">
     <path d="M 268.387949 287.831239 
L 265.943353 289.670018 
" style="fill:none;stroke:#000000;stroke-linecap:square;stroke-width:0.8;"/>
    </g>
    <g id="text_7">
     <!-- 6 -->
     <defs>
      <path d="M 33.015625 40.375 
Q 26.375 40.375 22.484375 35.828125 
Q 18.609375 31.296875 18.609375 23.390625 
Q 18.609375 15.53125 22.484375 10.953125 
Q 26.375 6.390625 33.015625 6.390625 
Q 39.65625 6.390625 43.53125 10.953125 
Q 47.40625 15.53125 47.40625 23.390625 
Q 47.40625 31.296875 43.53125 35.828125 
Q 39.65625 40.375 33.015625 40.375 
z
M 52.59375 71.296875 
L 52.59375 62.3125 
Q 48.875 64.0625 45.09375 64.984375 
Q 41.3125 65.921875 37.59375 65.921875 
Q 27.828125 65.921875 22.671875 59.328125 
Q 17.53125 52.734375 16.796875 39.40625 
Q 19.671875 43.65625 24.015625 45.921875 
Q 28.375 48.1875 33.59375 48.1875 
Q 44.578125 48.1875 50.953125 41.515625 
Q 57.328125 34.859375 57.328125 23.390625 
Q 57.328125 12.15625 50.6875 5.359375 
Q 44.046875 -1.421875 33.015625 -1.421875 
Q 20.359375 -1.421875 13.671875 8.265625 
Q 6.984375 17.96875 6.984375 36.375 
Q 6.984375 53.65625 15.1875 63.9375 
Q 23.390625 74.21875 37.203125 74.21875 
Q 40.921875 74.21875 44.703125 73.484375 
Q 48.484375 72.75 52.59375 71.296875 
z
" id="DejaVuSans-54"/>
     </defs>
     <g transform="translate(257.06483 310.551799)scale(0.1 -0.1)">
      <use xlink:href="#DejaVuSans-54"/>
     </g>
    </g>
   </g>
  </g>
  <g id="axis3d_2">
   <g id="line2d_9">
    <path d="M 372.72135 220.013954 
L 279.143747 291.264825 
" style="fill:none;stroke:#000000;stroke-linecap:square;stroke-width:0.8;"/>
   </g>
   <g id="Line3DCollection_2">
    <path d="M 104.930092 113.473196 
L 111.915028 244.331309 
L 285.548062 286.38852 
" style="fill:none;stroke:#b0b0b0;stroke-width:0.8;"/>
    <path d="M 124.810294 102.673334 
L 130.695501 232.342955 
L 302.78167 273.266688 
" style="fill:none;stroke:#b0b0b0;stroke-width:0.8;"/>
    <path d="M 144.142663 92.171081 
L 148.984318 220.668445 
L 319.5437 260.503919 
" style="fill:none;stroke:#b0b0b0;stroke-width:0.8;"/>
    <path d="M 162.949534 81.954303 
L 166.800537 209.295614 
L 335.853248 248.085675 
" style="fill:none;stroke:#b0b0b0;stroke-width:0.8;"/>
    <path d="M 181.252048 72.011516 
L 184.162243 198.212917 
L 351.728392 235.998191 
" style="fill:none;stroke:#b0b0b0;stroke-width:0.8;"/>
    <path d="M 199.070224 62.331844 
L 201.086609 187.409393 
L 367.186258 224.228425 
" style="fill:none;stroke:#b0b0b0;stroke-width:0.8;"/>
   </g>
   <g id="xtick_8">
    <g id="line2d_10">
     <path d="M 284.094906 286.036538 
L 288.457621 287.09327 
" style="fill:none;stroke:#000000;stroke-linecap:square;stroke-width:0.8;"/>
    </g>
    <g id="text_8">
     <!-- 6.0 -->
     <defs>
      <path d="M 10.6875 12.40625 
L 21 12.40625 
L 21 0 
L 10.6875 0 
z
" id="DejaVuSans-46"/>
     </defs>
     <g transform="translate(290.295847 306.144728)scale(0.1 -0.1)">
      <use xlink:href="#DejaVuSans-54"/>
      <use x="63.623047" xlink:href="#DejaVuSans-46"/>
      <use x="95.410156" xlink:href="#DejaVuSans-48"/>
     </g>
    </g>
   </g>
   <g id="xtick_9">
    <g id="line2d_11">
     <path d="M 301.342341 272.924401 
L 305.6635 273.952014 
" style="fill:none;stroke:#000000;stroke-linecap:square;stroke-width:0.8;"/>
    </g>
    <g id="text_9">
     <!-- 6.2 -->
     <g transform="translate(307.344719 292.860928)scale(0.1 -0.1)">
      <use xlink:href="#DejaVuSans-54"/>
      <use x="63.623047" xlink:href="#DejaVuSans-46"/>
      <use x="95.410156" xlink:href="#DejaVuSans-50"/>
     </g>
    </g>
   </g>
   <g id="xtick_10">
    <g id="line2d_12">
     <path d="M 318.11799 260.170933 
L 322.398219 261.170614 
" style="fill:none;stroke:#000000;stroke-linecap:square;stroke-width:0.8;"/>
    </g>
    <g id="text_10">
     <!-- 6.4 -->
     <g transform="translate(323.927299 279.940443)scale(0.1 -0.1)">
      <use xlink:href="#DejaVuSans-54"/>
      <use x="63.623047" xlink:href="#DejaVuSans-46"/>
      <use x="95.410156" xlink:href="#DejaVuSans-52"/>
     </g>
    </g>
   </g>
   <g id="xtick_11">
    <g id="line2d_13">
     <path d="M 334.440952 247.761616 
L 338.68087 248.734488 
" style="fill:none;stroke:#000000;stroke-linecap:square;stroke-width:0.8;"/>
    </g>
    <g id="text_11">
     <!-- 6.6 -->
     <g transform="translate(340.06246 267.36857)scale(0.1 -0.1)">
      <use xlink:href="#DejaVuSans-54"/>
      <use x="63.623047" xlink:href="#DejaVuSans-46"/>
      <use x="95.410156" xlink:href="#DejaVuSans-54"/>
     </g>
    </g>
   </g>
   <g id="xtick_12">
    <g id="line2d_14">
     <path d="M 350.329304 235.682704 
L 354.529527 236.629832 
" style="fill:none;stroke:#000000;stroke-linecap:square;stroke-width:0.8;"/>
    </g>
    <g id="text_12">
     <!-- 6.8 -->
     <defs>
      <path d="M 31.78125 34.625 
Q 24.75 34.625 20.71875 30.859375 
Q 16.703125 27.09375 16.703125 20.515625 
Q 16.703125 13.921875 20.71875 10.15625 
Q 24.75 6.390625 31.78125 6.390625 
Q 38.8125 6.390625 42.859375 10.171875 
Q 46.921875 13.96875 46.921875 20.515625 
Q 46.921875 27.09375 42.890625 30.859375 
Q 38.875 34.625 31.78125 34.625 
z
M 21.921875 38.8125 
Q 15.578125 40.375 12.03125 44.71875 
Q 8.5 49.078125 8.5 55.328125 
Q 8.5 64.0625 14.71875 69.140625 
Q 20.953125 74.21875 31.78125 74.21875 
Q 42.671875 74.21875 48.875 69.140625 
Q 55.078125 64.0625 55.078125 55.328125 
Q 55.078125 49.078125 51.53125 44.71875 
Q 48 40.375 41.703125 38.8125 
Q 48.828125 37.15625 52.796875 32.3125 
Q 56.78125 27.484375 56.78125 20.515625 
Q 56.78125 9.90625 50.3125 4.234375 
Q 43.84375 -1.421875 31.78125 -1.421875 
Q 19.734375 -1.421875 13.25 4.234375 
Q 6.78125 9.90625 6.78125 20.515625 
Q 6.78125 27.484375 10.78125 32.3125 
Q 14.796875 37.15625 21.921875 38.8125 
z
M 18.3125 54.390625 
Q 18.3125 48.734375 21.84375 45.5625 
Q 25.390625 42.390625 31.78125 42.390625 
Q 38.140625 42.390625 41.71875 45.5625 
Q 45.3125 48.734375 45.3125 54.390625 
Q 45.3125 60.0625 41.71875 63.234375 
Q 38.140625 66.40625 31.78125 66.40625 
Q 25.390625 66.40625 21.84375 63.234375 
Q 18.3125 60.0625 18.3125 54.390625 
z
" id="DejaVuSans-56"/>
     </defs>
     <g transform="translate(355.768069 255.131387)scale(0.1 -0.1)">
      <use xlink:href="#DejaVuSans-54"/>
      <use x="63.623047" xlink:href="#DejaVuSans-46"/>
      <use x="95.410156" xlink:href="#DejaVuSans-56"/>
     </g>
    </g>
   </g>
   <g id="xtick_13">
    <g id="line2d_15">
     <path d="M 365.800177 223.921175 
L 369.961313 224.843567 
" style="fill:none;stroke:#000000;stroke-linecap:square;stroke-width:0.8;"/>
    </g>
    <g id="text_13">
     <!-- 7.0 -->
     <defs>
      <path d="M 8.203125 72.90625 
L 55.078125 72.90625 
L 55.078125 68.703125 
L 28.609375 0 
L 18.3125 0 
L 43.21875 64.59375 
L 8.203125 64.59375 
z
" id="DejaVuSans-55"/>
     </defs>
     <g transform="translate(371.061053 243.215704)scale(0.1 -0.1)">
      <use xlink:href="#DejaVuSans-55"/>
      <use x="63.623047" xlink:href="#DejaVuSans-46"/>
      <use x="95.410156" xlink:href="#DejaVuSans-48"/>
     </g>
    </g>
   </g>
  </g>
  <g id="axis3d_3">
   <g id="line2d_16">
    <path d="M 372.72135 220.013954 
L 379.648599 91.582742 
" style="fill:none;stroke:#000000;stroke-linecap:square;stroke-width:0.8;"/>
   </g>
   <g id="Line3DCollection_3">
    <path d="M 373.265505 209.925314 
L 207.017446 173.724993 
L 104.361363 238.48534 
" style="fill:none;stroke:#b0b0b0;stroke-width:0.8;"/>
    <path d="M 374.110207 194.264534 
L 206.809619 158.498748 
L 103.460068 222.495158 
" style="fill:none;stroke:#b0b0b0;stroke-width:0.8;"/>
    <path d="M 374.965767 178.402457 
L 206.599233 143.085041 
L 102.546802 206.292606 
" style="fill:none;stroke:#b0b0b0;stroke-width:0.8;"/>
    <path d="M 375.832394 162.335177 
L 206.38624 127.480387 
L 101.621326 189.873423 
" style="fill:none;stroke:#b0b0b0;stroke-width:0.8;"/>
    <path d="M 376.710306 146.058686 
L 206.170593 111.681217 
L 100.683393 173.233235 
" style="fill:none;stroke:#b0b0b0;stroke-width:0.8;"/>
    <path d="M 377.599725 129.568872 
L 205.95224 95.683871 
L 99.73275 156.367551 
" style="fill:none;stroke:#b0b0b0;stroke-width:0.8;"/>
    <path d="M 378.500876 112.861513 
L 205.731132 79.484597 
L 98.769137 139.271755 
" style="fill:none;stroke:#b0b0b0;stroke-width:0.8;"/>
    <path d="M 379.413996 95.932275 
L 205.507214 63.079546 
L 97.792286 121.941106 
" style="fill:none;stroke:#b0b0b0;stroke-width:0.8;"/>
   </g>
   <g id="xtick_14">
    <g id="line2d_17">
     <path d="M 371.878224 209.623235 
L 376.042962 210.530102 
" style="fill:none;stroke:#000000;stroke-linecap:square;stroke-width:0.8;"/>
    </g>
    <g id="text_14">
     <!-- 0.90 -->
     <defs>
      <path d="M 10.984375 1.515625 
L 10.984375 10.5 
Q 14.703125 8.734375 18.5 7.8125 
Q 22.3125 6.890625 25.984375 6.890625 
Q 35.75 6.890625 40.890625 13.453125 
Q 46.046875 20.015625 46.78125 33.40625 
Q 43.953125 29.203125 39.59375 26.953125 
Q 35.25 24.703125 29.984375 24.703125 
Q 19.046875 24.703125 12.671875 31.3125 
Q 6.296875 37.9375 6.296875 49.421875 
Q 6.296875 60.640625 12.9375 67.421875 
Q 19.578125 74.21875 30.609375 74.21875 
Q 43.265625 74.21875 49.921875 64.515625 
Q 56.59375 54.828125 56.59375 36.375 
Q 56.59375 19.140625 48.40625 8.859375 
Q 40.234375 -1.421875 26.421875 -1.421875 
Q 22.703125 -1.421875 18.890625 -0.6875 
Q 15.09375 0.046875 10.984375 1.515625 
z
M 30.609375 32.421875 
Q 37.25 32.421875 41.125 36.953125 
Q 45.015625 41.5 45.015625 49.421875 
Q 45.015625 57.28125 41.125 61.84375 
Q 37.25 66.40625 30.609375 66.40625 
Q 23.96875 66.40625 20.09375 61.84375 
Q 16.21875 57.28125 16.21875 49.421875 
Q 16.21875 41.5 20.09375 36.953125 
Q 23.96875 32.421875 30.609375 32.421875 
z
" id="DejaVuSans-57"/>
     </defs>
     <g transform="translate(380.538851 215.568853)scale(0.1 -0.1)">
      <use xlink:href="#DejaVuSans-48"/>
      <use x="63.623047" xlink:href="#DejaVuSans-46"/>
      <use x="95.410156" xlink:href="#DejaVuSans-57"/>
      <use x="159.033203" xlink:href="#DejaVuSans-48"/>
     </g>
    </g>
   </g>
   <g id="xtick_15">
    <g id="line2d_18">
     <path d="M 372.713775 193.966002 
L 376.906004 194.862224 
" style="fill:none;stroke:#000000;stroke-linecap:square;stroke-width:0.8;"/>
    </g>
    <g id="text_15">
     <!-- 0.92 -->
     <g transform="translate(381.498913 199.931053)scale(0.1 -0.1)">
      <use xlink:href="#DejaVuSans-48"/>
      <use x="63.623047" xlink:href="#DejaVuSans-46"/>
      <use x="95.410156" xlink:href="#DejaVuSans-57"/>
      <use x="159.033203" xlink:href="#DejaVuSans-50"/>
     </g>
    </g>
   </g>
   <g id="xtick_16">
    <g id="line2d_19">
     <path d="M 373.560062 178.107589 
L 377.780147 178.992815 
" style="fill:none;stroke:#000000;stroke-linecap:square;stroke-width:0.8;"/>
    </g>
    <g id="text_16">
     <!-- 0.94 -->
     <g transform="translate(382.471286 184.092709)scale(0.1 -0.1)">
      <use xlink:href="#DejaVuSans-48"/>
      <use x="63.623047" xlink:href="#DejaVuSans-46"/>
      <use x="95.410156" xlink:href="#DejaVuSans-57"/>
      <use x="159.033203" xlink:href="#DejaVuSans-52"/>
     </g>
    </g>
   </g>
   <g id="xtick_17">
    <g id="line2d_20">
     <path d="M 374.417293 162.044093 
L 378.665607 162.917964 
" style="fill:none;stroke:#000000;stroke-linecap:square;stroke-width:0.8;"/>
    </g>
    <g id="text_17">
     <!-- 0.96 -->
     <g transform="translate(383.456211 168.049939)scale(0.1 -0.1)">
      <use xlink:href="#DejaVuSans-48"/>
      <use x="63.623047" xlink:href="#DejaVuSans-46"/>
      <use x="95.410156" xlink:href="#DejaVuSans-57"/>
      <use x="159.033203" xlink:href="#DejaVuSans-54"/>
     </g>
    </g>
   </g>
   <g id="xtick_18">
    <g id="line2d_21">
     <path d="M 375.285683 145.77151 
L 379.562604 146.633654 
" style="fill:none;stroke:#000000;stroke-linecap:square;stroke-width:0.8;"/>
    </g>
    <g id="text_18">
     <!-- 0.98 -->
     <g transform="translate(384.45393 151.798759)scale(0.1 -0.1)">
      <use xlink:href="#DejaVuSans-48"/>
      <use x="63.623047" xlink:href="#DejaVuSans-46"/>
      <use x="95.410156" xlink:href="#DejaVuSans-57"/>
      <use x="159.033203" xlink:href="#DejaVuSans-56"/>
     </g>
    </g>
   </g>
   <g id="xtick_19">
    <g id="line2d_22">
     <path d="M 376.165449 129.285731 
L 380.471366 130.135764 
" style="fill:none;stroke:#000000;stroke-linecap:square;stroke-width:0.8;"/>
    </g>
    <g id="text_19">
     <!-- 1.00 -->
     <g transform="translate(385.464695 135.335082)scale(0.1 -0.1)">
      <use xlink:href="#DejaVuSans-49"/>
      <use x="63.623047" xlink:href="#DejaVuSans-46"/>
      <use x="95.410156" xlink:href="#DejaVuSans-48"/>
      <use x="159.033203" xlink:href="#DejaVuSans-48"/>
     </g>
    </g>
   </g>
   <g id="xtick_20">
    <g id="line2d_23">
     <path d="M 377.056818 112.582539 
L 381.392125 113.420065 
" style="fill:none;stroke:#000000;stroke-linecap:square;stroke-width:0.8;"/>
    </g>
    <g id="text_20">
     <!-- 1.02 -->
     <g transform="translate(386.488764 118.654713)scale(0.1 -0.1)">
      <use xlink:href="#DejaVuSans-49"/>
      <use x="63.623047" xlink:href="#DejaVuSans-46"/>
      <use x="95.410156" xlink:href="#DejaVuSans-48"/>
      <use x="159.033203" xlink:href="#DejaVuSans-50"/>
     </g>
    </g>
   </g>
   <g id="xtick_21">
    <g id="line2d_24">
     <path d="M 377.960021 95.657604 
L 382.325122 96.482216 
" style="fill:none;stroke:#000000;stroke-linecap:square;stroke-width:0.8;"/>
    </g>
    <g id="text_21">
     <!-- 1.04 -->
     <g transform="translate(387.526401 101.753344)scale(0.1 -0.1)">
      <use xlink:href="#DejaVuSans-49"/>
      <use x="63.623047" xlink:href="#DejaVuSans-46"/>
      <use x="95.410156" xlink:href="#DejaVuSans-48"/>
      <use x="159.033203" xlink:href="#DejaVuSans-52"/>
     </g>
    </g>
   </g>
  </g>
  <g id="axes_1">
   <g id="Poly3DCollection_1">
    <path clip-path="url(#p0bcd7cceae)" d="M 200.548452 107.719035 
L 216.741769 109.443427 
L 226.316236 104.570141 
L 210.181103 101.364483 
z
" style="fill:#ffa500;"/>
    <path clip-path="url(#p0bcd7cceae)" d="M 216.741769 109.443427 
L 233.090844 110.563363 
L 242.587896 107.802924 
L 226.316236 104.570141 
z
" style="fill:#ffa800;"/>
    <path clip-path="url(#p0bcd7cceae)" d="M 190.781717 114.260767 
L 207.020067 114.411823 
L 216.741769 109.443427 
L 200.548452 107.719035 
z
" style="fill:#ffa500;"/>
    <path clip-path="url(#p0bcd7cceae)" d="M 233.090844 110.563363 
L 249.601337 113.658297 
L 258.997821 111.063176 
L 242.587896 107.802924 
z
" style="fill:#ffaa00;"/>
    <path clip-path="url(#p0bcd7cceae)" d="M 207.020067 114.411823 
L 223.429931 113.305403 
L 233.090844 110.563363 
L 216.741769 109.443427 
z
" style="fill:#ffad00;"/>
    <path clip-path="url(#p0bcd7cceae)" d="M 249.601337 113.658297 
L 266.24216 118.237923 
L 275.547782 114.351251 
L 258.997821 111.063176 
z
" style="fill:#ffa900;"/>
    <path clip-path="url(#p0bcd7cceae)" d="M 180.881581 121.094342 
L 197.148318 119.499576 
L 207.020067 114.411823 
L 190.781717 114.260767 
z
" style="fill:#ffa500;"/>
    <path clip-path="url(#p0bcd7cceae)" d="M 266.24216 118.237923 
L 282.962919 125.713943 
L 292.23958 117.667504 
L 275.547782 114.351251 
z
" style="fill:#ffa500;"/>
    <path clip-path="url(#p0bcd7cceae)" d="M 223.429931 113.305403 
L 240.040916 116.268879 
L 249.601337 113.658297 
L 233.090844 110.563363 
z
" style="fill:#ffb200;"/>
    <path clip-path="url(#p0bcd7cceae)" d="M 282.962919 125.713943 
L 299.774194 133.221763 
L 309.075045 121.012301 
L 292.23958 117.667504 
z
" style="fill:#ff9f00;"/>
    <path clip-path="url(#p0bcd7cceae)" d="M 197.148318 119.499576 
L 213.599373 115.958986 
L 223.429931 113.305403 
L 207.020067 114.411823 
z
" style="fill:#ffb300;"/>
    <path clip-path="url(#p0bcd7cceae)" d="M 240.040916 116.268879 
L 256.783467 122.094535 
L 266.24216 118.237923 
L 249.601337 113.658297 
z
" style="fill:#ffb000;"/>
    <path clip-path="url(#p0bcd7cceae)" d="M 170.850578 128.332865 
L 187.124097 124.736967 
L 197.148318 119.499576 
L 180.881581 121.094342 
z
" style="fill:#ffa400;"/>
    <path clip-path="url(#p0bcd7cceae)" d="M 256.783467 122.094535 
L 273.563384 133.850287 
L 282.962919 125.713943 
L 266.24216 118.237923 
z
" style="fill:#ffa500;"/>
    <path clip-path="url(#p0bcd7cceae)" d="M 299.774194 133.221763 
L 316.89065 133.640499 
L 326.056041 124.386012 
L 309.075045 121.012301 
z
" style="fill:#ff9f00;"/>
    <path clip-path="url(#p0bcd7cceae)" d="M 273.563384 133.850287 
L 290.375421 145.792005 
L 299.774194 133.221763 
L 282.962919 125.713943 
z
" style="fill:#ff9300;"/>
    <path clip-path="url(#p0bcd7cceae)" d="M 213.599373 115.958986 
L 230.311773 118.869138 
L 240.040916 116.268879 
L 223.429931 113.305403 
z
" style="fill:#ffbb00;"/>
    <path clip-path="url(#p0bcd7cceae)" d="M 187.124097 124.736967 
L 203.591954 118.445644 
L 213.599373 115.958986 
L 197.148318 119.499576 
z
" style="fill:#ffb800;"/>
    <path clip-path="url(#p0bcd7cceae)" d="M 160.693405 136.099863 
L 176.945695 130.16797 
L 187.124097 124.736967 
L 170.850578 128.332865 
z
" style="fill:#ffa200;"/>
    <path clip-path="url(#p0bcd7cceae)" d="M 316.89065 133.640499 
L 334.282392 131.775972 
L 343.184461 127.789012 
L 326.056041 124.386012 
z
" style="fill:#ffa400;"/>
    <path clip-path="url(#p0bcd7cceae)" d="M 230.311773 118.869138 
L 247.167046 125.820554 
L 256.783467 122.094535 
L 240.040916 116.268879 
z
" style="fill:#ffb800;"/>
    <path clip-path="url(#p0bcd7cceae)" d="M 290.375421 145.792005 
L 307.608962 143.074892 
L 316.89065 133.640499 
L 299.774194 133.221763 
z
" style="fill:#ff9100;"/>
    <path clip-path="url(#p0bcd7cceae)" d="M 247.167046 125.820554 
L 264.038525 142.056235 
L 273.563384 133.850287 
L 256.783467 122.094535 
z
" style="fill:#ffa500;"/>
    <path clip-path="url(#p0bcd7cceae)" d="M 264.038525 142.056235 
L 280.875938 158.976934 
L 290.375421 145.792005 
L 273.563384 133.850287 
z
" style="fill:#ff8600;"/>
    <path clip-path="url(#p0bcd7cceae)" d="M 334.282392 131.775972 
L 351.726126 133.886039 
L 360.462236 131.221685 
L 343.184461 127.789012 
z
" style="fill:#ffa900;"/>
    <path clip-path="url(#p0bcd7cceae)" d="M 203.591954 118.445644 
L 220.408589 121.439579 
L 230.311773 118.869138 
L 213.599373 115.958986 
z
" style="fill:#ffc400;"/>
    <path clip-path="url(#p0bcd7cceae)" d="M 280.875938 158.976934 
L 298.208032 152.756312 
L 307.608962 143.074892 
L 290.375421 145.792005 
z
" style="fill:#ff8200;"/>
    <path clip-path="url(#p0bcd7cceae)" d="M 150.417187 144.527951 
L 166.612933 135.867536 
L 176.945695 130.16797 
L 160.693405 136.099863 
z
" style="fill:#ffa000;"/>
    <path clip-path="url(#p0bcd7cceae)" d="M 307.608962 143.074892 
L 325.234698 135.694084 
L 334.282392 131.775972 
L 316.89065 133.640499 
z
" style="fill:#ffa300;"/>
    <path clip-path="url(#p0bcd7cceae)" d="M 176.945695 130.16797 
L 193.398779 120.677345 
L 203.591954 118.445644 
L 187.124097 124.736967 
z
" style="fill:#ffbe00;"/>
    <path clip-path="url(#p0bcd7cceae)" d="M 254.38553 150.30152 
L 271.276511 173.05729 
L 280.875938 158.976934 
L 264.038525 142.056235 
z
" style="fill:#ff7900;"/>
    <path clip-path="url(#p0bcd7cceae)" d="M 220.408589 121.439579 
L 237.38647 129.301367 
L 247.167046 125.820554 
L 230.311773 118.869138 
z
" style="fill:#ffbf00;"/>
    <path clip-path="url(#p0bcd7cceae)" d="M 237.38647 129.301367 
L 254.38553 150.30152 
L 264.038525 142.056235 
L 247.167046 125.820554 
z
" style="fill:#ffa500;"/>
    <path clip-path="url(#p0bcd7cceae)" d="M 271.276511 173.05729 
L 288.685845 162.752782 
L 298.208032 152.756312 
L 280.875938 158.976934 
z
" style="fill:#ff7200;"/>
    <path clip-path="url(#p0bcd7cceae)" d="M 244.601009 158.545527 
L 261.582067 188.352434 
L 271.276511 173.05729 
L 254.38553 150.30152 
z
" style="fill:#ff6a00;"/>
    <path clip-path="url(#p0bcd7cceae)" d="M 325.234698 135.694084 
L 342.83475 136.537421 
L 351.726126 133.886039 
L 334.282392 131.775972 
z
" style="fill:#ffb100;"/>
    <path clip-path="url(#p0bcd7cceae)" d="M 140.030957 153.738476 
L 156.129001 141.975959 
L 166.612933 135.867536 
L 150.417187 144.527951 
z
" style="fill:#ff9c00;"/>
    <path clip-path="url(#p0bcd7cceae)" d="M 193.398779 120.677345 
L 210.325609 123.967687 
L 220.408589 121.439579 
L 203.591954 118.445644 
z
" style="fill:#ffce00;"/>
    <path clip-path="url(#p0bcd7cceae)" d="M 298.208032 152.756312 
L 316.040469 139.397487 
L 325.234698 135.694084 
L 307.608962 143.074892 
z
" style="fill:#ffa100;"/>
    <path clip-path="url(#p0bcd7cceae)" d="M 166.612933 135.867536 
L 183.009096 122.561122 
L 193.398779 120.677345 
L 176.945695 130.16797 
z
" style="fill:#ffc400;"/>
    <path clip-path="url(#p0bcd7cceae)" d="M 261.582067 188.352434 
L 279.041362 173.133695 
L 288.685845 162.752782 
L 271.276511 173.05729 
z
" style="fill:#ff6100;"/>
    <path clip-path="url(#p0bcd7cceae)" d="M 227.433142 132.400768 
L 244.601009 158.545527 
L 254.38553 150.30152 
L 237.38647 129.301367 
z
" style="fill:#ffa600;"/>
    <path clip-path="url(#p0bcd7cceae)" d="M 210.325609 123.967687 
L 227.433142 132.400768 
L 237.38647 129.301367 
L 220.408589 121.439579 
z
" style="fill:#ffc800;"/>
    <path clip-path="url(#p0bcd7cceae)" d="M 234.680794 166.751307 
L 251.802662 205.227084 
L 261.582067 188.352434 
L 244.601009 158.545527 
z
" style="fill:#ff5900;"/>
    <path clip-path="url(#p0bcd7cceae)" d="M 129.537521 163.661966 
L 145.502726 148.719746 
L 156.129001 141.975959 
L 140.030957 153.738476 
z
" style="fill:#ff9700;"/>
    <path clip-path="url(#p0bcd7cceae)" d="M 251.802662 205.227084 
L 269.274589 183.971463 
L 279.041362 173.133695 
L 261.582067 188.352434 
z
" style="fill:#ff4d00;"/>
    <path clip-path="url(#p0bcd7cceae)" d="M 288.685845 162.752782 
L 306.696924 142.721771 
L 316.040469 139.397487 
L 298.208032 152.756312 
z
" style="fill:#ff9f00;"/>
    <path clip-path="url(#p0bcd7cceae)" d="M 316.040469 139.397487 
L 333.785264 139.119588 
L 342.83475 136.537421 
L 325.234698 135.694084 
z
" style="fill:#ffb900;"/>
    <path clip-path="url(#p0bcd7cceae)" d="M 183.009096 122.561122 
L 200.056559 126.435457 
L 210.325609 123.967687 
L 193.398779 120.677345 
z
" style="fill:#ffd800;"/>
    <path clip-path="url(#p0bcd7cceae)" d="M 224.620364 174.94492 
L 241.954668 224.079623 
L 251.802662 205.227084 
L 234.680794 166.751307 
z
" style="fill:#ff4700;"/>
    <path clip-path="url(#p0bcd7cceae)" d="M 156.129001 141.975959 
L 172.410651 124.018955 
L 183.009096 122.561122 
L 166.612933 135.867536 
z
" style="fill:#ffca00;"/>
    <path clip-path="url(#p0bcd7cceae)" d="M 217.295665 134.952029 
L 234.680794 166.751307 
L 244.601009 158.545527 
L 227.433142 132.400768 
z
" style="fill:#ffa700;"/>
    <path clip-path="url(#p0bcd7cceae)" d="M 241.954668 224.079623 
L 259.386687 195.341897 
L 269.274589 183.971463 
L 251.802662 205.227084 
z
" style="fill:#ff3700;"/>
    <path clip-path="url(#p0bcd7cceae)" d="M 200.056559 126.435457 
L 217.295665 134.952029 
L 227.433142 132.400768 
L 210.325609 123.967687 
z
" style="fill:#ffd100;"/>
    <path clip-path="url(#p0bcd7cceae)" d="M 118.841316 172.243724 
L 134.734069 156.021899 
L 145.502726 148.719746 
L 129.537521 163.661966 
z
" style="fill:#ff9200;"/>
    <path clip-path="url(#p0bcd7cceae)" d="M 214.417961 183.388508 
L 232.061477 245.255841 
L 241.954668 224.079623 
L 224.620364 174.94492 
z
" style="fill:#ff3100;"/>
    <path clip-path="url(#p0bcd7cceae)" d="M 279.041362 173.133695 
L 297.199015 145.480526 
L 306.696924 142.721771 
L 288.685845 162.752782 
z
" style="fill:#ff9e00;"/>
    <path clip-path="url(#p0bcd7cceae)" d="M 232.061477 245.255841 
L 249.38025 207.281464 
L 259.386687 195.341897 
L 241.954668 224.079623 
z
" style="fill:#ff1d00;"/>
    <path clip-path="url(#p0bcd7cceae)" d="M 306.696924 142.721771 
L 324.573499 141.585607 
L 333.785264 139.119588 
L 316.040469 139.397487 
z
" style="fill:#ffc100;"/>
    <path clip-path="url(#p0bcd7cceae)" d="M 204.085154 192.952418 
L 222.148519 268.506173 
L 232.061477 245.255841 
L 214.417961 183.388508 
z
" style="fill:#ff1800;"/>
    <path clip-path="url(#p0bcd7cceae)" d="M 172.410651 124.018955 
L 189.593133 128.751516 
L 200.056559 126.435457 
L 183.009096 122.561122 
z
" style="fill:#ffe300;"/>
    <path clip-path="url(#p0bcd7cceae)" d="M 145.502726 148.719746 
L 161.59154 125.040042 
L 172.410651 124.018955 
L 156.129001 141.975959 
z
" style="fill:#ffd000;"/>
    <path clip-path="url(#p0bcd7cceae)" d="M 222.148519 268.506173 
L 239.258359 219.499062 
L 249.38025 207.281464 
L 232.061477 245.255841 
z
" style="fill:#ff0000;"/>
    <path clip-path="url(#p0bcd7cceae)" d="M 206.958924 136.745418 
L 224.620364 174.94492 
L 234.680794 166.751307 
L 217.295665 134.952029 
z
" style="fill:#ffaa00;"/>
    <path clip-path="url(#p0bcd7cceae)" d="M 189.593133 128.751516 
L 206.958924 136.745418 
L 217.295665 134.952029 
L 200.056559 126.435457 
z
" style="fill:#ffdc00;"/>
    <path clip-path="url(#p0bcd7cceae)" d="M 269.274589 183.971463 
L 287.538709 147.473882 
L 297.199015 145.480526 
L 279.041362 173.133695 
z
" style="fill:#ff9e00;"/>
    <path clip-path="url(#p0bcd7cceae)" d="M 297.199015 145.480526 
L 315.193905 143.903829 
L 324.573499 141.585607 
L 306.696924 142.721771 
z
" style="fill:#ffcb00;"/>
    <path clip-path="url(#p0bcd7cceae)" d="M 196.402136 137.478132 
L 214.417961 183.388508 
L 224.620364 174.94492 
L 206.958924 136.745418 
z
" style="fill:#ffaf00;"/>
    <path clip-path="url(#p0bcd7cceae)" d="M 134.734069 156.021899 
L 150.547061 125.834449 
L 161.59154 125.040042 
L 145.502726 148.719746 
z
" style="fill:#ffd600;"/>
    <path clip-path="url(#p0bcd7cceae)" d="M 161.59154 125.040042 
L 178.916377 130.464238 
L 189.593133 128.751516 
L 172.410651 124.018955 
z
" style="fill:#fff000;"/>
    <path clip-path="url(#p0bcd7cceae)" d="M 259.386687 195.341897 
L 277.703944 148.530024 
L 287.538709 147.473882 
L 269.274589 183.971463 
z
" style="fill:#ff9e00;"/>
    <path clip-path="url(#p0bcd7cceae)" d="M 178.916377 130.464238 
L 196.402136 137.478132 
L 206.958924 136.745418 
L 189.593133 128.751516 
z
" style="fill:#ffe800;"/>
    <path clip-path="url(#p0bcd7cceae)" d="M 287.538709 147.473882 
L 305.63964 146.063541 
L 315.193905 143.903829 
L 297.199015 145.480526 
z
" style="fill:#ffd600;"/>
    <path clip-path="url(#p0bcd7cceae)" d="M 185.595121 136.684574 
L 204.085154 192.952418 
L 214.417961 183.388508 
L 196.402136 137.478132 
z
" style="fill:#ffb400;"/>
    <path clip-path="url(#p0bcd7cceae)" d="M 150.547061 125.834449 
L 167.954062 129.556368 
L 178.916377 130.464238 
L 161.59154 125.040042 
z
" style="fill:#ffff00;"/>
    <path clip-path="url(#p0bcd7cceae)" d="M 249.38025 207.281464 
L 267.677797 148.617916 
L 277.703944 148.530024 
L 259.386687 195.341897 
z
" style="fill:#ff9f00;"/>
    <path clip-path="url(#p0bcd7cceae)" d="M 167.954062 129.556368 
L 185.595121 136.684574 
L 196.402136 137.478132 
L 178.916377 130.464238 
z
" style="fill:#fff900;"/>
    <path clip-path="url(#p0bcd7cceae)" d="M 277.703944 148.530024 
L 295.902849 148.079139 
L 305.63964 146.063541 
L 287.538709 147.473882 
z
" style="fill:#ffe200;"/>
    <path clip-path="url(#p0bcd7cceae)" d="M 239.258359 219.499062 
L 257.439229 148.144724 
L 267.677797 148.617916 
L 249.38025 207.281464 
z
" style="fill:#ffa000;"/>
    <path clip-path="url(#p0bcd7cceae)" d="M 267.677797 148.617916 
L 285.97511 149.991062 
L 295.902849 148.079139 
L 277.703944 148.530024 
z
" style="fill:#fff000;"/>
    <path clip-path="url(#p0bcd7cceae)" d="M 257.439229 148.144724 
L 275.848924 151.796032 
L 285.97511 149.991062 
L 267.677797 148.617916 
z
" style="fill:#ffff00;"/>
   </g>
  </g>
  <g id="text_22">
   <!-- Con nr=100- surf del potencial de la Reg.10-Er4. -->
   <defs>
    <path d="M 64.40625 67.28125 
L 64.40625 56.890625 
Q 59.421875 61.53125 53.78125 63.8125 
Q 48.140625 66.109375 41.796875 66.109375 
Q 29.296875 66.109375 22.65625 58.46875 
Q 16.015625 50.828125 16.015625 36.375 
Q 16.015625 21.96875 22.65625 14.328125 
Q 29.296875 6.6875 41.796875 6.6875 
Q 48.140625 6.6875 53.78125 8.984375 
Q 59.421875 11.28125 64.40625 15.921875 
L 64.40625 5.609375 
Q 59.234375 2.09375 53.4375 0.328125 
Q 47.65625 -1.421875 41.21875 -1.421875 
Q 24.65625 -1.421875 15.125 8.703125 
Q 5.609375 18.84375 5.609375 36.375 
Q 5.609375 53.953125 15.125 64.078125 
Q 24.65625 74.21875 41.21875 74.21875 
Q 47.75 74.21875 53.53125 72.484375 
Q 59.328125 70.75 64.40625 67.28125 
z
" id="DejaVuSans-67"/>
    <path d="M 30.609375 48.390625 
Q 23.390625 48.390625 19.1875 42.75 
Q 14.984375 37.109375 14.984375 27.296875 
Q 14.984375 17.484375 19.15625 11.84375 
Q 23.34375 6.203125 30.609375 6.203125 
Q 37.796875 6.203125 41.984375 11.859375 
Q 46.1875 17.53125 46.1875 27.296875 
Q 46.1875 37.015625 41.984375 42.703125 
Q 37.796875 48.390625 30.609375 48.390625 
z
M 30.609375 56 
Q 42.328125 56 49.015625 48.375 
Q 55.71875 40.765625 55.71875 27.296875 
Q 55.71875 13.875 49.015625 6.21875 
Q 42.328125 -1.421875 30.609375 -1.421875 
Q 18.84375 -1.421875 12.171875 6.21875 
Q 5.515625 13.875 5.515625 27.296875 
Q 5.515625 40.765625 12.171875 48.375 
Q 18.84375 56 30.609375 56 
z
" id="DejaVuSans-111"/>
    <path d="M 54.890625 33.015625 
L 54.890625 0 
L 45.90625 0 
L 45.90625 32.71875 
Q 45.90625 40.484375 42.875 44.328125 
Q 39.84375 48.1875 33.796875 48.1875 
Q 26.515625 48.1875 22.3125 43.546875 
Q 18.109375 38.921875 18.109375 30.90625 
L 18.109375 0 
L 9.078125 0 
L 9.078125 54.6875 
L 18.109375 54.6875 
L 18.109375 46.1875 
Q 21.34375 51.125 25.703125 53.5625 
Q 30.078125 56 35.796875 56 
Q 45.21875 56 50.046875 50.171875 
Q 54.890625 44.34375 54.890625 33.015625 
z
" id="DejaVuSans-110"/>
    <path id="DejaVuSans-32"/>
    <path d="M 41.109375 46.296875 
Q 39.59375 47.171875 37.8125 47.578125 
Q 36.03125 48 33.890625 48 
Q 26.265625 48 22.1875 43.046875 
Q 18.109375 38.09375 18.109375 28.8125 
L 18.109375 0 
L 9.078125 0 
L 9.078125 54.6875 
L 18.109375 54.6875 
L 18.109375 46.1875 
Q 20.953125 51.171875 25.484375 53.578125 
Q 30.03125 56 36.53125 56 
Q 37.453125 56 38.578125 55.875 
Q 39.703125 55.765625 41.0625 55.515625 
z
" id="DejaVuSans-114"/>
    <path d="M 10.59375 45.40625 
L 73.1875 45.40625 
L 73.1875 37.203125 
L 10.59375 37.203125 
z
M 10.59375 25.484375 
L 73.1875 25.484375 
L 73.1875 17.1875 
L 10.59375 17.1875 
z
" id="DejaVuSans-61"/>
    <path d="M 4.890625 31.390625 
L 31.203125 31.390625 
L 31.203125 23.390625 
L 4.890625 23.390625 
z
" id="DejaVuSans-45"/>
    <path d="M 44.28125 53.078125 
L 44.28125 44.578125 
Q 40.484375 46.53125 36.375 47.5 
Q 32.28125 48.484375 27.875 48.484375 
Q 21.1875 48.484375 17.84375 46.4375 
Q 14.5 44.390625 14.5 40.28125 
Q 14.5 37.15625 16.890625 35.375 
Q 19.28125 33.59375 26.515625 31.984375 
L 29.59375 31.296875 
Q 39.15625 29.25 43.1875 25.515625 
Q 47.21875 21.78125 47.21875 15.09375 
Q 47.21875 7.46875 41.1875 3.015625 
Q 35.15625 -1.421875 24.609375 -1.421875 
Q 20.21875 -1.421875 15.453125 -0.5625 
Q 10.6875 0.296875 5.421875 2 
L 5.421875 11.28125 
Q 10.40625 8.6875 15.234375 7.390625 
Q 20.0625 6.109375 24.8125 6.109375 
Q 31.15625 6.109375 34.5625 8.28125 
Q 37.984375 10.453125 37.984375 14.40625 
Q 37.984375 18.0625 35.515625 20.015625 
Q 33.0625 21.96875 24.703125 23.78125 
L 21.578125 24.515625 
Q 13.234375 26.265625 9.515625 29.90625 
Q 5.8125 33.546875 5.8125 39.890625 
Q 5.8125 47.609375 11.28125 51.796875 
Q 16.75 56 26.8125 56 
Q 31.78125 56 36.171875 55.265625 
Q 40.578125 54.546875 44.28125 53.078125 
z
" id="DejaVuSans-115"/>
    <path d="M 8.5 21.578125 
L 8.5 54.6875 
L 17.484375 54.6875 
L 17.484375 21.921875 
Q 17.484375 14.15625 20.5 10.265625 
Q 23.53125 6.390625 29.59375 6.390625 
Q 36.859375 6.390625 41.078125 11.03125 
Q 45.3125 15.671875 45.3125 23.6875 
L 45.3125 54.6875 
L 54.296875 54.6875 
L 54.296875 0 
L 45.3125 0 
L 45.3125 8.40625 
Q 42.046875 3.421875 37.71875 1 
Q 33.40625 -1.421875 27.6875 -1.421875 
Q 18.265625 -1.421875 13.375 4.4375 
Q 8.5 10.296875 8.5 21.578125 
z
M 31.109375 56 
z
" id="DejaVuSans-117"/>
    <path d="M 37.109375 75.984375 
L 37.109375 68.5 
L 28.515625 68.5 
Q 23.6875 68.5 21.796875 66.546875 
Q 19.921875 64.59375 19.921875 59.515625 
L 19.921875 54.6875 
L 34.71875 54.6875 
L 34.71875 47.703125 
L 19.921875 47.703125 
L 19.921875 0 
L 10.890625 0 
L 10.890625 47.703125 
L 2.296875 47.703125 
L 2.296875 54.6875 
L 10.890625 54.6875 
L 10.890625 58.5 
Q 10.890625 67.625 15.140625 71.796875 
Q 19.390625 75.984375 28.609375 75.984375 
z
" id="DejaVuSans-102"/>
    <path d="M 45.40625 46.390625 
L 45.40625 75.984375 
L 54.390625 75.984375 
L 54.390625 0 
L 45.40625 0 
L 45.40625 8.203125 
Q 42.578125 3.328125 38.25 0.953125 
Q 33.9375 -1.421875 27.875 -1.421875 
Q 17.96875 -1.421875 11.734375 6.484375 
Q 5.515625 14.40625 5.515625 27.296875 
Q 5.515625 40.1875 11.734375 48.09375 
Q 17.96875 56 27.875 56 
Q 33.9375 56 38.25 53.625 
Q 42.578125 51.265625 45.40625 46.390625 
z
M 14.796875 27.296875 
Q 14.796875 17.390625 18.875 11.75 
Q 22.953125 6.109375 30.078125 6.109375 
Q 37.203125 6.109375 41.296875 11.75 
Q 45.40625 17.390625 45.40625 27.296875 
Q 45.40625 37.203125 41.296875 42.84375 
Q 37.203125 48.484375 30.078125 48.484375 
Q 22.953125 48.484375 18.875 42.84375 
Q 14.796875 37.203125 14.796875 27.296875 
z
" id="DejaVuSans-100"/>
    <path d="M 56.203125 29.59375 
L 56.203125 25.203125 
L 14.890625 25.203125 
Q 15.484375 15.921875 20.484375 11.0625 
Q 25.484375 6.203125 34.421875 6.203125 
Q 39.59375 6.203125 44.453125 7.46875 
Q 49.3125 8.734375 54.109375 11.28125 
L 54.109375 2.78125 
Q 49.265625 0.734375 44.1875 -0.34375 
Q 39.109375 -1.421875 33.890625 -1.421875 
Q 20.796875 -1.421875 13.15625 6.1875 
Q 5.515625 13.8125 5.515625 26.8125 
Q 5.515625 40.234375 12.765625 48.109375 
Q 20.015625 56 32.328125 56 
Q 43.359375 56 49.78125 48.890625 
Q 56.203125 41.796875 56.203125 29.59375 
z
M 47.21875 32.234375 
Q 47.125 39.59375 43.09375 43.984375 
Q 39.0625 48.390625 32.421875 48.390625 
Q 24.90625 48.390625 20.390625 44.140625 
Q 15.875 39.890625 15.1875 32.171875 
z
" id="DejaVuSans-101"/>
    <path d="M 9.421875 75.984375 
L 18.40625 75.984375 
L 18.40625 0 
L 9.421875 0 
z
" id="DejaVuSans-108"/>
    <path d="M 18.109375 8.203125 
L 18.109375 -20.796875 
L 9.078125 -20.796875 
L 9.078125 54.6875 
L 18.109375 54.6875 
L 18.109375 46.390625 
Q 20.953125 51.265625 25.265625 53.625 
Q 29.59375 56 35.59375 56 
Q 45.5625 56 51.78125 48.09375 
Q 58.015625 40.1875 58.015625 27.296875 
Q 58.015625 14.40625 51.78125 6.484375 
Q 45.5625 -1.421875 35.59375 -1.421875 
Q 29.59375 -1.421875 25.265625 0.953125 
Q 20.953125 3.328125 18.109375 8.203125 
z
M 48.6875 27.296875 
Q 48.6875 37.203125 44.609375 42.84375 
Q 40.53125 48.484375 33.40625 48.484375 
Q 26.265625 48.484375 22.1875 42.84375 
Q 18.109375 37.203125 18.109375 27.296875 
Q 18.109375 17.390625 22.1875 11.75 
Q 26.265625 6.109375 33.40625 6.109375 
Q 40.53125 6.109375 44.609375 11.75 
Q 48.6875 17.390625 48.6875 27.296875 
z
" id="DejaVuSans-112"/>
    <path d="M 18.3125 70.21875 
L 18.3125 54.6875 
L 36.8125 54.6875 
L 36.8125 47.703125 
L 18.3125 47.703125 
L 18.3125 18.015625 
Q 18.3125 11.328125 20.140625 9.421875 
Q 21.96875 7.515625 27.59375 7.515625 
L 36.8125 7.515625 
L 36.8125 0 
L 27.59375 0 
Q 17.1875 0 13.234375 3.875 
Q 9.28125 7.765625 9.28125 18.015625 
L 9.28125 47.703125 
L 2.6875 47.703125 
L 2.6875 54.6875 
L 9.28125 54.6875 
L 9.28125 70.21875 
z
" id="DejaVuSans-116"/>
    <path d="M 48.78125 52.59375 
L 48.78125 44.1875 
Q 44.96875 46.296875 41.140625 47.34375 
Q 37.3125 48.390625 33.40625 48.390625 
Q 24.65625 48.390625 19.8125 42.84375 
Q 14.984375 37.3125 14.984375 27.296875 
Q 14.984375 17.28125 19.8125 11.734375 
Q 24.65625 6.203125 33.40625 6.203125 
Q 37.3125 6.203125 41.140625 7.25 
Q 44.96875 8.296875 48.78125 10.40625 
L 48.78125 2.09375 
Q 45.015625 0.34375 40.984375 -0.53125 
Q 36.96875 -1.421875 32.421875 -1.421875 
Q 20.0625 -1.421875 12.78125 6.34375 
Q 5.515625 14.109375 5.515625 27.296875 
Q 5.515625 40.671875 12.859375 48.328125 
Q 20.21875 56 33.015625 56 
Q 37.15625 56 41.109375 55.140625 
Q 45.0625 54.296875 48.78125 52.59375 
z
" id="DejaVuSans-99"/>
    <path d="M 9.421875 54.6875 
L 18.40625 54.6875 
L 18.40625 0 
L 9.421875 0 
z
M 9.421875 75.984375 
L 18.40625 75.984375 
L 18.40625 64.59375 
L 9.421875 64.59375 
z
" id="DejaVuSans-105"/>
    <path d="M 34.28125 27.484375 
Q 23.390625 27.484375 19.1875 25 
Q 14.984375 22.515625 14.984375 16.5 
Q 14.984375 11.71875 18.140625 8.90625 
Q 21.296875 6.109375 26.703125 6.109375 
Q 34.1875 6.109375 38.703125 11.40625 
Q 43.21875 16.703125 43.21875 25.484375 
L 43.21875 27.484375 
z
M 52.203125 31.203125 
L 52.203125 0 
L 43.21875 0 
L 43.21875 8.296875 
Q 40.140625 3.328125 35.546875 0.953125 
Q 30.953125 -1.421875 24.3125 -1.421875 
Q 15.921875 -1.421875 10.953125 3.296875 
Q 6 8.015625 6 15.921875 
Q 6 25.140625 12.171875 29.828125 
Q 18.359375 34.515625 30.609375 34.515625 
L 43.21875 34.515625 
L 43.21875 35.40625 
Q 43.21875 41.609375 39.140625 45 
Q 35.0625 48.390625 27.6875 48.390625 
Q 23 48.390625 18.546875 47.265625 
Q 14.109375 46.140625 10.015625 43.890625 
L 10.015625 52.203125 
Q 14.9375 54.109375 19.578125 55.046875 
Q 24.21875 56 28.609375 56 
Q 40.484375 56 46.34375 49.84375 
Q 52.203125 43.703125 52.203125 31.203125 
z
" id="DejaVuSans-97"/>
    <path d="M 44.390625 34.1875 
Q 47.5625 33.109375 50.5625 29.59375 
Q 53.5625 26.078125 56.59375 19.921875 
L 66.609375 0 
L 56 0 
L 46.6875 18.703125 
Q 43.0625 26.03125 39.671875 28.421875 
Q 36.28125 30.8125 30.421875 30.8125 
L 19.671875 30.8125 
L 19.671875 0 
L 9.8125 0 
L 9.8125 72.90625 
L 32.078125 72.90625 
Q 44.578125 72.90625 50.734375 67.671875 
Q 56.890625 62.453125 56.890625 51.90625 
Q 56.890625 45.015625 53.6875 40.46875 
Q 50.484375 35.9375 44.390625 34.1875 
z
M 19.671875 64.796875 
L 19.671875 38.921875 
L 32.078125 38.921875 
Q 39.203125 38.921875 42.84375 42.21875 
Q 46.484375 45.515625 46.484375 51.90625 
Q 46.484375 58.296875 42.84375 61.546875 
Q 39.203125 64.796875 32.078125 64.796875 
z
" id="DejaVuSans-82"/>
    <path d="M 45.40625 27.984375 
Q 45.40625 37.75 41.375 43.109375 
Q 37.359375 48.484375 30.078125 48.484375 
Q 22.859375 48.484375 18.828125 43.109375 
Q 14.796875 37.75 14.796875 27.984375 
Q 14.796875 18.265625 18.828125 12.890625 
Q 22.859375 7.515625 30.078125 7.515625 
Q 37.359375 7.515625 41.375 12.890625 
Q 45.40625 18.265625 45.40625 27.984375 
z
M 54.390625 6.78125 
Q 54.390625 -7.171875 48.1875 -13.984375 
Q 42 -20.796875 29.203125 -20.796875 
Q 24.46875 -20.796875 20.265625 -20.09375 
Q 16.0625 -19.390625 12.109375 -17.921875 
L 12.109375 -9.1875 
Q 16.0625 -11.328125 19.921875 -12.34375 
Q 23.78125 -13.375 27.78125 -13.375 
Q 36.625 -13.375 41.015625 -8.765625 
Q 45.40625 -4.15625 45.40625 5.171875 
L 45.40625 9.625 
Q 42.625 4.78125 38.28125 2.390625 
Q 33.9375 0 27.875 0 
Q 17.828125 0 11.671875 7.65625 
Q 5.515625 15.328125 5.515625 27.984375 
Q 5.515625 40.671875 11.671875 48.328125 
Q 17.828125 56 27.875 56 
Q 33.9375 56 38.28125 53.609375 
Q 42.625 51.21875 45.40625 46.390625 
L 45.40625 54.6875 
L 54.390625 54.6875 
z
" id="DejaVuSans-103"/>
    <path d="M 9.8125 72.90625 
L 55.90625 72.90625 
L 55.90625 64.59375 
L 19.671875 64.59375 
L 19.671875 43.015625 
L 54.390625 43.015625 
L 54.390625 34.71875 
L 19.671875 34.71875 
L 19.671875 8.296875 
L 56.78125 8.296875 
L 56.78125 0 
L 9.8125 0 
z
" id="DejaVuSans-69"/>
   </defs>
   <g transform="translate(83.963437 16.030125)scale(0.12 -0.12)">
    <use xlink:href="#DejaVuSans-67"/>
    <use x="69.824219" xlink:href="#DejaVuSans-111"/>
    <use x="131.005859" xlink:href="#DejaVuSans-110"/>
    <use x="194.384766" xlink:href="#DejaVuSans-32"/>
    <use x="226.171875" xlink:href="#DejaVuSans-110"/>
    <use x="289.550781" xlink:href="#DejaVuSans-114"/>
    <use x="330.664062" xlink:href="#DejaVuSans-61"/>
    <use x="414.453125" xlink:href="#DejaVuSans-49"/>
    <use x="478.076172" xlink:href="#DejaVuSans-48"/>
    <use x="541.699219" xlink:href="#DejaVuSans-48"/>
    <use x="605.322266" xlink:href="#DejaVuSans-45"/>
    <use x="641.40625" xlink:href="#DejaVuSans-32"/>
    <use x="673.193359" xlink:href="#DejaVuSans-115"/>
    <use x="725.292969" xlink:href="#DejaVuSans-117"/>
    <use x="788.671875" xlink:href="#DejaVuSans-114"/>
    <use x="829.785156" xlink:href="#DejaVuSans-102"/>
    <use x="864.990234" xlink:href="#DejaVuSans-32"/>
    <use x="896.777344" xlink:href="#DejaVuSans-100"/>
    <use x="960.253906" xlink:href="#DejaVuSans-101"/>
    <use x="1021.777344" xlink:href="#DejaVuSans-108"/>
    <use x="1049.560547" xlink:href="#DejaVuSans-32"/>
    <use x="1081.347656" xlink:href="#DejaVuSans-112"/>
    <use x="1144.824219" xlink:href="#DejaVuSans-111"/>
    <use x="1206.005859" xlink:href="#DejaVuSans-116"/>
    <use x="1245.214844" xlink:href="#DejaVuSans-101"/>
    <use x="1306.738281" xlink:href="#DejaVuSans-110"/>
    <use x="1370.117188" xlink:href="#DejaVuSans-99"/>
    <use x="1425.097656" xlink:href="#DejaVuSans-105"/>
    <use x="1452.880859" xlink:href="#DejaVuSans-97"/>
    <use x="1514.160156" xlink:href="#DejaVuSans-108"/>
    <use x="1541.943359" xlink:href="#DejaVuSans-32"/>
    <use x="1573.730469" xlink:href="#DejaVuSans-100"/>
    <use x="1637.207031" xlink:href="#DejaVuSans-101"/>
    <use x="1698.730469" xlink:href="#DejaVuSans-32"/>
    <use x="1730.517578" xlink:href="#DejaVuSans-108"/>
    <use x="1758.300781" xlink:href="#DejaVuSans-97"/>
    <use x="1819.580078" xlink:href="#DejaVuSans-32"/>
    <use x="1851.367188" xlink:href="#DejaVuSans-82"/>
    <use x="1920.787109" xlink:href="#DejaVuSans-101"/>
    <use x="1982.310547" xlink:href="#DejaVuSans-103"/>
    <use x="2045.787109" xlink:href="#DejaVuSans-46"/>
    <use x="2077.574219" xlink:href="#DejaVuSans-49"/>
    <use x="2141.197266" xlink:href="#DejaVuSans-48"/>
    <use x="2204.820312" xlink:href="#DejaVuSans-45"/>
    <use x="2240.904297" xlink:href="#DejaVuSans-69"/>
    <use x="2304.087891" xlink:href="#DejaVuSans-114"/>
    <use x="2345.201172" xlink:href="#DejaVuSans-52"/>
    <use x="2408.824219" xlink:href="#DejaVuSans-46"/>
   </g>
  </g>
 </g>
 <defs>
  <clipPath id="p0bcd7cceae">
   <rect height="266.112" width="357.12" x="57.6" y="41.472"/>
  </clipPath>
 </defs>
</svg>
