<?xml version="1.0" encoding="utf-8" standalone="no"?>
<!DOCTYPE svg PUBLIC "-//W3C//DTD SVG 1.1//EN"
  "http://www.w3.org/Graphics/SVG/1.1/DTD/svg11.dtd">
<!-- Created with matplotlib (https://matplotlib.org/) -->
<svg height="280.512pt" version="1.1" viewBox="0 0 371.52 280.512" width="371.52pt" xmlns="http://www.w3.org/2000/svg" xmlns:xlink="http://www.w3.org/1999/xlink">
 <defs>
  <style type="text/css">
*{stroke-linecap:butt;stroke-linejoin:round;}
  </style>
 </defs>
 <g id="figure_1">
  <g id="patch_1">
   <path d="M 0 280.512 
L 371.52 280.512 
L 371.52 0 
L 0 0 
z
" style="fill:#ffffff;"/>
  </g>
  <g id="patch_2">
   <path d="M 7.2 273.312 
L 364.32 273.312 
L 364.32 7.2 
L 7.2 7.2 
z
" style="fill:#ffffff;"/>
  </g>
  <g id="pane3d_1">
   <g id="patch_3">
    <path d="M 54.541774 214.510626 
L 156.751387 149.265994 
L 155.049705 24.594209 
L 47.141237 83.21517 
" style="fill:#f2f2f2;opacity:0.5;stroke:#f2f2f2;stroke-linejoin:miter;"/>
   </g>
  </g>
  <g id="pane3d_2">
   <g id="patch_4">
    <path d="M 156.751387 149.265994 
L 322.32135 185.741954 
L 329.248599 57.310742 
L 155.049705 24.594209 
" style="fill:#e6e6e6;opacity:0.5;stroke:#e6e6e6;stroke-linejoin:miter;"/>
   </g>
  </g>
  <g id="pane3d_3">
   <g id="patch_5">
    <path d="M 54.541774 214.510626 
L 228.743747 256.992825 
L 322.32135 185.741954 
L 156.751387 149.265994 
" style="fill:#ececec;opacity:0.5;stroke:#ececec;stroke-linejoin:miter;"/>
   </g>
  </g>
  <g id="axis3d_1">
   <g id="line2d_1">
    <path d="M 54.541774 214.510626 
L 228.743747 256.992825 
" style="fill:none;stroke:#000000;stroke-linecap:square;stroke-width:0.8;"/>
   </g>
   <g id="Line3DCollection_1">
    <path d="M 65.162252 217.100616 
L 166.877438 151.496818 
L 165.681723 26.591023 
" style="fill:none;stroke:#b0b0b0;stroke-width:0.8;"/>
    <path d="M 94.606041 224.280999 
L 194.928825 157.67669 
L 195.149536 32.125413 
" style="fill:none;stroke:#b0b0b0;stroke-width:0.8;"/>
    <path d="M 124.5177 231.57548 
L 223.393381 163.947586 
L 225.07361 37.745495 
" style="fill:none;stroke:#b0b0b0;stroke-width:0.8;"/>
    <path d="M 154.90847 238.986801 
L 252.280303 170.311532 
L 255.464624 43.453273 
" style="fill:none;stroke:#b0b0b0;stroke-width:0.8;"/>
    <path d="M 185.789955 246.517791 
L 281.599062 176.770613 
L 286.333593 49.250816 
" style="fill:none;stroke:#b0b0b0;stroke-width:0.8;"/>
    <path d="M 217.174137 254.171373 
L 311.359413 183.32698 
L 317.691882 55.140259 
" style="fill:none;stroke:#b0b0b0;stroke-width:0.8;"/>
   </g>
   <g id="xtick_1">
    <g id="line2d_2">
     <path d="M 66.038581 216.535405 
L 63.406326 218.233145 
" style="fill:none;stroke:#000000;stroke-linecap:square;stroke-width:0.8;"/>
    </g>
    <g id="text_1">
     <!-- 2.0 -->
     <defs>
      <path d="M 19.1875 8.296875 
L 53.609375 8.296875 
L 53.609375 0 
L 7.328125 0 
L 7.328125 8.296875 
Q 12.9375 14.109375 22.625 23.890625 
Q 32.328125 33.6875 34.8125 36.53125 
Q 39.546875 41.84375 41.421875 45.53125 
Q 43.3125 49.21875 43.3125 52.78125 
Q 43.3125 58.59375 39.234375 62.25 
Q 35.15625 65.921875 28.609375 65.921875 
Q 23.96875 65.921875 18.8125 64.3125 
Q 13.671875 62.703125 7.8125 59.421875 
L 7.8125 69.390625 
Q 13.765625 71.78125 18.9375 73 
Q 24.125 74.21875 28.421875 74.21875 
Q 39.75 74.21875 46.484375 68.546875 
Q 53.21875 62.890625 53.21875 53.421875 
Q 53.21875 48.921875 51.53125 44.890625 
Q 49.859375 40.875 45.40625 35.40625 
Q 44.1875 33.984375 37.640625 27.21875 
Q 31.109375 20.453125 19.1875 8.296875 
z
" id="DejaVuSans-50"/>
      <path d="M 10.6875 12.40625 
L 21 12.40625 
L 21 0 
L 10.6875 0 
z
" id="DejaVuSans-46"/>
      <path d="M 31.78125 66.40625 
Q 24.171875 66.40625 20.328125 58.90625 
Q 16.5 51.421875 16.5 36.375 
Q 16.5 21.390625 20.328125 13.890625 
Q 24.171875 6.390625 31.78125 6.390625 
Q 39.453125 6.390625 43.28125 13.890625 
Q 47.125 21.390625 47.125 36.375 
Q 47.125 51.421875 43.28125 58.90625 
Q 39.453125 66.40625 31.78125 66.40625 
z
M 31.78125 74.21875 
Q 44.046875 74.21875 50.515625 64.515625 
Q 56.984375 54.828125 56.984375 36.375 
Q 56.984375 17.96875 50.515625 8.265625 
Q 44.046875 -1.421875 31.78125 -1.421875 
Q 19.53125 -1.421875 13.0625 8.265625 
Q 6.59375 17.96875 6.59375 36.375 
Q 6.59375 54.828125 13.0625 64.515625 
Q 19.53125 74.21875 31.78125 74.21875 
z
" id="DejaVuSans-48"/>
     </defs>
     <g transform="translate(49.890567 238.57252)scale(0.1 -0.1)">
      <use xlink:href="#DejaVuSans-50"/>
      <use x="63.623047" xlink:href="#DejaVuSans-46"/>
      <use x="95.410156" xlink:href="#DejaVuSans-48"/>
     </g>
    </g>
   </g>
   <g id="xtick_2">
    <g id="line2d_3">
     <path d="M 95.47086 223.706845 
L 92.873152 225.431464 
" style="fill:none;stroke:#000000;stroke-linecap:square;stroke-width:0.8;"/>
    </g>
    <g id="text_2">
     <!-- 2.2 -->
     <g transform="translate(79.331045 245.875754)scale(0.1 -0.1)">
      <use xlink:href="#DejaVuSans-50"/>
      <use x="63.623047" xlink:href="#DejaVuSans-46"/>
      <use x="95.410156" xlink:href="#DejaVuSans-50"/>
     </g>
    </g>
   </g>
   <g id="xtick_3">
    <g id="line2d_4">
     <path d="M 125.370531 230.99217 
L 122.808806 232.744311 
" style="fill:none;stroke:#000000;stroke-linecap:square;stroke-width:0.8;"/>
    </g>
    <g id="text_3">
     <!-- 2.4 -->
     <defs>
      <path d="M 37.796875 64.3125 
L 12.890625 25.390625 
L 37.796875 25.390625 
z
M 35.203125 72.90625 
L 47.609375 72.90625 
L 47.609375 25.390625 
L 58.015625 25.390625 
L 58.015625 17.1875 
L 47.609375 17.1875 
L 47.609375 0 
L 37.796875 0 
L 37.796875 17.1875 
L 4.890625 17.1875 
L 4.890625 26.703125 
z
" id="DejaVuSans-52"/>
     </defs>
     <g transform="translate(109.240213 253.295254)scale(0.1 -0.1)">
      <use xlink:href="#DejaVuSans-50"/>
      <use x="63.623047" xlink:href="#DejaVuSans-46"/>
      <use x="95.410156" xlink:href="#DejaVuSans-52"/>
     </g>
    </g>
   </g>
   <g id="xtick_4">
    <g id="line2d_5">
     <path d="M 155.748817 238.394113 
L 153.224565 240.17444 
" style="fill:none;stroke:#000000;stroke-linecap:square;stroke-width:0.8;"/>
    </g>
    <g id="text_4">
     <!-- 2.6 -->
     <defs>
      <path d="M 33.015625 40.375 
Q 26.375 40.375 22.484375 35.828125 
Q 18.609375 31.296875 18.609375 23.390625 
Q 18.609375 15.53125 22.484375 10.953125 
Q 26.375 6.390625 33.015625 6.390625 
Q 39.65625 6.390625 43.53125 10.953125 
Q 47.40625 15.53125 47.40625 23.390625 
Q 47.40625 31.296875 43.53125 35.828125 
Q 39.65625 40.375 33.015625 40.375 
z
M 52.59375 71.296875 
L 52.59375 62.3125 
Q 48.875 64.0625 45.09375 64.984375 
Q 41.3125 65.921875 37.59375 65.921875 
Q 27.828125 65.921875 22.671875 59.328125 
Q 17.53125 52.734375 16.796875 39.40625 
Q 19.671875 43.65625 24.015625 45.921875 
Q 28.375 48.1875 33.59375 48.1875 
Q 44.578125 48.1875 50.953125 41.515625 
Q 57.328125 34.859375 57.328125 23.390625 
Q 57.328125 12.15625 50.6875 5.359375 
Q 44.046875 -1.421875 33.015625 -1.421875 
Q 20.359375 -1.421875 13.671875 8.265625 
Q 6.984375 17.96875 6.984375 36.375 
Q 6.984375 53.65625 15.1875 63.9375 
Q 23.390625 74.21875 37.203125 74.21875 
Q 40.921875 74.21875 44.703125 73.484375 
Q 48.484375 72.75 52.59375 71.296875 
z
" id="DejaVuSans-54"/>
     </defs>
     <g transform="translate(139.629353 260.833819)scale(0.1 -0.1)">
      <use xlink:href="#DejaVuSans-50"/>
      <use x="63.623047" xlink:href="#DejaVuSans-46"/>
      <use x="95.410156" xlink:href="#DejaVuSans-54"/>
     </g>
    </g>
   </g>
   <g id="xtick_5">
    <g id="line2d_6">
     <path d="M 186.617303 245.915498 
L 184.132073 247.724697 
" style="fill:none;stroke:#000000;stroke-linecap:square;stroke-width:0.8;"/>
    </g>
    <g id="text_5">
     <!-- 2.8 -->
     <defs>
      <path d="M 31.78125 34.625 
Q 24.75 34.625 20.71875 30.859375 
Q 16.703125 27.09375 16.703125 20.515625 
Q 16.703125 13.921875 20.71875 10.15625 
Q 24.75 6.390625 31.78125 6.390625 
Q 38.8125 6.390625 42.859375 10.171875 
Q 46.921875 13.96875 46.921875 20.515625 
Q 46.921875 27.09375 42.890625 30.859375 
Q 38.875 34.625 31.78125 34.625 
z
M 21.921875 38.8125 
Q 15.578125 40.375 12.03125 44.71875 
Q 8.5 49.078125 8.5 55.328125 
Q 8.5 64.0625 14.71875 69.140625 
Q 20.953125 74.21875 31.78125 74.21875 
Q 42.671875 74.21875 48.875 69.140625 
Q 55.078125 64.0625 55.078125 55.328125 
Q 55.078125 49.078125 51.53125 44.71875 
Q 48 40.375 41.703125 38.8125 
Q 48.828125 37.15625 52.796875 32.3125 
Q 56.78125 27.484375 56.78125 20.515625 
Q 56.78125 9.90625 50.3125 4.234375 
Q 43.84375 -1.421875 31.78125 -1.421875 
Q 19.734375 -1.421875 13.25 4.234375 
Q 6.78125 9.90625 6.78125 20.515625 
Q 6.78125 27.484375 10.78125 32.3125 
Q 14.796875 37.15625 21.921875 38.8125 
z
M 18.3125 54.390625 
Q 18.3125 48.734375 21.84375 45.5625 
Q 25.390625 42.390625 31.78125 42.390625 
Q 38.140625 42.390625 41.71875 45.5625 
Q 45.3125 48.734375 45.3125 54.390625 
Q 45.3125 60.0625 41.71875 63.234375 
Q 38.140625 66.40625 31.78125 66.40625 
Q 25.390625 66.40625 21.84375 63.234375 
Q 18.3125 60.0625 18.3125 54.390625 
z
" id="DejaVuSans-56"/>
     </defs>
     <g transform="translate(170.510113 268.49434)scale(0.1 -0.1)">
      <use xlink:href="#DejaVuSans-50"/>
      <use x="63.623047" xlink:href="#DejaVuSans-46"/>
      <use x="95.410156" xlink:href="#DejaVuSans-56"/>
     </g>
    </g>
   </g>
   <g id="xtick_6">
    <g id="line2d_7">
     <path d="M 217.987949 253.559239 
L 215.543353 255.398018 
" style="fill:none;stroke:#000000;stroke-linecap:square;stroke-width:0.8;"/>
    </g>
    <g id="text_6">
     <!-- 3.0 -->
     <defs>
      <path d="M 40.578125 39.3125 
Q 47.65625 37.796875 51.625 33 
Q 55.609375 28.21875 55.609375 21.1875 
Q 55.609375 10.40625 48.1875 4.484375 
Q 40.765625 -1.421875 27.09375 -1.421875 
Q 22.515625 -1.421875 17.65625 -0.515625 
Q 12.796875 0.390625 7.625 2.203125 
L 7.625 11.71875 
Q 11.71875 9.328125 16.59375 8.109375 
Q 21.484375 6.890625 26.8125 6.890625 
Q 36.078125 6.890625 40.9375 10.546875 
Q 45.796875 14.203125 45.796875 21.1875 
Q 45.796875 27.640625 41.28125 31.265625 
Q 36.765625 34.90625 28.71875 34.90625 
L 20.21875 34.90625 
L 20.21875 43.015625 
L 29.109375 43.015625 
Q 36.375 43.015625 40.234375 45.921875 
Q 44.09375 48.828125 44.09375 54.296875 
Q 44.09375 59.90625 40.109375 62.90625 
Q 36.140625 65.921875 28.71875 65.921875 
Q 24.65625 65.921875 20.015625 65.03125 
Q 15.375 64.15625 9.8125 62.3125 
L 9.8125 71.09375 
Q 15.4375 72.65625 20.34375 73.4375 
Q 25.25 74.21875 29.59375 74.21875 
Q 40.828125 74.21875 47.359375 69.109375 
Q 53.90625 64.015625 53.90625 55.328125 
Q 53.90625 49.265625 50.4375 45.09375 
Q 46.96875 40.921875 40.578125 39.3125 
z
" id="DejaVuSans-51"/>
     </defs>
     <g transform="translate(201.894518 276.279799)scale(0.1 -0.1)">
      <use xlink:href="#DejaVuSans-51"/>
      <use x="63.623047" xlink:href="#DejaVuSans-46"/>
      <use x="95.410156" xlink:href="#DejaVuSans-48"/>
     </g>
    </g>
   </g>
  </g>
  <g id="axis3d_2">
   <g id="line2d_8">
    <path d="M 322.32135 185.741954 
L 228.743747 256.992825 
" style="fill:none;stroke:#000000;stroke-linecap:square;stroke-width:0.8;"/>
   </g>
   <g id="Line3DCollection_2">
    <path d="M 54.530092 79.201196 
L 61.515028 210.059309 
L 235.148062 252.11652 
" style="fill:none;stroke:#b0b0b0;stroke-width:0.8;"/>
    <path d="M 74.410294 68.401334 
L 80.295501 198.070955 
L 252.38167 238.994688 
" style="fill:none;stroke:#b0b0b0;stroke-width:0.8;"/>
    <path d="M 93.742663 57.899081 
L 98.584318 186.396445 
L 269.1437 226.231919 
" style="fill:none;stroke:#b0b0b0;stroke-width:0.8;"/>
    <path d="M 112.549534 47.682303 
L 116.400537 175.023614 
L 285.453248 213.813675 
" style="fill:none;stroke:#b0b0b0;stroke-width:0.8;"/>
    <path d="M 130.852048 37.739516 
L 133.762243 163.940917 
L 301.328392 201.726191 
" style="fill:none;stroke:#b0b0b0;stroke-width:0.8;"/>
    <path d="M 148.670224 28.059844 
L 150.686609 153.137393 
L 316.786258 189.956425 
" style="fill:none;stroke:#b0b0b0;stroke-width:0.8;"/>
   </g>
   <g id="xtick_7">
    <g id="line2d_9">
     <path d="M 233.694906 251.764538 
L 238.057621 252.82127 
" style="fill:none;stroke:#000000;stroke-linecap:square;stroke-width:0.8;"/>
    </g>
    <g id="text_7">
     <!-- 5.0 -->
     <defs>
      <path d="M 10.796875 72.90625 
L 49.515625 72.90625 
L 49.515625 64.59375 
L 19.828125 64.59375 
L 19.828125 46.734375 
Q 21.96875 47.46875 24.109375 47.828125 
Q 26.265625 48.1875 28.421875 48.1875 
Q 40.625 48.1875 47.75 41.5 
Q 54.890625 34.8125 54.890625 23.390625 
Q 54.890625 11.625 47.5625 5.09375 
Q 40.234375 -1.421875 26.90625 -1.421875 
Q 22.3125 -1.421875 17.546875 -0.640625 
Q 12.796875 0.140625 7.71875 1.703125 
L 7.71875 11.625 
Q 12.109375 9.234375 16.796875 8.0625 
Q 21.484375 6.890625 26.703125 6.890625 
Q 35.15625 6.890625 40.078125 11.328125 
Q 45.015625 15.765625 45.015625 23.390625 
Q 45.015625 31 40.078125 35.4375 
Q 35.15625 39.890625 26.703125 39.890625 
Q 22.75 39.890625 18.8125 39.015625 
Q 14.890625 38.140625 10.796875 36.28125 
z
" id="DejaVuSans-53"/>
     </defs>
     <g transform="translate(239.895847 271.872728)scale(0.1 -0.1)">
      <use xlink:href="#DejaVuSans-53"/>
      <use x="63.623047" xlink:href="#DejaVuSans-46"/>
      <use x="95.410156" xlink:href="#DejaVuSans-48"/>
     </g>
    </g>
   </g>
   <g id="xtick_8">
    <g id="line2d_10">
     <path d="M 250.942341 238.652401 
L 255.2635 239.680014 
" style="fill:none;stroke:#000000;stroke-linecap:square;stroke-width:0.8;"/>
    </g>
    <g id="text_8">
     <!-- 5.2 -->
     <g transform="translate(256.944719 258.588928)scale(0.1 -0.1)">
      <use xlink:href="#DejaVuSans-53"/>
      <use x="63.623047" xlink:href="#DejaVuSans-46"/>
      <use x="95.410156" xlink:href="#DejaVuSans-50"/>
     </g>
    </g>
   </g>
   <g id="xtick_9">
    <g id="line2d_11">
     <path d="M 267.71799 225.898933 
L 271.998219 226.898614 
" style="fill:none;stroke:#000000;stroke-linecap:square;stroke-width:0.8;"/>
    </g>
    <g id="text_9">
     <!-- 5.4 -->
     <g transform="translate(273.527299 245.668443)scale(0.1 -0.1)">
      <use xlink:href="#DejaVuSans-53"/>
      <use x="63.623047" xlink:href="#DejaVuSans-46"/>
      <use x="95.410156" xlink:href="#DejaVuSans-52"/>
     </g>
    </g>
   </g>
   <g id="xtick_10">
    <g id="line2d_12">
     <path d="M 284.040952 213.489616 
L 288.28087 214.462488 
" style="fill:none;stroke:#000000;stroke-linecap:square;stroke-width:0.8;"/>
    </g>
    <g id="text_10">
     <!-- 5.6 -->
     <g transform="translate(289.66246 233.09657)scale(0.1 -0.1)">
      <use xlink:href="#DejaVuSans-53"/>
      <use x="63.623047" xlink:href="#DejaVuSans-46"/>
      <use x="95.410156" xlink:href="#DejaVuSans-54"/>
     </g>
    </g>
   </g>
   <g id="xtick_11">
    <g id="line2d_13">
     <path d="M 299.929304 201.410704 
L 304.129527 202.357832 
" style="fill:none;stroke:#000000;stroke-linecap:square;stroke-width:0.8;"/>
    </g>
    <g id="text_11">
     <!-- 5.8 -->
     <g transform="translate(305.368069 220.859387)scale(0.1 -0.1)">
      <use xlink:href="#DejaVuSans-53"/>
      <use x="63.623047" xlink:href="#DejaVuSans-46"/>
      <use x="95.410156" xlink:href="#DejaVuSans-56"/>
     </g>
    </g>
   </g>
   <g id="xtick_12">
    <g id="line2d_14">
     <path d="M 315.400177 189.649175 
L 319.561313 190.571567 
" style="fill:none;stroke:#000000;stroke-linecap:square;stroke-width:0.8;"/>
    </g>
    <g id="text_12">
     <!-- 6.0 -->
     <g transform="translate(320.661053 208.943704)scale(0.1 -0.1)">
      <use xlink:href="#DejaVuSans-54"/>
      <use x="63.623047" xlink:href="#DejaVuSans-46"/>
      <use x="95.410156" xlink:href="#DejaVuSans-48"/>
     </g>
    </g>
   </g>
  </g>
  <g id="axis3d_3">
   <g id="line2d_15">
    <path d="M 322.32135 185.741954 
L 329.248599 57.310742 
" style="fill:none;stroke:#000000;stroke-linecap:square;stroke-width:0.8;"/>
   </g>
   <g id="Line3DCollection_3">
    <path d="M 322.95957 173.909341 
L 156.594297 137.757009 
L 53.861014 202.433017 
" style="fill:none;stroke:#b0b0b0;stroke-width:0.8;"/>
    <path d="M 324.305176 148.961805 
L 156.263301 113.506943 
L 52.42501 176.956387 
" style="fill:none;stroke:#b0b0b0;stroke-width:0.8;"/>
    <path d="M 325.67842 123.501865 
L 155.925795 88.77996 
L 50.958522 150.938921 
" style="fill:none;stroke:#b0b0b0;stroke-width:0.8;"/>
    <path d="M 327.080161 97.513573 
L 155.581586 63.56185 
L 49.460568 124.363214 
" style="fill:none;stroke:#b0b0b0;stroke-width:0.8;"/>
    <path d="M 328.511297 70.980309 
L 155.230471 37.837835 
L 47.930125 97.211102 
" style="fill:none;stroke:#b0b0b0;stroke-width:0.8;"/>
   </g>
   <g id="xtick_13">
    <g id="line2d_16">
     <path d="M 321.57127 173.607654 
L 325.739069 174.513346 
" style="fill:none;stroke:#000000;stroke-linecap:square;stroke-width:0.8;"/>
    </g>
    <g id="text_13">
     <!-- 1.000 -->
     <defs>
      <path d="M 12.40625 8.296875 
L 28.515625 8.296875 
L 28.515625 63.921875 
L 10.984375 60.40625 
L 10.984375 69.390625 
L 28.421875 72.90625 
L 38.28125 72.90625 
L 38.28125 8.296875 
L 54.390625 8.296875 
L 54.390625 0 
L 12.40625 0 
z
" id="DejaVuSans-49"/>
     </defs>
     <g transform="translate(327.064514 179.555417)scale(0.1 -0.1)">
      <use xlink:href="#DejaVuSans-49"/>
      <use x="63.623047" xlink:href="#DejaVuSans-46"/>
      <use x="95.410156" xlink:href="#DejaVuSans-48"/>
      <use x="159.033203" xlink:href="#DejaVuSans-48"/>
      <use x="222.65625" xlink:href="#DejaVuSans-48"/>
     </g>
    </g>
   </g>
   <g id="xtick_14">
    <g id="line2d_17">
     <path d="M 322.902296 148.665814 
L 327.113896 149.554412 
" style="fill:none;stroke:#000000;stroke-linecap:square;stroke-width:0.8;"/>
    </g>
    <g id="text_14">
     <!-- 1.005 -->
     <g transform="translate(328.593869 154.644779)scale(0.1 -0.1)">
      <use xlink:href="#DejaVuSans-49"/>
      <use x="63.623047" xlink:href="#DejaVuSans-46"/>
      <use x="95.410156" xlink:href="#DejaVuSans-48"/>
      <use x="159.033203" xlink:href="#DejaVuSans-48"/>
      <use x="222.65625" xlink:href="#DejaVuSans-53"/>
     </g>
    </g>
   </g>
   <g id="xtick_15">
    <g id="line2d_18">
     <path d="M 324.260651 123.211869 
L 328.51698 124.082476 
" style="fill:none;stroke:#000000;stroke-linecap:square;stroke-width:0.8;"/>
    </g>
    <g id="text_15">
     <!-- 1.010 -->
     <g transform="translate(330.154564 129.223672)scale(0.1 -0.1)">
      <use xlink:href="#DejaVuSans-49"/>
      <use x="63.623047" xlink:href="#DejaVuSans-46"/>
      <use x="95.410156" xlink:href="#DejaVuSans-48"/>
      <use x="159.033203" xlink:href="#DejaVuSans-49"/>
      <use x="222.65625" xlink:href="#DejaVuSans-48"/>
     </g>
    </g>
   </g>
   <g id="xtick_16">
    <g id="line2d_19">
     <path d="M 325.647184 97.229885 
L 329.949202 98.08156 
" style="fill:none;stroke:#000000;stroke-linecap:square;stroke-width:0.8;"/>
    </g>
    <g id="text_16">
     <!-- 1.015 -->
     <g transform="translate(331.747572 103.276241)scale(0.1 -0.1)">
      <use xlink:href="#DejaVuSans-49"/>
      <use x="63.623047" xlink:href="#DejaVuSans-46"/>
      <use x="95.410156" xlink:href="#DejaVuSans-48"/>
      <use x="159.033203" xlink:href="#DejaVuSans-49"/>
      <use x="222.65625" xlink:href="#DejaVuSans-53"/>
     </g>
    </g>
   </g>
   <g id="xtick_17">
    <g id="line2d_20">
     <path d="M 327.062782 70.703259 
L 331.411479 71.535011 
" style="fill:none;stroke:#000000;stroke-linecap:square;stroke-width:0.8;"/>
    </g>
    <g id="text_17">
     <!-- 1.020 -->
     <g transform="translate(333.373906 76.78597)scale(0.1 -0.1)">
      <use xlink:href="#DejaVuSans-49"/>
      <use x="63.623047" xlink:href="#DejaVuSans-46"/>
      <use x="95.410156" xlink:href="#DejaVuSans-48"/>
      <use x="159.033203" xlink:href="#DejaVuSans-50"/>
      <use x="222.65625" xlink:href="#DejaVuSans-48"/>
     </g>
    </g>
   </g>
  </g>
  <g id="axes_1">
   <g id="Poly3DCollection_1">
    <path clip-path="url(#pbfcf50aa04)" d="M 151.356567 149.770632 
L 167.077925 152.689613 
L 176.357558 147.247213 
L 160.70406 143.824456 
z
" style="fill:#ff0000;"/>
    <path clip-path="url(#pbfcf50aa04)" d="M 167.077925 152.689613 
L 182.936581 155.71777 
L 192.139505 150.698057 
L 176.357558 147.247213 
z
" style="fill:#ff0100;"/>
    <path clip-path="url(#pbfcf50aa04)" d="M 141.875416 155.801831 
L 157.659645 158.124578 
L 167.077925 152.689613 
L 151.356567 149.770632 
z
" style="fill:#ff0100;"/>
    <path clip-path="url(#pbfcf50aa04)" d="M 182.936581 155.71777 
L 198.9325 158.917695 
L 208.051489 154.177334 
L 192.139505 150.698057 
z
" style="fill:#ff0100;"/>
    <path clip-path="url(#pbfcf50aa04)" d="M 157.659645 158.124578 
L 173.592125 160.662374 
L 182.936581 155.71777 
L 167.077925 152.689613 
z
" style="fill:#ff0400;"/>
    <path clip-path="url(#pbfcf50aa04)" d="M 198.9325 158.917695 
L 215.064323 162.320299 
L 224.095125 157.685398 
L 208.051489 154.177334 
z
" style="fill:#ff0200;"/>
    <path clip-path="url(#pbfcf50aa04)" d="M 132.25772 161.91989 
L 148.096579 163.436126 
L 157.659645 158.124578 
L 141.875416 155.801831 
z
" style="fill:#ff0200;"/>
    <path clip-path="url(#pbfcf50aa04)" d="M 173.592125 160.662374 
L 189.671186 163.551675 
L 198.9325 158.917695 
L 182.936581 155.71777 
z
" style="fill:#ff0600;"/>
    <path clip-path="url(#pbfcf50aa04)" d="M 215.064323 162.320299 
L 231.330288 165.929987 
L 240.272052 161.222607 
L 224.095125 157.685398 
z
" style="fill:#ff0200;"/>
    <path clip-path="url(#pbfcf50aa04)" d="M 148.096579 163.436126 
L 164.099045 165.339366 
L 173.592125 160.662374 
L 157.659645 158.124578 
z
" style="fill:#ff0800;"/>
    <path clip-path="url(#pbfcf50aa04)" d="M 189.671186 163.551675 
L 205.892029 166.847409 
L 215.064323 162.320299 
L 198.9325 158.917695 
z
" style="fill:#ff0800;"/>
    <path clip-path="url(#pbfcf50aa04)" d="M 231.330288 165.929987 
L 247.728821 169.736409 
L 256.583939 164.789326 
L 240.272052 161.222607 
z
" style="fill:#ff0200;"/>
    <path clip-path="url(#pbfcf50aa04)" d="M 122.500507 168.126698 
L 138.378916 168.430249 
L 148.096579 163.436126 
L 132.25772 161.91989 
z
" style="fill:#ff0400;"/>
    <path clip-path="url(#pbfcf50aa04)" d="M 164.099045 165.339366 
L 180.261224 167.866819 
L 189.671186 163.551675 
L 173.592125 160.662374 
z
" style="fill:#ff0c00;"/>
    <path clip-path="url(#pbfcf50aa04)" d="M 205.892029 166.847409 
L 222.249071 170.543823 
L 231.330288 165.929987 
L 215.064323 162.320299 
z
" style="fill:#ff0800;"/>
    <path clip-path="url(#pbfcf50aa04)" d="M 247.728821 169.736409 
L 264.258847 173.720515 
L 273.032482 168.385926 
L 256.583939 164.789326 
z
" style="fill:#ff0100;"/>
    <path clip-path="url(#pbfcf50aa04)" d="M 138.378916 168.430249 
L 154.445431 169.448661 
L 164.099045 165.339366 
L 148.096579 163.436126 
z
" style="fill:#ff0d00;"/>
    <path clip-path="url(#pbfcf50aa04)" d="M 180.261224 167.866819 
L 196.573265 171.071072 
L 205.892029 166.847409 
L 189.671186 163.551675 
z
" style="fill:#ff0f00;"/>
    <path clip-path="url(#pbfcf50aa04)" d="M 222.249071 170.543823 
L 238.737192 174.612814 
L 247.728821 169.736409 
L 231.330288 165.929987 
z
" style="fill:#ff0700;"/>
    <path clip-path="url(#pbfcf50aa04)" d="M 264.258847 173.720515 
L 280.920228 177.850993 
L 289.619405 172.012784 
L 273.032482 168.385926 
z
" style="fill:#ff0000;"/>
    <path clip-path="url(#pbfcf50aa04)" d="M 112.60072 174.424202 
L 128.488821 172.729271 
L 138.378916 168.430249 
L 122.500507 168.126698 
z
" style="fill:#ff0700;"/>
    <path clip-path="url(#pbfcf50aa04)" d="M 154.445431 169.448661 
L 170.692159 171.576671 
L 180.261224 167.866819 
L 164.099045 165.339366 
z
" style="fill:#ff1400;"/>
    <path clip-path="url(#pbfcf50aa04)" d="M 196.573265 171.071072 
L 213.024736 174.889595 
L 222.249071 170.543823 
L 205.892029 166.847409 
z
" style="fill:#ff0f00;"/>
    <path clip-path="url(#pbfcf50aa04)" d="M 238.737192 174.612814 
L 255.352058 179.020696 
L 264.258847 173.720515 
L 247.728821 169.736409 
z
" style="fill:#ff0600;"/>
    <path clip-path="url(#pbfcf50aa04)" d="M 280.920228 177.850993 
L 297.714433 182.078907 
L 306.346461 175.670283 
L 289.619405 172.012784 
z
" style="fill:#ff0000;"/>
    <path clip-path="url(#pbfcf50aa04)" d="M 128.488821 172.729271 
L 144.609583 172.441128 
L 154.445431 169.448661 
L 138.378916 168.430249 
z
" style="fill:#ff1600;"/>
    <path clip-path="url(#pbfcf50aa04)" d="M 170.692159 171.576671 
L 187.099793 174.778721 
L 196.573265 171.071072 
L 180.261224 167.866819 
z
" style="fill:#ff1800;"/>
    <path clip-path="url(#pbfcf50aa04)" d="M 213.024736 174.889595 
L 229.606691 179.257046 
L 238.737192 174.612814 
L 222.249071 170.543823 
z
" style="fill:#ff0e00;"/>
    <path clip-path="url(#pbfcf50aa04)" d="M 255.352058 179.020696 
L 272.090887 183.711417 
L 280.920228 177.850993 
L 264.258847 173.720515 
z
" style="fill:#ff0300;"/>
    <path clip-path="url(#pbfcf50aa04)" d="M 102.555212 180.814403 
L 118.389401 175.532203 
L 128.488821 172.729271 
L 112.60072 174.424202 
z
" style="fill:#ff0d00;"/>
    <path clip-path="url(#pbfcf50aa04)" d="M 144.609583 172.441128 
L 160.946927 174.252337 
L 170.692159 171.576671 
L 154.445431 169.448661 
z
" style="fill:#ff1f00;"/>
    <path clip-path="url(#pbfcf50aa04)" d="M 272.090887 183.711417 
L 288.954215 188.582702 
L 297.714433 182.078907 
L 280.920228 177.850993 
z
" style="fill:#ff0100;"/>
    <path clip-path="url(#pbfcf50aa04)" d="M 229.606691 179.257046 
L 246.310857 184.147048 
L 255.352058 179.020696 
L 238.737192 174.612814 
z
" style="fill:#ff0b00;"/>
    <path clip-path="url(#pbfcf50aa04)" d="M 187.099793 174.778721 
L 203.650717 178.798571 
L 213.024736 174.889595 
L 196.573265 171.071072 
z
" style="fill:#ff1800;"/>
    <path clip-path="url(#pbfcf50aa04)" d="M 118.389401 175.532203 
L 134.546525 173.163271 
L 144.609583 172.441128 
L 128.488821 172.729271 
z
" style="fill:#ff2400;"/>
    <path clip-path="url(#pbfcf50aa04)" d="M 246.310857 184.147048 
L 263.130191 189.509617 
L 272.090887 183.711417 
L 255.352058 179.020696 
z
" style="fill:#ff0700;"/>
    <path clip-path="url(#pbfcf50aa04)" d="M 203.650717 178.798571 
L 220.332599 183.484853 
L 229.606691 179.257046 
L 213.024736 174.889595 
z
" style="fill:#ff1600;"/>
    <path clip-path="url(#pbfcf50aa04)" d="M 160.946927 174.252337 
L 177.459842 177.783614 
L 187.099793 174.778721 
L 170.692159 171.576671 
z
" style="fill:#ff2300;"/>
    <path clip-path="url(#pbfcf50aa04)" d="M 92.360739 187.299364 
L 107.999627 175.145882 
L 118.389401 175.532203 
L 102.555212 180.814403 
z
" style="fill:#ff1700;"/>
    <path clip-path="url(#pbfcf50aa04)" d="M 263.130191 189.509617 
L 280.062931 195.183804 
L 288.954215 188.582702 
L 272.090887 183.711417 
z
" style="fill:#ff0200;"/>
    <path clip-path="url(#pbfcf50aa04)" d="M 220.332599 183.484853 
L 237.132929 188.897441 
L 246.310857 184.147048 
L 229.606691 179.257046 
z
" style="fill:#ff1200;"/>
    <path clip-path="url(#pbfcf50aa04)" d="M 177.459842 177.783614 
L 194.117397 182.184586 
L 203.650717 178.798571 
L 187.099793 174.778721 
z
" style="fill:#ff2300;"/>
    <path clip-path="url(#pbfcf50aa04)" d="M 134.546525 173.163271 
L 150.996363 175.176651 
L 160.946927 174.252337 
L 144.609583 172.441128 
z
" style="fill:#ff3100;"/>
    <path clip-path="url(#pbfcf50aa04)" d="M 237.132929 188.897441 
L 254.037075 195.10299 
L 263.130191 189.509617 
L 246.310857 184.147048 
z
" style="fill:#ff0c00;"/>
    <path clip-path="url(#pbfcf50aa04)" d="M 194.117397 182.184586 
L 210.907218 187.095706 
L 220.332599 183.484853 
L 203.650717 178.798571 
z
" style="fill:#ff2000;"/>
    <path clip-path="url(#pbfcf50aa04)" d="M 107.999627 175.145882 
L 124.147413 168.840886 
L 134.546525 173.163271 
L 118.389401 175.532203 
z
" style="fill:#ff3d00;"/>
    <path clip-path="url(#pbfcf50aa04)" d="M 150.996363 175.176651 
L 167.640188 180.110635 
L 177.459842 177.783614 
L 160.946927 174.252337 
z
" style="fill:#ff3300;"/>
    <path clip-path="url(#pbfcf50aa04)" d="M 82.013965 193.881207 
L 97.167335 168.800159 
L 107.999627 175.145882 
L 92.360739 187.299364 
z
" style="fill:#ff2900;"/>
    <path clip-path="url(#pbfcf50aa04)" d="M 254.037075 195.10299 
L 271.037617 201.884414 
L 280.062931 195.183804 
L 263.130191 189.509617 
z
" style="fill:#ff0300;"/>
    <path clip-path="url(#pbfcf50aa04)" d="M 210.907218 187.095706 
L 227.815025 192.913489 
L 237.132929 188.897441 
L 220.332599 183.484853 
z
" style="fill:#ff1b00;"/>
    <path clip-path="url(#pbfcf50aa04)" d="M 167.640188 180.110635 
L 184.414263 185.307648 
L 194.117397 182.184586 
L 177.459842 177.783614 
z
" style="fill:#ff3100;"/>
    <path clip-path="url(#pbfcf50aa04)" d="M 124.147413 168.840886 
L 140.784865 172.951045 
L 150.996363 175.176651 
L 134.546525 173.163271 
z
" style="fill:#ff4e00;"/>
    <path clip-path="url(#pbfcf50aa04)" d="M 227.815025 192.913489 
L 244.811831 200.183574 
L 254.037075 195.10299 
L 237.132929 188.897441 
z
" style="fill:#ff1200;"/>
    <path clip-path="url(#pbfcf50aa04)" d="M 184.414263 185.307648 
L 201.319119 189.933066 
L 210.907218 187.095706 
L 194.117397 182.184586 
z
" style="fill:#ff2d00;"/>
    <path clip-path="url(#pbfcf50aa04)" d="M 244.811831 200.183574 
L 261.875218 208.686797 
L 271.037617 201.884414 
L 254.037075 195.10299 
z
" style="fill:#ff0600;"/>
    <path clip-path="url(#pbfcf50aa04)" d="M 140.784865 172.951045 
L 157.639557 182.683022 
L 167.640188 180.110635 
L 150.996363 175.176651 
z
" style="fill:#ff4800;"/>
    <path clip-path="url(#pbfcf50aa04)" d="M 71.511451 200.562121 
L 85.951924 159.913346 
L 97.167335 168.800159 
L 82.013965 193.881207 
z
" style="fill:#ff4300;"/>
    <path clip-path="url(#pbfcf50aa04)" d="M 201.319119 189.933066 
L 218.352618 195.430237 
L 227.815025 192.913489 
L 210.907218 187.095706 
z
" style="fill:#ff2800;"/>
    <path clip-path="url(#pbfcf50aa04)" d="M 97.167335 168.800159 
L 113.093024 151.537155 
L 124.147413 168.840886 
L 107.999627 175.145882 
z
" style="fill:#ff6f00;"/>
    <path clip-path="url(#pbfcf50aa04)" d="M 157.639557 182.683022 
L 174.541769 189.524173 
L 184.414263 185.307648 
L 167.640188 180.110635 
z
" style="fill:#ff3e00;"/>
    <path clip-path="url(#pbfcf50aa04)" d="M 218.352618 195.430237 
L 235.459063 203.941245 
L 244.811831 200.183574 
L 227.815025 192.913489 
z
" style="fill:#ff1d00;"/>
    <path clip-path="url(#pbfcf50aa04)" d="M 174.541769 189.524173 
L 191.553741 192.141403 
L 201.319119 189.933066 
L 184.414263 185.307648 
z
" style="fill:#ff3a00;"/>
    <path clip-path="url(#pbfcf50aa04)" d="M 235.459063 203.941245 
L 252.572589 215.593291 
L 261.875218 208.686797 
L 244.811831 200.183574 
z
" style="fill:#ff0a00;"/>
    <path clip-path="url(#pbfcf50aa04)" d="M 113.093024 151.537155 
L 130.182032 164.137203 
L 140.784865 172.951045 
L 124.147413 168.840886 
z
" style="fill:#ff8400;"/>
    <path clip-path="url(#pbfcf50aa04)" d="M 130.182032 164.137203 
L 147.53769 190.169018 
L 157.639557 182.683022 
L 140.784865 172.951045 
z
" style="fill:#ff6200;"/>
    <path clip-path="url(#pbfcf50aa04)" d="M 147.53769 190.169018 
L 164.550253 198.783514 
L 174.541769 189.524173 
L 157.639557 182.683022 
z
" style="fill:#ff4100;"/>
    <path clip-path="url(#pbfcf50aa04)" d="M 191.553741 192.141403 
L 208.736302 194.639858 
L 218.352618 195.430237 
L 201.319119 189.933066 
z
" style="fill:#ff3b00;"/>
    <path clip-path="url(#pbfcf50aa04)" d="M 137.906799 226.059316 
L 154.562276 217.378232 
L 164.550253 198.783514 
L 147.53769 190.169018 
z
" style="fill:#ff1800;"/>
    <path clip-path="url(#pbfcf50aa04)" d="M 208.736302 194.639858 
L 225.994715 203.892973 
L 235.459063 203.941245 
L 218.352618 195.430237 
z
" style="fill:#ff3100;"/>
    <path clip-path="url(#pbfcf50aa04)" d="M 164.550253 198.783514 
L 181.602967 195.136626 
L 191.553741 192.141403 
L 174.541769 189.524173 
z
" style="fill:#ff4200;"/>
    <path clip-path="url(#pbfcf50aa04)" d="M 225.994715 203.892973 
L 243.126485 222.606304 
L 252.572589 215.593291 
L 235.459063 203.941245 
z
" style="fill:#ff1400;"/>
    <path clip-path="url(#pbfcf50aa04)" d="M 118.757833 137.03257 
L 137.906799 226.059316 
L 147.53769 190.169018 
L 130.182032 164.137203 
z
" style="fill:#ff7200;"/>
    <path clip-path="url(#pbfcf50aa04)" d="M 154.562276 217.378232 
L 171.517569 204.884773 
L 181.602967 195.136626 
L 164.550253 198.783514 
z
" style="fill:#ff3600;"/>
    <path clip-path="url(#pbfcf50aa04)" d="M 181.602967 195.136626 
L 198.933586 186.657571 
L 208.736302 194.639858 
L 191.553741 192.141403 
z
" style="fill:#ff5700;"/>
    <path clip-path="url(#pbfcf50aa04)" d="M 85.951924 159.913346 
L 100.1422 91.426111 
L 113.093024 151.537155 
L 97.167335 168.800159 
z
" style="fill:#ffd900;"/>
    <path clip-path="url(#pbfcf50aa04)" d="M 216.462509 191.127672 
L 233.533561 229.728321 
L 243.126485 222.606304 
L 225.994715 203.892973 
z
" style="fill:#ff2c00;"/>
    <path clip-path="url(#pbfcf50aa04)" d="M 198.933586 186.657571 
L 216.462509 191.127672 
L 225.994715 203.892973 
L 208.736302 194.639858 
z
" style="fill:#ff5e00;"/>
    <path clip-path="url(#pbfcf50aa04)" d="M 100.1422 91.426111 
L 118.757833 137.03257 
L 130.182032 164.137203 
L 113.093024 151.537155 
z
" style="fill:#ffff00;"/>
    <path clip-path="url(#pbfcf50aa04)" d="M 171.517569 204.884773 
L 188.847747 170.221814 
L 198.933586 186.657571 
L 181.602967 195.136626 
z
" style="fill:#ff7a00;"/>
    <path clip-path="url(#pbfcf50aa04)" d="M 206.96371 125.412885 
L 223.790367 236.961901 
L 233.533561 229.728321 
L 216.462509 191.127672 
z
" style="fill:#ff7d00;"/>
    <path clip-path="url(#pbfcf50aa04)" d="M 188.847747 170.221814 
L 206.96371 125.412885 
L 216.462509 191.127672 
L 198.933586 186.657571 
z
" style="fill:#ffd100;"/>
   </g>
   <g id="text_18">
    <!-- Con nr=10- surf del potencial de la Reg.8-Eo. -->
    <defs>
     <path d="M 64.40625 67.28125 
L 64.40625 56.890625 
Q 59.421875 61.53125 53.78125 63.8125 
Q 48.140625 66.109375 41.796875 66.109375 
Q 29.296875 66.109375 22.65625 58.46875 
Q 16.015625 50.828125 16.015625 36.375 
Q 16.015625 21.96875 22.65625 14.328125 
Q 29.296875 6.6875 41.796875 6.6875 
Q 48.140625 6.6875 53.78125 8.984375 
Q 59.421875 11.28125 64.40625 15.921875 
L 64.40625 5.609375 
Q 59.234375 2.09375 53.4375 0.328125 
Q 47.65625 -1.421875 41.21875 -1.421875 
Q 24.65625 -1.421875 15.125 8.703125 
Q 5.609375 18.84375 5.609375 36.375 
Q 5.609375 53.953125 15.125 64.078125 
Q 24.65625 74.21875 41.21875 74.21875 
Q 47.75 74.21875 53.53125 72.484375 
Q 59.328125 70.75 64.40625 67.28125 
z
" id="DejaVuSans-67"/>
     <path d="M 30.609375 48.390625 
Q 23.390625 48.390625 19.1875 42.75 
Q 14.984375 37.109375 14.984375 27.296875 
Q 14.984375 17.484375 19.15625 11.84375 
Q 23.34375 6.203125 30.609375 6.203125 
Q 37.796875 6.203125 41.984375 11.859375 
Q 46.1875 17.53125 46.1875 27.296875 
Q 46.1875 37.015625 41.984375 42.703125 
Q 37.796875 48.390625 30.609375 48.390625 
z
M 30.609375 56 
Q 42.328125 56 49.015625 48.375 
Q 55.71875 40.765625 55.71875 27.296875 
Q 55.71875 13.875 49.015625 6.21875 
Q 42.328125 -1.421875 30.609375 -1.421875 
Q 18.84375 -1.421875 12.171875 6.21875 
Q 5.515625 13.875 5.515625 27.296875 
Q 5.515625 40.765625 12.171875 48.375 
Q 18.84375 56 30.609375 56 
z
" id="DejaVuSans-111"/>
     <path d="M 54.890625 33.015625 
L 54.890625 0 
L 45.90625 0 
L 45.90625 32.71875 
Q 45.90625 40.484375 42.875 44.328125 
Q 39.84375 48.1875 33.796875 48.1875 
Q 26.515625 48.1875 22.3125 43.546875 
Q 18.109375 38.921875 18.109375 30.90625 
L 18.109375 0 
L 9.078125 0 
L 9.078125 54.6875 
L 18.109375 54.6875 
L 18.109375 46.1875 
Q 21.34375 51.125 25.703125 53.5625 
Q 30.078125 56 35.796875 56 
Q 45.21875 56 50.046875 50.171875 
Q 54.890625 44.34375 54.890625 33.015625 
z
" id="DejaVuSans-110"/>
     <path id="DejaVuSans-32"/>
     <path d="M 41.109375 46.296875 
Q 39.59375 47.171875 37.8125 47.578125 
Q 36.03125 48 33.890625 48 
Q 26.265625 48 22.1875 43.046875 
Q 18.109375 38.09375 18.109375 28.8125 
L 18.109375 0 
L 9.078125 0 
L 9.078125 54.6875 
L 18.109375 54.6875 
L 18.109375 46.1875 
Q 20.953125 51.171875 25.484375 53.578125 
Q 30.03125 56 36.53125 56 
Q 37.453125 56 38.578125 55.875 
Q 39.703125 55.765625 41.0625 55.515625 
z
" id="DejaVuSans-114"/>
     <path d="M 10.59375 45.40625 
L 73.1875 45.40625 
L 73.1875 37.203125 
L 10.59375 37.203125 
z
M 10.59375 25.484375 
L 73.1875 25.484375 
L 73.1875 17.1875 
L 10.59375 17.1875 
z
" id="DejaVuSans-61"/>
     <path d="M 4.890625 31.390625 
L 31.203125 31.390625 
L 31.203125 23.390625 
L 4.890625 23.390625 
z
" id="DejaVuSans-45"/>
     <path d="M 44.28125 53.078125 
L 44.28125 44.578125 
Q 40.484375 46.53125 36.375 47.5 
Q 32.28125 48.484375 27.875 48.484375 
Q 21.1875 48.484375 17.84375 46.4375 
Q 14.5 44.390625 14.5 40.28125 
Q 14.5 37.15625 16.890625 35.375 
Q 19.28125 33.59375 26.515625 31.984375 
L 29.59375 31.296875 
Q 39.15625 29.25 43.1875 25.515625 
Q 47.21875 21.78125 47.21875 15.09375 
Q 47.21875 7.46875 41.1875 3.015625 
Q 35.15625 -1.421875 24.609375 -1.421875 
Q 20.21875 -1.421875 15.453125 -0.5625 
Q 10.6875 0.296875 5.421875 2 
L 5.421875 11.28125 
Q 10.40625 8.6875 15.234375 7.390625 
Q 20.0625 6.109375 24.8125 6.109375 
Q 31.15625 6.109375 34.5625 8.28125 
Q 37.984375 10.453125 37.984375 14.40625 
Q 37.984375 18.0625 35.515625 20.015625 
Q 33.0625 21.96875 24.703125 23.78125 
L 21.578125 24.515625 
Q 13.234375 26.265625 9.515625 29.90625 
Q 5.8125 33.546875 5.8125 39.890625 
Q 5.8125 47.609375 11.28125 51.796875 
Q 16.75 56 26.8125 56 
Q 31.78125 56 36.171875 55.265625 
Q 40.578125 54.546875 44.28125 53.078125 
z
" id="DejaVuSans-115"/>
     <path d="M 8.5 21.578125 
L 8.5 54.6875 
L 17.484375 54.6875 
L 17.484375 21.921875 
Q 17.484375 14.15625 20.5 10.265625 
Q 23.53125 6.390625 29.59375 6.390625 
Q 36.859375 6.390625 41.078125 11.03125 
Q 45.3125 15.671875 45.3125 23.6875 
L 45.3125 54.6875 
L 54.296875 54.6875 
L 54.296875 0 
L 45.3125 0 
L 45.3125 8.40625 
Q 42.046875 3.421875 37.71875 1 
Q 33.40625 -1.421875 27.6875 -1.421875 
Q 18.265625 -1.421875 13.375 4.4375 
Q 8.5 10.296875 8.5 21.578125 
z
M 31.109375 56 
z
" id="DejaVuSans-117"/>
     <path d="M 37.109375 75.984375 
L 37.109375 68.5 
L 28.515625 68.5 
Q 23.6875 68.5 21.796875 66.546875 
Q 19.921875 64.59375 19.921875 59.515625 
L 19.921875 54.6875 
L 34.71875 54.6875 
L 34.71875 47.703125 
L 19.921875 47.703125 
L 19.921875 0 
L 10.890625 0 
L 10.890625 47.703125 
L 2.296875 47.703125 
L 2.296875 54.6875 
L 10.890625 54.6875 
L 10.890625 58.5 
Q 10.890625 67.625 15.140625 71.796875 
Q 19.390625 75.984375 28.609375 75.984375 
z
" id="DejaVuSans-102"/>
     <path d="M 45.40625 46.390625 
L 45.40625 75.984375 
L 54.390625 75.984375 
L 54.390625 0 
L 45.40625 0 
L 45.40625 8.203125 
Q 42.578125 3.328125 38.25 0.953125 
Q 33.9375 -1.421875 27.875 -1.421875 
Q 17.96875 -1.421875 11.734375 6.484375 
Q 5.515625 14.40625 5.515625 27.296875 
Q 5.515625 40.1875 11.734375 48.09375 
Q 17.96875 56 27.875 56 
Q 33.9375 56 38.25 53.625 
Q 42.578125 51.265625 45.40625 46.390625 
z
M 14.796875 27.296875 
Q 14.796875 17.390625 18.875 11.75 
Q 22.953125 6.109375 30.078125 6.109375 
Q 37.203125 6.109375 41.296875 11.75 
Q 45.40625 17.390625 45.40625 27.296875 
Q 45.40625 37.203125 41.296875 42.84375 
Q 37.203125 48.484375 30.078125 48.484375 
Q 22.953125 48.484375 18.875 42.84375 
Q 14.796875 37.203125 14.796875 27.296875 
z
" id="DejaVuSans-100"/>
     <path d="M 56.203125 29.59375 
L 56.203125 25.203125 
L 14.890625 25.203125 
Q 15.484375 15.921875 20.484375 11.0625 
Q 25.484375 6.203125 34.421875 6.203125 
Q 39.59375 6.203125 44.453125 7.46875 
Q 49.3125 8.734375 54.109375 11.28125 
L 54.109375 2.78125 
Q 49.265625 0.734375 44.1875 -0.34375 
Q 39.109375 -1.421875 33.890625 -1.421875 
Q 20.796875 -1.421875 13.15625 6.1875 
Q 5.515625 13.8125 5.515625 26.8125 
Q 5.515625 40.234375 12.765625 48.109375 
Q 20.015625 56 32.328125 56 
Q 43.359375 56 49.78125 48.890625 
Q 56.203125 41.796875 56.203125 29.59375 
z
M 47.21875 32.234375 
Q 47.125 39.59375 43.09375 43.984375 
Q 39.0625 48.390625 32.421875 48.390625 
Q 24.90625 48.390625 20.390625 44.140625 
Q 15.875 39.890625 15.1875 32.171875 
z
" id="DejaVuSans-101"/>
     <path d="M 9.421875 75.984375 
L 18.40625 75.984375 
L 18.40625 0 
L 9.421875 0 
z
" id="DejaVuSans-108"/>
     <path d="M 18.109375 8.203125 
L 18.109375 -20.796875 
L 9.078125 -20.796875 
L 9.078125 54.6875 
L 18.109375 54.6875 
L 18.109375 46.390625 
Q 20.953125 51.265625 25.265625 53.625 
Q 29.59375 56 35.59375 56 
Q 45.5625 56 51.78125 48.09375 
Q 58.015625 40.1875 58.015625 27.296875 
Q 58.015625 14.40625 51.78125 6.484375 
Q 45.5625 -1.421875 35.59375 -1.421875 
Q 29.59375 -1.421875 25.265625 0.953125 
Q 20.953125 3.328125 18.109375 8.203125 
z
M 48.6875 27.296875 
Q 48.6875 37.203125 44.609375 42.84375 
Q 40.53125 48.484375 33.40625 48.484375 
Q 26.265625 48.484375 22.1875 42.84375 
Q 18.109375 37.203125 18.109375 27.296875 
Q 18.109375 17.390625 22.1875 11.75 
Q 26.265625 6.109375 33.40625 6.109375 
Q 40.53125 6.109375 44.609375 11.75 
Q 48.6875 17.390625 48.6875 27.296875 
z
" id="DejaVuSans-112"/>
     <path d="M 18.3125 70.21875 
L 18.3125 54.6875 
L 36.8125 54.6875 
L 36.8125 47.703125 
L 18.3125 47.703125 
L 18.3125 18.015625 
Q 18.3125 11.328125 20.140625 9.421875 
Q 21.96875 7.515625 27.59375 7.515625 
L 36.8125 7.515625 
L 36.8125 0 
L 27.59375 0 
Q 17.1875 0 13.234375 3.875 
Q 9.28125 7.765625 9.28125 18.015625 
L 9.28125 47.703125 
L 2.6875 47.703125 
L 2.6875 54.6875 
L 9.28125 54.6875 
L 9.28125 70.21875 
z
" id="DejaVuSans-116"/>
     <path d="M 48.78125 52.59375 
L 48.78125 44.1875 
Q 44.96875 46.296875 41.140625 47.34375 
Q 37.3125 48.390625 33.40625 48.390625 
Q 24.65625 48.390625 19.8125 42.84375 
Q 14.984375 37.3125 14.984375 27.296875 
Q 14.984375 17.28125 19.8125 11.734375 
Q 24.65625 6.203125 33.40625 6.203125 
Q 37.3125 6.203125 41.140625 7.25 
Q 44.96875 8.296875 48.78125 10.40625 
L 48.78125 2.09375 
Q 45.015625 0.34375 40.984375 -0.53125 
Q 36.96875 -1.421875 32.421875 -1.421875 
Q 20.0625 -1.421875 12.78125 6.34375 
Q 5.515625 14.109375 5.515625 27.296875 
Q 5.515625 40.671875 12.859375 48.328125 
Q 20.21875 56 33.015625 56 
Q 37.15625 56 41.109375 55.140625 
Q 45.0625 54.296875 48.78125 52.59375 
z
" id="DejaVuSans-99"/>
     <path d="M 9.421875 54.6875 
L 18.40625 54.6875 
L 18.40625 0 
L 9.421875 0 
z
M 9.421875 75.984375 
L 18.40625 75.984375 
L 18.40625 64.59375 
L 9.421875 64.59375 
z
" id="DejaVuSans-105"/>
     <path d="M 34.28125 27.484375 
Q 23.390625 27.484375 19.1875 25 
Q 14.984375 22.515625 14.984375 16.5 
Q 14.984375 11.71875 18.140625 8.90625 
Q 21.296875 6.109375 26.703125 6.109375 
Q 34.1875 6.109375 38.703125 11.40625 
Q 43.21875 16.703125 43.21875 25.484375 
L 43.21875 27.484375 
z
M 52.203125 31.203125 
L 52.203125 0 
L 43.21875 0 
L 43.21875 8.296875 
Q 40.140625 3.328125 35.546875 0.953125 
Q 30.953125 -1.421875 24.3125 -1.421875 
Q 15.921875 -1.421875 10.953125 3.296875 
Q 6 8.015625 6 15.921875 
Q 6 25.140625 12.171875 29.828125 
Q 18.359375 34.515625 30.609375 34.515625 
L 43.21875 34.515625 
L 43.21875 35.40625 
Q 43.21875 41.609375 39.140625 45 
Q 35.0625 48.390625 27.6875 48.390625 
Q 23 48.390625 18.546875 47.265625 
Q 14.109375 46.140625 10.015625 43.890625 
L 10.015625 52.203125 
Q 14.9375 54.109375 19.578125 55.046875 
Q 24.21875 56 28.609375 56 
Q 40.484375 56 46.34375 49.84375 
Q 52.203125 43.703125 52.203125 31.203125 
z
" id="DejaVuSans-97"/>
     <path d="M 44.390625 34.1875 
Q 47.5625 33.109375 50.5625 29.59375 
Q 53.5625 26.078125 56.59375 19.921875 
L 66.609375 0 
L 56 0 
L 46.6875 18.703125 
Q 43.0625 26.03125 39.671875 28.421875 
Q 36.28125 30.8125 30.421875 30.8125 
L 19.671875 30.8125 
L 19.671875 0 
L 9.8125 0 
L 9.8125 72.90625 
L 32.078125 72.90625 
Q 44.578125 72.90625 50.734375 67.671875 
Q 56.890625 62.453125 56.890625 51.90625 
Q 56.890625 45.015625 53.6875 40.46875 
Q 50.484375 35.9375 44.390625 34.1875 
z
M 19.671875 64.796875 
L 19.671875 38.921875 
L 32.078125 38.921875 
Q 39.203125 38.921875 42.84375 42.21875 
Q 46.484375 45.515625 46.484375 51.90625 
Q 46.484375 58.296875 42.84375 61.546875 
Q 39.203125 64.796875 32.078125 64.796875 
z
" id="DejaVuSans-82"/>
     <path d="M 45.40625 27.984375 
Q 45.40625 37.75 41.375 43.109375 
Q 37.359375 48.484375 30.078125 48.484375 
Q 22.859375 48.484375 18.828125 43.109375 
Q 14.796875 37.75 14.796875 27.984375 
Q 14.796875 18.265625 18.828125 12.890625 
Q 22.859375 7.515625 30.078125 7.515625 
Q 37.359375 7.515625 41.375 12.890625 
Q 45.40625 18.265625 45.40625 27.984375 
z
M 54.390625 6.78125 
Q 54.390625 -7.171875 48.1875 -13.984375 
Q 42 -20.796875 29.203125 -20.796875 
Q 24.46875 -20.796875 20.265625 -20.09375 
Q 16.0625 -19.390625 12.109375 -17.921875 
L 12.109375 -9.1875 
Q 16.0625 -11.328125 19.921875 -12.34375 
Q 23.78125 -13.375 27.78125 -13.375 
Q 36.625 -13.375 41.015625 -8.765625 
Q 45.40625 -4.15625 45.40625 5.171875 
L 45.40625 9.625 
Q 42.625 4.78125 38.28125 2.390625 
Q 33.9375 0 27.875 0 
Q 17.828125 0 11.671875 7.65625 
Q 5.515625 15.328125 5.515625 27.984375 
Q 5.515625 40.671875 11.671875 48.328125 
Q 17.828125 56 27.875 56 
Q 33.9375 56 38.28125 53.609375 
Q 42.625 51.21875 45.40625 46.390625 
L 45.40625 54.6875 
L 54.390625 54.6875 
z
" id="DejaVuSans-103"/>
     <path d="M 9.8125 72.90625 
L 55.90625 72.90625 
L 55.90625 64.59375 
L 19.671875 64.59375 
L 19.671875 43.015625 
L 54.390625 43.015625 
L 54.390625 34.71875 
L 19.671875 34.71875 
L 19.671875 8.296875 
L 56.78125 8.296875 
L 56.78125 0 
L 9.8125 0 
z
" id="DejaVuSans-69"/>
    </defs>
    <g transform="translate(49.572188 22.48896)scale(0.12 -0.12)">
     <use xlink:href="#DejaVuSans-67"/>
     <use x="69.824219" xlink:href="#DejaVuSans-111"/>
     <use x="131.005859" xlink:href="#DejaVuSans-110"/>
     <use x="194.384766" xlink:href="#DejaVuSans-32"/>
     <use x="226.171875" xlink:href="#DejaVuSans-110"/>
     <use x="289.550781" xlink:href="#DejaVuSans-114"/>
     <use x="330.664062" xlink:href="#DejaVuSans-61"/>
     <use x="414.453125" xlink:href="#DejaVuSans-49"/>
     <use x="478.076172" xlink:href="#DejaVuSans-48"/>
     <use x="541.699219" xlink:href="#DejaVuSans-45"/>
     <use x="577.783203" xlink:href="#DejaVuSans-32"/>
     <use x="609.570312" xlink:href="#DejaVuSans-115"/>
     <use x="661.669922" xlink:href="#DejaVuSans-117"/>
     <use x="725.048828" xlink:href="#DejaVuSans-114"/>
     <use x="766.162109" xlink:href="#DejaVuSans-102"/>
     <use x="801.367188" xlink:href="#DejaVuSans-32"/>
     <use x="833.154297" xlink:href="#DejaVuSans-100"/>
     <use x="896.630859" xlink:href="#DejaVuSans-101"/>
     <use x="958.154297" xlink:href="#DejaVuSans-108"/>
     <use x="985.9375" xlink:href="#DejaVuSans-32"/>
     <use x="1017.724609" xlink:href="#DejaVuSans-112"/>
     <use x="1081.201172" xlink:href="#DejaVuSans-111"/>
     <use x="1142.382812" xlink:href="#DejaVuSans-116"/>
     <use x="1181.591797" xlink:href="#DejaVuSans-101"/>
     <use x="1243.115234" xlink:href="#DejaVuSans-110"/>
     <use x="1306.494141" xlink:href="#DejaVuSans-99"/>
     <use x="1361.474609" xlink:href="#DejaVuSans-105"/>
     <use x="1389.257812" xlink:href="#DejaVuSans-97"/>
     <use x="1450.537109" xlink:href="#DejaVuSans-108"/>
     <use x="1478.320312" xlink:href="#DejaVuSans-32"/>
     <use x="1510.107422" xlink:href="#DejaVuSans-100"/>
     <use x="1573.583984" xlink:href="#DejaVuSans-101"/>
     <use x="1635.107422" xlink:href="#DejaVuSans-32"/>
     <use x="1666.894531" xlink:href="#DejaVuSans-108"/>
     <use x="1694.677734" xlink:href="#DejaVuSans-97"/>
     <use x="1755.957031" xlink:href="#DejaVuSans-32"/>
     <use x="1787.744141" xlink:href="#DejaVuSans-82"/>
     <use x="1857.164062" xlink:href="#DejaVuSans-101"/>
     <use x="1918.6875" xlink:href="#DejaVuSans-103"/>
     <use x="1982.164062" xlink:href="#DejaVuSans-46"/>
     <use x="2013.951172" xlink:href="#DejaVuSans-56"/>
     <use x="2077.574219" xlink:href="#DejaVuSans-45"/>
     <use x="2113.658203" xlink:href="#DejaVuSans-69"/>
     <use x="2176.841797" xlink:href="#DejaVuSans-111"/>
     <use x="2238.007812" xlink:href="#DejaVuSans-46"/>
    </g>
   </g>
  </g>
 </g>
 <defs>
  <clipPath id="pbfcf50aa04">
   <rect height="266.112" width="357.12" x="7.2" y="7.2"/>
  </clipPath>
 </defs>
</svg>
