<?xml version="1.0" encoding="utf-8" standalone="no"?>
<!DOCTYPE svg PUBLIC "-//W3C//DTD SVG 1.1//EN"
  "http://www.w3.org/Graphics/SVG/1.1/DTD/svg11.dtd">
<!-- Created with matplotlib (https://matplotlib.org/) -->
<svg height="280.512pt" version="1.1" viewBox="0 0 371.52 280.512" width="371.52pt" xmlns="http://www.w3.org/2000/svg" xmlns:xlink="http://www.w3.org/1999/xlink">
 <defs>
  <style type="text/css">
*{stroke-linecap:butt;stroke-linejoin:round;}
  </style>
 </defs>
 <g id="figure_1">
  <g id="patch_1">
   <path d="M 0 280.512 
L 371.52 280.512 
L 371.52 0 
L 0 0 
z
" style="fill:#ffffff;"/>
  </g>
  <g id="patch_2">
   <path d="M 7.2 273.312 
L 364.32 273.312 
L 364.32 7.2 
L 7.2 7.2 
z
" style="fill:#ffffff;"/>
  </g>
  <g id="pane3d_1">
   <g id="patch_3">
    <path d="M 54.541774 214.510626 
L 156.751387 149.265994 
L 155.049705 24.594209 
L 47.141237 83.21517 
" style="fill:#f2f2f2;opacity:0.5;stroke:#f2f2f2;stroke-linejoin:miter;"/>
   </g>
  </g>
  <g id="pane3d_2">
   <g id="patch_4">
    <path d="M 156.751387 149.265994 
L 322.32135 185.741954 
L 329.248599 57.310742 
L 155.049705 24.594209 
" style="fill:#e6e6e6;opacity:0.5;stroke:#e6e6e6;stroke-linejoin:miter;"/>
   </g>
  </g>
  <g id="pane3d_3">
   <g id="patch_5">
    <path d="M 54.541774 214.510626 
L 228.743747 256.992825 
L 322.32135 185.741954 
L 156.751387 149.265994 
" style="fill:#ececec;opacity:0.5;stroke:#ececec;stroke-linejoin:miter;"/>
   </g>
  </g>
  <g id="axis3d_1">
   <g id="line2d_1">
    <path d="M 54.541774 214.510626 
L 228.743747 256.992825 
" style="fill:none;stroke:#000000;stroke-linecap:square;stroke-width:0.8;"/>
   </g>
   <g id="Line3DCollection_1">
    <path d="M 65.162252 217.100616 
L 166.877438 151.496818 
L 165.681723 26.591023 
" style="fill:none;stroke:#b0b0b0;stroke-width:0.8;"/>
    <path d="M 94.606041 224.280999 
L 194.928825 157.67669 
L 195.149536 32.125413 
" style="fill:none;stroke:#b0b0b0;stroke-width:0.8;"/>
    <path d="M 124.5177 231.57548 
L 223.393381 163.947586 
L 225.07361 37.745495 
" style="fill:none;stroke:#b0b0b0;stroke-width:0.8;"/>
    <path d="M 154.90847 238.986801 
L 252.280303 170.311532 
L 255.464624 43.453273 
" style="fill:none;stroke:#b0b0b0;stroke-width:0.8;"/>
    <path d="M 185.789955 246.517791 
L 281.599062 176.770613 
L 286.333593 49.250816 
" style="fill:none;stroke:#b0b0b0;stroke-width:0.8;"/>
    <path d="M 217.174137 254.171373 
L 311.359413 183.32698 
L 317.691882 55.140259 
" style="fill:none;stroke:#b0b0b0;stroke-width:0.8;"/>
   </g>
   <g id="xtick_1">
    <g id="line2d_2">
     <path d="M 66.038581 216.535405 
L 63.406326 218.233145 
" style="fill:none;stroke:#000000;stroke-linecap:square;stroke-width:0.8;"/>
    </g>
    <g id="text_1">
     <!-- 0.0 -->
     <defs>
      <path d="M 31.78125 66.40625 
Q 24.171875 66.40625 20.328125 58.90625 
Q 16.5 51.421875 16.5 36.375 
Q 16.5 21.390625 20.328125 13.890625 
Q 24.171875 6.390625 31.78125 6.390625 
Q 39.453125 6.390625 43.28125 13.890625 
Q 47.125 21.390625 47.125 36.375 
Q 47.125 51.421875 43.28125 58.90625 
Q 39.453125 66.40625 31.78125 66.40625 
z
M 31.78125 74.21875 
Q 44.046875 74.21875 50.515625 64.515625 
Q 56.984375 54.828125 56.984375 36.375 
Q 56.984375 17.96875 50.515625 8.265625 
Q 44.046875 -1.421875 31.78125 -1.421875 
Q 19.53125 -1.421875 13.0625 8.265625 
Q 6.59375 17.96875 6.59375 36.375 
Q 6.59375 54.828125 13.0625 64.515625 
Q 19.53125 74.21875 31.78125 74.21875 
z
" id="DejaVuSans-48"/>
      <path d="M 10.6875 12.40625 
L 21 12.40625 
L 21 0 
L 10.6875 0 
z
" id="DejaVuSans-46"/>
     </defs>
     <g transform="translate(49.890567 238.57252)scale(0.1 -0.1)">
      <use xlink:href="#DejaVuSans-48"/>
      <use x="63.623047" xlink:href="#DejaVuSans-46"/>
      <use x="95.410156" xlink:href="#DejaVuSans-48"/>
     </g>
    </g>
   </g>
   <g id="xtick_2">
    <g id="line2d_3">
     <path d="M 95.47086 223.706845 
L 92.873152 225.431464 
" style="fill:none;stroke:#000000;stroke-linecap:square;stroke-width:0.8;"/>
    </g>
    <g id="text_2">
     <!-- 0.2 -->
     <defs>
      <path d="M 19.1875 8.296875 
L 53.609375 8.296875 
L 53.609375 0 
L 7.328125 0 
L 7.328125 8.296875 
Q 12.9375 14.109375 22.625 23.890625 
Q 32.328125 33.6875 34.8125 36.53125 
Q 39.546875 41.84375 41.421875 45.53125 
Q 43.3125 49.21875 43.3125 52.78125 
Q 43.3125 58.59375 39.234375 62.25 
Q 35.15625 65.921875 28.609375 65.921875 
Q 23.96875 65.921875 18.8125 64.3125 
Q 13.671875 62.703125 7.8125 59.421875 
L 7.8125 69.390625 
Q 13.765625 71.78125 18.9375 73 
Q 24.125 74.21875 28.421875 74.21875 
Q 39.75 74.21875 46.484375 68.546875 
Q 53.21875 62.890625 53.21875 53.421875 
Q 53.21875 48.921875 51.53125 44.890625 
Q 49.859375 40.875 45.40625 35.40625 
Q 44.1875 33.984375 37.640625 27.21875 
Q 31.109375 20.453125 19.1875 8.296875 
z
" id="DejaVuSans-50"/>
     </defs>
     <g transform="translate(79.331045 245.875754)scale(0.1 -0.1)">
      <use xlink:href="#DejaVuSans-48"/>
      <use x="63.623047" xlink:href="#DejaVuSans-46"/>
      <use x="95.410156" xlink:href="#DejaVuSans-50"/>
     </g>
    </g>
   </g>
   <g id="xtick_3">
    <g id="line2d_4">
     <path d="M 125.370531 230.99217 
L 122.808806 232.744311 
" style="fill:none;stroke:#000000;stroke-linecap:square;stroke-width:0.8;"/>
    </g>
    <g id="text_3">
     <!-- 0.4 -->
     <defs>
      <path d="M 37.796875 64.3125 
L 12.890625 25.390625 
L 37.796875 25.390625 
z
M 35.203125 72.90625 
L 47.609375 72.90625 
L 47.609375 25.390625 
L 58.015625 25.390625 
L 58.015625 17.1875 
L 47.609375 17.1875 
L 47.609375 0 
L 37.796875 0 
L 37.796875 17.1875 
L 4.890625 17.1875 
L 4.890625 26.703125 
z
" id="DejaVuSans-52"/>
     </defs>
     <g transform="translate(109.240213 253.295254)scale(0.1 -0.1)">
      <use xlink:href="#DejaVuSans-48"/>
      <use x="63.623047" xlink:href="#DejaVuSans-46"/>
      <use x="95.410156" xlink:href="#DejaVuSans-52"/>
     </g>
    </g>
   </g>
   <g id="xtick_4">
    <g id="line2d_5">
     <path d="M 155.748817 238.394113 
L 153.224565 240.17444 
" style="fill:none;stroke:#000000;stroke-linecap:square;stroke-width:0.8;"/>
    </g>
    <g id="text_4">
     <!-- 0.6 -->
     <defs>
      <path d="M 33.015625 40.375 
Q 26.375 40.375 22.484375 35.828125 
Q 18.609375 31.296875 18.609375 23.390625 
Q 18.609375 15.53125 22.484375 10.953125 
Q 26.375 6.390625 33.015625 6.390625 
Q 39.65625 6.390625 43.53125 10.953125 
Q 47.40625 15.53125 47.40625 23.390625 
Q 47.40625 31.296875 43.53125 35.828125 
Q 39.65625 40.375 33.015625 40.375 
z
M 52.59375 71.296875 
L 52.59375 62.3125 
Q 48.875 64.0625 45.09375 64.984375 
Q 41.3125 65.921875 37.59375 65.921875 
Q 27.828125 65.921875 22.671875 59.328125 
Q 17.53125 52.734375 16.796875 39.40625 
Q 19.671875 43.65625 24.015625 45.921875 
Q 28.375 48.1875 33.59375 48.1875 
Q 44.578125 48.1875 50.953125 41.515625 
Q 57.328125 34.859375 57.328125 23.390625 
Q 57.328125 12.15625 50.6875 5.359375 
Q 44.046875 -1.421875 33.015625 -1.421875 
Q 20.359375 -1.421875 13.671875 8.265625 
Q 6.984375 17.96875 6.984375 36.375 
Q 6.984375 53.65625 15.1875 63.9375 
Q 23.390625 74.21875 37.203125 74.21875 
Q 40.921875 74.21875 44.703125 73.484375 
Q 48.484375 72.75 52.59375 71.296875 
z
" id="DejaVuSans-54"/>
     </defs>
     <g transform="translate(139.629353 260.833819)scale(0.1 -0.1)">
      <use xlink:href="#DejaVuSans-48"/>
      <use x="63.623047" xlink:href="#DejaVuSans-46"/>
      <use x="95.410156" xlink:href="#DejaVuSans-54"/>
     </g>
    </g>
   </g>
   <g id="xtick_5">
    <g id="line2d_6">
     <path d="M 186.617303 245.915498 
L 184.132073 247.724697 
" style="fill:none;stroke:#000000;stroke-linecap:square;stroke-width:0.8;"/>
    </g>
    <g id="text_5">
     <!-- 0.8 -->
     <defs>
      <path d="M 31.78125 34.625 
Q 24.75 34.625 20.71875 30.859375 
Q 16.703125 27.09375 16.703125 20.515625 
Q 16.703125 13.921875 20.71875 10.15625 
Q 24.75 6.390625 31.78125 6.390625 
Q 38.8125 6.390625 42.859375 10.171875 
Q 46.921875 13.96875 46.921875 20.515625 
Q 46.921875 27.09375 42.890625 30.859375 
Q 38.875 34.625 31.78125 34.625 
z
M 21.921875 38.8125 
Q 15.578125 40.375 12.03125 44.71875 
Q 8.5 49.078125 8.5 55.328125 
Q 8.5 64.0625 14.71875 69.140625 
Q 20.953125 74.21875 31.78125 74.21875 
Q 42.671875 74.21875 48.875 69.140625 
Q 55.078125 64.0625 55.078125 55.328125 
Q 55.078125 49.078125 51.53125 44.71875 
Q 48 40.375 41.703125 38.8125 
Q 48.828125 37.15625 52.796875 32.3125 
Q 56.78125 27.484375 56.78125 20.515625 
Q 56.78125 9.90625 50.3125 4.234375 
Q 43.84375 -1.421875 31.78125 -1.421875 
Q 19.734375 -1.421875 13.25 4.234375 
Q 6.78125 9.90625 6.78125 20.515625 
Q 6.78125 27.484375 10.78125 32.3125 
Q 14.796875 37.15625 21.921875 38.8125 
z
M 18.3125 54.390625 
Q 18.3125 48.734375 21.84375 45.5625 
Q 25.390625 42.390625 31.78125 42.390625 
Q 38.140625 42.390625 41.71875 45.5625 
Q 45.3125 48.734375 45.3125 54.390625 
Q 45.3125 60.0625 41.71875 63.234375 
Q 38.140625 66.40625 31.78125 66.40625 
Q 25.390625 66.40625 21.84375 63.234375 
Q 18.3125 60.0625 18.3125 54.390625 
z
" id="DejaVuSans-56"/>
     </defs>
     <g transform="translate(170.510113 268.49434)scale(0.1 -0.1)">
      <use xlink:href="#DejaVuSans-48"/>
      <use x="63.623047" xlink:href="#DejaVuSans-46"/>
      <use x="95.410156" xlink:href="#DejaVuSans-56"/>
     </g>
    </g>
   </g>
   <g id="xtick_6">
    <g id="line2d_7">
     <path d="M 217.987949 253.559239 
L 215.543353 255.398018 
" style="fill:none;stroke:#000000;stroke-linecap:square;stroke-width:0.8;"/>
    </g>
    <g id="text_6">
     <!-- 1.0 -->
     <defs>
      <path d="M 12.40625 8.296875 
L 28.515625 8.296875 
L 28.515625 63.921875 
L 10.984375 60.40625 
L 10.984375 69.390625 
L 28.421875 72.90625 
L 38.28125 72.90625 
L 38.28125 8.296875 
L 54.390625 8.296875 
L 54.390625 0 
L 12.40625 0 
z
" id="DejaVuSans-49"/>
     </defs>
     <g transform="translate(201.894518 276.279799)scale(0.1 -0.1)">
      <use xlink:href="#DejaVuSans-49"/>
      <use x="63.623047" xlink:href="#DejaVuSans-46"/>
      <use x="95.410156" xlink:href="#DejaVuSans-48"/>
     </g>
    </g>
   </g>
  </g>
  <g id="axis3d_2">
   <g id="line2d_8">
    <path d="M 322.32135 185.741954 
L 228.743747 256.992825 
" style="fill:none;stroke:#000000;stroke-linecap:square;stroke-width:0.8;"/>
   </g>
   <g id="Line3DCollection_2">
    <path d="M 54.530092 79.201196 
L 61.515028 210.059309 
L 235.148062 252.11652 
" style="fill:none;stroke:#b0b0b0;stroke-width:0.8;"/>
    <path d="M 74.410294 68.401334 
L 80.295501 198.070955 
L 252.38167 238.994688 
" style="fill:none;stroke:#b0b0b0;stroke-width:0.8;"/>
    <path d="M 93.742663 57.899081 
L 98.584318 186.396445 
L 269.1437 226.231919 
" style="fill:none;stroke:#b0b0b0;stroke-width:0.8;"/>
    <path d="M 112.549534 47.682303 
L 116.400537 175.023614 
L 285.453248 213.813675 
" style="fill:none;stroke:#b0b0b0;stroke-width:0.8;"/>
    <path d="M 130.852048 37.739516 
L 133.762243 163.940917 
L 301.328392 201.726191 
" style="fill:none;stroke:#b0b0b0;stroke-width:0.8;"/>
    <path d="M 148.670224 28.059844 
L 150.686609 153.137393 
L 316.786258 189.956425 
" style="fill:none;stroke:#b0b0b0;stroke-width:0.8;"/>
   </g>
   <g id="xtick_7">
    <g id="line2d_9">
     <path d="M 233.694906 251.764538 
L 238.057621 252.82127 
" style="fill:none;stroke:#000000;stroke-linecap:square;stroke-width:0.8;"/>
    </g>
    <g id="text_7">
     <!-- 5.0 -->
     <defs>
      <path d="M 10.796875 72.90625 
L 49.515625 72.90625 
L 49.515625 64.59375 
L 19.828125 64.59375 
L 19.828125 46.734375 
Q 21.96875 47.46875 24.109375 47.828125 
Q 26.265625 48.1875 28.421875 48.1875 
Q 40.625 48.1875 47.75 41.5 
Q 54.890625 34.8125 54.890625 23.390625 
Q 54.890625 11.625 47.5625 5.09375 
Q 40.234375 -1.421875 26.90625 -1.421875 
Q 22.3125 -1.421875 17.546875 -0.640625 
Q 12.796875 0.140625 7.71875 1.703125 
L 7.71875 11.625 
Q 12.109375 9.234375 16.796875 8.0625 
Q 21.484375 6.890625 26.703125 6.890625 
Q 35.15625 6.890625 40.078125 11.328125 
Q 45.015625 15.765625 45.015625 23.390625 
Q 45.015625 31 40.078125 35.4375 
Q 35.15625 39.890625 26.703125 39.890625 
Q 22.75 39.890625 18.8125 39.015625 
Q 14.890625 38.140625 10.796875 36.28125 
z
" id="DejaVuSans-53"/>
     </defs>
     <g transform="translate(239.895847 271.872728)scale(0.1 -0.1)">
      <use xlink:href="#DejaVuSans-53"/>
      <use x="63.623047" xlink:href="#DejaVuSans-46"/>
      <use x="95.410156" xlink:href="#DejaVuSans-48"/>
     </g>
    </g>
   </g>
   <g id="xtick_8">
    <g id="line2d_10">
     <path d="M 250.942341 238.652401 
L 255.2635 239.680014 
" style="fill:none;stroke:#000000;stroke-linecap:square;stroke-width:0.8;"/>
    </g>
    <g id="text_8">
     <!-- 5.2 -->
     <g transform="translate(256.944719 258.588928)scale(0.1 -0.1)">
      <use xlink:href="#DejaVuSans-53"/>
      <use x="63.623047" xlink:href="#DejaVuSans-46"/>
      <use x="95.410156" xlink:href="#DejaVuSans-50"/>
     </g>
    </g>
   </g>
   <g id="xtick_9">
    <g id="line2d_11">
     <path d="M 267.71799 225.898933 
L 271.998219 226.898614 
" style="fill:none;stroke:#000000;stroke-linecap:square;stroke-width:0.8;"/>
    </g>
    <g id="text_9">
     <!-- 5.4 -->
     <g transform="translate(273.527299 245.668443)scale(0.1 -0.1)">
      <use xlink:href="#DejaVuSans-53"/>
      <use x="63.623047" xlink:href="#DejaVuSans-46"/>
      <use x="95.410156" xlink:href="#DejaVuSans-52"/>
     </g>
    </g>
   </g>
   <g id="xtick_10">
    <g id="line2d_12">
     <path d="M 284.040952 213.489616 
L 288.28087 214.462488 
" style="fill:none;stroke:#000000;stroke-linecap:square;stroke-width:0.8;"/>
    </g>
    <g id="text_10">
     <!-- 5.6 -->
     <g transform="translate(289.66246 233.09657)scale(0.1 -0.1)">
      <use xlink:href="#DejaVuSans-53"/>
      <use x="63.623047" xlink:href="#DejaVuSans-46"/>
      <use x="95.410156" xlink:href="#DejaVuSans-54"/>
     </g>
    </g>
   </g>
   <g id="xtick_11">
    <g id="line2d_13">
     <path d="M 299.929304 201.410704 
L 304.129527 202.357832 
" style="fill:none;stroke:#000000;stroke-linecap:square;stroke-width:0.8;"/>
    </g>
    <g id="text_11">
     <!-- 5.8 -->
     <g transform="translate(305.368069 220.859387)scale(0.1 -0.1)">
      <use xlink:href="#DejaVuSans-53"/>
      <use x="63.623047" xlink:href="#DejaVuSans-46"/>
      <use x="95.410156" xlink:href="#DejaVuSans-56"/>
     </g>
    </g>
   </g>
   <g id="xtick_12">
    <g id="line2d_14">
     <path d="M 315.400177 189.649175 
L 319.561313 190.571567 
" style="fill:none;stroke:#000000;stroke-linecap:square;stroke-width:0.8;"/>
    </g>
    <g id="text_12">
     <!-- 6.0 -->
     <g transform="translate(320.661053 208.943704)scale(0.1 -0.1)">
      <use xlink:href="#DejaVuSans-54"/>
      <use x="63.623047" xlink:href="#DejaVuSans-46"/>
      <use x="95.410156" xlink:href="#DejaVuSans-48"/>
     </g>
    </g>
   </g>
  </g>
  <g id="axis3d_3">
   <g id="line2d_15">
    <path d="M 322.32135 185.741954 
L 329.248599 57.310742 
" style="fill:none;stroke:#000000;stroke-linecap:square;stroke-width:0.8;"/>
   </g>
   <g id="Line3DCollection_3">
    <path d="M 322.453105 183.299211 
L 156.718952 146.889682 
L 54.401255 212.01762 
" style="fill:none;stroke:#b0b0b0;stroke-width:0.8;"/>
    <path d="M 323.392667 165.879721 
L 156.487732 129.949635 
L 53.398926 194.234961 
" style="fill:none;stroke:#b0b0b0;stroke-width:0.8;"/>
    <path d="M 324.345715 148.21022 
L 156.253334 112.776689 
L 52.381733 176.188598 
" style="fill:none;stroke:#b0b0b0;stroke-width:0.8;"/>
    <path d="M 325.31254 130.285286 
L 156.01569 95.366008 
L 51.349344 157.872621 
" style="fill:none;stroke:#b0b0b0;stroke-width:0.8;"/>
    <path d="M 326.293443 112.09934 
L 155.774734 77.71262 
L 50.301414 139.280943 
" style="fill:none;stroke:#b0b0b0;stroke-width:0.8;"/>
    <path d="M 327.288734 93.646639 
L 155.530395 59.811415 
L 49.237591 120.407292 
" style="fill:none;stroke:#b0b0b0;stroke-width:0.8;"/>
    <path d="M 328.298732 74.921271 
L 155.282602 41.657137 
L 48.157509 101.245203 
" style="fill:none;stroke:#b0b0b0;stroke-width:0.8;"/>
   </g>
   <g id="xtick_13">
    <g id="line2d_16">
     <path d="M 321.07029 182.995425 
L 325.221611 183.907414 
" style="fill:none;stroke:#000000;stroke-linecap:square;stroke-width:0.8;"/>
    </g>
    <g id="text_13">
     <!-- 1.00 -->
     <g transform="translate(329.67012 188.931694)scale(0.1 -0.1)">
      <use xlink:href="#DejaVuSans-49"/>
      <use x="63.623047" xlink:href="#DejaVuSans-46"/>
      <use x="95.410156" xlink:href="#DejaVuSans-48"/>
      <use x="159.033203" xlink:href="#DejaVuSans-48"/>
     </g>
    </g>
   </g>
   <g id="xtick_14">
    <g id="line2d_17">
     <path d="M 321.999676 165.579848 
L 326.181569 166.480096 
" style="fill:none;stroke:#000000;stroke-linecap:square;stroke-width:0.8;"/>
    </g>
    <g id="text_14">
     <!-- 1.01 -->
     <g transform="translate(330.73801 171.537549)scale(0.1 -0.1)">
      <use xlink:href="#DejaVuSans-49"/>
      <use x="63.623047" xlink:href="#DejaVuSans-46"/>
      <use x="95.410156" xlink:href="#DejaVuSans-48"/>
      <use x="159.033203" xlink:href="#DejaVuSans-49"/>
     </g>
    </g>
   </g>
   <g id="xtick_15">
    <g id="line2d_18">
     <path d="M 322.942395 147.914403 
L 327.155315 148.802478 
" style="fill:none;stroke:#000000;stroke-linecap:square;stroke-width:0.8;"/>
    </g>
    <g id="text_15">
     <!-- 1.02 -->
     <g transform="translate(331.821192 153.894324)scale(0.1 -0.1)">
      <use xlink:href="#DejaVuSans-49"/>
      <use x="63.623047" xlink:href="#DejaVuSans-46"/>
      <use x="95.410156" xlink:href="#DejaVuSans-48"/>
      <use x="159.033203" xlink:href="#DejaVuSans-50"/>
     </g>
    </g>
   </g>
   <g id="xtick_16">
    <g id="line2d_19">
     <path d="M 323.898738 129.993674 
L 328.143147 130.869129 
" style="fill:none;stroke:#000000;stroke-linecap:square;stroke-width:0.8;"/>
    </g>
    <g id="text_16">
     <!-- 1.03 -->
     <defs>
      <path d="M 40.578125 39.3125 
Q 47.65625 37.796875 51.625 33 
Q 55.609375 28.21875 55.609375 21.1875 
Q 55.609375 10.40625 48.1875 4.484375 
Q 40.765625 -1.421875 27.09375 -1.421875 
Q 22.515625 -1.421875 17.65625 -0.515625 
Q 12.796875 0.390625 7.625 2.203125 
L 7.625 11.71875 
Q 11.71875 9.328125 16.59375 8.109375 
Q 21.484375 6.890625 26.8125 6.890625 
Q 36.078125 6.890625 40.9375 10.546875 
Q 45.796875 14.203125 45.796875 21.1875 
Q 45.796875 27.640625 41.28125 31.265625 
Q 36.765625 34.90625 28.71875 34.90625 
L 20.21875 34.90625 
L 20.21875 43.015625 
L 29.109375 43.015625 
Q 36.375 43.015625 40.234375 45.921875 
Q 44.09375 48.828125 44.09375 54.296875 
Q 44.09375 59.90625 40.109375 62.90625 
Q 36.140625 65.921875 28.71875 65.921875 
Q 24.65625 65.921875 20.015625 65.03125 
Q 15.375 64.15625 9.8125 62.3125 
L 9.8125 71.09375 
Q 15.4375 72.65625 20.34375 73.4375 
Q 25.25 74.21875 29.59375 74.21875 
Q 40.828125 74.21875 47.359375 69.109375 
Q 53.90625 64.015625 53.90625 55.328125 
Q 53.90625 49.265625 50.4375 45.09375 
Q 46.96875 40.921875 40.578125 39.3125 
z
" id="DejaVuSans-51"/>
     </defs>
     <g transform="translate(332.919997 135.99663)scale(0.1 -0.1)">
      <use xlink:href="#DejaVuSans-49"/>
      <use x="63.623047" xlink:href="#DejaVuSans-46"/>
      <use x="95.410156" xlink:href="#DejaVuSans-48"/>
      <use x="159.033203" xlink:href="#DejaVuSans-51"/>
     </g>
    </g>
   </g>
   <g id="xtick_17">
    <g id="line2d_20">
     <path d="M 324.869002 111.812088 
L 329.145373 112.674459 
" style="fill:none;stroke:#000000;stroke-linecap:square;stroke-width:0.8;"/>
    </g>
    <g id="text_17">
     <!-- 1.04 -->
     <g transform="translate(334.034765 117.838922)scale(0.1 -0.1)">
      <use xlink:href="#DejaVuSans-49"/>
      <use x="63.623047" xlink:href="#DejaVuSans-46"/>
      <use x="95.410156" xlink:href="#DejaVuSans-48"/>
      <use x="159.033203" xlink:href="#DejaVuSans-52"/>
     </g>
    </g>
   </g>
   <g id="xtick_18">
    <g id="line2d_21">
     <path d="M 325.853493 93.363906 
L 330.162311 94.212714 
" style="fill:none;stroke:#000000;stroke-linecap:square;stroke-width:0.8;"/>
    </g>
    <g id="text_18">
     <!-- 1.05 -->
     <g transform="translate(335.165847 99.415492)scale(0.1 -0.1)">
      <use xlink:href="#DejaVuSans-49"/>
      <use x="63.623047" xlink:href="#DejaVuSans-46"/>
      <use x="95.410156" xlink:href="#DejaVuSans-48"/>
      <use x="159.033203" xlink:href="#DejaVuSans-53"/>
     </g>
    </g>
   </g>
   <g id="xtick_19">
    <g id="line2d_22">
     <path d="M 326.852525 74.643223 
L 331.194287 75.477971 
" style="fill:none;stroke:#000000;stroke-linecap:square;stroke-width:0.8;"/>
    </g>
    <g id="text_19">
     <!-- 1.06 -->
     <g transform="translate(336.313603 80.720465)scale(0.1 -0.1)">
      <use xlink:href="#DejaVuSans-49"/>
      <use x="63.623047" xlink:href="#DejaVuSans-46"/>
      <use x="95.410156" xlink:href="#DejaVuSans-48"/>
      <use x="159.033203" xlink:href="#DejaVuSans-54"/>
     </g>
    </g>
   </g>
  </g>
  <g id="axes_1">
   <g id="Poly3DCollection_1">
    <path clip-path="url(#p752bc2c793)" d="M 151.358607 149.899504 
L 167.08563 153.500973 
L 176.41033 156.448526 
L 160.81444 153.001105 
z
" style="fill:#ff0a00;"/>
    <path clip-path="url(#p752bc2c793)" d="M 167.08563 153.500973 
L 182.941755 157.389973 
L 192.133719 159.92413 
L 176.41033 156.448526 
z
" style="fill:#ff0900;"/>
    <path clip-path="url(#p752bc2c793)" d="M 182.941755 157.389973 
L 198.923555 161.563758 
L 207.98618 163.428265 
L 192.133719 159.92413 
z
" style="fill:#ff0900;"/>
    <path clip-path="url(#p752bc2c793)" d="M 141.691524 146.468351 
L 157.55438 150.228023 
L 167.08563 153.500973 
L 151.358607 149.899504 
z
" style="fill:#ff2100;"/>
    <path clip-path="url(#p752bc2c793)" d="M 198.923555 161.563758 
L 215.027651 166.014418 
L 223.969306 166.961283 
L 207.98618 163.428265 
z
" style="fill:#ff0800;"/>
    <path clip-path="url(#p752bc2c793)" d="M 157.55438 150.228023 
L 173.549988 154.544213 
L 182.941755 157.389973 
L 167.08563 153.500973 
z
" style="fill:#ff2000;"/>
    <path clip-path="url(#p752bc2c793)" d="M 215.027651 166.014418 
L 231.250914 170.726583 
L 240.08472 170.523542 
L 223.969306 166.961283 
z
" style="fill:#ff0700;"/>
    <path clip-path="url(#p752bc2c793)" d="M 173.549988 154.544213 
L 189.669649 159.412128 
L 198.923555 161.563758 
L 182.941755 157.389973 
z
" style="fill:#ff1e00;"/>
    <path clip-path="url(#p752bc2c793)" d="M 231.250914 170.726583 
L 247.590782 175.675087 
L 256.334073 174.115409 
L 240.08472 170.523542 
z
" style="fill:#ff0500;"/>
    <path clip-path="url(#p752bc2c793)" d="M 131.796704 142.427527 
L 147.802026 146.349989 
L 157.55438 150.228023 
L 141.691524 146.468351 
z
" style="fill:#ff3800;"/>
    <path clip-path="url(#p752bc2c793)" d="M 189.669649 159.412128 
L 205.904655 164.817032 
L 215.027651 166.014418 
L 198.923555 161.563758 
z
" style="fill:#ff1b00;"/>
    <path clip-path="url(#p752bc2c793)" d="M 247.590782 175.675087 
L 264.045635 180.82365 
L 272.719039 177.737252 
L 256.334073 174.115409 
z
" style="fill:#ff0300;"/>
    <path clip-path="url(#p752bc2c793)" d="M 147.802026 146.349989 
L 163.946016 151.110635 
L 173.549988 154.544213 
L 157.55438 150.228023 
z
" style="fill:#ff3700;"/>
    <path clip-path="url(#p752bc2c793)" d="M 205.904655 164.817032 
L 222.246685 170.728991 
L 231.250914 170.726583 
L 215.027651 166.014418 
z
" style="fill:#ff1700;"/>
    <path clip-path="url(#p752bc2c793)" d="M 264.045635 180.82365 
L 280.615174 186.125403 
L 289.241325 181.38945 
L 272.719039 177.737252 
z
" style="fill:#ff0200;"/>
    <path clip-path="url(#p752bc2c793)" d="M 222.246685 170.728991 
L 238.688438 177.09703 
L 247.590782 175.675087 
L 231.250914 170.726583 
z
" style="fill:#ff1300;"/>
    <path clip-path="url(#p752bc2c793)" d="M 163.946016 151.110635 
L 180.214383 156.70535 
L 189.669649 159.412128 
L 173.549988 154.544213 
z
" style="fill:#ff3400;"/>
    <path clip-path="url(#p752bc2c793)" d="M 280.615174 186.125403 
L 297.300713 191.525289 
L 305.902663 185.072384 
L 289.241325 181.38945 
z
" style="fill:#ff0000;"/>
    <path clip-path="url(#p752bc2c793)" d="M 238.688438 177.09703 
L 255.224461 183.84572 
L 264.045635 180.82365 
L 247.590782 175.675087 
z
" style="fill:#ff0d00;"/>
    <path clip-path="url(#p752bc2c793)" d="M 180.214383 156.70535 
L 196.592648 163.117072 
L 205.904655 164.817032 
L 189.669649 159.412128 
z
" style="fill:#ff2f00;"/>
    <path clip-path="url(#p752bc2c793)" d="M 121.652222 137.477357 
L 137.808733 141.566629 
L 147.802026 146.349989 
L 131.796704 142.427527 
z
" style="fill:#ff5200;"/>
    <path clip-path="url(#p752bc2c793)" d="M 255.224461 183.84572 
L 271.851977 190.87654 
L 280.615174 186.125403 
L 264.045635 180.82365 
z
" style="fill:#ff0800;"/>
    <path clip-path="url(#p752bc2c793)" d="M 196.592648 163.117072 
L 213.066658 170.306304 
L 222.246685 170.728991 
L 205.904655 164.817032 
z
" style="fill:#ff2900;"/>
    <path clip-path="url(#p752bc2c793)" d="M 137.808733 141.566629 
L 154.112363 146.789776 
L 163.946016 151.110635 
L 147.802026 146.349989 
z
" style="fill:#ff5000;"/>
    <path clip-path="url(#p752bc2c793)" d="M 213.066658 170.306304 
L 229.623561 178.198293 
L 238.688438 177.09703 
L 222.246685 170.728991 
z
" style="fill:#ff2100;"/>
    <path clip-path="url(#p752bc2c793)" d="M 271.851977 190.87654 
L 288.571516 198.07365 
L 297.300713 191.525289 
L 280.615174 186.125403 
z
" style="fill:#ff0200;"/>
    <path clip-path="url(#p752bc2c793)" d="M 154.112363 146.789776 
L 170.542914 153.147476 
L 180.214383 156.70535 
L 163.946016 151.110635 
z
" style="fill:#ff4b00;"/>
    <path clip-path="url(#p752bc2c793)" d="M 229.623561 178.198293 
L 246.253221 186.674868 
L 255.224461 183.84572 
L 238.688438 177.09703 
z
" style="fill:#ff1800;"/>
    <path clip-path="url(#p752bc2c793)" d="M 170.542914 153.147476 
L 187.079686 160.628877 
L 196.592648 163.117072 
L 180.214383 156.70535 
z
" style="fill:#ff4400;"/>
    <path clip-path="url(#p752bc2c793)" d="M 246.253221 186.674868 
L 262.949679 195.577587 
L 271.851977 190.87654 
L 255.224461 183.84572 
z
" style="fill:#ff0e00;"/>
    <path clip-path="url(#p752bc2c793)" d="M 111.230001 131.296497 
L 127.548651 135.553924 
L 137.808733 141.566629 
L 121.652222 137.477357 
z
" style="fill:#ff6e00;"/>
    <path clip-path="url(#p752bc2c793)" d="M 187.079686 160.628877 
L 203.701927 169.198089 
L 213.066658 170.306304 
L 196.592648 163.117072 
z
" style="fill:#ff3b00;"/>
    <path clip-path="url(#p752bc2c793)" d="M 262.949679 195.577587 
L 279.712229 204.719601 
L 288.571516 198.07365 
L 271.851977 190.87654 
z
" style="fill:#ff0400;"/>
    <path clip-path="url(#p752bc2c793)" d="M 203.701927 169.198089 
L 220.39004 178.764258 
L 229.623561 178.198293 
L 213.066658 170.306304 
z
" style="fill:#ff3000;"/>
    <path clip-path="url(#p752bc2c793)" d="M 127.548651 135.553924 
L 144.025694 141.254644 
L 154.112363 146.789776 
L 137.808733 141.566629 
z
" style="fill:#ff6b00;"/>
    <path clip-path="url(#p752bc2c793)" d="M 220.39004 178.764258 
L 237.127914 189.160244 
L 246.253221 186.674868 
L 229.623561 178.198293 
z
" style="fill:#ff2300;"/>
    <path clip-path="url(#p752bc2c793)" d="M 144.025694 141.254644 
L 160.634752 148.40681 
L 170.542914 153.147476 
L 154.112363 146.789776 
z
" style="fill:#ff6500;"/>
    <path clip-path="url(#p752bc2c793)" d="M 237.127914 189.160244 
L 253.905394 200.152224 
L 262.949679 195.577587 
L 246.253221 186.674868 
z
" style="fill:#ff1500;"/>
    <path clip-path="url(#p752bc2c793)" d="M 253.905394 200.152224 
L 270.719922 211.465339 
L 279.712229 204.719601 
L 262.949679 195.577587 
z
" style="fill:#ff0600;"/>
    <path clip-path="url(#p752bc2c793)" d="M 160.634752 148.40681 
L 177.34859 157.015411 
L 187.079686 160.628877 
L 170.542914 153.147476 
z
" style="fill:#ff5c00;"/>
    <path clip-path="url(#p752bc2c793)" d="M 177.34859 157.015411 
L 194.1392 167.082975 
L 203.701927 169.198089 
L 187.079686 160.628877 
z
" style="fill:#ff5000;"/>
    <path clip-path="url(#p752bc2c793)" d="M 100.495214 123.545354 
L 116.989025 127.960108 
L 127.548651 135.553924 
L 111.230001 131.296497 
z
" style="fill:#ff8c00;"/>
    <path clip-path="url(#p752bc2c793)" d="M 194.1392 167.082975 
L 210.978549 178.527383 
L 220.39004 178.764258 
L 203.701927 169.198089 
z
" style="fill:#ff4100;"/>
    <path clip-path="url(#p752bc2c793)" d="M 210.978549 178.527383 
L 227.842506 191.1159 
L 237.127914 189.160244 
L 220.39004 178.764258 
z
" style="fill:#ff3000;"/>
    <path clip-path="url(#p752bc2c793)" d="M 116.989025 127.960108 
L 133.655951 134.149337 
L 144.025694 141.254644 
L 127.548651 135.553924 
z
" style="fill:#ff8900;"/>
    <path clip-path="url(#p752bc2c793)" d="M 227.842506 191.1159 
L 244.71527 204.50704 
L 253.905394 200.152224 
L 237.127914 189.160244 
z
" style="fill:#ff1d00;"/>
    <path clip-path="url(#p752bc2c793)" d="M 244.71527 204.50704 
L 261.591576 218.313129 
L 270.719922 211.465339 
L 253.905394 200.152224 
z
" style="fill:#ff0900;"/>
    <path clip-path="url(#p752bc2c793)" d="M 133.655951 134.149337 
L 150.46283 142.11936 
L 160.634752 148.40681 
L 144.025694 141.254644 
z
" style="fill:#ff8200;"/>
    <path clip-path="url(#p752bc2c793)" d="M 150.46283 142.11936 
L 167.375412 151.862603 
L 177.34859 157.015411 
L 160.634752 148.40681 
z
" style="fill:#ff7700;"/>
    <path clip-path="url(#p752bc2c793)" d="M 167.375412 151.862603 
L 184.359241 163.529263 
L 194.1392 167.082975 
L 177.34859 157.015411 
z
" style="fill:#ff6800;"/>
    <path clip-path="url(#p752bc2c793)" d="M 184.359241 163.529263 
L 201.37546 177.134421 
L 210.978549 178.527383 
L 194.1392 167.082975 
z
" style="fill:#ff5500;"/>
    <path clip-path="url(#p752bc2c793)" d="M 235.37423 208.524156 
L 252.32408 225.265305 
L 261.591576 218.313129 
L 244.71527 204.50704 
z
" style="fill:#ff0c00;"/>
    <path clip-path="url(#p752bc2c793)" d="M 201.37546 177.134421 
L 218.388252 192.308295 
L 227.842506 191.1159 
L 210.978549 178.527383 
z
" style="fill:#ff3f00;"/>
    <path clip-path="url(#p752bc2c793)" d="M 218.388252 192.308295 
L 235.37423 208.524156 
L 244.71527 204.50704 
L 227.842506 191.1159 
z
" style="fill:#ff2600;"/>
    <path clip-path="url(#p752bc2c793)" d="M 89.407333 113.909607 
L 106.088421 118.379408 
L 116.989025 127.960108 
L 100.495214 123.545354 
z
" style="fill:#ffaf00;"/>
    <path clip-path="url(#p752bc2c793)" d="M 106.088421 118.379408 
L 122.965123 125.077473 
L 133.655951 134.149337 
L 116.989025 127.960108 
z
" style="fill:#ffab00;"/>
    <path clip-path="url(#p752bc2c793)" d="M 122.965123 125.077473 
L 139.993997 133.961702 
L 150.46283 142.11936 
L 133.655951 134.149337 
z
" style="fill:#ffa200;"/>
    <path clip-path="url(#p752bc2c793)" d="M 225.875696 212.041525 
L 242.914228 232.324271 
L 252.32408 225.265305 
L 235.37423 208.524156 
z
" style="fill:#ff1000;"/>
    <path clip-path="url(#p752bc2c793)" d="M 139.993997 133.961702 
L 157.126988 144.63779 
L 167.375412 151.862603 
L 150.46283 142.11936 
z
" style="fill:#ff9500;"/>
    <path clip-path="url(#p752bc2c793)" d="M 208.752502 192.467822 
L 225.875696 212.041525 
L 235.37423 208.524156 
L 218.388252 192.308295 
z
" style="fill:#ff3100;"/>
    <path clip-path="url(#p752bc2c793)" d="M 191.560907 174.104288 
L 208.752502 192.467822 
L 218.388252 192.308295 
L 201.37546 177.134421 
z
" style="fill:#ff5100;"/>
    <path clip-path="url(#p752bc2c793)" d="M 157.126988 144.63779 
L 174.333433 157.858662 
L 184.359241 163.529263 
L 167.375412 151.862603 
z
" style="fill:#ff8300;"/>
    <path clip-path="url(#p752bc2c793)" d="M 174.333433 157.858662 
L 191.560907 174.104288 
L 201.37546 177.134421 
L 184.359241 163.529263 
z
" style="fill:#ff6d00;"/>
    <path clip-path="url(#p752bc2c793)" d="M 77.938523 102.507863 
L 94.786364 106.119292 
L 106.088421 118.379408 
L 89.407333 113.909607 
z
" style="fill:#ffd500;"/>
    <path clip-path="url(#p752bc2c793)" d="M 216.212087 214.711775 
L 233.358715 239.492508 
L 242.914228 232.324271 
L 225.875696 212.041525 
z
" style="fill:#ff1400;"/>
    <path clip-path="url(#p752bc2c793)" d="M 94.786364 106.119292 
L 111.900527 113.426392 
L 122.965123 125.077473 
L 106.088421 118.379408 
z
" style="fill:#ffd100;"/>
    <path clip-path="url(#p752bc2c793)" d="M 198.917193 191.451967 
L 216.212087 214.711775 
L 225.875696 212.041525 
L 208.752502 192.467822 
z
" style="fill:#ff3e00;"/>
    <path clip-path="url(#p752bc2c793)" d="M 111.900527 113.426392 
L 129.20202 124.160795 
L 139.993997 133.961702 
L 122.965123 125.077473 
z
" style="fill:#ffc600;"/>
    <path clip-path="url(#p752bc2c793)" d="M 181.506018 168.878843 
L 198.917193 191.451967 
L 208.752502 192.467822 
L 191.560907 174.104288 
z
" style="fill:#ff6600;"/>
    <path clip-path="url(#p752bc2c793)" d="M 129.20202 124.160795 
L 146.55613 134.580433 
L 157.126988 144.63779 
L 139.993997 133.961702 
z
" style="fill:#ffb800;"/>
    <path clip-path="url(#p752bc2c793)" d="M 164.012603 148.616632 
L 181.506018 168.878843 
L 191.560907 174.104288 
L 174.333433 157.858662 
z
" style="fill:#ff8900;"/>
    <path clip-path="url(#p752bc2c793)" d="M 146.55613 134.580433 
L 164.012603 148.616632 
L 174.333433 157.858662 
L 157.126988 144.63779 
z
" style="fill:#ffa500;"/>
    <path clip-path="url(#p752bc2c793)" d="M 206.376169 215.195642 
L 223.654133 246.772572 
L 233.358715 239.492508 
L 216.212087 214.711775 
z
" style="fill:#ff1b00;"/>
    <path clip-path="url(#p752bc2c793)" d="M 188.861922 190.265175 
L 206.376169 215.195642 
L 216.212087 214.711775 
L 198.917193 191.451967 
z
" style="fill:#ff4e00;"/>
    <path clip-path="url(#p752bc2c793)" d="M 66.303026 94.378727 
L 82.896291 87.834266 
L 94.786364 106.119292 
L 77.938523 102.507863 
z
" style="fill:#ffff00;"/>
    <path clip-path="url(#p752bc2c793)" d="M 171.182253 162.272326 
L 188.861922 190.265175 
L 198.917193 191.451967 
L 181.506018 168.878843 
z
" style="fill:#ff7d00;"/>
    <path clip-path="url(#p752bc2c793)" d="M 82.896291 87.834266 
L 100.341158 97.006322 
L 111.900527 113.426392 
L 94.786364 106.119292 
z
" style="fill:#ffff00;"/>
    <path clip-path="url(#p752bc2c793)" d="M 100.341158 97.006322 
L 118.196677 117.571016 
L 129.20202 124.160795 
L 111.900527 113.426392 
z
" style="fill:#ffed00;"/>
    <path clip-path="url(#p752bc2c793)" d="M 118.196677 117.571016 
L 135.575766 119.769156 
L 146.55613 134.580433 
L 129.20202 124.160795 
z
" style="fill:#ffdd00;"/>
    <path clip-path="url(#p752bc2c793)" d="M 153.276103 131.306316 
L 171.182253 162.272326 
L 181.506018 168.878843 
L 164.012603 148.616632 
z
" style="fill:#ffae00;"/>
    <path clip-path="url(#p752bc2c793)" d="M 135.575766 119.769156 
L 153.276103 131.306316 
L 164.012603 148.616632 
L 146.55613 134.580433 
z
" style="fill:#ffd000;"/>
   </g>
   <g id="text_20">
    <!-- Con nr=100- surf del potencial de la Reg.6-Eo. -->
    <defs>
     <path d="M 64.40625 67.28125 
L 64.40625 56.890625 
Q 59.421875 61.53125 53.78125 63.8125 
Q 48.140625 66.109375 41.796875 66.109375 
Q 29.296875 66.109375 22.65625 58.46875 
Q 16.015625 50.828125 16.015625 36.375 
Q 16.015625 21.96875 22.65625 14.328125 
Q 29.296875 6.6875 41.796875 6.6875 
Q 48.140625 6.6875 53.78125 8.984375 
Q 59.421875 11.28125 64.40625 15.921875 
L 64.40625 5.609375 
Q 59.234375 2.09375 53.4375 0.328125 
Q 47.65625 -1.421875 41.21875 -1.421875 
Q 24.65625 -1.421875 15.125 8.703125 
Q 5.609375 18.84375 5.609375 36.375 
Q 5.609375 53.953125 15.125 64.078125 
Q 24.65625 74.21875 41.21875 74.21875 
Q 47.75 74.21875 53.53125 72.484375 
Q 59.328125 70.75 64.40625 67.28125 
z
" id="DejaVuSans-67"/>
     <path d="M 30.609375 48.390625 
Q 23.390625 48.390625 19.1875 42.75 
Q 14.984375 37.109375 14.984375 27.296875 
Q 14.984375 17.484375 19.15625 11.84375 
Q 23.34375 6.203125 30.609375 6.203125 
Q 37.796875 6.203125 41.984375 11.859375 
Q 46.1875 17.53125 46.1875 27.296875 
Q 46.1875 37.015625 41.984375 42.703125 
Q 37.796875 48.390625 30.609375 48.390625 
z
M 30.609375 56 
Q 42.328125 56 49.015625 48.375 
Q 55.71875 40.765625 55.71875 27.296875 
Q 55.71875 13.875 49.015625 6.21875 
Q 42.328125 -1.421875 30.609375 -1.421875 
Q 18.84375 -1.421875 12.171875 6.21875 
Q 5.515625 13.875 5.515625 27.296875 
Q 5.515625 40.765625 12.171875 48.375 
Q 18.84375 56 30.609375 56 
z
" id="DejaVuSans-111"/>
     <path d="M 54.890625 33.015625 
L 54.890625 0 
L 45.90625 0 
L 45.90625 32.71875 
Q 45.90625 40.484375 42.875 44.328125 
Q 39.84375 48.1875 33.796875 48.1875 
Q 26.515625 48.1875 22.3125 43.546875 
Q 18.109375 38.921875 18.109375 30.90625 
L 18.109375 0 
L 9.078125 0 
L 9.078125 54.6875 
L 18.109375 54.6875 
L 18.109375 46.1875 
Q 21.34375 51.125 25.703125 53.5625 
Q 30.078125 56 35.796875 56 
Q 45.21875 56 50.046875 50.171875 
Q 54.890625 44.34375 54.890625 33.015625 
z
" id="DejaVuSans-110"/>
     <path id="DejaVuSans-32"/>
     <path d="M 41.109375 46.296875 
Q 39.59375 47.171875 37.8125 47.578125 
Q 36.03125 48 33.890625 48 
Q 26.265625 48 22.1875 43.046875 
Q 18.109375 38.09375 18.109375 28.8125 
L 18.109375 0 
L 9.078125 0 
L 9.078125 54.6875 
L 18.109375 54.6875 
L 18.109375 46.1875 
Q 20.953125 51.171875 25.484375 53.578125 
Q 30.03125 56 36.53125 56 
Q 37.453125 56 38.578125 55.875 
Q 39.703125 55.765625 41.0625 55.515625 
z
" id="DejaVuSans-114"/>
     <path d="M 10.59375 45.40625 
L 73.1875 45.40625 
L 73.1875 37.203125 
L 10.59375 37.203125 
z
M 10.59375 25.484375 
L 73.1875 25.484375 
L 73.1875 17.1875 
L 10.59375 17.1875 
z
" id="DejaVuSans-61"/>
     <path d="M 4.890625 31.390625 
L 31.203125 31.390625 
L 31.203125 23.390625 
L 4.890625 23.390625 
z
" id="DejaVuSans-45"/>
     <path d="M 44.28125 53.078125 
L 44.28125 44.578125 
Q 40.484375 46.53125 36.375 47.5 
Q 32.28125 48.484375 27.875 48.484375 
Q 21.1875 48.484375 17.84375 46.4375 
Q 14.5 44.390625 14.5 40.28125 
Q 14.5 37.15625 16.890625 35.375 
Q 19.28125 33.59375 26.515625 31.984375 
L 29.59375 31.296875 
Q 39.15625 29.25 43.1875 25.515625 
Q 47.21875 21.78125 47.21875 15.09375 
Q 47.21875 7.46875 41.1875 3.015625 
Q 35.15625 -1.421875 24.609375 -1.421875 
Q 20.21875 -1.421875 15.453125 -0.5625 
Q 10.6875 0.296875 5.421875 2 
L 5.421875 11.28125 
Q 10.40625 8.6875 15.234375 7.390625 
Q 20.0625 6.109375 24.8125 6.109375 
Q 31.15625 6.109375 34.5625 8.28125 
Q 37.984375 10.453125 37.984375 14.40625 
Q 37.984375 18.0625 35.515625 20.015625 
Q 33.0625 21.96875 24.703125 23.78125 
L 21.578125 24.515625 
Q 13.234375 26.265625 9.515625 29.90625 
Q 5.8125 33.546875 5.8125 39.890625 
Q 5.8125 47.609375 11.28125 51.796875 
Q 16.75 56 26.8125 56 
Q 31.78125 56 36.171875 55.265625 
Q 40.578125 54.546875 44.28125 53.078125 
z
" id="DejaVuSans-115"/>
     <path d="M 8.5 21.578125 
L 8.5 54.6875 
L 17.484375 54.6875 
L 17.484375 21.921875 
Q 17.484375 14.15625 20.5 10.265625 
Q 23.53125 6.390625 29.59375 6.390625 
Q 36.859375 6.390625 41.078125 11.03125 
Q 45.3125 15.671875 45.3125 23.6875 
L 45.3125 54.6875 
L 54.296875 54.6875 
L 54.296875 0 
L 45.3125 0 
L 45.3125 8.40625 
Q 42.046875 3.421875 37.71875 1 
Q 33.40625 -1.421875 27.6875 -1.421875 
Q 18.265625 -1.421875 13.375 4.4375 
Q 8.5 10.296875 8.5 21.578125 
z
M 31.109375 56 
z
" id="DejaVuSans-117"/>
     <path d="M 37.109375 75.984375 
L 37.109375 68.5 
L 28.515625 68.5 
Q 23.6875 68.5 21.796875 66.546875 
Q 19.921875 64.59375 19.921875 59.515625 
L 19.921875 54.6875 
L 34.71875 54.6875 
L 34.71875 47.703125 
L 19.921875 47.703125 
L 19.921875 0 
L 10.890625 0 
L 10.890625 47.703125 
L 2.296875 47.703125 
L 2.296875 54.6875 
L 10.890625 54.6875 
L 10.890625 58.5 
Q 10.890625 67.625 15.140625 71.796875 
Q 19.390625 75.984375 28.609375 75.984375 
z
" id="DejaVuSans-102"/>
     <path d="M 45.40625 46.390625 
L 45.40625 75.984375 
L 54.390625 75.984375 
L 54.390625 0 
L 45.40625 0 
L 45.40625 8.203125 
Q 42.578125 3.328125 38.25 0.953125 
Q 33.9375 -1.421875 27.875 -1.421875 
Q 17.96875 -1.421875 11.734375 6.484375 
Q 5.515625 14.40625 5.515625 27.296875 
Q 5.515625 40.1875 11.734375 48.09375 
Q 17.96875 56 27.875 56 
Q 33.9375 56 38.25 53.625 
Q 42.578125 51.265625 45.40625 46.390625 
z
M 14.796875 27.296875 
Q 14.796875 17.390625 18.875 11.75 
Q 22.953125 6.109375 30.078125 6.109375 
Q 37.203125 6.109375 41.296875 11.75 
Q 45.40625 17.390625 45.40625 27.296875 
Q 45.40625 37.203125 41.296875 42.84375 
Q 37.203125 48.484375 30.078125 48.484375 
Q 22.953125 48.484375 18.875 42.84375 
Q 14.796875 37.203125 14.796875 27.296875 
z
" id="DejaVuSans-100"/>
     <path d="M 56.203125 29.59375 
L 56.203125 25.203125 
L 14.890625 25.203125 
Q 15.484375 15.921875 20.484375 11.0625 
Q 25.484375 6.203125 34.421875 6.203125 
Q 39.59375 6.203125 44.453125 7.46875 
Q 49.3125 8.734375 54.109375 11.28125 
L 54.109375 2.78125 
Q 49.265625 0.734375 44.1875 -0.34375 
Q 39.109375 -1.421875 33.890625 -1.421875 
Q 20.796875 -1.421875 13.15625 6.1875 
Q 5.515625 13.8125 5.515625 26.8125 
Q 5.515625 40.234375 12.765625 48.109375 
Q 20.015625 56 32.328125 56 
Q 43.359375 56 49.78125 48.890625 
Q 56.203125 41.796875 56.203125 29.59375 
z
M 47.21875 32.234375 
Q 47.125 39.59375 43.09375 43.984375 
Q 39.0625 48.390625 32.421875 48.390625 
Q 24.90625 48.390625 20.390625 44.140625 
Q 15.875 39.890625 15.1875 32.171875 
z
" id="DejaVuSans-101"/>
     <path d="M 9.421875 75.984375 
L 18.40625 75.984375 
L 18.40625 0 
L 9.421875 0 
z
" id="DejaVuSans-108"/>
     <path d="M 18.109375 8.203125 
L 18.109375 -20.796875 
L 9.078125 -20.796875 
L 9.078125 54.6875 
L 18.109375 54.6875 
L 18.109375 46.390625 
Q 20.953125 51.265625 25.265625 53.625 
Q 29.59375 56 35.59375 56 
Q 45.5625 56 51.78125 48.09375 
Q 58.015625 40.1875 58.015625 27.296875 
Q 58.015625 14.40625 51.78125 6.484375 
Q 45.5625 -1.421875 35.59375 -1.421875 
Q 29.59375 -1.421875 25.265625 0.953125 
Q 20.953125 3.328125 18.109375 8.203125 
z
M 48.6875 27.296875 
Q 48.6875 37.203125 44.609375 42.84375 
Q 40.53125 48.484375 33.40625 48.484375 
Q 26.265625 48.484375 22.1875 42.84375 
Q 18.109375 37.203125 18.109375 27.296875 
Q 18.109375 17.390625 22.1875 11.75 
Q 26.265625 6.109375 33.40625 6.109375 
Q 40.53125 6.109375 44.609375 11.75 
Q 48.6875 17.390625 48.6875 27.296875 
z
" id="DejaVuSans-112"/>
     <path d="M 18.3125 70.21875 
L 18.3125 54.6875 
L 36.8125 54.6875 
L 36.8125 47.703125 
L 18.3125 47.703125 
L 18.3125 18.015625 
Q 18.3125 11.328125 20.140625 9.421875 
Q 21.96875 7.515625 27.59375 7.515625 
L 36.8125 7.515625 
L 36.8125 0 
L 27.59375 0 
Q 17.1875 0 13.234375 3.875 
Q 9.28125 7.765625 9.28125 18.015625 
L 9.28125 47.703125 
L 2.6875 47.703125 
L 2.6875 54.6875 
L 9.28125 54.6875 
L 9.28125 70.21875 
z
" id="DejaVuSans-116"/>
     <path d="M 48.78125 52.59375 
L 48.78125 44.1875 
Q 44.96875 46.296875 41.140625 47.34375 
Q 37.3125 48.390625 33.40625 48.390625 
Q 24.65625 48.390625 19.8125 42.84375 
Q 14.984375 37.3125 14.984375 27.296875 
Q 14.984375 17.28125 19.8125 11.734375 
Q 24.65625 6.203125 33.40625 6.203125 
Q 37.3125 6.203125 41.140625 7.25 
Q 44.96875 8.296875 48.78125 10.40625 
L 48.78125 2.09375 
Q 45.015625 0.34375 40.984375 -0.53125 
Q 36.96875 -1.421875 32.421875 -1.421875 
Q 20.0625 -1.421875 12.78125 6.34375 
Q 5.515625 14.109375 5.515625 27.296875 
Q 5.515625 40.671875 12.859375 48.328125 
Q 20.21875 56 33.015625 56 
Q 37.15625 56 41.109375 55.140625 
Q 45.0625 54.296875 48.78125 52.59375 
z
" id="DejaVuSans-99"/>
     <path d="M 9.421875 54.6875 
L 18.40625 54.6875 
L 18.40625 0 
L 9.421875 0 
z
M 9.421875 75.984375 
L 18.40625 75.984375 
L 18.40625 64.59375 
L 9.421875 64.59375 
z
" id="DejaVuSans-105"/>
     <path d="M 34.28125 27.484375 
Q 23.390625 27.484375 19.1875 25 
Q 14.984375 22.515625 14.984375 16.5 
Q 14.984375 11.71875 18.140625 8.90625 
Q 21.296875 6.109375 26.703125 6.109375 
Q 34.1875 6.109375 38.703125 11.40625 
Q 43.21875 16.703125 43.21875 25.484375 
L 43.21875 27.484375 
z
M 52.203125 31.203125 
L 52.203125 0 
L 43.21875 0 
L 43.21875 8.296875 
Q 40.140625 3.328125 35.546875 0.953125 
Q 30.953125 -1.421875 24.3125 -1.421875 
Q 15.921875 -1.421875 10.953125 3.296875 
Q 6 8.015625 6 15.921875 
Q 6 25.140625 12.171875 29.828125 
Q 18.359375 34.515625 30.609375 34.515625 
L 43.21875 34.515625 
L 43.21875 35.40625 
Q 43.21875 41.609375 39.140625 45 
Q 35.0625 48.390625 27.6875 48.390625 
Q 23 48.390625 18.546875 47.265625 
Q 14.109375 46.140625 10.015625 43.890625 
L 10.015625 52.203125 
Q 14.9375 54.109375 19.578125 55.046875 
Q 24.21875 56 28.609375 56 
Q 40.484375 56 46.34375 49.84375 
Q 52.203125 43.703125 52.203125 31.203125 
z
" id="DejaVuSans-97"/>
     <path d="M 44.390625 34.1875 
Q 47.5625 33.109375 50.5625 29.59375 
Q 53.5625 26.078125 56.59375 19.921875 
L 66.609375 0 
L 56 0 
L 46.6875 18.703125 
Q 43.0625 26.03125 39.671875 28.421875 
Q 36.28125 30.8125 30.421875 30.8125 
L 19.671875 30.8125 
L 19.671875 0 
L 9.8125 0 
L 9.8125 72.90625 
L 32.078125 72.90625 
Q 44.578125 72.90625 50.734375 67.671875 
Q 56.890625 62.453125 56.890625 51.90625 
Q 56.890625 45.015625 53.6875 40.46875 
Q 50.484375 35.9375 44.390625 34.1875 
z
M 19.671875 64.796875 
L 19.671875 38.921875 
L 32.078125 38.921875 
Q 39.203125 38.921875 42.84375 42.21875 
Q 46.484375 45.515625 46.484375 51.90625 
Q 46.484375 58.296875 42.84375 61.546875 
Q 39.203125 64.796875 32.078125 64.796875 
z
" id="DejaVuSans-82"/>
     <path d="M 45.40625 27.984375 
Q 45.40625 37.75 41.375 43.109375 
Q 37.359375 48.484375 30.078125 48.484375 
Q 22.859375 48.484375 18.828125 43.109375 
Q 14.796875 37.75 14.796875 27.984375 
Q 14.796875 18.265625 18.828125 12.890625 
Q 22.859375 7.515625 30.078125 7.515625 
Q 37.359375 7.515625 41.375 12.890625 
Q 45.40625 18.265625 45.40625 27.984375 
z
M 54.390625 6.78125 
Q 54.390625 -7.171875 48.1875 -13.984375 
Q 42 -20.796875 29.203125 -20.796875 
Q 24.46875 -20.796875 20.265625 -20.09375 
Q 16.0625 -19.390625 12.109375 -17.921875 
L 12.109375 -9.1875 
Q 16.0625 -11.328125 19.921875 -12.34375 
Q 23.78125 -13.375 27.78125 -13.375 
Q 36.625 -13.375 41.015625 -8.765625 
Q 45.40625 -4.15625 45.40625 5.171875 
L 45.40625 9.625 
Q 42.625 4.78125 38.28125 2.390625 
Q 33.9375 0 27.875 0 
Q 17.828125 0 11.671875 7.65625 
Q 5.515625 15.328125 5.515625 27.984375 
Q 5.515625 40.671875 11.671875 48.328125 
Q 17.828125 56 27.875 56 
Q 33.9375 56 38.28125 53.609375 
Q 42.625 51.21875 45.40625 46.390625 
L 45.40625 54.6875 
L 54.390625 54.6875 
z
" id="DejaVuSans-103"/>
     <path d="M 9.8125 72.90625 
L 55.90625 72.90625 
L 55.90625 64.59375 
L 19.671875 64.59375 
L 19.671875 43.015625 
L 54.390625 43.015625 
L 54.390625 34.71875 
L 19.671875 34.71875 
L 19.671875 8.296875 
L 56.78125 8.296875 
L 56.78125 0 
L 9.8125 0 
z
" id="DejaVuSans-69"/>
    </defs>
    <g transform="translate(45.754688 22.48896)scale(0.12 -0.12)">
     <use xlink:href="#DejaVuSans-67"/>
     <use x="69.824219" xlink:href="#DejaVuSans-111"/>
     <use x="131.005859" xlink:href="#DejaVuSans-110"/>
     <use x="194.384766" xlink:href="#DejaVuSans-32"/>
     <use x="226.171875" xlink:href="#DejaVuSans-110"/>
     <use x="289.550781" xlink:href="#DejaVuSans-114"/>
     <use x="330.664062" xlink:href="#DejaVuSans-61"/>
     <use x="414.453125" xlink:href="#DejaVuSans-49"/>
     <use x="478.076172" xlink:href="#DejaVuSans-48"/>
     <use x="541.699219" xlink:href="#DejaVuSans-48"/>
     <use x="605.322266" xlink:href="#DejaVuSans-45"/>
     <use x="641.40625" xlink:href="#DejaVuSans-32"/>
     <use x="673.193359" xlink:href="#DejaVuSans-115"/>
     <use x="725.292969" xlink:href="#DejaVuSans-117"/>
     <use x="788.671875" xlink:href="#DejaVuSans-114"/>
     <use x="829.785156" xlink:href="#DejaVuSans-102"/>
     <use x="864.990234" xlink:href="#DejaVuSans-32"/>
     <use x="896.777344" xlink:href="#DejaVuSans-100"/>
     <use x="960.253906" xlink:href="#DejaVuSans-101"/>
     <use x="1021.777344" xlink:href="#DejaVuSans-108"/>
     <use x="1049.560547" xlink:href="#DejaVuSans-32"/>
     <use x="1081.347656" xlink:href="#DejaVuSans-112"/>
     <use x="1144.824219" xlink:href="#DejaVuSans-111"/>
     <use x="1206.005859" xlink:href="#DejaVuSans-116"/>
     <use x="1245.214844" xlink:href="#DejaVuSans-101"/>
     <use x="1306.738281" xlink:href="#DejaVuSans-110"/>
     <use x="1370.117188" xlink:href="#DejaVuSans-99"/>
     <use x="1425.097656" xlink:href="#DejaVuSans-105"/>
     <use x="1452.880859" xlink:href="#DejaVuSans-97"/>
     <use x="1514.160156" xlink:href="#DejaVuSans-108"/>
     <use x="1541.943359" xlink:href="#DejaVuSans-32"/>
     <use x="1573.730469" xlink:href="#DejaVuSans-100"/>
     <use x="1637.207031" xlink:href="#DejaVuSans-101"/>
     <use x="1698.730469" xlink:href="#DejaVuSans-32"/>
     <use x="1730.517578" xlink:href="#DejaVuSans-108"/>
     <use x="1758.300781" xlink:href="#DejaVuSans-97"/>
     <use x="1819.580078" xlink:href="#DejaVuSans-32"/>
     <use x="1851.367188" xlink:href="#DejaVuSans-82"/>
     <use x="1920.787109" xlink:href="#DejaVuSans-101"/>
     <use x="1982.310547" xlink:href="#DejaVuSans-103"/>
     <use x="2045.787109" xlink:href="#DejaVuSans-46"/>
     <use x="2077.574219" xlink:href="#DejaVuSans-54"/>
     <use x="2141.197266" xlink:href="#DejaVuSans-45"/>
     <use x="2177.28125" xlink:href="#DejaVuSans-69"/>
     <use x="2240.464844" xlink:href="#DejaVuSans-111"/>
     <use x="2301.630859" xlink:href="#DejaVuSans-46"/>
    </g>
   </g>
  </g>
 </g>
 <defs>
  <clipPath id="p752bc2c793">
   <rect height="266.112" width="357.12" x="7.2" y="7.2"/>
  </clipPath>
 </defs>
</svg>
