<?xml version="1.0" encoding="utf-8" standalone="no"?>
<!DOCTYPE svg PUBLIC "-//W3C//DTD SVG 1.1//EN"
  "http://www.w3.org/Graphics/SVG/1.1/DTD/svg11.dtd">
<!-- Created with matplotlib (https://matplotlib.org/) -->
<svg height="345.6pt" version="1.1" viewBox="0 0 460.8 345.6" width="460.8pt" xmlns="http://www.w3.org/2000/svg" xmlns:xlink="http://www.w3.org/1999/xlink">
 <defs>
  <style type="text/css">
*{stroke-linecap:butt;stroke-linejoin:round;}
  </style>
 </defs>
 <g id="figure_1">
  <g id="patch_1">
   <path d="M 0 345.6 
L 460.8 345.6 
L 460.8 0 
L 0 0 
z
" style="fill:#ffffff;"/>
  </g>
  <g id="patch_2">
   <path d="M 57.6 307.584 
L 414.72 307.584 
L 414.72 41.472 
L 57.6 41.472 
z
" style="fill:#ffffff;"/>
  </g>
  <g id="pane3d_1">
   <g id="patch_3">
    <path d="M 104.941774 248.782626 
L 207.151387 183.537994 
L 205.449705 58.866209 
L 97.541237 117.48717 
" style="fill:#f2f2f2;opacity:0.5;stroke:#f2f2f2;stroke-linejoin:miter;"/>
   </g>
  </g>
  <g id="pane3d_2">
   <g id="patch_4">
    <path d="M 207.151387 183.537994 
L 372.72135 220.013954 
L 379.648599 91.582742 
L 205.449705 58.866209 
" style="fill:#e6e6e6;opacity:0.5;stroke:#e6e6e6;stroke-linejoin:miter;"/>
   </g>
  </g>
  <g id="pane3d_3">
   <g id="patch_5">
    <path d="M 104.941774 248.782626 
L 279.143747 291.264825 
L 372.72135 220.013954 
L 207.151387 183.537994 
" style="fill:#ececec;opacity:0.5;stroke:#ececec;stroke-linejoin:miter;"/>
   </g>
  </g>
  <g id="axis3d_1">
   <g id="line2d_1">
    <path d="M 104.941774 248.782626 
L 279.143747 291.264825 
" style="fill:none;stroke:#000000;stroke-linecap:square;stroke-width:0.8;"/>
   </g>
   <g id="Line3DCollection_1">
    <path d="M 115.562252 251.372616 
L 217.277438 185.768818 
L 216.081723 60.863023 
" style="fill:none;stroke:#b0b0b0;stroke-width:0.8;"/>
    <path d="M 140.06655 257.348417 
L 240.625146 190.912444 
L 240.606833 65.469117 
" style="fill:none;stroke:#b0b0b0;stroke-width:0.8;"/>
    <path d="M 164.894475 263.403141 
L 264.258726 196.11905 
L 265.44757 70.13449 
" style="fill:none;stroke:#b0b0b0;stroke-width:0.8;"/>
    <path d="M 190.052479 269.538361 
L 288.183461 201.389799 
L 290.610069 74.860294 
" style="fill:none;stroke:#b0b0b0;stroke-width:0.8;"/>
    <path d="M 215.547191 275.755692 
L 312.404765 206.725883 
L 316.10062 79.647709 
" style="fill:none;stroke:#b0b0b0;stroke-width:0.8;"/>
    <path d="M 241.385413 282.056795 
L 336.928186 212.128526 
L 341.925682 84.497949 
" style="fill:none;stroke:#b0b0b0;stroke-width:0.8;"/>
    <path d="M 267.574137 288.443373 
L 361.759413 217.59898 
L 368.091882 89.412259 
" style="fill:none;stroke:#b0b0b0;stroke-width:0.8;"/>
   </g>
   <g id="xtick_1">
    <g id="line2d_2">
     <path d="M 116.438581 250.807405 
L 113.806326 252.505145 
" style="fill:none;stroke:#000000;stroke-linecap:square;stroke-width:0.8;"/>
    </g>
    <g id="text_1">
     <!-- 0 -->
     <defs>
      <path d="M 31.78125 66.40625 
Q 24.171875 66.40625 20.328125 58.90625 
Q 16.5 51.421875 16.5 36.375 
Q 16.5 21.390625 20.328125 13.890625 
Q 24.171875 6.390625 31.78125 6.390625 
Q 39.453125 6.390625 43.28125 13.890625 
Q 47.125 21.390625 47.125 36.375 
Q 47.125 51.421875 43.28125 58.90625 
Q 39.453125 66.40625 31.78125 66.40625 
z
M 31.78125 74.21875 
Q 44.046875 74.21875 50.515625 64.515625 
Q 56.984375 54.828125 56.984375 36.375 
Q 56.984375 17.96875 50.515625 8.265625 
Q 44.046875 -1.421875 31.78125 -1.421875 
Q 19.53125 -1.421875 13.0625 8.265625 
Q 6.59375 17.96875 6.59375 36.375 
Q 6.59375 54.828125 13.0625 64.515625 
Q 19.53125 74.21875 31.78125 74.21875 
z
" id="DejaVuSans-48"/>
     </defs>
     <g transform="translate(105.060879 272.84452)scale(0.1 -0.1)">
      <use xlink:href="#DejaVuSans-48"/>
     </g>
    </g>
   </g>
   <g id="xtick_2">
    <g id="line2d_3">
     <path d="M 140.93332 256.775769 
L 138.329756 258.495864 
" style="fill:none;stroke:#000000;stroke-linecap:square;stroke-width:0.8;"/>
    </g>
    <g id="text_2">
     <!-- 1 -->
     <defs>
      <path d="M 12.40625 8.296875 
L 28.515625 8.296875 
L 28.515625 63.921875 
L 10.984375 60.40625 
L 10.984375 69.390625 
L 28.421875 72.90625 
L 38.28125 72.90625 
L 38.28125 8.296875 
L 54.390625 8.296875 
L 54.390625 0 
L 12.40625 0 
z
" id="DejaVuSans-49"/>
     </defs>
     <g transform="translate(129.562363 278.922548)scale(0.1 -0.1)">
      <use xlink:href="#DejaVuSans-49"/>
     </g>
    </g>
   </g>
   <g id="xtick_3">
    <g id="line2d_4">
     <path d="M 165.751356 262.822908 
L 163.177474 264.565801 
" style="fill:none;stroke:#000000;stroke-linecap:square;stroke-width:0.8;"/>
    </g>
    <g id="text_3">
     <!-- 2 -->
     <defs>
      <path d="M 19.1875 8.296875 
L 53.609375 8.296875 
L 53.609375 0 
L 7.328125 0 
L 7.328125 8.296875 
Q 12.9375 14.109375 22.625 23.890625 
Q 32.328125 33.6875 34.8125 36.53125 
Q 39.546875 41.84375 41.421875 45.53125 
Q 43.3125 49.21875 43.3125 52.78125 
Q 43.3125 58.59375 39.234375 62.25 
Q 35.15625 65.921875 28.609375 65.921875 
Q 23.96875 65.921875 18.8125 64.3125 
Q 13.671875 62.703125 7.8125 59.421875 
L 7.8125 69.390625 
Q 13.765625 71.78125 18.9375 73 
Q 24.125 74.21875 28.421875 74.21875 
Q 39.75 74.21875 46.484375 68.546875 
Q 53.21875 62.890625 53.21875 53.421875 
Q 53.21875 48.921875 51.53125 44.890625 
Q 49.859375 40.875 45.40625 35.40625 
Q 44.1875 33.984375 37.640625 27.21875 
Q 31.109375 20.453125 19.1875 8.296875 
z
" id="DejaVuSans-50"/>
     </defs>
     <g transform="translate(154.388037 285.080998)scale(0.1 -0.1)">
      <use xlink:href="#DejaVuSans-50"/>
     </g>
    </g>
   </g>
   <g id="xtick_4">
    <g id="line2d_5">
     <path d="M 190.899132 268.95039 
L 188.355953 270.716539 
" style="fill:none;stroke:#000000;stroke-linecap:square;stroke-width:0.8;"/>
    </g>
    <g id="text_4">
     <!-- 3 -->
     <defs>
      <path d="M 40.578125 39.3125 
Q 47.65625 37.796875 51.625 33 
Q 55.609375 28.21875 55.609375 21.1875 
Q 55.609375 10.40625 48.1875 4.484375 
Q 40.765625 -1.421875 27.09375 -1.421875 
Q 22.515625 -1.421875 17.65625 -0.515625 
Q 12.796875 0.390625 7.625 2.203125 
L 7.625 11.71875 
Q 11.71875 9.328125 16.59375 8.109375 
Q 21.484375 6.890625 26.8125 6.890625 
Q 36.078125 6.890625 40.9375 10.546875 
Q 45.796875 14.203125 45.796875 21.1875 
Q 45.796875 27.640625 41.28125 31.265625 
Q 36.765625 34.90625 28.71875 34.90625 
L 20.21875 34.90625 
L 20.21875 43.015625 
L 29.109375 43.015625 
Q 36.375 43.015625 40.234375 45.921875 
Q 44.09375 48.828125 44.09375 54.296875 
Q 44.09375 59.90625 40.109375 62.90625 
Q 36.140625 65.921875 28.71875 65.921875 
Q 24.65625 65.921875 20.015625 65.03125 
Q 15.375 64.15625 9.8125 62.3125 
L 9.8125 71.09375 
Q 15.4375 72.65625 20.34375 73.4375 
Q 25.25 74.21875 29.59375 74.21875 
Q 40.828125 74.21875 47.359375 69.109375 
Q 53.90625 64.015625 53.90625 55.328125 
Q 53.90625 49.265625 50.4375 45.09375 
Q 46.96875 40.921875 40.578125 39.3125 
z
" id="DejaVuSans-51"/>
     </defs>
     <g transform="translate(179.54438 291.321475)scale(0.1 -0.1)">
      <use xlink:href="#DejaVuSans-51"/>
     </g>
    </g>
   </g>
   <g id="xtick_5">
    <g id="line2d_6">
     <path d="M 216.383263 275.159828 
L 213.871843 276.949702 
" style="fill:none;stroke:#000000;stroke-linecap:square;stroke-width:0.8;"/>
    </g>
    <g id="text_5">
     <!-- 4 -->
     <defs>
      <path d="M 37.796875 64.3125 
L 12.890625 25.390625 
L 37.796875 25.390625 
z
M 35.203125 72.90625 
L 47.609375 72.90625 
L 47.609375 25.390625 
L 58.015625 25.390625 
L 58.015625 17.1875 
L 47.609375 17.1875 
L 47.609375 0 
L 37.796875 0 
L 37.796875 17.1875 
L 4.890625 17.1875 
L 4.890625 26.703125 
z
" id="DejaVuSans-52"/>
     </defs>
     <g transform="translate(205.038042 297.64563)scale(0.1 -0.1)">
      <use xlink:href="#DejaVuSans-52"/>
     </g>
    </g>
   </g>
   <g id="xtick_6">
    <g id="line2d_7">
     <path d="M 242.210543 281.452878 
L 239.731972 283.266957 
" style="fill:none;stroke:#000000;stroke-linecap:square;stroke-width:0.8;"/>
    </g>
    <g id="text_6">
     <!-- 5 -->
     <defs>
      <path d="M 10.796875 72.90625 
L 49.515625 72.90625 
L 49.515625 64.59375 
L 19.828125 64.59375 
L 19.828125 46.734375 
Q 21.96875 47.46875 24.109375 47.828125 
Q 26.265625 48.1875 28.421875 48.1875 
Q 40.625 48.1875 47.75 41.5 
Q 54.890625 34.8125 54.890625 23.390625 
Q 54.890625 11.625 47.5625 5.09375 
Q 40.234375 -1.421875 26.90625 -1.421875 
Q 22.3125 -1.421875 17.546875 -0.640625 
Q 12.796875 0.140625 7.71875 1.703125 
L 7.71875 11.625 
Q 12.109375 9.234375 16.796875 8.0625 
Q 21.484375 6.890625 26.703125 6.890625 
Q 35.15625 6.890625 40.078125 11.328125 
Q 45.015625 15.765625 45.015625 23.390625 
Q 45.015625 31 40.078125 35.4375 
Q 35.15625 39.890625 26.703125 39.890625 
Q 22.75 39.890625 18.8125 39.015625 
Q 14.890625 38.140625 10.796875 36.28125 
z
" id="DejaVuSans-53"/>
     </defs>
     <g transform="translate(230.875853 304.055158)scale(0.1 -0.1)">
      <use xlink:href="#DejaVuSans-53"/>
     </g>
    </g>
   </g>
   <g id="xtick_7">
    <g id="line2d_8">
     <path d="M 268.387949 287.831239 
L 265.943353 289.670018 
" style="fill:none;stroke:#000000;stroke-linecap:square;stroke-width:0.8;"/>
    </g>
    <g id="text_7">
     <!-- 6 -->
     <defs>
      <path d="M 33.015625 40.375 
Q 26.375 40.375 22.484375 35.828125 
Q 18.609375 31.296875 18.609375 23.390625 
Q 18.609375 15.53125 22.484375 10.953125 
Q 26.375 6.390625 33.015625 6.390625 
Q 39.65625 6.390625 43.53125 10.953125 
Q 47.40625 15.53125 47.40625 23.390625 
Q 47.40625 31.296875 43.53125 35.828125 
Q 39.65625 40.375 33.015625 40.375 
z
M 52.59375 71.296875 
L 52.59375 62.3125 
Q 48.875 64.0625 45.09375 64.984375 
Q 41.3125 65.921875 37.59375 65.921875 
Q 27.828125 65.921875 22.671875 59.328125 
Q 17.53125 52.734375 16.796875 39.40625 
Q 19.671875 43.65625 24.015625 45.921875 
Q 28.375 48.1875 33.59375 48.1875 
Q 44.578125 48.1875 50.953125 41.515625 
Q 57.328125 34.859375 57.328125 23.390625 
Q 57.328125 12.15625 50.6875 5.359375 
Q 44.046875 -1.421875 33.015625 -1.421875 
Q 20.359375 -1.421875 13.671875 8.265625 
Q 6.984375 17.96875 6.984375 36.375 
Q 6.984375 53.65625 15.1875 63.9375 
Q 23.390625 74.21875 37.203125 74.21875 
Q 40.921875 74.21875 44.703125 73.484375 
Q 48.484375 72.75 52.59375 71.296875 
z
" id="DejaVuSans-54"/>
     </defs>
     <g transform="translate(257.06483 310.551799)scale(0.1 -0.1)">
      <use xlink:href="#DejaVuSans-54"/>
     </g>
    </g>
   </g>
  </g>
  <g id="axis3d_2">
   <g id="line2d_9">
    <path d="M 372.72135 220.013954 
L 279.143747 291.264825 
" style="fill:none;stroke:#000000;stroke-linecap:square;stroke-width:0.8;"/>
   </g>
   <g id="Line3DCollection_2">
    <path d="M 104.930092 113.473196 
L 111.915028 244.331309 
L 285.548062 286.38852 
" style="fill:none;stroke:#b0b0b0;stroke-width:0.8;"/>
    <path d="M 124.810294 102.673334 
L 130.695501 232.342955 
L 302.78167 273.266688 
" style="fill:none;stroke:#b0b0b0;stroke-width:0.8;"/>
    <path d="M 144.142663 92.171081 
L 148.984318 220.668445 
L 319.5437 260.503919 
" style="fill:none;stroke:#b0b0b0;stroke-width:0.8;"/>
    <path d="M 162.949534 81.954303 
L 166.800537 209.295614 
L 335.853248 248.085675 
" style="fill:none;stroke:#b0b0b0;stroke-width:0.8;"/>
    <path d="M 181.252048 72.011516 
L 184.162243 198.212917 
L 351.728392 235.998191 
" style="fill:none;stroke:#b0b0b0;stroke-width:0.8;"/>
    <path d="M 199.070224 62.331844 
L 201.086609 187.409393 
L 367.186258 224.228425 
" style="fill:none;stroke:#b0b0b0;stroke-width:0.8;"/>
   </g>
   <g id="xtick_8">
    <g id="line2d_10">
     <path d="M 284.094906 286.036538 
L 288.457621 287.09327 
" style="fill:none;stroke:#000000;stroke-linecap:square;stroke-width:0.8;"/>
    </g>
    <g id="text_8">
     <!-- 4.0 -->
     <defs>
      <path d="M 10.6875 12.40625 
L 21 12.40625 
L 21 0 
L 10.6875 0 
z
" id="DejaVuSans-46"/>
     </defs>
     <g transform="translate(290.295847 306.144728)scale(0.1 -0.1)">
      <use xlink:href="#DejaVuSans-52"/>
      <use x="63.623047" xlink:href="#DejaVuSans-46"/>
      <use x="95.410156" xlink:href="#DejaVuSans-48"/>
     </g>
    </g>
   </g>
   <g id="xtick_9">
    <g id="line2d_11">
     <path d="M 301.342341 272.924401 
L 305.6635 273.952014 
" style="fill:none;stroke:#000000;stroke-linecap:square;stroke-width:0.8;"/>
    </g>
    <g id="text_9">
     <!-- 4.2 -->
     <g transform="translate(307.344719 292.860928)scale(0.1 -0.1)">
      <use xlink:href="#DejaVuSans-52"/>
      <use x="63.623047" xlink:href="#DejaVuSans-46"/>
      <use x="95.410156" xlink:href="#DejaVuSans-50"/>
     </g>
    </g>
   </g>
   <g id="xtick_10">
    <g id="line2d_12">
     <path d="M 318.11799 260.170933 
L 322.398219 261.170614 
" style="fill:none;stroke:#000000;stroke-linecap:square;stroke-width:0.8;"/>
    </g>
    <g id="text_10">
     <!-- 4.4 -->
     <g transform="translate(323.927299 279.940443)scale(0.1 -0.1)">
      <use xlink:href="#DejaVuSans-52"/>
      <use x="63.623047" xlink:href="#DejaVuSans-46"/>
      <use x="95.410156" xlink:href="#DejaVuSans-52"/>
     </g>
    </g>
   </g>
   <g id="xtick_11">
    <g id="line2d_13">
     <path d="M 334.440952 247.761616 
L 338.68087 248.734488 
" style="fill:none;stroke:#000000;stroke-linecap:square;stroke-width:0.8;"/>
    </g>
    <g id="text_11">
     <!-- 4.6 -->
     <g transform="translate(340.06246 267.36857)scale(0.1 -0.1)">
      <use xlink:href="#DejaVuSans-52"/>
      <use x="63.623047" xlink:href="#DejaVuSans-46"/>
      <use x="95.410156" xlink:href="#DejaVuSans-54"/>
     </g>
    </g>
   </g>
   <g id="xtick_12">
    <g id="line2d_14">
     <path d="M 350.329304 235.682704 
L 354.529527 236.629832 
" style="fill:none;stroke:#000000;stroke-linecap:square;stroke-width:0.8;"/>
    </g>
    <g id="text_12">
     <!-- 4.8 -->
     <defs>
      <path d="M 31.78125 34.625 
Q 24.75 34.625 20.71875 30.859375 
Q 16.703125 27.09375 16.703125 20.515625 
Q 16.703125 13.921875 20.71875 10.15625 
Q 24.75 6.390625 31.78125 6.390625 
Q 38.8125 6.390625 42.859375 10.171875 
Q 46.921875 13.96875 46.921875 20.515625 
Q 46.921875 27.09375 42.890625 30.859375 
Q 38.875 34.625 31.78125 34.625 
z
M 21.921875 38.8125 
Q 15.578125 40.375 12.03125 44.71875 
Q 8.5 49.078125 8.5 55.328125 
Q 8.5 64.0625 14.71875 69.140625 
Q 20.953125 74.21875 31.78125 74.21875 
Q 42.671875 74.21875 48.875 69.140625 
Q 55.078125 64.0625 55.078125 55.328125 
Q 55.078125 49.078125 51.53125 44.71875 
Q 48 40.375 41.703125 38.8125 
Q 48.828125 37.15625 52.796875 32.3125 
Q 56.78125 27.484375 56.78125 20.515625 
Q 56.78125 9.90625 50.3125 4.234375 
Q 43.84375 -1.421875 31.78125 -1.421875 
Q 19.734375 -1.421875 13.25 4.234375 
Q 6.78125 9.90625 6.78125 20.515625 
Q 6.78125 27.484375 10.78125 32.3125 
Q 14.796875 37.15625 21.921875 38.8125 
z
M 18.3125 54.390625 
Q 18.3125 48.734375 21.84375 45.5625 
Q 25.390625 42.390625 31.78125 42.390625 
Q 38.140625 42.390625 41.71875 45.5625 
Q 45.3125 48.734375 45.3125 54.390625 
Q 45.3125 60.0625 41.71875 63.234375 
Q 38.140625 66.40625 31.78125 66.40625 
Q 25.390625 66.40625 21.84375 63.234375 
Q 18.3125 60.0625 18.3125 54.390625 
z
" id="DejaVuSans-56"/>
     </defs>
     <g transform="translate(355.768069 255.131387)scale(0.1 -0.1)">
      <use xlink:href="#DejaVuSans-52"/>
      <use x="63.623047" xlink:href="#DejaVuSans-46"/>
      <use x="95.410156" xlink:href="#DejaVuSans-56"/>
     </g>
    </g>
   </g>
   <g id="xtick_13">
    <g id="line2d_15">
     <path d="M 365.800177 223.921175 
L 369.961313 224.843567 
" style="fill:none;stroke:#000000;stroke-linecap:square;stroke-width:0.8;"/>
    </g>
    <g id="text_13">
     <!-- 5.0 -->
     <g transform="translate(371.061053 243.215704)scale(0.1 -0.1)">
      <use xlink:href="#DejaVuSans-53"/>
      <use x="63.623047" xlink:href="#DejaVuSans-46"/>
      <use x="95.410156" xlink:href="#DejaVuSans-48"/>
     </g>
    </g>
   </g>
  </g>
  <g id="axis3d_3">
   <g id="line2d_16">
    <path d="M 372.72135 220.013954 
L 379.648599 91.582742 
" style="fill:none;stroke:#000000;stroke-linecap:square;stroke-width:0.8;"/>
   </g>
   <g id="Line3DCollection_3">
    <path d="M 372.903563 216.635717 
L 207.106531 180.251682 
L 104.747438 245.334833 
" style="fill:none;stroke:#b0b0b0;stroke-width:0.8;"/>
    <path d="M 374.142517 193.665503 
L 206.801672 157.916499 
L 103.425585 221.883394 
" style="fill:none;stroke:#b0b0b0;stroke-width:0.8;"/>
    <path d="M 375.404964 170.259731 
L 206.491276 135.175705 
L 102.077831 197.972423 
" style="fill:none;stroke:#b0b0b0;stroke-width:0.8;"/>
    <path d="M 376.691579 146.405894 
L 206.175192 112.018152 
L 100.703406 173.588277 
" style="fill:none;stroke:#b0b0b0;stroke-width:0.8;"/>
    <path d="M 378.003062 122.091002 
L 205.853261 88.432275 
L 99.30151 148.716772 
" style="fill:none;stroke:#b0b0b0;stroke-width:0.8;"/>
    <path d="M 379.34014 97.301557 
L 205.525321 64.406081 
L 97.871312 123.343148 
" style="fill:none;stroke:#b0b0b0;stroke-width:0.8;"/>
   </g>
   <g id="xtick_14">
    <g id="line2d_17">
     <path d="M 371.520202 216.33214 
L 375.673164 217.243504 
" style="fill:none;stroke:#000000;stroke-linecap:square;stroke-width:0.8;"/>
    </g>
    <g id="text_14">
     <!-- 0.0 -->
     <g transform="translate(383.308721 222.269547)scale(0.1 -0.1)">
      <use xlink:href="#DejaVuSans-48"/>
      <use x="63.623047" xlink:href="#DejaVuSans-46"/>
      <use x="95.410156" xlink:href="#DejaVuSans-48"/>
     </g>
    </g>
   </g>
   <g id="xtick_15">
    <g id="line2d_18">
     <path d="M 372.745735 193.367108 
L 376.939016 194.262918 
" style="fill:none;stroke:#000000;stroke-linecap:square;stroke-width:0.8;"/>
    </g>
    <g id="text_15">
     <!-- 0.2 -->
     <g transform="translate(384.716885 199.33291)scale(0.1 -0.1)">
      <use xlink:href="#DejaVuSans-48"/>
      <use x="63.623047" xlink:href="#DejaVuSans-46"/>
      <use x="95.410156" xlink:href="#DejaVuSans-50"/>
     </g>
    </g>
   </g>
   <g id="xtick_16">
    <g id="line2d_19">
     <path d="M 373.994498 169.966771 
L 378.228888 170.84627 
" style="fill:none;stroke:#000000;stroke-linecap:square;stroke-width:0.8;"/>
    </g>
    <g id="text_16">
     <!-- 0.4 -->
     <g transform="translate(386.151689 175.962345)scale(0.1 -0.1)">
      <use xlink:href="#DejaVuSans-48"/>
      <use x="63.623047" xlink:href="#DejaVuSans-46"/>
      <use x="95.410156" xlink:href="#DejaVuSans-52"/>
     </g>
    </g>
   </g>
   <g id="xtick_17">
    <g id="line2d_20">
     <path d="M 375.267159 146.118634 
L 379.543469 146.98103 
" style="fill:none;stroke:#000000;stroke-linecap:square;stroke-width:0.8;"/>
    </g>
    <g id="text_17">
     <!-- 0.6 -->
     <g transform="translate(387.613897 152.145422)scale(0.1 -0.1)">
      <use xlink:href="#DejaVuSans-48"/>
      <use x="63.623047" xlink:href="#DejaVuSans-46"/>
      <use x="95.410156" xlink:href="#DejaVuSans-54"/>
     </g>
    </g>
   </g>
   <g id="xtick_18">
    <g id="line2d_21">
     <path d="M 376.564408 121.809717 
L 380.883478 122.654181 
" style="fill:none;stroke:#000000;stroke-linecap:square;stroke-width:0.8;"/>
    </g>
    <g id="text_18">
     <!-- 0.8 -->
     <g transform="translate(389.104302 127.869229)scale(0.1 -0.1)">
      <use xlink:href="#DejaVuSans-48"/>
      <use x="63.623047" xlink:href="#DejaVuSans-46"/>
      <use x="95.410156" xlink:href="#DejaVuSans-56"/>
     </g>
    </g>
   </g>
   <g id="xtick_19">
    <g id="line2d_22">
     <path d="M 377.886967 97.026536 
L 382.249658 97.852201 
" style="fill:none;stroke:#000000;stroke-linecap:square;stroke-width:0.8;"/>
    </g>
    <g id="text_19">
     <!-- 1.0 -->
     <g transform="translate(390.623726 103.120353)scale(0.1 -0.1)">
      <use xlink:href="#DejaVuSans-49"/>
      <use x="63.623047" xlink:href="#DejaVuSans-46"/>
      <use x="95.410156" xlink:href="#DejaVuSans-48"/>
     </g>
    </g>
   </g>
  </g>
  <g id="axes_1">
   <g id="Poly3DCollection_1">
    <path clip-path="url(#p6bf0c4fab8)" d="M 200.035671 75.323711 
L 216.44855 78.567046 
L 226.135948 73.134897 
L 209.802858 69.918295 
z
" style="fill:#ffff00;"/>
    <path clip-path="url(#p6bf0c4fab8)" d="M 216.44855 78.567046 
L 233.001553 81.703089 
L 242.607902 75.898417 
L 226.135948 73.134897 
z
" style="fill:#ffff00;"/>
    <path clip-path="url(#p6bf0c4fab8)" d="M 283.033871 121.426293 
L 299.252525 155.664813 
L 308.322768 149.090504 
L 292.390401 110.179303 
z
" style="fill:#ff9f00;"/>
    <path clip-path="url(#p6bf0c4fab8)" d="M 299.252525 155.664813 
L 316.736251 138.784264 
L 326.087297 123.4535 
L 308.322768 149.090504 
z
" style="fill:#ff9500;"/>
    <path clip-path="url(#p6bf0c4fab8)" d="M 190.122653 80.809833 
L 206.615938 84.095787 
L 216.44855 78.567046 
L 200.035671 75.323711 
z
" style="fill:#ffff00;"/>
    <path clip-path="url(#p6bf0c4fab8)" d="M 233.001553 81.703089 
L 249.692501 86.688957 
L 259.215831 80.18271 
L 242.607902 75.898417 
z
" style="fill:#fffe00;"/>
    <path clip-path="url(#p6bf0c4fab8)" d="M 273.583188 132.313169 
L 290.014605 164.17703 
L 299.252525 155.664813 
L 283.033871 121.426293 
z
" style="fill:#ff9700;"/>
    <path clip-path="url(#p6bf0c4fab8)" d="M 266.478086 94.472192 
L 283.033871 121.426293 
L 292.390401 110.179303 
L 275.95572 84.276482 
z
" style="fill:#ffdd00;"/>
    <path clip-path="url(#p6bf0c4fab8)" d="M 206.615938 84.095787 
L 223.25238 87.525518 
L 233.001553 81.703089 
L 216.44855 78.567046 
z
" style="fill:#ffff00;"/>
    <path clip-path="url(#p6bf0c4fab8)" d="M 249.692501 86.688957 
L 266.478086 94.472192 
L 275.95572 84.276482 
L 259.215831 80.18271 
z
" style="fill:#fffa00;"/>
    <path clip-path="url(#p6bf0c4fab8)" d="M 290.014605 164.17703 
L 307.311097 154.338497 
L 316.736251 138.784264 
L 299.252525 155.664813 
z
" style="fill:#ff8900;"/>
    <path clip-path="url(#p6bf0c4fab8)" d="M 180.060514 86.378484 
L 196.634822 89.713219 
L 206.615938 84.095787 
L 190.122653 80.809833 
z
" style="fill:#ffff00;"/>
    <path clip-path="url(#p6bf0c4fab8)" d="M 223.25238 87.525518 
L 240.032379 93.268933 
L 249.692501 86.688957 
L 233.001553 81.703089 
z
" style="fill:#fffd00;"/>
    <path clip-path="url(#p6bf0c4fab8)" d="M 264.029743 143.016348 
L 280.632057 174.282403 
L 290.014605 164.17703 
L 273.583188 132.313169 
z
" style="fill:#ff8f00;"/>
    <path clip-path="url(#p6bf0c4fab8)" d="M 256.894656 104.214968 
L 273.583188 132.313169 
L 283.033871 121.426293 
L 266.478086 94.472192 
z
" style="fill:#ffd300;"/>
    <path clip-path="url(#p6bf0c4fab8)" d="M 280.632057 174.282403 
L 297.810926 170.172493 
L 307.311097 154.338497 
L 290.014605 164.17703 
z
" style="fill:#ff7b00;"/>
    <path clip-path="url(#p6bf0c4fab8)" d="M 240.032379 93.268933 
L 256.894656 104.214968 
L 266.478086 94.472192 
L 249.692501 86.688957 
z
" style="fill:#fff400;"/>
    <path clip-path="url(#p6bf0c4fab8)" d="M 196.634822 89.713219 
L 213.356379 93.365173 
L 223.25238 87.525518 
L 206.615938 84.095787 
z
" style="fill:#ffff00;"/>
    <path clip-path="url(#p6bf0c4fab8)" d="M 271.12204 185.751908 
L 288.2361 186.32092 
L 297.810926 170.172493 
L 280.632057 174.282403 
z
" style="fill:#ff6b00;"/>
    <path clip-path="url(#p6bf0c4fab8)" d="M 254.367744 153.635967 
L 271.12204 185.751908 
L 280.632057 174.282403 
L 264.029743 143.016348 
z
" style="fill:#ff8400;"/>
    <path clip-path="url(#p6bf0c4fab8)" d="M 316.736251 138.784264 
L 334.898121 115.074671 
L 344.604956 92.559688 
L 326.087297 123.4535 
z
" style="fill:#ffd200;"/>
    <path clip-path="url(#p6bf0c4fab8)" d="M 169.845862 92.031538 
L 186.501723 95.414394 
L 196.634822 89.713219 
L 180.060514 86.378484 
z
" style="fill:#ffff00;"/>
    <path clip-path="url(#p6bf0c4fab8)" d="M 247.196937 113.553866 
L 264.029743 143.016348 
L 273.583188 132.313169 
L 256.894656 104.214968 
z
" style="fill:#ffc900;"/>
    <path clip-path="url(#p6bf0c4fab8)" d="M 213.356379 93.365173 
L 230.231899 99.836224 
L 240.032379 93.268933 
L 223.25238 87.525518 
z
" style="fill:#fffc00;"/>
    <path clip-path="url(#p6bf0c4fab8)" d="M 307.311097 154.338497 
L 325.206889 136.528092 
L 334.898121 115.074671 
L 316.736251 138.784264 
z
" style="fill:#ffb700;"/>
    <path clip-path="url(#p6bf0c4fab8)" d="M 230.231899 99.836224 
L 247.196937 113.553866 
L 256.894656 104.214968 
L 240.032379 93.268933 
z
" style="fill:#ffef00;"/>
    <path clip-path="url(#p6bf0c4fab8)" d="M 261.497986 198.452374 
L 278.587846 202.798729 
L 288.2361 186.32092 
L 271.12204 185.751908 
z
" style="fill:#ff5a00;"/>
    <path clip-path="url(#p6bf0c4fab8)" d="M 186.501723 95.414394 
L 203.309333 99.218699 
L 213.356379 93.365173 
L 196.634822 89.713219 
z
" style="fill:#ffff00;"/>
    <path clip-path="url(#p6bf0c4fab8)" d="M 297.810926 170.172493 
L 315.509351 157.25126 
L 325.206889 136.528092 
L 307.311097 154.338497 
z
" style="fill:#ff9c00;"/>
    <path clip-path="url(#p6bf0c4fab8)" d="M 244.592826 164.213041 
L 261.497986 198.452374 
L 271.12204 185.751908 
L 254.367744 153.635967 
z
" style="fill:#ff7900;"/>
    <path clip-path="url(#p6bf0c4fab8)" d="M 237.376848 122.529489 
L 254.367744 153.635967 
L 264.029743 143.016348 
L 247.196937 113.553866 
z
" style="fill:#ffc100;"/>
    <path clip-path="url(#p6bf0c4fab8)" d="M 159.475204 97.77093 
L 176.212997 101.196291 
L 186.501723 95.414394 
L 169.845862 92.031538 
z
" style="fill:#ffff00;"/>
    <path clip-path="url(#p6bf0c4fab8)" d="M 203.309333 99.218699 
L 220.286107 106.315179 
L 230.231899 99.836224 
L 213.356379 93.365173 
z
" style="fill:#fffb00;"/>
    <path clip-path="url(#p6bf0c4fab8)" d="M 288.2361 186.32092 
L 305.790305 177.485786 
L 315.509351 157.25126 
L 297.810926 170.172493 
z
" style="fill:#ff8100;"/>
    <path clip-path="url(#p6bf0c4fab8)" d="M 251.771363 212.337259 
L 268.867942 219.598482 
L 278.587846 202.798729 
L 261.497986 198.452374 
z
" style="fill:#ff4700;"/>
    <path clip-path="url(#p6bf0c4fab8)" d="M 220.286107 106.315179 
L 237.376848 122.529489 
L 247.196937 113.553866 
L 230.231899 99.836224 
z
" style="fill:#ffea00;"/>
    <path clip-path="url(#p6bf0c4fab8)" d="M 334.898121 115.074671 
L 352.322526 120.268591 
L 361.869673 101.404404 
L 344.604956 92.559688 
z
" style="fill:#fff000;"/>
    <path clip-path="url(#p6bf0c4fab8)" d="M 234.700967 174.735833 
L 251.771363 212.337259 
L 261.497986 198.452374 
L 244.592826 164.213041 
z
" style="fill:#ff6d00;"/>
    <path clip-path="url(#p6bf0c4fab8)" d="M 278.587846 202.798729 
L 296.039138 197.413362 
L 305.790305 177.485786 
L 288.2361 186.32092 
z
" style="fill:#ff6700;"/>
    <path clip-path="url(#p6bf0c4fab8)" d="M 325.206889 136.528092 
L 342.707329 139.697455 
L 352.322526 120.268591 
L 334.898121 115.074671 
z
" style="fill:#ffd000;"/>
    <path clip-path="url(#p6bf0c4fab8)" d="M 176.212997 101.196291 
L 193.10683 105.083845 
L 203.309333 99.218699 
L 186.501723 95.414394 
z
" style="fill:#ffff00;"/>
    <path clip-path="url(#p6bf0c4fab8)" d="M 241.95333 227.448342 
L 259.07835 236.681723 
L 268.867942 219.598482 
L 251.771363 212.337259 
z
" style="fill:#ff3300;"/>
    <path clip-path="url(#p6bf0c4fab8)" d="M 227.426572 131.174321 
L 244.592826 164.213041 
L 254.367744 153.635967 
L 237.376848 122.529489 
z
" style="fill:#ffb900;"/>
    <path clip-path="url(#p6bf0c4fab8)" d="M 315.509351 157.25126 
L 333.037953 159.439419 
L 342.707329 139.697455 
L 325.206889 136.528092 
z
" style="fill:#ffb200;"/>
    <path clip-path="url(#p6bf0c4fab8)" d="M 268.867942 219.598482 
L 286.248431 217.178466 
L 296.039138 197.413362 
L 278.587846 202.798729 
z
" style="fill:#ff4d00;"/>
    <path clip-path="url(#p6bf0c4fab8)" d="M 148.944939 103.598653 
L 165.76483 107.056688 
L 176.212997 101.196291 
L 159.475204 97.77093 
z
" style="fill:#ffff00;"/>
    <path clip-path="url(#p6bf0c4fab8)" d="M 193.10683 105.083845 
L 210.188713 112.633838 
L 220.286107 106.315179 
L 203.309333 99.218699 
z
" style="fill:#fffa00;"/>
    <path clip-path="url(#p6bf0c4fab8)" d="M 305.790305 177.485786 
L 323.321479 179.343577 
L 333.037953 159.439419 
L 315.509351 157.25126 
z
" style="fill:#ff9300;"/>
    <path clip-path="url(#p6bf0c4fab8)" d="M 232.056583 243.930228 
L 249.220645 253.961599 
L 259.07835 236.681723 
L 241.95333 227.448342 
z
" style="fill:#ff1d00;"/>
    <path clip-path="url(#p6bf0c4fab8)" d="M 224.687412 185.135797 
L 241.95333 227.448342 
L 251.771363 212.337259 
L 234.700967 174.735833 
z
" style="fill:#ff6000;"/>
    <path clip-path="url(#p6bf0c4fab8)" d="M 210.188713 112.633838 
L 227.426572 131.174321 
L 237.376848 122.529489 
L 220.286107 106.315179 
z
" style="fill:#ffe700;"/>
    <path clip-path="url(#p6bf0c4fab8)" d="M 259.07835 236.681723 
L 276.413068 236.908473 
L 286.248431 217.178466 
L 268.867942 219.598482 
z
" style="fill:#ff3400;"/>
    <path clip-path="url(#p6bf0c4fab8)" d="M 296.039138 197.413362 
L 313.56099 199.322004 
L 323.321479 179.343577 
L 305.790305 177.485786 
z
" style="fill:#ff7600;"/>
    <path clip-path="url(#p6bf0c4fab8)" d="M 217.338453 139.516882 
L 234.700967 174.735833 
L 244.592826 164.213041 
L 227.426572 131.174321 
z
" style="fill:#ffb200;"/>
    <path clip-path="url(#p6bf0c4fab8)" d="M 222.097809 262.061861 
L 239.294972 271.271651 
L 249.220645 253.961599 
L 232.056583 243.930228 
z
" style="fill:#ff0600;"/>
    <path clip-path="url(#p6bf0c4fab8)" d="M 165.76483 107.056688 
L 182.744363 110.963778 
L 193.10683 105.083845 
L 176.212997 101.196291 
z
" style="fill:#ffff00;"/>
    <path clip-path="url(#p6bf0c4fab8)" d="M 249.220645 253.961599 
L 266.529775 256.735767 
L 276.413068 236.908473 
L 259.07835 236.681723 
z
" style="fill:#ff1a00;"/>
    <path clip-path="url(#p6bf0c4fab8)" d="M 286.248431 217.178466 
L 303.757356 219.32215 
L 313.56099 199.322004 
L 296.039138 197.413362 
z
" style="fill:#ff5800;"/>
    <path clip-path="url(#p6bf0c4fab8)" d="M 214.54531 195.27115 
L 232.056583 243.930228 
L 241.95333 227.448342 
L 224.687412 185.135797 
z
" style="fill:#ff5200;"/>
    <path clip-path="url(#p6bf0c4fab8)" d="M 276.413068 236.908473 
L 293.910334 239.304221 
L 303.757356 219.32215 
L 286.248431 217.178466 
z
" style="fill:#ff3b00;"/>
    <path clip-path="url(#p6bf0c4fab8)" d="M 239.294972 271.271651 
L 256.597124 276.82763 
L 266.529775 256.735767 
L 249.220645 253.961599 
z
" style="fill:#ff0000;"/>
    <path clip-path="url(#p6bf0c4fab8)" d="M 138.251354 109.516762 
L 155.153188 112.99245 
L 165.76483 107.056688 
L 148.944939 103.598653 
z
" style="fill:#ffff00;"/>
    <path clip-path="url(#p6bf0c4fab8)" d="M 182.744363 110.963778 
L 199.93197 118.716017 
L 210.188713 112.633838 
L 193.10683 105.083845 
z
" style="fill:#fffa00;"/>
    <path clip-path="url(#p6bf0c4fab8)" d="M 199.93197 118.716017 
L 217.338453 139.516882 
L 227.426572 131.174321 
L 210.188713 112.633838 
z
" style="fill:#ffe400;"/>
    <path clip-path="url(#p6bf0c4fab8)" d="M 266.529775 256.735767 
L 284.019188 259.218555 
L 293.910334 239.304221 
L 276.413068 236.908473 
z
" style="fill:#ff1e00;"/>
    <path clip-path="url(#p6bf0c4fab8)" d="M 207.105035 147.590487 
L 224.687412 185.135797 
L 234.700967 174.735833 
L 217.338453 139.516882 
z
" style="fill:#ffab00;"/>
    <path clip-path="url(#p6bf0c4fab8)" d="M 204.263584 204.893146 
L 222.097809 262.061861 
L 232.056583 243.930228 
L 214.54531 195.27115 
z
" style="fill:#ff4200;"/>
    <path clip-path="url(#p6bf0c4fab8)" d="M 155.153188 112.99245 
L 172.217595 116.872819 
L 182.744363 110.963778 
L 165.76483 107.056688 
z
" style="fill:#ffff00;"/>
    <path clip-path="url(#p6bf0c4fab8)" d="M 256.597124 276.82763 
L 274.082845 278.976925 
L 284.019188 259.218555 
L 266.529775 256.735767 
z
" style="fill:#ff0200;"/>
    <path clip-path="url(#p6bf0c4fab8)" d="M 127.390618 115.527376 
L 144.373673 118.996561 
L 155.153188 112.99245 
L 138.251354 109.516762 
z
" style="fill:#ffff00;"/>
    <path clip-path="url(#p6bf0c4fab8)" d="M 172.217595 116.872819 
L 189.50631 124.471217 
L 199.93197 118.716017 
L 182.744363 110.963778 
z
" style="fill:#fffa00;"/>
    <path clip-path="url(#p6bf0c4fab8)" d="M 189.50631 124.471217 
L 207.105035 147.590487 
L 217.338453 139.516882 
L 199.93197 118.716017 
z
" style="fill:#ffe200;"/>
    <path clip-path="url(#p6bf0c4fab8)" d="M 196.719457 155.448921 
L 214.54531 195.27115 
L 224.687412 185.135797 
L 207.105035 147.590487 
z
" style="fill:#ffa500;"/>
    <path clip-path="url(#p6bf0c4fab8)" d="M 144.373673 118.996561 
L 161.522861 122.845139 
L 172.217595 116.872819 
L 155.153188 112.99245 
z
" style="fill:#ffff00;"/>
    <path clip-path="url(#p6bf0c4fab8)" d="M 116.358783 121.632681 
L 133.421199 125.052721 
L 144.373673 118.996561 
L 127.390618 115.527376 
z
" style="fill:#ffff00;"/>
    <path clip-path="url(#p6bf0c4fab8)" d="M 178.899605 129.780094 
L 196.719457 155.448921 
L 207.105035 147.590487 
L 189.50631 124.471217 
z
" style="fill:#ffe100;"/>
    <path clip-path="url(#p6bf0c4fab8)" d="M 161.522861 122.845139 
L 178.899605 129.780094 
L 189.50631 124.471217 
L 172.217595 116.872819 
z
" style="fill:#fffb00;"/>
    <path clip-path="url(#p6bf0c4fab8)" d="M 186.176485 163.193524 
L 204.263584 204.893146 
L 214.54531 195.27115 
L 196.719457 155.448921 
z
" style="fill:#ffa000;"/>
    <path clip-path="url(#p6bf0c4fab8)" d="M 133.421199 125.052721 
L 150.658105 128.948901 
L 161.522861 122.845139 
L 144.373673 118.996561 
z
" style="fill:#ffff00;"/>
    <path clip-path="url(#p6bf0c4fab8)" d="M 168.095789 134.471623 
L 186.176485 163.193524 
L 196.719457 155.448921 
L 178.899605 129.780094 
z
" style="fill:#ffe100;"/>
    <path clip-path="url(#p6bf0c4fab8)" d="M 150.658105 128.948901 
L 168.095789 134.471623 
L 178.899605 129.780094 
L 161.522861 122.845139 
z
" style="fill:#fffc00;"/>
   </g>
  </g>
  <g id="text_20">
   <!-- Con nr=10- surf del potencial de la Reg.5-Eo. -->
   <defs>
    <path d="M 64.40625 67.28125 
L 64.40625 56.890625 
Q 59.421875 61.53125 53.78125 63.8125 
Q 48.140625 66.109375 41.796875 66.109375 
Q 29.296875 66.109375 22.65625 58.46875 
Q 16.015625 50.828125 16.015625 36.375 
Q 16.015625 21.96875 22.65625 14.328125 
Q 29.296875 6.6875 41.796875 6.6875 
Q 48.140625 6.6875 53.78125 8.984375 
Q 59.421875 11.28125 64.40625 15.921875 
L 64.40625 5.609375 
Q 59.234375 2.09375 53.4375 0.328125 
Q 47.65625 -1.421875 41.21875 -1.421875 
Q 24.65625 -1.421875 15.125 8.703125 
Q 5.609375 18.84375 5.609375 36.375 
Q 5.609375 53.953125 15.125 64.078125 
Q 24.65625 74.21875 41.21875 74.21875 
Q 47.75 74.21875 53.53125 72.484375 
Q 59.328125 70.75 64.40625 67.28125 
z
" id="DejaVuSans-67"/>
    <path d="M 30.609375 48.390625 
Q 23.390625 48.390625 19.1875 42.75 
Q 14.984375 37.109375 14.984375 27.296875 
Q 14.984375 17.484375 19.15625 11.84375 
Q 23.34375 6.203125 30.609375 6.203125 
Q 37.796875 6.203125 41.984375 11.859375 
Q 46.1875 17.53125 46.1875 27.296875 
Q 46.1875 37.015625 41.984375 42.703125 
Q 37.796875 48.390625 30.609375 48.390625 
z
M 30.609375 56 
Q 42.328125 56 49.015625 48.375 
Q 55.71875 40.765625 55.71875 27.296875 
Q 55.71875 13.875 49.015625 6.21875 
Q 42.328125 -1.421875 30.609375 -1.421875 
Q 18.84375 -1.421875 12.171875 6.21875 
Q 5.515625 13.875 5.515625 27.296875 
Q 5.515625 40.765625 12.171875 48.375 
Q 18.84375 56 30.609375 56 
z
" id="DejaVuSans-111"/>
    <path d="M 54.890625 33.015625 
L 54.890625 0 
L 45.90625 0 
L 45.90625 32.71875 
Q 45.90625 40.484375 42.875 44.328125 
Q 39.84375 48.1875 33.796875 48.1875 
Q 26.515625 48.1875 22.3125 43.546875 
Q 18.109375 38.921875 18.109375 30.90625 
L 18.109375 0 
L 9.078125 0 
L 9.078125 54.6875 
L 18.109375 54.6875 
L 18.109375 46.1875 
Q 21.34375 51.125 25.703125 53.5625 
Q 30.078125 56 35.796875 56 
Q 45.21875 56 50.046875 50.171875 
Q 54.890625 44.34375 54.890625 33.015625 
z
" id="DejaVuSans-110"/>
    <path id="DejaVuSans-32"/>
    <path d="M 41.109375 46.296875 
Q 39.59375 47.171875 37.8125 47.578125 
Q 36.03125 48 33.890625 48 
Q 26.265625 48 22.1875 43.046875 
Q 18.109375 38.09375 18.109375 28.8125 
L 18.109375 0 
L 9.078125 0 
L 9.078125 54.6875 
L 18.109375 54.6875 
L 18.109375 46.1875 
Q 20.953125 51.171875 25.484375 53.578125 
Q 30.03125 56 36.53125 56 
Q 37.453125 56 38.578125 55.875 
Q 39.703125 55.765625 41.0625 55.515625 
z
" id="DejaVuSans-114"/>
    <path d="M 10.59375 45.40625 
L 73.1875 45.40625 
L 73.1875 37.203125 
L 10.59375 37.203125 
z
M 10.59375 25.484375 
L 73.1875 25.484375 
L 73.1875 17.1875 
L 10.59375 17.1875 
z
" id="DejaVuSans-61"/>
    <path d="M 4.890625 31.390625 
L 31.203125 31.390625 
L 31.203125 23.390625 
L 4.890625 23.390625 
z
" id="DejaVuSans-45"/>
    <path d="M 44.28125 53.078125 
L 44.28125 44.578125 
Q 40.484375 46.53125 36.375 47.5 
Q 32.28125 48.484375 27.875 48.484375 
Q 21.1875 48.484375 17.84375 46.4375 
Q 14.5 44.390625 14.5 40.28125 
Q 14.5 37.15625 16.890625 35.375 
Q 19.28125 33.59375 26.515625 31.984375 
L 29.59375 31.296875 
Q 39.15625 29.25 43.1875 25.515625 
Q 47.21875 21.78125 47.21875 15.09375 
Q 47.21875 7.46875 41.1875 3.015625 
Q 35.15625 -1.421875 24.609375 -1.421875 
Q 20.21875 -1.421875 15.453125 -0.5625 
Q 10.6875 0.296875 5.421875 2 
L 5.421875 11.28125 
Q 10.40625 8.6875 15.234375 7.390625 
Q 20.0625 6.109375 24.8125 6.109375 
Q 31.15625 6.109375 34.5625 8.28125 
Q 37.984375 10.453125 37.984375 14.40625 
Q 37.984375 18.0625 35.515625 20.015625 
Q 33.0625 21.96875 24.703125 23.78125 
L 21.578125 24.515625 
Q 13.234375 26.265625 9.515625 29.90625 
Q 5.8125 33.546875 5.8125 39.890625 
Q 5.8125 47.609375 11.28125 51.796875 
Q 16.75 56 26.8125 56 
Q 31.78125 56 36.171875 55.265625 
Q 40.578125 54.546875 44.28125 53.078125 
z
" id="DejaVuSans-115"/>
    <path d="M 8.5 21.578125 
L 8.5 54.6875 
L 17.484375 54.6875 
L 17.484375 21.921875 
Q 17.484375 14.15625 20.5 10.265625 
Q 23.53125 6.390625 29.59375 6.390625 
Q 36.859375 6.390625 41.078125 11.03125 
Q 45.3125 15.671875 45.3125 23.6875 
L 45.3125 54.6875 
L 54.296875 54.6875 
L 54.296875 0 
L 45.3125 0 
L 45.3125 8.40625 
Q 42.046875 3.421875 37.71875 1 
Q 33.40625 -1.421875 27.6875 -1.421875 
Q 18.265625 -1.421875 13.375 4.4375 
Q 8.5 10.296875 8.5 21.578125 
z
M 31.109375 56 
z
" id="DejaVuSans-117"/>
    <path d="M 37.109375 75.984375 
L 37.109375 68.5 
L 28.515625 68.5 
Q 23.6875 68.5 21.796875 66.546875 
Q 19.921875 64.59375 19.921875 59.515625 
L 19.921875 54.6875 
L 34.71875 54.6875 
L 34.71875 47.703125 
L 19.921875 47.703125 
L 19.921875 0 
L 10.890625 0 
L 10.890625 47.703125 
L 2.296875 47.703125 
L 2.296875 54.6875 
L 10.890625 54.6875 
L 10.890625 58.5 
Q 10.890625 67.625 15.140625 71.796875 
Q 19.390625 75.984375 28.609375 75.984375 
z
" id="DejaVuSans-102"/>
    <path d="M 45.40625 46.390625 
L 45.40625 75.984375 
L 54.390625 75.984375 
L 54.390625 0 
L 45.40625 0 
L 45.40625 8.203125 
Q 42.578125 3.328125 38.25 0.953125 
Q 33.9375 -1.421875 27.875 -1.421875 
Q 17.96875 -1.421875 11.734375 6.484375 
Q 5.515625 14.40625 5.515625 27.296875 
Q 5.515625 40.1875 11.734375 48.09375 
Q 17.96875 56 27.875 56 
Q 33.9375 56 38.25 53.625 
Q 42.578125 51.265625 45.40625 46.390625 
z
M 14.796875 27.296875 
Q 14.796875 17.390625 18.875 11.75 
Q 22.953125 6.109375 30.078125 6.109375 
Q 37.203125 6.109375 41.296875 11.75 
Q 45.40625 17.390625 45.40625 27.296875 
Q 45.40625 37.203125 41.296875 42.84375 
Q 37.203125 48.484375 30.078125 48.484375 
Q 22.953125 48.484375 18.875 42.84375 
Q 14.796875 37.203125 14.796875 27.296875 
z
" id="DejaVuSans-100"/>
    <path d="M 56.203125 29.59375 
L 56.203125 25.203125 
L 14.890625 25.203125 
Q 15.484375 15.921875 20.484375 11.0625 
Q 25.484375 6.203125 34.421875 6.203125 
Q 39.59375 6.203125 44.453125 7.46875 
Q 49.3125 8.734375 54.109375 11.28125 
L 54.109375 2.78125 
Q 49.265625 0.734375 44.1875 -0.34375 
Q 39.109375 -1.421875 33.890625 -1.421875 
Q 20.796875 -1.421875 13.15625 6.1875 
Q 5.515625 13.8125 5.515625 26.8125 
Q 5.515625 40.234375 12.765625 48.109375 
Q 20.015625 56 32.328125 56 
Q 43.359375 56 49.78125 48.890625 
Q 56.203125 41.796875 56.203125 29.59375 
z
M 47.21875 32.234375 
Q 47.125 39.59375 43.09375 43.984375 
Q 39.0625 48.390625 32.421875 48.390625 
Q 24.90625 48.390625 20.390625 44.140625 
Q 15.875 39.890625 15.1875 32.171875 
z
" id="DejaVuSans-101"/>
    <path d="M 9.421875 75.984375 
L 18.40625 75.984375 
L 18.40625 0 
L 9.421875 0 
z
" id="DejaVuSans-108"/>
    <path d="M 18.109375 8.203125 
L 18.109375 -20.796875 
L 9.078125 -20.796875 
L 9.078125 54.6875 
L 18.109375 54.6875 
L 18.109375 46.390625 
Q 20.953125 51.265625 25.265625 53.625 
Q 29.59375 56 35.59375 56 
Q 45.5625 56 51.78125 48.09375 
Q 58.015625 40.1875 58.015625 27.296875 
Q 58.015625 14.40625 51.78125 6.484375 
Q 45.5625 -1.421875 35.59375 -1.421875 
Q 29.59375 -1.421875 25.265625 0.953125 
Q 20.953125 3.328125 18.109375 8.203125 
z
M 48.6875 27.296875 
Q 48.6875 37.203125 44.609375 42.84375 
Q 40.53125 48.484375 33.40625 48.484375 
Q 26.265625 48.484375 22.1875 42.84375 
Q 18.109375 37.203125 18.109375 27.296875 
Q 18.109375 17.390625 22.1875 11.75 
Q 26.265625 6.109375 33.40625 6.109375 
Q 40.53125 6.109375 44.609375 11.75 
Q 48.6875 17.390625 48.6875 27.296875 
z
" id="DejaVuSans-112"/>
    <path d="M 18.3125 70.21875 
L 18.3125 54.6875 
L 36.8125 54.6875 
L 36.8125 47.703125 
L 18.3125 47.703125 
L 18.3125 18.015625 
Q 18.3125 11.328125 20.140625 9.421875 
Q 21.96875 7.515625 27.59375 7.515625 
L 36.8125 7.515625 
L 36.8125 0 
L 27.59375 0 
Q 17.1875 0 13.234375 3.875 
Q 9.28125 7.765625 9.28125 18.015625 
L 9.28125 47.703125 
L 2.6875 47.703125 
L 2.6875 54.6875 
L 9.28125 54.6875 
L 9.28125 70.21875 
z
" id="DejaVuSans-116"/>
    <path d="M 48.78125 52.59375 
L 48.78125 44.1875 
Q 44.96875 46.296875 41.140625 47.34375 
Q 37.3125 48.390625 33.40625 48.390625 
Q 24.65625 48.390625 19.8125 42.84375 
Q 14.984375 37.3125 14.984375 27.296875 
Q 14.984375 17.28125 19.8125 11.734375 
Q 24.65625 6.203125 33.40625 6.203125 
Q 37.3125 6.203125 41.140625 7.25 
Q 44.96875 8.296875 48.78125 10.40625 
L 48.78125 2.09375 
Q 45.015625 0.34375 40.984375 -0.53125 
Q 36.96875 -1.421875 32.421875 -1.421875 
Q 20.0625 -1.421875 12.78125 6.34375 
Q 5.515625 14.109375 5.515625 27.296875 
Q 5.515625 40.671875 12.859375 48.328125 
Q 20.21875 56 33.015625 56 
Q 37.15625 56 41.109375 55.140625 
Q 45.0625 54.296875 48.78125 52.59375 
z
" id="DejaVuSans-99"/>
    <path d="M 9.421875 54.6875 
L 18.40625 54.6875 
L 18.40625 0 
L 9.421875 0 
z
M 9.421875 75.984375 
L 18.40625 75.984375 
L 18.40625 64.59375 
L 9.421875 64.59375 
z
" id="DejaVuSans-105"/>
    <path d="M 34.28125 27.484375 
Q 23.390625 27.484375 19.1875 25 
Q 14.984375 22.515625 14.984375 16.5 
Q 14.984375 11.71875 18.140625 8.90625 
Q 21.296875 6.109375 26.703125 6.109375 
Q 34.1875 6.109375 38.703125 11.40625 
Q 43.21875 16.703125 43.21875 25.484375 
L 43.21875 27.484375 
z
M 52.203125 31.203125 
L 52.203125 0 
L 43.21875 0 
L 43.21875 8.296875 
Q 40.140625 3.328125 35.546875 0.953125 
Q 30.953125 -1.421875 24.3125 -1.421875 
Q 15.921875 -1.421875 10.953125 3.296875 
Q 6 8.015625 6 15.921875 
Q 6 25.140625 12.171875 29.828125 
Q 18.359375 34.515625 30.609375 34.515625 
L 43.21875 34.515625 
L 43.21875 35.40625 
Q 43.21875 41.609375 39.140625 45 
Q 35.0625 48.390625 27.6875 48.390625 
Q 23 48.390625 18.546875 47.265625 
Q 14.109375 46.140625 10.015625 43.890625 
L 10.015625 52.203125 
Q 14.9375 54.109375 19.578125 55.046875 
Q 24.21875 56 28.609375 56 
Q 40.484375 56 46.34375 49.84375 
Q 52.203125 43.703125 52.203125 31.203125 
z
" id="DejaVuSans-97"/>
    <path d="M 44.390625 34.1875 
Q 47.5625 33.109375 50.5625 29.59375 
Q 53.5625 26.078125 56.59375 19.921875 
L 66.609375 0 
L 56 0 
L 46.6875 18.703125 
Q 43.0625 26.03125 39.671875 28.421875 
Q 36.28125 30.8125 30.421875 30.8125 
L 19.671875 30.8125 
L 19.671875 0 
L 9.8125 0 
L 9.8125 72.90625 
L 32.078125 72.90625 
Q 44.578125 72.90625 50.734375 67.671875 
Q 56.890625 62.453125 56.890625 51.90625 
Q 56.890625 45.015625 53.6875 40.46875 
Q 50.484375 35.9375 44.390625 34.1875 
z
M 19.671875 64.796875 
L 19.671875 38.921875 
L 32.078125 38.921875 
Q 39.203125 38.921875 42.84375 42.21875 
Q 46.484375 45.515625 46.484375 51.90625 
Q 46.484375 58.296875 42.84375 61.546875 
Q 39.203125 64.796875 32.078125 64.796875 
z
" id="DejaVuSans-82"/>
    <path d="M 45.40625 27.984375 
Q 45.40625 37.75 41.375 43.109375 
Q 37.359375 48.484375 30.078125 48.484375 
Q 22.859375 48.484375 18.828125 43.109375 
Q 14.796875 37.75 14.796875 27.984375 
Q 14.796875 18.265625 18.828125 12.890625 
Q 22.859375 7.515625 30.078125 7.515625 
Q 37.359375 7.515625 41.375 12.890625 
Q 45.40625 18.265625 45.40625 27.984375 
z
M 54.390625 6.78125 
Q 54.390625 -7.171875 48.1875 -13.984375 
Q 42 -20.796875 29.203125 -20.796875 
Q 24.46875 -20.796875 20.265625 -20.09375 
Q 16.0625 -19.390625 12.109375 -17.921875 
L 12.109375 -9.1875 
Q 16.0625 -11.328125 19.921875 -12.34375 
Q 23.78125 -13.375 27.78125 -13.375 
Q 36.625 -13.375 41.015625 -8.765625 
Q 45.40625 -4.15625 45.40625 5.171875 
L 45.40625 9.625 
Q 42.625 4.78125 38.28125 2.390625 
Q 33.9375 0 27.875 0 
Q 17.828125 0 11.671875 7.65625 
Q 5.515625 15.328125 5.515625 27.984375 
Q 5.515625 40.671875 11.671875 48.328125 
Q 17.828125 56 27.875 56 
Q 33.9375 56 38.28125 53.609375 
Q 42.625 51.21875 45.40625 46.390625 
L 45.40625 54.6875 
L 54.390625 54.6875 
z
" id="DejaVuSans-103"/>
    <path d="M 9.8125 72.90625 
L 55.90625 72.90625 
L 55.90625 64.59375 
L 19.671875 64.59375 
L 19.671875 43.015625 
L 54.390625 43.015625 
L 54.390625 34.71875 
L 19.671875 34.71875 
L 19.671875 8.296875 
L 56.78125 8.296875 
L 56.78125 0 
L 9.8125 0 
z
" id="DejaVuSans-69"/>
   </defs>
   <g transform="translate(94.212187 16.030125)scale(0.12 -0.12)">
    <use xlink:href="#DejaVuSans-67"/>
    <use x="69.824219" xlink:href="#DejaVuSans-111"/>
    <use x="131.005859" xlink:href="#DejaVuSans-110"/>
    <use x="194.384766" xlink:href="#DejaVuSans-32"/>
    <use x="226.171875" xlink:href="#DejaVuSans-110"/>
    <use x="289.550781" xlink:href="#DejaVuSans-114"/>
    <use x="330.664062" xlink:href="#DejaVuSans-61"/>
    <use x="414.453125" xlink:href="#DejaVuSans-49"/>
    <use x="478.076172" xlink:href="#DejaVuSans-48"/>
    <use x="541.699219" xlink:href="#DejaVuSans-45"/>
    <use x="577.783203" xlink:href="#DejaVuSans-32"/>
    <use x="609.570312" xlink:href="#DejaVuSans-115"/>
    <use x="661.669922" xlink:href="#DejaVuSans-117"/>
    <use x="725.048828" xlink:href="#DejaVuSans-114"/>
    <use x="766.162109" xlink:href="#DejaVuSans-102"/>
    <use x="801.367188" xlink:href="#DejaVuSans-32"/>
    <use x="833.154297" xlink:href="#DejaVuSans-100"/>
    <use x="896.630859" xlink:href="#DejaVuSans-101"/>
    <use x="958.154297" xlink:href="#DejaVuSans-108"/>
    <use x="985.9375" xlink:href="#DejaVuSans-32"/>
    <use x="1017.724609" xlink:href="#DejaVuSans-112"/>
    <use x="1081.201172" xlink:href="#DejaVuSans-111"/>
    <use x="1142.382812" xlink:href="#DejaVuSans-116"/>
    <use x="1181.591797" xlink:href="#DejaVuSans-101"/>
    <use x="1243.115234" xlink:href="#DejaVuSans-110"/>
    <use x="1306.494141" xlink:href="#DejaVuSans-99"/>
    <use x="1361.474609" xlink:href="#DejaVuSans-105"/>
    <use x="1389.257812" xlink:href="#DejaVuSans-97"/>
    <use x="1450.537109" xlink:href="#DejaVuSans-108"/>
    <use x="1478.320312" xlink:href="#DejaVuSans-32"/>
    <use x="1510.107422" xlink:href="#DejaVuSans-100"/>
    <use x="1573.583984" xlink:href="#DejaVuSans-101"/>
    <use x="1635.107422" xlink:href="#DejaVuSans-32"/>
    <use x="1666.894531" xlink:href="#DejaVuSans-108"/>
    <use x="1694.677734" xlink:href="#DejaVuSans-97"/>
    <use x="1755.957031" xlink:href="#DejaVuSans-32"/>
    <use x="1787.744141" xlink:href="#DejaVuSans-82"/>
    <use x="1857.164062" xlink:href="#DejaVuSans-101"/>
    <use x="1918.6875" xlink:href="#DejaVuSans-103"/>
    <use x="1982.164062" xlink:href="#DejaVuSans-46"/>
    <use x="2013.951172" xlink:href="#DejaVuSans-53"/>
    <use x="2077.574219" xlink:href="#DejaVuSans-45"/>
    <use x="2113.658203" xlink:href="#DejaVuSans-69"/>
    <use x="2176.841797" xlink:href="#DejaVuSans-111"/>
    <use x="2238.007812" xlink:href="#DejaVuSans-46"/>
   </g>
  </g>
 </g>
 <defs>
  <clipPath id="p6bf0c4fab8">
   <rect height="266.112" width="357.12" x="57.6" y="41.472"/>
  </clipPath>
 </defs>
</svg>
