<?xml version="1.0" encoding="utf-8" standalone="no"?>
<!DOCTYPE svg PUBLIC "-//W3C//DTD SVG 1.1//EN"
  "http://www.w3.org/Graphics/SVG/1.1/DTD/svg11.dtd">
<!-- Created with matplotlib (https://matplotlib.org/) -->
<svg height="280.512pt" version="1.1" viewBox="0 0 371.52 280.512" width="371.52pt" xmlns="http://www.w3.org/2000/svg" xmlns:xlink="http://www.w3.org/1999/xlink">
 <defs>
  <style type="text/css">
*{stroke-linecap:butt;stroke-linejoin:round;}
  </style>
 </defs>
 <g id="figure_1">
  <g id="patch_1">
   <path d="M 0 280.512 
L 371.52 280.512 
L 371.52 0 
L 0 0 
z
" style="fill:#ffffff;"/>
  </g>
  <g id="patch_2">
   <path d="M 7.2 273.312 
L 364.32 273.312 
L 364.32 7.2 
L 7.2 7.2 
z
" style="fill:#ffffff;"/>
  </g>
  <g id="pane3d_1">
   <g id="patch_3">
    <path d="M 54.541774 214.510626 
L 156.751387 149.265994 
L 155.049705 24.594209 
L 47.141237 83.21517 
" style="fill:#f2f2f2;opacity:0.5;stroke:#f2f2f2;stroke-linejoin:miter;"/>
   </g>
  </g>
  <g id="pane3d_2">
   <g id="patch_4">
    <path d="M 156.751387 149.265994 
L 322.32135 185.741954 
L 329.248599 57.310742 
L 155.049705 24.594209 
" style="fill:#e6e6e6;opacity:0.5;stroke:#e6e6e6;stroke-linejoin:miter;"/>
   </g>
  </g>
  <g id="pane3d_3">
   <g id="patch_5">
    <path d="M 54.541774 214.510626 
L 228.743747 256.992825 
L 322.32135 185.741954 
L 156.751387 149.265994 
" style="fill:#ececec;opacity:0.5;stroke:#ececec;stroke-linejoin:miter;"/>
   </g>
  </g>
  <g id="axis3d_1">
   <g id="line2d_1">
    <path d="M 54.541774 214.510626 
L 228.743747 256.992825 
" style="fill:none;stroke:#000000;stroke-linecap:square;stroke-width:0.8;"/>
   </g>
   <g id="Line3DCollection_1">
    <path d="M 65.162252 217.100616 
L 166.877438 151.496818 
L 165.681723 26.591023 
" style="fill:none;stroke:#b0b0b0;stroke-width:0.8;"/>
    <path d="M 89.66655 223.076417 
L 190.225146 156.640444 
L 190.206833 31.197117 
" style="fill:none;stroke:#b0b0b0;stroke-width:0.8;"/>
    <path d="M 114.494475 229.131141 
L 213.858726 161.84705 
L 215.04757 35.86249 
" style="fill:none;stroke:#b0b0b0;stroke-width:0.8;"/>
    <path d="M 139.652479 235.266361 
L 237.783461 167.117799 
L 240.210069 40.588294 
" style="fill:none;stroke:#b0b0b0;stroke-width:0.8;"/>
    <path d="M 165.147191 241.483692 
L 262.004765 172.453883 
L 265.70062 45.375709 
" style="fill:none;stroke:#b0b0b0;stroke-width:0.8;"/>
    <path d="M 190.985413 247.784795 
L 286.528186 177.856526 
L 291.525682 50.225949 
" style="fill:none;stroke:#b0b0b0;stroke-width:0.8;"/>
    <path d="M 217.174137 254.171373 
L 311.359413 183.32698 
L 317.691882 55.140259 
" style="fill:none;stroke:#b0b0b0;stroke-width:0.8;"/>
   </g>
   <g id="xtick_1">
    <g id="line2d_2">
     <path d="M 66.038581 216.535405 
L 63.406326 218.233145 
" style="fill:none;stroke:#000000;stroke-linecap:square;stroke-width:0.8;"/>
    </g>
    <g id="text_1">
     <!-- 0 -->
     <defs>
      <path d="M 31.78125 66.40625 
Q 24.171875 66.40625 20.328125 58.90625 
Q 16.5 51.421875 16.5 36.375 
Q 16.5 21.390625 20.328125 13.890625 
Q 24.171875 6.390625 31.78125 6.390625 
Q 39.453125 6.390625 43.28125 13.890625 
Q 47.125 21.390625 47.125 36.375 
Q 47.125 51.421875 43.28125 58.90625 
Q 39.453125 66.40625 31.78125 66.40625 
z
M 31.78125 74.21875 
Q 44.046875 74.21875 50.515625 64.515625 
Q 56.984375 54.828125 56.984375 36.375 
Q 56.984375 17.96875 50.515625 8.265625 
Q 44.046875 -1.421875 31.78125 -1.421875 
Q 19.53125 -1.421875 13.0625 8.265625 
Q 6.59375 17.96875 6.59375 36.375 
Q 6.59375 54.828125 13.0625 64.515625 
Q 19.53125 74.21875 31.78125 74.21875 
z
" id="DejaVuSans-48"/>
     </defs>
     <g transform="translate(54.660879 238.57252)scale(0.1 -0.1)">
      <use xlink:href="#DejaVuSans-48"/>
     </g>
    </g>
   </g>
   <g id="xtick_2">
    <g id="line2d_3">
     <path d="M 90.53332 222.503769 
L 87.929756 224.223864 
" style="fill:none;stroke:#000000;stroke-linecap:square;stroke-width:0.8;"/>
    </g>
    <g id="text_2">
     <!-- 1 -->
     <defs>
      <path d="M 12.40625 8.296875 
L 28.515625 8.296875 
L 28.515625 63.921875 
L 10.984375 60.40625 
L 10.984375 69.390625 
L 28.421875 72.90625 
L 38.28125 72.90625 
L 38.28125 8.296875 
L 54.390625 8.296875 
L 54.390625 0 
L 12.40625 0 
z
" id="DejaVuSans-49"/>
     </defs>
     <g transform="translate(79.162363 244.650548)scale(0.1 -0.1)">
      <use xlink:href="#DejaVuSans-49"/>
     </g>
    </g>
   </g>
   <g id="xtick_3">
    <g id="line2d_4">
     <path d="M 115.351356 228.550908 
L 112.777474 230.293801 
" style="fill:none;stroke:#000000;stroke-linecap:square;stroke-width:0.8;"/>
    </g>
    <g id="text_3">
     <!-- 2 -->
     <defs>
      <path d="M 19.1875 8.296875 
L 53.609375 8.296875 
L 53.609375 0 
L 7.328125 0 
L 7.328125 8.296875 
Q 12.9375 14.109375 22.625 23.890625 
Q 32.328125 33.6875 34.8125 36.53125 
Q 39.546875 41.84375 41.421875 45.53125 
Q 43.3125 49.21875 43.3125 52.78125 
Q 43.3125 58.59375 39.234375 62.25 
Q 35.15625 65.921875 28.609375 65.921875 
Q 23.96875 65.921875 18.8125 64.3125 
Q 13.671875 62.703125 7.8125 59.421875 
L 7.8125 69.390625 
Q 13.765625 71.78125 18.9375 73 
Q 24.125 74.21875 28.421875 74.21875 
Q 39.75 74.21875 46.484375 68.546875 
Q 53.21875 62.890625 53.21875 53.421875 
Q 53.21875 48.921875 51.53125 44.890625 
Q 49.859375 40.875 45.40625 35.40625 
Q 44.1875 33.984375 37.640625 27.21875 
Q 31.109375 20.453125 19.1875 8.296875 
z
" id="DejaVuSans-50"/>
     </defs>
     <g transform="translate(103.988037 250.808998)scale(0.1 -0.1)">
      <use xlink:href="#DejaVuSans-50"/>
     </g>
    </g>
   </g>
   <g id="xtick_4">
    <g id="line2d_5">
     <path d="M 140.499132 234.67839 
L 137.955953 236.444539 
" style="fill:none;stroke:#000000;stroke-linecap:square;stroke-width:0.8;"/>
    </g>
    <g id="text_4">
     <!-- 3 -->
     <defs>
      <path d="M 40.578125 39.3125 
Q 47.65625 37.796875 51.625 33 
Q 55.609375 28.21875 55.609375 21.1875 
Q 55.609375 10.40625 48.1875 4.484375 
Q 40.765625 -1.421875 27.09375 -1.421875 
Q 22.515625 -1.421875 17.65625 -0.515625 
Q 12.796875 0.390625 7.625 2.203125 
L 7.625 11.71875 
Q 11.71875 9.328125 16.59375 8.109375 
Q 21.484375 6.890625 26.8125 6.890625 
Q 36.078125 6.890625 40.9375 10.546875 
Q 45.796875 14.203125 45.796875 21.1875 
Q 45.796875 27.640625 41.28125 31.265625 
Q 36.765625 34.90625 28.71875 34.90625 
L 20.21875 34.90625 
L 20.21875 43.015625 
L 29.109375 43.015625 
Q 36.375 43.015625 40.234375 45.921875 
Q 44.09375 48.828125 44.09375 54.296875 
Q 44.09375 59.90625 40.109375 62.90625 
Q 36.140625 65.921875 28.71875 65.921875 
Q 24.65625 65.921875 20.015625 65.03125 
Q 15.375 64.15625 9.8125 62.3125 
L 9.8125 71.09375 
Q 15.4375 72.65625 20.34375 73.4375 
Q 25.25 74.21875 29.59375 74.21875 
Q 40.828125 74.21875 47.359375 69.109375 
Q 53.90625 64.015625 53.90625 55.328125 
Q 53.90625 49.265625 50.4375 45.09375 
Q 46.96875 40.921875 40.578125 39.3125 
z
" id="DejaVuSans-51"/>
     </defs>
     <g transform="translate(129.14438 257.049475)scale(0.1 -0.1)">
      <use xlink:href="#DejaVuSans-51"/>
     </g>
    </g>
   </g>
   <g id="xtick_5">
    <g id="line2d_6">
     <path d="M 165.983263 240.887828 
L 163.471843 242.677702 
" style="fill:none;stroke:#000000;stroke-linecap:square;stroke-width:0.8;"/>
    </g>
    <g id="text_5">
     <!-- 4 -->
     <defs>
      <path d="M 37.796875 64.3125 
L 12.890625 25.390625 
L 37.796875 25.390625 
z
M 35.203125 72.90625 
L 47.609375 72.90625 
L 47.609375 25.390625 
L 58.015625 25.390625 
L 58.015625 17.1875 
L 47.609375 17.1875 
L 47.609375 0 
L 37.796875 0 
L 37.796875 17.1875 
L 4.890625 17.1875 
L 4.890625 26.703125 
z
" id="DejaVuSans-52"/>
     </defs>
     <g transform="translate(154.638042 263.37363)scale(0.1 -0.1)">
      <use xlink:href="#DejaVuSans-52"/>
     </g>
    </g>
   </g>
   <g id="xtick_6">
    <g id="line2d_7">
     <path d="M 191.810543 247.180878 
L 189.331972 248.994957 
" style="fill:none;stroke:#000000;stroke-linecap:square;stroke-width:0.8;"/>
    </g>
    <g id="text_6">
     <!-- 5 -->
     <defs>
      <path d="M 10.796875 72.90625 
L 49.515625 72.90625 
L 49.515625 64.59375 
L 19.828125 64.59375 
L 19.828125 46.734375 
Q 21.96875 47.46875 24.109375 47.828125 
Q 26.265625 48.1875 28.421875 48.1875 
Q 40.625 48.1875 47.75 41.5 
Q 54.890625 34.8125 54.890625 23.390625 
Q 54.890625 11.625 47.5625 5.09375 
Q 40.234375 -1.421875 26.90625 -1.421875 
Q 22.3125 -1.421875 17.546875 -0.640625 
Q 12.796875 0.140625 7.71875 1.703125 
L 7.71875 11.625 
Q 12.109375 9.234375 16.796875 8.0625 
Q 21.484375 6.890625 26.703125 6.890625 
Q 35.15625 6.890625 40.078125 11.328125 
Q 45.015625 15.765625 45.015625 23.390625 
Q 45.015625 31 40.078125 35.4375 
Q 35.15625 39.890625 26.703125 39.890625 
Q 22.75 39.890625 18.8125 39.015625 
Q 14.890625 38.140625 10.796875 36.28125 
z
" id="DejaVuSans-53"/>
     </defs>
     <g transform="translate(180.475853 269.783158)scale(0.1 -0.1)">
      <use xlink:href="#DejaVuSans-53"/>
     </g>
    </g>
   </g>
   <g id="xtick_7">
    <g id="line2d_8">
     <path d="M 217.987949 253.559239 
L 215.543353 255.398018 
" style="fill:none;stroke:#000000;stroke-linecap:square;stroke-width:0.8;"/>
    </g>
    <g id="text_7">
     <!-- 6 -->
     <defs>
      <path d="M 33.015625 40.375 
Q 26.375 40.375 22.484375 35.828125 
Q 18.609375 31.296875 18.609375 23.390625 
Q 18.609375 15.53125 22.484375 10.953125 
Q 26.375 6.390625 33.015625 6.390625 
Q 39.65625 6.390625 43.53125 10.953125 
Q 47.40625 15.53125 47.40625 23.390625 
Q 47.40625 31.296875 43.53125 35.828125 
Q 39.65625 40.375 33.015625 40.375 
z
M 52.59375 71.296875 
L 52.59375 62.3125 
Q 48.875 64.0625 45.09375 64.984375 
Q 41.3125 65.921875 37.59375 65.921875 
Q 27.828125 65.921875 22.671875 59.328125 
Q 17.53125 52.734375 16.796875 39.40625 
Q 19.671875 43.65625 24.015625 45.921875 
Q 28.375 48.1875 33.59375 48.1875 
Q 44.578125 48.1875 50.953125 41.515625 
Q 57.328125 34.859375 57.328125 23.390625 
Q 57.328125 12.15625 50.6875 5.359375 
Q 44.046875 -1.421875 33.015625 -1.421875 
Q 20.359375 -1.421875 13.671875 8.265625 
Q 6.984375 17.96875 6.984375 36.375 
Q 6.984375 53.65625 15.1875 63.9375 
Q 23.390625 74.21875 37.203125 74.21875 
Q 40.921875 74.21875 44.703125 73.484375 
Q 48.484375 72.75 52.59375 71.296875 
z
" id="DejaVuSans-54"/>
     </defs>
     <g transform="translate(206.66483 276.279799)scale(0.1 -0.1)">
      <use xlink:href="#DejaVuSans-54"/>
     </g>
    </g>
   </g>
  </g>
  <g id="axis3d_2">
   <g id="line2d_9">
    <path d="M 322.32135 185.741954 
L 228.743747 256.992825 
" style="fill:none;stroke:#000000;stroke-linecap:square;stroke-width:0.8;"/>
   </g>
   <g id="Line3DCollection_2">
    <path d="M 54.530092 79.201196 
L 61.515028 210.059309 
L 235.148062 252.11652 
" style="fill:none;stroke:#b0b0b0;stroke-width:0.8;"/>
    <path d="M 74.410294 68.401334 
L 80.295501 198.070955 
L 252.38167 238.994688 
" style="fill:none;stroke:#b0b0b0;stroke-width:0.8;"/>
    <path d="M 93.742663 57.899081 
L 98.584318 186.396445 
L 269.1437 226.231919 
" style="fill:none;stroke:#b0b0b0;stroke-width:0.8;"/>
    <path d="M 112.549534 47.682303 
L 116.400537 175.023614 
L 285.453248 213.813675 
" style="fill:none;stroke:#b0b0b0;stroke-width:0.8;"/>
    <path d="M 130.852048 37.739516 
L 133.762243 163.940917 
L 301.328392 201.726191 
" style="fill:none;stroke:#b0b0b0;stroke-width:0.8;"/>
    <path d="M 148.670224 28.059844 
L 150.686609 153.137393 
L 316.786258 189.956425 
" style="fill:none;stroke:#b0b0b0;stroke-width:0.8;"/>
   </g>
   <g id="xtick_8">
    <g id="line2d_10">
     <path d="M 233.694906 251.764538 
L 238.057621 252.82127 
" style="fill:none;stroke:#000000;stroke-linecap:square;stroke-width:0.8;"/>
    </g>
    <g id="text_8">
     <!-- 6.0 -->
     <defs>
      <path d="M 10.6875 12.40625 
L 21 12.40625 
L 21 0 
L 10.6875 0 
z
" id="DejaVuSans-46"/>
     </defs>
     <g transform="translate(239.895847 271.872728)scale(0.1 -0.1)">
      <use xlink:href="#DejaVuSans-54"/>
      <use x="63.623047" xlink:href="#DejaVuSans-46"/>
      <use x="95.410156" xlink:href="#DejaVuSans-48"/>
     </g>
    </g>
   </g>
   <g id="xtick_9">
    <g id="line2d_11">
     <path d="M 250.942341 238.652401 
L 255.2635 239.680014 
" style="fill:none;stroke:#000000;stroke-linecap:square;stroke-width:0.8;"/>
    </g>
    <g id="text_9">
     <!-- 6.2 -->
     <g transform="translate(256.944719 258.588928)scale(0.1 -0.1)">
      <use xlink:href="#DejaVuSans-54"/>
      <use x="63.623047" xlink:href="#DejaVuSans-46"/>
      <use x="95.410156" xlink:href="#DejaVuSans-50"/>
     </g>
    </g>
   </g>
   <g id="xtick_10">
    <g id="line2d_12">
     <path d="M 267.71799 225.898933 
L 271.998219 226.898614 
" style="fill:none;stroke:#000000;stroke-linecap:square;stroke-width:0.8;"/>
    </g>
    <g id="text_10">
     <!-- 6.4 -->
     <g transform="translate(273.527299 245.668443)scale(0.1 -0.1)">
      <use xlink:href="#DejaVuSans-54"/>
      <use x="63.623047" xlink:href="#DejaVuSans-46"/>
      <use x="95.410156" xlink:href="#DejaVuSans-52"/>
     </g>
    </g>
   </g>
   <g id="xtick_11">
    <g id="line2d_13">
     <path d="M 284.040952 213.489616 
L 288.28087 214.462488 
" style="fill:none;stroke:#000000;stroke-linecap:square;stroke-width:0.8;"/>
    </g>
    <g id="text_11">
     <!-- 6.6 -->
     <g transform="translate(289.66246 233.09657)scale(0.1 -0.1)">
      <use xlink:href="#DejaVuSans-54"/>
      <use x="63.623047" xlink:href="#DejaVuSans-46"/>
      <use x="95.410156" xlink:href="#DejaVuSans-54"/>
     </g>
    </g>
   </g>
   <g id="xtick_12">
    <g id="line2d_14">
     <path d="M 299.929304 201.410704 
L 304.129527 202.357832 
" style="fill:none;stroke:#000000;stroke-linecap:square;stroke-width:0.8;"/>
    </g>
    <g id="text_12">
     <!-- 6.8 -->
     <defs>
      <path d="M 31.78125 34.625 
Q 24.75 34.625 20.71875 30.859375 
Q 16.703125 27.09375 16.703125 20.515625 
Q 16.703125 13.921875 20.71875 10.15625 
Q 24.75 6.390625 31.78125 6.390625 
Q 38.8125 6.390625 42.859375 10.171875 
Q 46.921875 13.96875 46.921875 20.515625 
Q 46.921875 27.09375 42.890625 30.859375 
Q 38.875 34.625 31.78125 34.625 
z
M 21.921875 38.8125 
Q 15.578125 40.375 12.03125 44.71875 
Q 8.5 49.078125 8.5 55.328125 
Q 8.5 64.0625 14.71875 69.140625 
Q 20.953125 74.21875 31.78125 74.21875 
Q 42.671875 74.21875 48.875 69.140625 
Q 55.078125 64.0625 55.078125 55.328125 
Q 55.078125 49.078125 51.53125 44.71875 
Q 48 40.375 41.703125 38.8125 
Q 48.828125 37.15625 52.796875 32.3125 
Q 56.78125 27.484375 56.78125 20.515625 
Q 56.78125 9.90625 50.3125 4.234375 
Q 43.84375 -1.421875 31.78125 -1.421875 
Q 19.734375 -1.421875 13.25 4.234375 
Q 6.78125 9.90625 6.78125 20.515625 
Q 6.78125 27.484375 10.78125 32.3125 
Q 14.796875 37.15625 21.921875 38.8125 
z
M 18.3125 54.390625 
Q 18.3125 48.734375 21.84375 45.5625 
Q 25.390625 42.390625 31.78125 42.390625 
Q 38.140625 42.390625 41.71875 45.5625 
Q 45.3125 48.734375 45.3125 54.390625 
Q 45.3125 60.0625 41.71875 63.234375 
Q 38.140625 66.40625 31.78125 66.40625 
Q 25.390625 66.40625 21.84375 63.234375 
Q 18.3125 60.0625 18.3125 54.390625 
z
" id="DejaVuSans-56"/>
     </defs>
     <g transform="translate(305.368069 220.859387)scale(0.1 -0.1)">
      <use xlink:href="#DejaVuSans-54"/>
      <use x="63.623047" xlink:href="#DejaVuSans-46"/>
      <use x="95.410156" xlink:href="#DejaVuSans-56"/>
     </g>
    </g>
   </g>
   <g id="xtick_13">
    <g id="line2d_15">
     <path d="M 315.400177 189.649175 
L 319.561313 190.571567 
" style="fill:none;stroke:#000000;stroke-linecap:square;stroke-width:0.8;"/>
    </g>
    <g id="text_13">
     <!-- 7.0 -->
     <defs>
      <path d="M 8.203125 72.90625 
L 55.078125 72.90625 
L 55.078125 68.703125 
L 28.609375 0 
L 18.3125 0 
L 43.21875 64.59375 
L 8.203125 64.59375 
z
" id="DejaVuSans-55"/>
     </defs>
     <g transform="translate(320.661053 208.943704)scale(0.1 -0.1)">
      <use xlink:href="#DejaVuSans-55"/>
      <use x="63.623047" xlink:href="#DejaVuSans-46"/>
      <use x="95.410156" xlink:href="#DejaVuSans-48"/>
     </g>
    </g>
   </g>
  </g>
  <g id="axis3d_3">
   <g id="line2d_16">
    <path d="M 322.32135 185.741954 
L 329.248599 57.310742 
" style="fill:none;stroke:#000000;stroke-linecap:square;stroke-width:0.8;"/>
   </g>
   <g id="Line3DCollection_3">
    <path d="M 323.122671 170.885453 
L 156.554162 134.816567 
L 53.687007 199.345904 
" style="fill:none;stroke:#b0b0b0;stroke-width:0.8;"/>
    <path d="M 323.892469 156.613397 
L 156.36479 120.942433 
L 52.865545 184.772066 
" style="fill:none;stroke:#b0b0b0;stroke-width:0.8;"/>
    <path d="M 324.671262 142.174582 
L 156.173299 106.913027 
L 52.034165 170.022272 
" style="fill:none;stroke:#b0b0b0;stroke-width:0.8;"/>
    <path d="M 325.459207 127.56607 
L 155.979652 92.725729 
L 51.192687 155.093315 
" style="fill:none;stroke:#b0b0b0;stroke-width:0.8;"/>
    <path d="M 326.256468 112.78485 
L 155.783814 78.377858 
L 50.340924 139.981912 
" style="fill:none;stroke:#b0b0b0;stroke-width:0.8;"/>
    <path d="M 327.063211 97.827842 
L 155.585747 63.866672 
L 49.478689 124.684696 
" style="fill:none;stroke:#b0b0b0;stroke-width:0.8;"/>
    <path d="M 327.879605 82.691891 
L 155.385412 49.189368 
L 48.605785 109.198221 
" style="fill:none;stroke:#b0b0b0;stroke-width:0.8;"/>
    <path d="M 328.705825 67.373767 
L 155.18277 34.343076 
L 47.722015 93.518951 
" style="fill:none;stroke:#b0b0b0;stroke-width:0.8;"/>
   </g>
   <g id="xtick_14">
    <g id="line2d_17">
     <path d="M 321.732604 170.584447 
L 325.905711 171.488095 
" style="fill:none;stroke:#000000;stroke-linecap:square;stroke-width:0.8;"/>
    </g>
    <g id="text_14">
     <!-- 0.90 -->
     <defs>
      <path d="M 10.984375 1.515625 
L 10.984375 10.5 
Q 14.703125 8.734375 18.5 7.8125 
Q 22.3125 6.890625 25.984375 6.890625 
Q 35.75 6.890625 40.890625 13.453125 
Q 46.046875 20.015625 46.78125 33.40625 
Q 43.953125 29.203125 39.59375 26.953125 
Q 35.25 24.703125 29.984375 24.703125 
Q 19.046875 24.703125 12.671875 31.3125 
Q 6.296875 37.9375 6.296875 49.421875 
Q 6.296875 60.640625 12.9375 67.421875 
Q 19.578125 74.21875 30.609375 74.21875 
Q 43.265625 74.21875 49.921875 64.515625 
Q 56.59375 54.828125 56.59375 36.375 
Q 56.59375 19.140625 48.40625 8.859375 
Q 40.234375 -1.421875 26.421875 -1.421875 
Q 22.703125 -1.421875 18.890625 -0.6875 
Q 15.09375 0.046875 10.984375 1.515625 
z
M 30.609375 32.421875 
Q 37.25 32.421875 41.125 36.953125 
Q 45.015625 41.5 45.015625 49.421875 
Q 45.015625 57.28125 41.125 61.84375 
Q 37.25 66.40625 30.609375 66.40625 
Q 23.96875 66.40625 20.09375 61.84375 
Q 16.21875 57.28125 16.21875 49.421875 
Q 16.21875 41.5 20.09375 36.953125 
Q 23.96875 32.421875 30.609375 32.421875 
z
" id="DejaVuSans-57"/>
     </defs>
     <g transform="translate(330.431141 176.535941)scale(0.1 -0.1)">
      <use xlink:href="#DejaVuSans-48"/>
      <use x="63.623047" xlink:href="#DejaVuSans-46"/>
      <use x="95.410156" xlink:href="#DejaVuSans-57"/>
      <use x="159.033203" xlink:href="#DejaVuSans-48"/>
     </g>
    </g>
   </g>
   <g id="xtick_15">
    <g id="line2d_18">
     <path d="M 322.494062 156.31564 
L 326.692224 157.209537 
" style="fill:none;stroke:#000000;stroke-linecap:square;stroke-width:0.8;"/>
    </g>
    <g id="text_15">
     <!-- 0.92 -->
     <g transform="translate(331.306062 162.284933)scale(0.1 -0.1)">
      <use xlink:href="#DejaVuSans-48"/>
      <use x="63.623047" xlink:href="#DejaVuSans-46"/>
      <use x="95.410156" xlink:href="#DejaVuSans-57"/>
      <use x="159.033203" xlink:href="#DejaVuSans-50"/>
     </g>
    </g>
   </g>
   <g id="xtick_16">
    <g id="line2d_19">
     <path d="M 323.264413 141.880171 
L 327.487934 142.764027 
" style="fill:none;stroke:#000000;stroke-linecap:square;stroke-width:0.8;"/>
    </g>
    <g id="text_16">
     <!-- 0.94 -->
     <g transform="translate(332.191183 147.867793)scale(0.1 -0.1)">
      <use xlink:href="#DejaVuSans-48"/>
      <use x="63.623047" xlink:href="#DejaVuSans-46"/>
      <use x="95.410156" xlink:href="#DejaVuSans-57"/>
      <use x="159.033203" xlink:href="#DejaVuSans-52"/>
     </g>
    </g>
   </g>
   <g id="xtick_17">
    <g id="line2d_20">
     <path d="M 324.043815 127.275104 
L 328.293002 128.14862 
" style="fill:none;stroke:#000000;stroke-linecap:square;stroke-width:0.8;"/>
    </g>
    <g id="text_17">
     <!-- 0.96 -->
     <g transform="translate(333.086683 133.281598)scale(0.1 -0.1)">
      <use xlink:href="#DejaVuSans-48"/>
      <use x="63.623047" xlink:href="#DejaVuSans-46"/>
      <use x="95.410156" xlink:href="#DejaVuSans-57"/>
      <use x="159.033203" xlink:href="#DejaVuSans-54"/>
     </g>
    </g>
   </g>
   <g id="xtick_18">
    <g id="line2d_21">
     <path d="M 324.832429 112.497432 
L 329.107595 113.360301 
" style="fill:none;stroke:#000000;stroke-linecap:square;stroke-width:0.8;"/>
    </g>
    <g id="text_18">
     <!-- 0.98 -->
     <g transform="translate(333.992745 118.523357)scale(0.1 -0.1)">
      <use xlink:href="#DejaVuSans-48"/>
      <use x="63.623047" xlink:href="#DejaVuSans-46"/>
      <use x="95.410156" xlink:href="#DejaVuSans-57"/>
      <use x="159.033203" xlink:href="#DejaVuSans-56"/>
     </g>
    </g>
   </g>
   <g id="xtick_19">
    <g id="line2d_22">
     <path d="M 325.630417 97.544077 
L 329.931882 98.395983 
" style="fill:none;stroke:#000000;stroke-linecap:square;stroke-width:0.8;"/>
    </g>
    <g id="text_19">
     <!-- 1.00 -->
     <g transform="translate(334.909558 103.590008)scale(0.1 -0.1)">
      <use xlink:href="#DejaVuSans-49"/>
      <use x="63.623047" xlink:href="#DejaVuSans-46"/>
      <use x="95.410156" xlink:href="#DejaVuSans-48"/>
      <use x="159.033203" xlink:href="#DejaVuSans-48"/>
     </g>
    </g>
   </g>
   <g id="xtick_20">
    <g id="line2d_23">
     <path d="M 326.437949 82.411887 
L 330.766038 83.252506 
" style="fill:none;stroke:#000000;stroke-linecap:square;stroke-width:0.8;"/>
    </g>
    <g id="text_20">
     <!-- 1.02 -->
     <g transform="translate(335.837314 88.478416)scale(0.1 -0.1)">
      <use xlink:href="#DejaVuSans-49"/>
      <use x="63.623047" xlink:href="#DejaVuSans-46"/>
      <use x="95.410156" xlink:href="#DejaVuSans-48"/>
      <use x="159.033203" xlink:href="#DejaVuSans-50"/>
     </g>
    </g>
   </g>
   <g id="xtick_21">
    <g id="line2d_24">
     <path d="M 327.255197 67.097635 
L 331.610242 67.926632 
" style="fill:none;stroke:#000000;stroke-linecap:square;stroke-width:0.8;"/>
    </g>
    <g id="text_21">
     <!-- 1.04 -->
     <g transform="translate(336.77621 73.185371)scale(0.1 -0.1)">
      <use xlink:href="#DejaVuSans-49"/>
      <use x="63.623047" xlink:href="#DejaVuSans-46"/>
      <use x="95.410156" xlink:href="#DejaVuSans-48"/>
      <use x="159.033203" xlink:href="#DejaVuSans-52"/>
     </g>
    </g>
   </g>
  </g>
  <g id="axes_1">
   <g id="Poly3DCollection_1">
    <path clip-path="url(#p4c7a692cc0)" d="M 150.186545 75.85357 
L 166.366085 77.731901 
L 175.930431 72.7732 
L 159.810786 69.560257 
z
" style="fill:#ffa600;"/>
    <path clip-path="url(#p4c7a692cc0)" d="M 166.366085 77.731901 
L 182.699369 79.046856 
L 192.186339 76.013302 
L 175.930431 72.7732 
z
" style="fill:#ffa900;"/>
    <path clip-path="url(#p4c7a692cc0)" d="M 140.427744 82.324885 
L 156.655337 82.785605 
L 166.366085 77.731901 
L 150.186545 75.85357 
z
" style="fill:#ffa600;"/>
    <path clip-path="url(#p4c7a692cc0)" d="M 182.699369 79.046856 
L 199.191884 82.18291 
L 208.580244 79.280909 
L 192.186339 76.013302 
z
" style="fill:#ffab00;"/>
    <path clip-path="url(#p4c7a692cc0)" d="M 156.655337 82.785605 
L 173.050824 82.067033 
L 182.699369 79.046856 
L 166.366085 77.731901 
z
" style="fill:#ffae00;"/>
    <path clip-path="url(#p4c7a692cc0)" d="M 199.191884 82.18291 
L 215.815434 86.658116 
L 225.113911 82.576374 
L 208.580244 79.280909 
z
" style="fill:#ffaa00;"/>
    <path clip-path="url(#p4c7a692cc0)" d="M 130.534746 89.070242 
L 146.795371 87.957011 
L 156.655337 82.785605 
L 140.427744 82.324885 
z
" style="fill:#ffa600;"/>
    <path clip-path="url(#p4c7a692cc0)" d="M 215.815434 86.658116 
L 232.524974 93.734915 
L 241.789136 85.900054 
L 225.113911 82.576374 
z
" style="fill:#ffa600;"/>
    <path clip-path="url(#p4c7a692cc0)" d="M 173.050824 82.067033 
L 189.642071 85.110396 
L 199.191884 82.18291 
L 182.699369 79.046856 
z
" style="fill:#ffb300;"/>
    <path clip-path="url(#p4c7a692cc0)" d="M 232.524974 93.734915 
L 249.328788 100.903221 
L 258.607743 89.252312 
L 241.789136 85.900054 
z
" style="fill:#ffa000;"/>
    <path clip-path="url(#p4c7a692cc0)" d="M 146.795371 87.957011 
L 163.235029 85.002401 
L 173.050824 82.067033 
L 156.655337 82.785605 
z
" style="fill:#ffb300;"/>
    <path clip-path="url(#p4c7a692cc0)" d="M 189.642071 85.110396 
L 206.36542 90.724452 
L 215.815434 86.658116 
L 199.191884 82.18291 
z
" style="fill:#ffb100;"/>
    <path clip-path="url(#p4c7a692cc0)" d="M 120.509628 96.194395 
L 136.783699 93.273064 
L 146.795371 87.957011 
L 130.534746 89.070242 
z
" style="fill:#ffa500;"/>
    <path clip-path="url(#p4c7a692cc0)" d="M 206.36542 90.724452 
L 223.136669 101.651783 
L 232.524974 93.734915 
L 215.815434 86.658116 
z
" style="fill:#ffa600;"/>
    <path clip-path="url(#p4c7a692cc0)" d="M 249.328788 100.903221 
L 266.423992 101.589189 
L 275.57159 92.63352 
L 258.607743 89.252312 
z
" style="fill:#ffa000;"/>
    <path clip-path="url(#p4c7a692cc0)" d="M 163.235029 85.002401 
L 179.926241 88.044614 
L 189.642071 85.110396 
L 173.050824 82.067033 
z
" style="fill:#ffbc00;"/>
    <path clip-path="url(#p4c7a692cc0)" d="M 223.136669 101.651783 
L 239.948338 112.899974 
L 249.328788 100.903221 
L 232.524974 93.734915 
z
" style="fill:#ff9500;"/>
    <path clip-path="url(#p4c7a692cc0)" d="M 136.783699 93.273064 
L 153.244764 87.766306 
L 163.235029 85.002401 
L 146.795371 87.957011 
z
" style="fill:#ffb900;"/>
    <path clip-path="url(#p4c7a692cc0)" d="M 110.356511 103.813379 
L 126.618349 98.768782 
L 136.783699 93.273064 
L 120.509628 96.194395 
z
" style="fill:#ffa400;"/>
    <path clip-path="url(#p4c7a692cc0)" d="M 266.423992 101.589189 
L 283.78254 100.212411 
L 292.682568 96.044053 
L 275.57159 92.63352 
z
" style="fill:#ffa500;"/>
    <path clip-path="url(#p4c7a692cc0)" d="M 179.926241 88.044614 
L 196.759392 94.689163 
L 206.36542 90.724452 
L 189.642071 85.110396 
z
" style="fill:#ffb800;"/>
    <path clip-path="url(#p4c7a692cc0)" d="M 239.948338 112.899974 
L 257.158366 110.716133 
L 266.423992 101.589189 
L 249.328788 100.903221 
z
" style="fill:#ff9200;"/>
    <path clip-path="url(#p4c7a692cc0)" d="M 196.759392 94.689163 
L 213.621729 109.620511 
L 223.136669 101.651783 
L 206.36542 90.724452 
z
" style="fill:#ffa600;"/>
    <path clip-path="url(#p4c7a692cc0)" d="M 213.621729 109.620511 
L 230.463512 125.484773 
L 239.948338 112.899974 
L 223.136669 101.651783 
z
" style="fill:#ff8800;"/>
    <path clip-path="url(#p4c7a692cc0)" d="M 153.244764 87.766306 
L 170.039443 90.977508 
L 179.926241 88.044614 
L 163.235029 85.002401 
z
" style="fill:#ffc500;"/>
    <path clip-path="url(#p4c7a692cc0)" d="M 283.78254 100.212411 
L 301.199974 102.494432 
L 309.942597 99.484295 
L 292.682568 96.044053 
z
" style="fill:#ffaa00;"/>
    <path clip-path="url(#p4c7a692cc0)" d="M 230.463512 125.484773 
L 247.771791 120.073778 
L 257.158366 110.716133 
L 239.948338 112.899974 
z
" style="fill:#ff8400;"/>
    <path clip-path="url(#p4c7a692cc0)" d="M 100.081904 112.055103 
L 116.298261 104.494215 
L 126.618349 98.768782 
L 110.356511 103.813379 
z
" style="fill:#ffa100;"/>
    <path clip-path="url(#p4c7a692cc0)" d="M 257.158366 110.716133 
L 274.738074 104.319942 
L 283.78254 100.212411 
L 266.423992 101.589189 
z
" style="fill:#ffa400;"/>
    <path clip-path="url(#p4c7a692cc0)" d="M 126.618349 98.768782 
L 143.070696 90.24659 
L 153.244764 87.766306 
L 136.783699 93.273064 
z
" style="fill:#ffbe00;"/>
    <path clip-path="url(#p4c7a692cc0)" d="M 203.977197 117.591696 
L 220.874708 138.933411 
L 230.463512 125.484773 
L 213.621729 109.620511 
z
" style="fill:#ff7b00;"/>
    <path clip-path="url(#p4c7a692cc0)" d="M 170.039443 90.977508 
L 186.99134 98.456455 
L 196.759392 94.689163 
L 179.926241 88.044614 
z
" style="fill:#ffc000;"/>
    <path clip-path="url(#p4c7a692cc0)" d="M 186.99134 98.456455 
L 203.977197 117.591696 
L 213.621729 109.620511 
L 196.759392 94.689163 
z
" style="fill:#ffa600;"/>
    <path clip-path="url(#p4c7a692cc0)" d="M 220.874708 138.933411 
L 238.262188 129.72049 
L 247.771791 120.073778 
L 230.463512 125.484773 
z
" style="fill:#ff7500;"/>
    <path clip-path="url(#p4c7a692cc0)" d="M 274.738074 104.319942 
L 292.303843 105.511915 
L 301.199974 102.494432 
L 283.78254 100.212411 
z
" style="fill:#ffb100;"/>
    <path clip-path="url(#p4c7a692cc0)" d="M 143.070696 90.24659 
L 159.976638 93.920453 
L 170.039443 90.977508 
L 153.244764 87.766306 
z
" style="fill:#ffce00;"/>
    <path clip-path="url(#p4c7a692cc0)" d="M 89.694913 121.055718 
L 105.824056 110.527277 
L 116.298261 104.494215 
L 100.081904 112.055103 
z
" style="fill:#ff9e00;"/>
    <path clip-path="url(#p4c7a692cc0)" d="M 194.199262 125.4832 
L 211.18627 153.575597 
L 220.874708 138.933411 
L 203.977197 117.591696 
z
" style="fill:#ff6c00;"/>
    <path clip-path="url(#p4c7a692cc0)" d="M 247.771791 120.073778 
L 265.5483 108.223786 
L 274.738074 104.319942 
L 257.158366 110.716133 
z
" style="fill:#ffa200;"/>
    <path clip-path="url(#p4c7a692cc0)" d="M 116.298261 104.494215 
L 132.70043 92.290229 
L 143.070696 90.24659 
L 126.618349 98.768782 
z
" style="fill:#ffc500;"/>
    <path clip-path="url(#p4c7a692cc0)" d="M 211.18627 153.575597 
L 228.628374 139.711201 
L 238.262188 129.72049 
L 220.874708 138.933411 
z
" style="fill:#ff6400;"/>
    <path clip-path="url(#p4c7a692cc0)" d="M 159.976638 93.920453 
L 177.053433 101.916622 
L 186.99134 98.456455 
L 170.039443 90.977508 
z
" style="fill:#ffc800;"/>
    <path clip-path="url(#p4c7a692cc0)" d="M 177.053433 101.916622 
L 194.199262 125.4832 
L 203.977197 117.591696 
L 186.99134 98.456455 
z
" style="fill:#ffa700;"/>
    <path clip-path="url(#p4c7a692cc0)" d="M 184.282517 133.161277 
L 201.407657 169.820485 
L 211.18627 153.575597 
L 194.199262 125.4832 
z
" style="fill:#ff5c00;"/>
    <path clip-path="url(#p4c7a692cc0)" d="M 79.206988 130.947454 
L 95.199575 116.997382 
L 105.824056 110.527277 
L 89.694913 121.055718 
z
" style="fill:#ff9900;"/>
    <path clip-path="url(#p4c7a692cc0)" d="M 265.5483 108.223786 
L 283.250958 108.499439 
L 292.303843 105.511915 
L 274.738074 104.319942 
z
" style="fill:#ffb900;"/>
    <path clip-path="url(#p4c7a692cc0)" d="M 238.262188 129.72049 
L 256.210734 111.754695 
L 265.5483 108.223786 
L 247.771791 120.073778 
z
" style="fill:#ffa100;"/>
    <path clip-path="url(#p4c7a692cc0)" d="M 201.407657 169.820485 
L 218.8701 150.092761 
L 228.628374 139.711201 
L 211.18627 153.575597 
z
" style="fill:#ff5000;"/>
    <path clip-path="url(#p4c7a692cc0)" d="M 132.70043 92.290229 
L 149.733283 96.91722 
L 159.976638 93.920453 
L 143.070696 90.24659 
z
" style="fill:#ffd800;"/>
    <path clip-path="url(#p4c7a692cc0)" d="M 105.824056 110.527277 
L 122.116884 93.679233 
L 132.70043 92.290229 
L 116.298261 104.494215 
z
" style="fill:#ffcb00;"/>
    <path clip-path="url(#p4c7a692cc0)" d="M 174.218654 140.413137 
L 191.555311 188.189954 
L 201.407657 169.820485 
L 184.282517 133.161277 
z
" style="fill:#ff4a00;"/>
    <path clip-path="url(#p4c7a692cc0)" d="M 166.935605 104.941125 
L 184.282517 133.161277 
L 194.199262 125.4832 
L 177.053433 101.916622 
z
" style="fill:#ffa900;"/>
    <path clip-path="url(#p4c7a692cc0)" d="M 149.733283 96.91722 
L 166.935605 104.941125 
L 177.053433 101.916622 
L 159.976638 93.920453 
z
" style="fill:#ffd100;"/>
    <path clip-path="url(#p4c7a692cc0)" d="M 191.555311 188.189954 
L 208.98799 160.895263 
L 218.8701 150.092761 
L 201.407657 169.820485 
z
" style="fill:#ff3a00;"/>
    <path clip-path="url(#p4c7a692cc0)" d="M 68.630565 141.829926 
L 84.434914 124.128732 
L 95.199575 116.997382 
L 79.206988 130.947454 
z
" style="fill:#ff9200;"/>
    <path clip-path="url(#p4c7a692cc0)" d="M 228.628374 139.711201 
L 246.720996 114.701803 
L 256.210734 111.754695 
L 238.262188 129.72049 
z
" style="fill:#ffa000;"/>
    <path clip-path="url(#p4c7a692cc0)" d="M 163.994272 146.906149 
L 181.655492 209.362853 
L 191.555311 188.189954 
L 174.218654 140.413137 
z
" style="fill:#ff3600;"/>
    <path clip-path="url(#p4c7a692cc0)" d="M 256.210734 111.754695 
L 274.036743 111.437845 
L 283.250958 108.499439 
L 265.5483 108.223786 
z
" style="fill:#ffc200;"/>
    <path clip-path="url(#p4c7a692cc0)" d="M 181.655492 209.362853 
L 198.983304 172.116282 
L 208.98799 160.895263 
L 191.555311 188.189954 
z
" style="fill:#ff1f00;"/>
    <path clip-path="url(#p4c7a692cc0)" d="M 122.116884 93.679233 
L 139.306406 100.063847 
L 149.733283 96.91722 
L 132.70043 92.290229 
z
" style="fill:#ffe300;"/>
    <path clip-path="url(#p4c7a692cc0)" d="M 95.199575 116.997382 
L 111.295536 94.091628 
L 122.116884 93.679233 
L 105.824056 110.527277 
z
" style="fill:#ffd300;"/>
    <path clip-path="url(#p4c7a692cc0)" d="M 156.624986 107.376818 
L 174.218654 140.413137 
L 184.282517 133.161277 
L 166.935605 104.941125 
z
" style="fill:#ffac00;"/>
    <path clip-path="url(#p4c7a692cc0)" d="M 153.587213 152.1261 
L 171.748519 234.234173 
L 181.655492 209.362853 
L 163.994272 146.906149 
z
" style="fill:#ff1e00;"/>
    <path clip-path="url(#p4c7a692cc0)" d="M 171.748519 234.234173 
L 188.857274 183.692667 
L 198.983304 172.116282 
L 181.655492 209.362853 
z
" style="fill:#ff0000;"/>
    <path clip-path="url(#p4c7a692cc0)" d="M 139.306406 100.063847 
L 156.624986 107.376818 
L 166.935605 104.941125 
L 149.733283 96.91722 
z
" style="fill:#ffda00;"/>
    <path clip-path="url(#p4c7a692cc0)" d="M 218.8701 150.092761 
L 237.072236 116.792988 
L 246.720996 114.701803 
L 228.628374 139.711201 
z
" style="fill:#ffa000;"/>
    <path clip-path="url(#p4c7a692cc0)" d="M 246.720996 114.701803 
L 264.655162 114.340499 
L 274.036743 111.437845 
L 256.210734 111.754695 
z
" style="fill:#ffcb00;"/>
    <path clip-path="url(#p4c7a692cc0)" d="M 111.295536 94.091628 
L 128.696496 103.539626 
L 139.306406 100.063847 
L 122.116884 93.679233 
z
" style="fill:#ffef00;"/>
    <path clip-path="url(#p4c7a692cc0)" d="M 84.434914 124.128732 
L 100.199623 93.03665 
L 111.295536 94.091628 
L 95.199575 116.997382 
z
" style="fill:#ffdb00;"/>
    <path clip-path="url(#p4c7a692cc0)" d="M 146.105129 109.038919 
L 163.994272 146.906149 
L 174.218654 140.413137 
L 156.624986 107.376818 
z
" style="fill:#ffb200;"/>
    <path clip-path="url(#p4c7a692cc0)" d="M 128.696496 103.539626 
L 146.105129 109.038919 
L 156.624986 107.376818 
L 139.306406 100.063847 
z
" style="fill:#ffe500;"/>
    <path clip-path="url(#p4c7a692cc0)" d="M 208.98799 160.895263 
L 227.254122 117.669055 
L 237.072236 116.792988 
L 218.8701 150.092761 
z
" style="fill:#ffa100;"/>
    <path clip-path="url(#p4c7a692cc0)" d="M 237.072236 116.792988 
L 255.098789 117.273455 
L 264.655162 114.340499 
L 246.720996 114.701803 
z
" style="fill:#ffd600;"/>
    <path clip-path="url(#p4c7a692cc0)" d="M 100.199623 93.03665 
L 117.910786 107.655959 
L 128.696496 103.539626 
L 111.295536 94.091628 
z
" style="fill:#fffc00;"/>
    <path clip-path="url(#p4c7a692cc0)" d="M 135.354983 109.701911 
L 153.587213 152.1261 
L 163.994272 146.906149 
L 146.105129 109.038919 
z
" style="fill:#ffbb00;"/>
    <path clip-path="url(#p4c7a692cc0)" d="M 117.910786 107.655959 
L 135.354983 109.701911 
L 146.105129 109.038919 
L 128.696496 103.539626 
z
" style="fill:#fff000;"/>
    <path clip-path="url(#p4c7a692cc0)" d="M 198.983304 172.116282 
L 217.251211 116.849782 
L 227.254122 117.669055 
L 208.98799 160.895263 
z
" style="fill:#ffa400;"/>
    <path clip-path="url(#p4c7a692cc0)" d="M 227.254122 117.669055 
L 245.359202 120.383858 
L 255.098789 117.273455 
L 237.072236 116.792988 
z
" style="fill:#ffe200;"/>
    <path clip-path="url(#p4c7a692cc0)" d="M 188.857274 183.692667 
L 207.040424 113.690052 
L 217.251211 116.849782 
L 198.983304 172.116282 
z
" style="fill:#ffa900;"/>
    <path clip-path="url(#p4c7a692cc0)" d="M 217.251211 116.849782 
L 235.427914 123.939146 
L 245.359202 120.383858 
L 227.254122 117.669055 
z
" style="fill:#fff000;"/>
    <path clip-path="url(#p4c7a692cc0)" d="M 207.040424 113.690052 
L 225.298188 128.378944 
L 235.427914 123.939146 
L 217.251211 116.849782 
z
" style="fill:#ffff00;"/>
   </g>
   <g id="text_22">
    <!-- Con nr=10- surf del potencial de la Reg.10-Er4. -->
    <defs>
     <path d="M 64.40625 67.28125 
L 64.40625 56.890625 
Q 59.421875 61.53125 53.78125 63.8125 
Q 48.140625 66.109375 41.796875 66.109375 
Q 29.296875 66.109375 22.65625 58.46875 
Q 16.015625 50.828125 16.015625 36.375 
Q 16.015625 21.96875 22.65625 14.328125 
Q 29.296875 6.6875 41.796875 6.6875 
Q 48.140625 6.6875 53.78125 8.984375 
Q 59.421875 11.28125 64.40625 15.921875 
L 64.40625 5.609375 
Q 59.234375 2.09375 53.4375 0.328125 
Q 47.65625 -1.421875 41.21875 -1.421875 
Q 24.65625 -1.421875 15.125 8.703125 
Q 5.609375 18.84375 5.609375 36.375 
Q 5.609375 53.953125 15.125 64.078125 
Q 24.65625 74.21875 41.21875 74.21875 
Q 47.75 74.21875 53.53125 72.484375 
Q 59.328125 70.75 64.40625 67.28125 
z
" id="DejaVuSans-67"/>
     <path d="M 30.609375 48.390625 
Q 23.390625 48.390625 19.1875 42.75 
Q 14.984375 37.109375 14.984375 27.296875 
Q 14.984375 17.484375 19.15625 11.84375 
Q 23.34375 6.203125 30.609375 6.203125 
Q 37.796875 6.203125 41.984375 11.859375 
Q 46.1875 17.53125 46.1875 27.296875 
Q 46.1875 37.015625 41.984375 42.703125 
Q 37.796875 48.390625 30.609375 48.390625 
z
M 30.609375 56 
Q 42.328125 56 49.015625 48.375 
Q 55.71875 40.765625 55.71875 27.296875 
Q 55.71875 13.875 49.015625 6.21875 
Q 42.328125 -1.421875 30.609375 -1.421875 
Q 18.84375 -1.421875 12.171875 6.21875 
Q 5.515625 13.875 5.515625 27.296875 
Q 5.515625 40.765625 12.171875 48.375 
Q 18.84375 56 30.609375 56 
z
" id="DejaVuSans-111"/>
     <path d="M 54.890625 33.015625 
L 54.890625 0 
L 45.90625 0 
L 45.90625 32.71875 
Q 45.90625 40.484375 42.875 44.328125 
Q 39.84375 48.1875 33.796875 48.1875 
Q 26.515625 48.1875 22.3125 43.546875 
Q 18.109375 38.921875 18.109375 30.90625 
L 18.109375 0 
L 9.078125 0 
L 9.078125 54.6875 
L 18.109375 54.6875 
L 18.109375 46.1875 
Q 21.34375 51.125 25.703125 53.5625 
Q 30.078125 56 35.796875 56 
Q 45.21875 56 50.046875 50.171875 
Q 54.890625 44.34375 54.890625 33.015625 
z
" id="DejaVuSans-110"/>
     <path id="DejaVuSans-32"/>
     <path d="M 41.109375 46.296875 
Q 39.59375 47.171875 37.8125 47.578125 
Q 36.03125 48 33.890625 48 
Q 26.265625 48 22.1875 43.046875 
Q 18.109375 38.09375 18.109375 28.8125 
L 18.109375 0 
L 9.078125 0 
L 9.078125 54.6875 
L 18.109375 54.6875 
L 18.109375 46.1875 
Q 20.953125 51.171875 25.484375 53.578125 
Q 30.03125 56 36.53125 56 
Q 37.453125 56 38.578125 55.875 
Q 39.703125 55.765625 41.0625 55.515625 
z
" id="DejaVuSans-114"/>
     <path d="M 10.59375 45.40625 
L 73.1875 45.40625 
L 73.1875 37.203125 
L 10.59375 37.203125 
z
M 10.59375 25.484375 
L 73.1875 25.484375 
L 73.1875 17.1875 
L 10.59375 17.1875 
z
" id="DejaVuSans-61"/>
     <path d="M 4.890625 31.390625 
L 31.203125 31.390625 
L 31.203125 23.390625 
L 4.890625 23.390625 
z
" id="DejaVuSans-45"/>
     <path d="M 44.28125 53.078125 
L 44.28125 44.578125 
Q 40.484375 46.53125 36.375 47.5 
Q 32.28125 48.484375 27.875 48.484375 
Q 21.1875 48.484375 17.84375 46.4375 
Q 14.5 44.390625 14.5 40.28125 
Q 14.5 37.15625 16.890625 35.375 
Q 19.28125 33.59375 26.515625 31.984375 
L 29.59375 31.296875 
Q 39.15625 29.25 43.1875 25.515625 
Q 47.21875 21.78125 47.21875 15.09375 
Q 47.21875 7.46875 41.1875 3.015625 
Q 35.15625 -1.421875 24.609375 -1.421875 
Q 20.21875 -1.421875 15.453125 -0.5625 
Q 10.6875 0.296875 5.421875 2 
L 5.421875 11.28125 
Q 10.40625 8.6875 15.234375 7.390625 
Q 20.0625 6.109375 24.8125 6.109375 
Q 31.15625 6.109375 34.5625 8.28125 
Q 37.984375 10.453125 37.984375 14.40625 
Q 37.984375 18.0625 35.515625 20.015625 
Q 33.0625 21.96875 24.703125 23.78125 
L 21.578125 24.515625 
Q 13.234375 26.265625 9.515625 29.90625 
Q 5.8125 33.546875 5.8125 39.890625 
Q 5.8125 47.609375 11.28125 51.796875 
Q 16.75 56 26.8125 56 
Q 31.78125 56 36.171875 55.265625 
Q 40.578125 54.546875 44.28125 53.078125 
z
" id="DejaVuSans-115"/>
     <path d="M 8.5 21.578125 
L 8.5 54.6875 
L 17.484375 54.6875 
L 17.484375 21.921875 
Q 17.484375 14.15625 20.5 10.265625 
Q 23.53125 6.390625 29.59375 6.390625 
Q 36.859375 6.390625 41.078125 11.03125 
Q 45.3125 15.671875 45.3125 23.6875 
L 45.3125 54.6875 
L 54.296875 54.6875 
L 54.296875 0 
L 45.3125 0 
L 45.3125 8.40625 
Q 42.046875 3.421875 37.71875 1 
Q 33.40625 -1.421875 27.6875 -1.421875 
Q 18.265625 -1.421875 13.375 4.4375 
Q 8.5 10.296875 8.5 21.578125 
z
M 31.109375 56 
z
" id="DejaVuSans-117"/>
     <path d="M 37.109375 75.984375 
L 37.109375 68.5 
L 28.515625 68.5 
Q 23.6875 68.5 21.796875 66.546875 
Q 19.921875 64.59375 19.921875 59.515625 
L 19.921875 54.6875 
L 34.71875 54.6875 
L 34.71875 47.703125 
L 19.921875 47.703125 
L 19.921875 0 
L 10.890625 0 
L 10.890625 47.703125 
L 2.296875 47.703125 
L 2.296875 54.6875 
L 10.890625 54.6875 
L 10.890625 58.5 
Q 10.890625 67.625 15.140625 71.796875 
Q 19.390625 75.984375 28.609375 75.984375 
z
" id="DejaVuSans-102"/>
     <path d="M 45.40625 46.390625 
L 45.40625 75.984375 
L 54.390625 75.984375 
L 54.390625 0 
L 45.40625 0 
L 45.40625 8.203125 
Q 42.578125 3.328125 38.25 0.953125 
Q 33.9375 -1.421875 27.875 -1.421875 
Q 17.96875 -1.421875 11.734375 6.484375 
Q 5.515625 14.40625 5.515625 27.296875 
Q 5.515625 40.1875 11.734375 48.09375 
Q 17.96875 56 27.875 56 
Q 33.9375 56 38.25 53.625 
Q 42.578125 51.265625 45.40625 46.390625 
z
M 14.796875 27.296875 
Q 14.796875 17.390625 18.875 11.75 
Q 22.953125 6.109375 30.078125 6.109375 
Q 37.203125 6.109375 41.296875 11.75 
Q 45.40625 17.390625 45.40625 27.296875 
Q 45.40625 37.203125 41.296875 42.84375 
Q 37.203125 48.484375 30.078125 48.484375 
Q 22.953125 48.484375 18.875 42.84375 
Q 14.796875 37.203125 14.796875 27.296875 
z
" id="DejaVuSans-100"/>
     <path d="M 56.203125 29.59375 
L 56.203125 25.203125 
L 14.890625 25.203125 
Q 15.484375 15.921875 20.484375 11.0625 
Q 25.484375 6.203125 34.421875 6.203125 
Q 39.59375 6.203125 44.453125 7.46875 
Q 49.3125 8.734375 54.109375 11.28125 
L 54.109375 2.78125 
Q 49.265625 0.734375 44.1875 -0.34375 
Q 39.109375 -1.421875 33.890625 -1.421875 
Q 20.796875 -1.421875 13.15625 6.1875 
Q 5.515625 13.8125 5.515625 26.8125 
Q 5.515625 40.234375 12.765625 48.109375 
Q 20.015625 56 32.328125 56 
Q 43.359375 56 49.78125 48.890625 
Q 56.203125 41.796875 56.203125 29.59375 
z
M 47.21875 32.234375 
Q 47.125 39.59375 43.09375 43.984375 
Q 39.0625 48.390625 32.421875 48.390625 
Q 24.90625 48.390625 20.390625 44.140625 
Q 15.875 39.890625 15.1875 32.171875 
z
" id="DejaVuSans-101"/>
     <path d="M 9.421875 75.984375 
L 18.40625 75.984375 
L 18.40625 0 
L 9.421875 0 
z
" id="DejaVuSans-108"/>
     <path d="M 18.109375 8.203125 
L 18.109375 -20.796875 
L 9.078125 -20.796875 
L 9.078125 54.6875 
L 18.109375 54.6875 
L 18.109375 46.390625 
Q 20.953125 51.265625 25.265625 53.625 
Q 29.59375 56 35.59375 56 
Q 45.5625 56 51.78125 48.09375 
Q 58.015625 40.1875 58.015625 27.296875 
Q 58.015625 14.40625 51.78125 6.484375 
Q 45.5625 -1.421875 35.59375 -1.421875 
Q 29.59375 -1.421875 25.265625 0.953125 
Q 20.953125 3.328125 18.109375 8.203125 
z
M 48.6875 27.296875 
Q 48.6875 37.203125 44.609375 42.84375 
Q 40.53125 48.484375 33.40625 48.484375 
Q 26.265625 48.484375 22.1875 42.84375 
Q 18.109375 37.203125 18.109375 27.296875 
Q 18.109375 17.390625 22.1875 11.75 
Q 26.265625 6.109375 33.40625 6.109375 
Q 40.53125 6.109375 44.609375 11.75 
Q 48.6875 17.390625 48.6875 27.296875 
z
" id="DejaVuSans-112"/>
     <path d="M 18.3125 70.21875 
L 18.3125 54.6875 
L 36.8125 54.6875 
L 36.8125 47.703125 
L 18.3125 47.703125 
L 18.3125 18.015625 
Q 18.3125 11.328125 20.140625 9.421875 
Q 21.96875 7.515625 27.59375 7.515625 
L 36.8125 7.515625 
L 36.8125 0 
L 27.59375 0 
Q 17.1875 0 13.234375 3.875 
Q 9.28125 7.765625 9.28125 18.015625 
L 9.28125 47.703125 
L 2.6875 47.703125 
L 2.6875 54.6875 
L 9.28125 54.6875 
L 9.28125 70.21875 
z
" id="DejaVuSans-116"/>
     <path d="M 48.78125 52.59375 
L 48.78125 44.1875 
Q 44.96875 46.296875 41.140625 47.34375 
Q 37.3125 48.390625 33.40625 48.390625 
Q 24.65625 48.390625 19.8125 42.84375 
Q 14.984375 37.3125 14.984375 27.296875 
Q 14.984375 17.28125 19.8125 11.734375 
Q 24.65625 6.203125 33.40625 6.203125 
Q 37.3125 6.203125 41.140625 7.25 
Q 44.96875 8.296875 48.78125 10.40625 
L 48.78125 2.09375 
Q 45.015625 0.34375 40.984375 -0.53125 
Q 36.96875 -1.421875 32.421875 -1.421875 
Q 20.0625 -1.421875 12.78125 6.34375 
Q 5.515625 14.109375 5.515625 27.296875 
Q 5.515625 40.671875 12.859375 48.328125 
Q 20.21875 56 33.015625 56 
Q 37.15625 56 41.109375 55.140625 
Q 45.0625 54.296875 48.78125 52.59375 
z
" id="DejaVuSans-99"/>
     <path d="M 9.421875 54.6875 
L 18.40625 54.6875 
L 18.40625 0 
L 9.421875 0 
z
M 9.421875 75.984375 
L 18.40625 75.984375 
L 18.40625 64.59375 
L 9.421875 64.59375 
z
" id="DejaVuSans-105"/>
     <path d="M 34.28125 27.484375 
Q 23.390625 27.484375 19.1875 25 
Q 14.984375 22.515625 14.984375 16.5 
Q 14.984375 11.71875 18.140625 8.90625 
Q 21.296875 6.109375 26.703125 6.109375 
Q 34.1875 6.109375 38.703125 11.40625 
Q 43.21875 16.703125 43.21875 25.484375 
L 43.21875 27.484375 
z
M 52.203125 31.203125 
L 52.203125 0 
L 43.21875 0 
L 43.21875 8.296875 
Q 40.140625 3.328125 35.546875 0.953125 
Q 30.953125 -1.421875 24.3125 -1.421875 
Q 15.921875 -1.421875 10.953125 3.296875 
Q 6 8.015625 6 15.921875 
Q 6 25.140625 12.171875 29.828125 
Q 18.359375 34.515625 30.609375 34.515625 
L 43.21875 34.515625 
L 43.21875 35.40625 
Q 43.21875 41.609375 39.140625 45 
Q 35.0625 48.390625 27.6875 48.390625 
Q 23 48.390625 18.546875 47.265625 
Q 14.109375 46.140625 10.015625 43.890625 
L 10.015625 52.203125 
Q 14.9375 54.109375 19.578125 55.046875 
Q 24.21875 56 28.609375 56 
Q 40.484375 56 46.34375 49.84375 
Q 52.203125 43.703125 52.203125 31.203125 
z
" id="DejaVuSans-97"/>
     <path d="M 44.390625 34.1875 
Q 47.5625 33.109375 50.5625 29.59375 
Q 53.5625 26.078125 56.59375 19.921875 
L 66.609375 0 
L 56 0 
L 46.6875 18.703125 
Q 43.0625 26.03125 39.671875 28.421875 
Q 36.28125 30.8125 30.421875 30.8125 
L 19.671875 30.8125 
L 19.671875 0 
L 9.8125 0 
L 9.8125 72.90625 
L 32.078125 72.90625 
Q 44.578125 72.90625 50.734375 67.671875 
Q 56.890625 62.453125 56.890625 51.90625 
Q 56.890625 45.015625 53.6875 40.46875 
Q 50.484375 35.9375 44.390625 34.1875 
z
M 19.671875 64.796875 
L 19.671875 38.921875 
L 32.078125 38.921875 
Q 39.203125 38.921875 42.84375 42.21875 
Q 46.484375 45.515625 46.484375 51.90625 
Q 46.484375 58.296875 42.84375 61.546875 
Q 39.203125 64.796875 32.078125 64.796875 
z
" id="DejaVuSans-82"/>
     <path d="M 45.40625 27.984375 
Q 45.40625 37.75 41.375 43.109375 
Q 37.359375 48.484375 30.078125 48.484375 
Q 22.859375 48.484375 18.828125 43.109375 
Q 14.796875 37.75 14.796875 27.984375 
Q 14.796875 18.265625 18.828125 12.890625 
Q 22.859375 7.515625 30.078125 7.515625 
Q 37.359375 7.515625 41.375 12.890625 
Q 45.40625 18.265625 45.40625 27.984375 
z
M 54.390625 6.78125 
Q 54.390625 -7.171875 48.1875 -13.984375 
Q 42 -20.796875 29.203125 -20.796875 
Q 24.46875 -20.796875 20.265625 -20.09375 
Q 16.0625 -19.390625 12.109375 -17.921875 
L 12.109375 -9.1875 
Q 16.0625 -11.328125 19.921875 -12.34375 
Q 23.78125 -13.375 27.78125 -13.375 
Q 36.625 -13.375 41.015625 -8.765625 
Q 45.40625 -4.15625 45.40625 5.171875 
L 45.40625 9.625 
Q 42.625 4.78125 38.28125 2.390625 
Q 33.9375 0 27.875 0 
Q 17.828125 0 11.671875 7.65625 
Q 5.515625 15.328125 5.515625 27.984375 
Q 5.515625 40.671875 11.671875 48.328125 
Q 17.828125 56 27.875 56 
Q 33.9375 56 38.28125 53.609375 
Q 42.625 51.21875 45.40625 46.390625 
L 45.40625 54.6875 
L 54.390625 54.6875 
z
" id="DejaVuSans-103"/>
     <path d="M 9.8125 72.90625 
L 55.90625 72.90625 
L 55.90625 64.59375 
L 19.671875 64.59375 
L 19.671875 43.015625 
L 54.390625 43.015625 
L 54.390625 34.71875 
L 19.671875 34.71875 
L 19.671875 8.296875 
L 56.78125 8.296875 
L 56.78125 0 
L 9.8125 0 
z
" id="DejaVuSans-69"/>
    </defs>
    <g transform="translate(43.140938 22.48896)scale(0.12 -0.12)">
     <use xlink:href="#DejaVuSans-67"/>
     <use x="69.824219" xlink:href="#DejaVuSans-111"/>
     <use x="131.005859" xlink:href="#DejaVuSans-110"/>
     <use x="194.384766" xlink:href="#DejaVuSans-32"/>
     <use x="226.171875" xlink:href="#DejaVuSans-110"/>
     <use x="289.550781" xlink:href="#DejaVuSans-114"/>
     <use x="330.664062" xlink:href="#DejaVuSans-61"/>
     <use x="414.453125" xlink:href="#DejaVuSans-49"/>
     <use x="478.076172" xlink:href="#DejaVuSans-48"/>
     <use x="541.699219" xlink:href="#DejaVuSans-45"/>
     <use x="577.783203" xlink:href="#DejaVuSans-32"/>
     <use x="609.570312" xlink:href="#DejaVuSans-115"/>
     <use x="661.669922" xlink:href="#DejaVuSans-117"/>
     <use x="725.048828" xlink:href="#DejaVuSans-114"/>
     <use x="766.162109" xlink:href="#DejaVuSans-102"/>
     <use x="801.367188" xlink:href="#DejaVuSans-32"/>
     <use x="833.154297" xlink:href="#DejaVuSans-100"/>
     <use x="896.630859" xlink:href="#DejaVuSans-101"/>
     <use x="958.154297" xlink:href="#DejaVuSans-108"/>
     <use x="985.9375" xlink:href="#DejaVuSans-32"/>
     <use x="1017.724609" xlink:href="#DejaVuSans-112"/>
     <use x="1081.201172" xlink:href="#DejaVuSans-111"/>
     <use x="1142.382812" xlink:href="#DejaVuSans-116"/>
     <use x="1181.591797" xlink:href="#DejaVuSans-101"/>
     <use x="1243.115234" xlink:href="#DejaVuSans-110"/>
     <use x="1306.494141" xlink:href="#DejaVuSans-99"/>
     <use x="1361.474609" xlink:href="#DejaVuSans-105"/>
     <use x="1389.257812" xlink:href="#DejaVuSans-97"/>
     <use x="1450.537109" xlink:href="#DejaVuSans-108"/>
     <use x="1478.320312" xlink:href="#DejaVuSans-32"/>
     <use x="1510.107422" xlink:href="#DejaVuSans-100"/>
     <use x="1573.583984" xlink:href="#DejaVuSans-101"/>
     <use x="1635.107422" xlink:href="#DejaVuSans-32"/>
     <use x="1666.894531" xlink:href="#DejaVuSans-108"/>
     <use x="1694.677734" xlink:href="#DejaVuSans-97"/>
     <use x="1755.957031" xlink:href="#DejaVuSans-32"/>
     <use x="1787.744141" xlink:href="#DejaVuSans-82"/>
     <use x="1857.164062" xlink:href="#DejaVuSans-101"/>
     <use x="1918.6875" xlink:href="#DejaVuSans-103"/>
     <use x="1982.164062" xlink:href="#DejaVuSans-46"/>
     <use x="2013.951172" xlink:href="#DejaVuSans-49"/>
     <use x="2077.574219" xlink:href="#DejaVuSans-48"/>
     <use x="2141.197266" xlink:href="#DejaVuSans-45"/>
     <use x="2177.28125" xlink:href="#DejaVuSans-69"/>
     <use x="2240.464844" xlink:href="#DejaVuSans-114"/>
     <use x="2281.578125" xlink:href="#DejaVuSans-52"/>
     <use x="2345.201172" xlink:href="#DejaVuSans-46"/>
    </g>
   </g>
  </g>
 </g>
 <defs>
  <clipPath id="p4c7a692cc0">
   <rect height="266.112" width="357.12" x="7.2" y="7.2"/>
  </clipPath>
 </defs>
</svg>
