<?xml version="1.0" encoding="utf-8" standalone="no"?>
<!DOCTYPE svg PUBLIC "-//W3C//DTD SVG 1.1//EN"
  "http://www.w3.org/Graphics/SVG/1.1/DTD/svg11.dtd">
<!-- Created with matplotlib (https://matplotlib.org/) -->
<svg height="345.6pt" version="1.1" viewBox="0 0 460.8 345.6" width="460.8pt" xmlns="http://www.w3.org/2000/svg" xmlns:xlink="http://www.w3.org/1999/xlink">
 <defs>
  <style type="text/css">
*{stroke-linecap:butt;stroke-linejoin:round;}
  </style>
 </defs>
 <g id="figure_1">
  <g id="patch_1">
   <path d="M 0 345.6 
L 460.8 345.6 
L 460.8 0 
L 0 0 
z
" style="fill:#ffffff;"/>
  </g>
  <g id="patch_2">
   <path d="M 57.6 307.584 
L 414.72 307.584 
L 414.72 41.472 
L 57.6 41.472 
z
" style="fill:#ffffff;"/>
  </g>
  <g id="pane3d_1">
   <g id="patch_3">
    <path d="M 104.941774 248.782626 
L 207.151387 183.537994 
L 205.449705 58.866209 
L 97.541237 117.48717 
" style="fill:#f2f2f2;opacity:0.5;stroke:#f2f2f2;stroke-linejoin:miter;"/>
   </g>
  </g>
  <g id="pane3d_2">
   <g id="patch_4">
    <path d="M 207.151387 183.537994 
L 372.72135 220.013954 
L 379.648599 91.582742 
L 205.449705 58.866209 
" style="fill:#e6e6e6;opacity:0.5;stroke:#e6e6e6;stroke-linejoin:miter;"/>
   </g>
  </g>
  <g id="pane3d_3">
   <g id="patch_5">
    <path d="M 104.941774 248.782626 
L 279.143747 291.264825 
L 372.72135 220.013954 
L 207.151387 183.537994 
" style="fill:#ececec;opacity:0.5;stroke:#ececec;stroke-linejoin:miter;"/>
   </g>
  </g>
  <g id="axis3d_1">
   <g id="line2d_1">
    <path d="M 104.941774 248.782626 
L 279.143747 291.264825 
" style="fill:none;stroke:#000000;stroke-linecap:square;stroke-width:0.8;"/>
   </g>
   <g id="Line3DCollection_1">
    <path d="M 115.562252 251.372616 
L 217.277438 185.768818 
L 216.081723 60.863023 
" style="fill:none;stroke:#b0b0b0;stroke-width:0.8;"/>
    <path d="M 145.006041 258.552999 
L 245.328825 191.94869 
L 245.549536 66.397413 
" style="fill:none;stroke:#b0b0b0;stroke-width:0.8;"/>
    <path d="M 174.9177 265.84748 
L 273.793381 198.219586 
L 275.47361 72.017495 
" style="fill:none;stroke:#b0b0b0;stroke-width:0.8;"/>
    <path d="M 205.30847 273.258801 
L 302.680303 204.583532 
L 305.864624 77.725273 
" style="fill:none;stroke:#b0b0b0;stroke-width:0.8;"/>
    <path d="M 236.189955 280.789791 
L 331.999062 211.042613 
L 336.733593 83.522816 
" style="fill:none;stroke:#b0b0b0;stroke-width:0.8;"/>
    <path d="M 267.574137 288.443373 
L 361.759413 217.59898 
L 368.091882 89.412259 
" style="fill:none;stroke:#b0b0b0;stroke-width:0.8;"/>
   </g>
   <g id="xtick_1">
    <g id="line2d_2">
     <path d="M 116.438581 250.807405 
L 113.806326 252.505145 
" style="fill:none;stroke:#000000;stroke-linecap:square;stroke-width:0.8;"/>
    </g>
    <g id="text_1">
     <!-- 0.0 -->
     <defs>
      <path d="M 31.78125 66.40625 
Q 24.171875 66.40625 20.328125 58.90625 
Q 16.5 51.421875 16.5 36.375 
Q 16.5 21.390625 20.328125 13.890625 
Q 24.171875 6.390625 31.78125 6.390625 
Q 39.453125 6.390625 43.28125 13.890625 
Q 47.125 21.390625 47.125 36.375 
Q 47.125 51.421875 43.28125 58.90625 
Q 39.453125 66.40625 31.78125 66.40625 
z
M 31.78125 74.21875 
Q 44.046875 74.21875 50.515625 64.515625 
Q 56.984375 54.828125 56.984375 36.375 
Q 56.984375 17.96875 50.515625 8.265625 
Q 44.046875 -1.421875 31.78125 -1.421875 
Q 19.53125 -1.421875 13.0625 8.265625 
Q 6.59375 17.96875 6.59375 36.375 
Q 6.59375 54.828125 13.0625 64.515625 
Q 19.53125 74.21875 31.78125 74.21875 
z
" id="DejaVuSans-48"/>
      <path d="M 10.6875 12.40625 
L 21 12.40625 
L 21 0 
L 10.6875 0 
z
" id="DejaVuSans-46"/>
     </defs>
     <g transform="translate(100.290567 272.84452)scale(0.1 -0.1)">
      <use xlink:href="#DejaVuSans-48"/>
      <use x="63.623047" xlink:href="#DejaVuSans-46"/>
      <use x="95.410156" xlink:href="#DejaVuSans-48"/>
     </g>
    </g>
   </g>
   <g id="xtick_2">
    <g id="line2d_3">
     <path d="M 145.87086 257.978845 
L 143.273152 259.703464 
" style="fill:none;stroke:#000000;stroke-linecap:square;stroke-width:0.8;"/>
    </g>
    <g id="text_2">
     <!-- 0.2 -->
     <defs>
      <path d="M 19.1875 8.296875 
L 53.609375 8.296875 
L 53.609375 0 
L 7.328125 0 
L 7.328125 8.296875 
Q 12.9375 14.109375 22.625 23.890625 
Q 32.328125 33.6875 34.8125 36.53125 
Q 39.546875 41.84375 41.421875 45.53125 
Q 43.3125 49.21875 43.3125 52.78125 
Q 43.3125 58.59375 39.234375 62.25 
Q 35.15625 65.921875 28.609375 65.921875 
Q 23.96875 65.921875 18.8125 64.3125 
Q 13.671875 62.703125 7.8125 59.421875 
L 7.8125 69.390625 
Q 13.765625 71.78125 18.9375 73 
Q 24.125 74.21875 28.421875 74.21875 
Q 39.75 74.21875 46.484375 68.546875 
Q 53.21875 62.890625 53.21875 53.421875 
Q 53.21875 48.921875 51.53125 44.890625 
Q 49.859375 40.875 45.40625 35.40625 
Q 44.1875 33.984375 37.640625 27.21875 
Q 31.109375 20.453125 19.1875 8.296875 
z
" id="DejaVuSans-50"/>
     </defs>
     <g transform="translate(129.731045 280.147754)scale(0.1 -0.1)">
      <use xlink:href="#DejaVuSans-48"/>
      <use x="63.623047" xlink:href="#DejaVuSans-46"/>
      <use x="95.410156" xlink:href="#DejaVuSans-50"/>
     </g>
    </g>
   </g>
   <g id="xtick_3">
    <g id="line2d_4">
     <path d="M 175.770531 265.26417 
L 173.208806 267.016311 
" style="fill:none;stroke:#000000;stroke-linecap:square;stroke-width:0.8;"/>
    </g>
    <g id="text_3">
     <!-- 0.4 -->
     <defs>
      <path d="M 37.796875 64.3125 
L 12.890625 25.390625 
L 37.796875 25.390625 
z
M 35.203125 72.90625 
L 47.609375 72.90625 
L 47.609375 25.390625 
L 58.015625 25.390625 
L 58.015625 17.1875 
L 47.609375 17.1875 
L 47.609375 0 
L 37.796875 0 
L 37.796875 17.1875 
L 4.890625 17.1875 
L 4.890625 26.703125 
z
" id="DejaVuSans-52"/>
     </defs>
     <g transform="translate(159.640213 287.567254)scale(0.1 -0.1)">
      <use xlink:href="#DejaVuSans-48"/>
      <use x="63.623047" xlink:href="#DejaVuSans-46"/>
      <use x="95.410156" xlink:href="#DejaVuSans-52"/>
     </g>
    </g>
   </g>
   <g id="xtick_4">
    <g id="line2d_5">
     <path d="M 206.148817 272.666113 
L 203.624565 274.44644 
" style="fill:none;stroke:#000000;stroke-linecap:square;stroke-width:0.8;"/>
    </g>
    <g id="text_4">
     <!-- 0.6 -->
     <defs>
      <path d="M 33.015625 40.375 
Q 26.375 40.375 22.484375 35.828125 
Q 18.609375 31.296875 18.609375 23.390625 
Q 18.609375 15.53125 22.484375 10.953125 
Q 26.375 6.390625 33.015625 6.390625 
Q 39.65625 6.390625 43.53125 10.953125 
Q 47.40625 15.53125 47.40625 23.390625 
Q 47.40625 31.296875 43.53125 35.828125 
Q 39.65625 40.375 33.015625 40.375 
z
M 52.59375 71.296875 
L 52.59375 62.3125 
Q 48.875 64.0625 45.09375 64.984375 
Q 41.3125 65.921875 37.59375 65.921875 
Q 27.828125 65.921875 22.671875 59.328125 
Q 17.53125 52.734375 16.796875 39.40625 
Q 19.671875 43.65625 24.015625 45.921875 
Q 28.375 48.1875 33.59375 48.1875 
Q 44.578125 48.1875 50.953125 41.515625 
Q 57.328125 34.859375 57.328125 23.390625 
Q 57.328125 12.15625 50.6875 5.359375 
Q 44.046875 -1.421875 33.015625 -1.421875 
Q 20.359375 -1.421875 13.671875 8.265625 
Q 6.984375 17.96875 6.984375 36.375 
Q 6.984375 53.65625 15.1875 63.9375 
Q 23.390625 74.21875 37.203125 74.21875 
Q 40.921875 74.21875 44.703125 73.484375 
Q 48.484375 72.75 52.59375 71.296875 
z
" id="DejaVuSans-54"/>
     </defs>
     <g transform="translate(190.029353 295.105819)scale(0.1 -0.1)">
      <use xlink:href="#DejaVuSans-48"/>
      <use x="63.623047" xlink:href="#DejaVuSans-46"/>
      <use x="95.410156" xlink:href="#DejaVuSans-54"/>
     </g>
    </g>
   </g>
   <g id="xtick_5">
    <g id="line2d_6">
     <path d="M 237.017303 280.187498 
L 234.532073 281.996697 
" style="fill:none;stroke:#000000;stroke-linecap:square;stroke-width:0.8;"/>
    </g>
    <g id="text_5">
     <!-- 0.8 -->
     <defs>
      <path d="M 31.78125 34.625 
Q 24.75 34.625 20.71875 30.859375 
Q 16.703125 27.09375 16.703125 20.515625 
Q 16.703125 13.921875 20.71875 10.15625 
Q 24.75 6.390625 31.78125 6.390625 
Q 38.8125 6.390625 42.859375 10.171875 
Q 46.921875 13.96875 46.921875 20.515625 
Q 46.921875 27.09375 42.890625 30.859375 
Q 38.875 34.625 31.78125 34.625 
z
M 21.921875 38.8125 
Q 15.578125 40.375 12.03125 44.71875 
Q 8.5 49.078125 8.5 55.328125 
Q 8.5 64.0625 14.71875 69.140625 
Q 20.953125 74.21875 31.78125 74.21875 
Q 42.671875 74.21875 48.875 69.140625 
Q 55.078125 64.0625 55.078125 55.328125 
Q 55.078125 49.078125 51.53125 44.71875 
Q 48 40.375 41.703125 38.8125 
Q 48.828125 37.15625 52.796875 32.3125 
Q 56.78125 27.484375 56.78125 20.515625 
Q 56.78125 9.90625 50.3125 4.234375 
Q 43.84375 -1.421875 31.78125 -1.421875 
Q 19.734375 -1.421875 13.25 4.234375 
Q 6.78125 9.90625 6.78125 20.515625 
Q 6.78125 27.484375 10.78125 32.3125 
Q 14.796875 37.15625 21.921875 38.8125 
z
M 18.3125 54.390625 
Q 18.3125 48.734375 21.84375 45.5625 
Q 25.390625 42.390625 31.78125 42.390625 
Q 38.140625 42.390625 41.71875 45.5625 
Q 45.3125 48.734375 45.3125 54.390625 
Q 45.3125 60.0625 41.71875 63.234375 
Q 38.140625 66.40625 31.78125 66.40625 
Q 25.390625 66.40625 21.84375 63.234375 
Q 18.3125 60.0625 18.3125 54.390625 
z
" id="DejaVuSans-56"/>
     </defs>
     <g transform="translate(220.910113 302.76634)scale(0.1 -0.1)">
      <use xlink:href="#DejaVuSans-48"/>
      <use x="63.623047" xlink:href="#DejaVuSans-46"/>
      <use x="95.410156" xlink:href="#DejaVuSans-56"/>
     </g>
    </g>
   </g>
   <g id="xtick_6">
    <g id="line2d_7">
     <path d="M 268.387949 287.831239 
L 265.943353 289.670018 
" style="fill:none;stroke:#000000;stroke-linecap:square;stroke-width:0.8;"/>
    </g>
    <g id="text_6">
     <!-- 1.0 -->
     <defs>
      <path d="M 12.40625 8.296875 
L 28.515625 8.296875 
L 28.515625 63.921875 
L 10.984375 60.40625 
L 10.984375 69.390625 
L 28.421875 72.90625 
L 38.28125 72.90625 
L 38.28125 8.296875 
L 54.390625 8.296875 
L 54.390625 0 
L 12.40625 0 
z
" id="DejaVuSans-49"/>
     </defs>
     <g transform="translate(252.294518 310.551799)scale(0.1 -0.1)">
      <use xlink:href="#DejaVuSans-49"/>
      <use x="63.623047" xlink:href="#DejaVuSans-46"/>
      <use x="95.410156" xlink:href="#DejaVuSans-48"/>
     </g>
    </g>
   </g>
  </g>
  <g id="axis3d_2">
   <g id="line2d_8">
    <path d="M 372.72135 220.013954 
L 279.143747 291.264825 
" style="fill:none;stroke:#000000;stroke-linecap:square;stroke-width:0.8;"/>
   </g>
   <g id="Line3DCollection_2">
    <path d="M 104.930092 113.473196 
L 111.915028 244.331309 
L 285.548062 286.38852 
" style="fill:none;stroke:#b0b0b0;stroke-width:0.8;"/>
    <path d="M 117.420657 106.687733 
L 123.711495 236.801135 
L 296.375389 278.14449 
" style="fill:none;stroke:#b0b0b0;stroke-width:0.8;"/>
    <path d="M 129.693852 100.020355 
L 135.313036 229.395391 
L 307.015624 270.042915 
" style="fill:none;stroke:#b0b0b0;stroke-width:0.8;"/>
    <path d="M 141.755301 93.468008 
L 146.724442 222.111018 
L 317.473573 262.080133 
" style="fill:none;stroke:#b0b0b0;stroke-width:0.8;"/>
    <path d="M 153.610437 87.02774 
L 157.95035 214.945055 
L 327.753882 254.252609 
" style="fill:none;stroke:#b0b0b0;stroke-width:0.8;"/>
    <path d="M 165.26451 80.696699 
L 168.995246 207.894641 
L 337.861038 246.556925 
" style="fill:none;stroke:#b0b0b0;stroke-width:0.8;"/>
    <path d="M 176.72259 74.472131 
L 179.863473 200.957001 
L 347.799379 238.989778 
" style="fill:none;stroke:#b0b0b0;stroke-width:0.8;"/>
    <path d="M 187.989581 68.351371 
L 190.559236 194.129451 
L 357.5731 231.547974 
" style="fill:none;stroke:#b0b0b0;stroke-width:0.8;"/>
    <path d="M 199.070224 62.331844 
L 201.086609 187.409393 
L 367.186258 224.228425 
" style="fill:none;stroke:#b0b0b0;stroke-width:0.8;"/>
   </g>
   <g id="xtick_7">
    <g id="line2d_9">
     <path d="M 284.094906 286.036538 
L 288.457621 287.09327 
" style="fill:none;stroke:#000000;stroke-linecap:square;stroke-width:0.8;"/>
    </g>
    <g id="text_7">
     <!-- 2.00 -->
     <g transform="translate(287.114597 306.144728)scale(0.1 -0.1)">
      <use xlink:href="#DejaVuSans-50"/>
      <use x="63.623047" xlink:href="#DejaVuSans-46"/>
      <use x="95.410156" xlink:href="#DejaVuSans-48"/>
      <use x="159.033203" xlink:href="#DejaVuSans-48"/>
     </g>
    </g>
   </g>
   <g id="xtick_8">
    <g id="line2d_10">
     <path d="M 294.9309 277.798616 
L 299.267569 278.837006 
" style="fill:none;stroke:#000000;stroke-linecap:square;stroke-width:0.8;"/>
    </g>
    <g id="text_8">
     <!-- 2.25 -->
     <defs>
      <path d="M 10.796875 72.90625 
L 49.515625 72.90625 
L 49.515625 64.59375 
L 19.828125 64.59375 
L 19.828125 46.734375 
Q 21.96875 47.46875 24.109375 47.828125 
Q 26.265625 48.1875 28.421875 48.1875 
Q 40.625 48.1875 47.75 41.5 
Q 54.890625 34.8125 54.890625 23.390625 
Q 54.890625 11.625 47.5625 5.09375 
Q 40.234375 -1.421875 26.90625 -1.421875 
Q 22.3125 -1.421875 17.546875 -0.640625 
Q 12.796875 0.140625 7.71875 1.703125 
L 7.71875 11.625 
Q 12.109375 9.234375 16.796875 8.0625 
Q 21.484375 6.890625 26.703125 6.890625 
Q 35.15625 6.890625 40.078125 11.328125 
Q 45.015625 15.765625 45.015625 23.390625 
Q 45.015625 31 40.078125 35.4375 
Q 35.15625 39.890625 26.703125 39.890625 
Q 22.75 39.890625 18.8125 39.015625 
Q 14.890625 38.140625 10.796875 36.28125 
z
" id="DejaVuSans-53"/>
     </defs>
     <g transform="translate(297.825832 297.798961)scale(0.1 -0.1)">
      <use xlink:href="#DejaVuSans-50"/>
      <use x="63.623047" xlink:href="#DejaVuSans-46"/>
      <use x="95.410156" xlink:href="#DejaVuSans-50"/>
      <use x="159.033203" xlink:href="#DejaVuSans-53"/>
     </g>
    </g>
   </g>
   <g id="xtick_9">
    <g id="line2d_11">
     <path d="M 305.579719 269.70299 
L 309.890587 270.723511 
" style="fill:none;stroke:#000000;stroke-linecap:square;stroke-width:0.8;"/>
    </g>
    <g id="text_9">
     <!-- 2.50 -->
     <g transform="translate(308.352073 289.597334)scale(0.1 -0.1)">
      <use xlink:href="#DejaVuSans-50"/>
      <use x="63.623047" xlink:href="#DejaVuSans-46"/>
      <use x="95.410156" xlink:href="#DejaVuSans-53"/>
      <use x="159.033203" xlink:href="#DejaVuSans-48"/>
     </g>
    </g>
   </g>
   <g id="xtick_10">
    <g id="line2d_12">
     <path d="M 316.046172 261.746006 
L 320.331483 262.749116 
" style="fill:none;stroke:#000000;stroke-linecap:square;stroke-width:0.8;"/>
    </g>
    <g id="text_10">
     <!-- 2.75 -->
     <defs>
      <path d="M 8.203125 72.90625 
L 55.078125 72.90625 
L 55.078125 68.703125 
L 28.609375 0 
L 18.3125 0 
L 43.21875 64.59375 
L 8.203125 64.59375 
z
" id="DejaVuSans-55"/>
     </defs>
     <g transform="translate(318.698072 281.536145)scale(0.1 -0.1)">
      <use xlink:href="#DejaVuSans-50"/>
      <use x="63.623047" xlink:href="#DejaVuSans-46"/>
      <use x="95.410156" xlink:href="#DejaVuSans-55"/>
      <use x="159.033203" xlink:href="#DejaVuSans-53"/>
     </g>
    </g>
   </g>
   <g id="xtick_11">
    <g id="line2d_13">
     <path d="M 326.334904 253.924132 
L 330.5949 254.910272 
" style="fill:none;stroke:#000000;stroke-linecap:square;stroke-width:0.8;"/>
    </g>
    <g id="text_11">
     <!-- 3.00 -->
     <defs>
      <path d="M 40.578125 39.3125 
Q 47.65625 37.796875 51.625 33 
Q 55.609375 28.21875 55.609375 21.1875 
Q 55.609375 10.40625 48.1875 4.484375 
Q 40.765625 -1.421875 27.09375 -1.421875 
Q 22.515625 -1.421875 17.65625 -0.515625 
Q 12.796875 0.390625 7.625 2.203125 
L 7.625 11.71875 
Q 11.71875 9.328125 16.59375 8.109375 
Q 21.484375 6.890625 26.8125 6.890625 
Q 36.078125 6.890625 40.9375 10.546875 
Q 45.796875 14.203125 45.796875 21.1875 
Q 45.796875 27.640625 41.28125 31.265625 
Q 36.765625 34.90625 28.71875 34.90625 
L 20.21875 34.90625 
L 20.21875 43.015625 
L 29.109375 43.015625 
Q 36.375 43.015625 40.234375 45.921875 
Q 44.09375 48.828125 44.09375 54.296875 
Q 44.09375 59.90625 40.109375 62.90625 
Q 36.140625 65.921875 28.71875 65.921875 
Q 24.65625 65.921875 20.015625 65.03125 
Q 15.375 64.15625 9.8125 62.3125 
L 9.8125 71.09375 
Q 15.4375 72.65625 20.34375 73.4375 
Q 25.25 74.21875 29.59375 74.21875 
Q 40.828125 74.21875 47.359375 69.109375 
Q 53.90625 64.015625 53.90625 55.328125 
Q 53.90625 49.265625 50.4375 45.09375 
Q 46.96875 40.921875 40.578125 39.3125 
z
" id="DejaVuSans-51"/>
     </defs>
     <g transform="translate(328.868418 273.611818)scale(0.1 -0.1)">
      <use xlink:href="#DejaVuSans-51"/>
      <use x="63.623047" xlink:href="#DejaVuSans-46"/>
      <use x="95.410156" xlink:href="#DejaVuSans-48"/>
      <use x="159.033203" xlink:href="#DejaVuSans-48"/>
     </g>
    </g>
   </g>
   <g id="xtick_12">
    <g id="line2d_14">
     <path d="M 336.450403 246.233956 
L 340.685326 247.203554 
" style="fill:none;stroke:#000000;stroke-linecap:square;stroke-width:0.8;"/>
    </g>
    <g id="text_12">
     <!-- 3.25 -->
     <g transform="translate(338.867546 265.820896)scale(0.1 -0.1)">
      <use xlink:href="#DejaVuSans-51"/>
      <use x="63.623047" xlink:href="#DejaVuSans-46"/>
      <use x="95.410156" xlink:href="#DejaVuSans-50"/>
      <use x="159.033203" xlink:href="#DejaVuSans-53"/>
     </g>
    </g>
   </g>
   <g id="xtick_13">
    <g id="line2d_15">
     <path d="M 346.397008 238.67218 
L 350.607098 239.625648 
" style="fill:none;stroke:#000000;stroke-linecap:square;stroke-width:0.8;"/>
    </g>
    <g id="text_13">
     <!-- 3.50 -->
     <g transform="translate(348.699746 258.160039)scale(0.1 -0.1)">
      <use xlink:href="#DejaVuSans-51"/>
      <use x="63.623047" xlink:href="#DejaVuSans-46"/>
      <use x="95.410156" xlink:href="#DejaVuSans-53"/>
      <use x="159.033203" xlink:href="#DejaVuSans-48"/>
     </g>
    </g>
   </g>
   <g id="xtick_14">
    <g id="line2d_16">
     <path d="M 356.178914 231.235615 
L 360.364408 232.173351 
" style="fill:none;stroke:#000000;stroke-linecap:square;stroke-width:0.8;"/>
    </g>
    <g id="text_14">
     <!-- 3.75 -->
     <g transform="translate(358.369162 250.626016)scale(0.1 -0.1)">
      <use xlink:href="#DejaVuSans-51"/>
      <use x="63.623047" xlink:href="#DejaVuSans-46"/>
      <use x="95.410156" xlink:href="#DejaVuSans-55"/>
      <use x="159.033203" xlink:href="#DejaVuSans-53"/>
     </g>
    </g>
   </g>
   <g id="xtick_15">
    <g id="line2d_17">
     <path d="M 365.800177 223.921175 
L 369.961313 224.843567 
" style="fill:none;stroke:#000000;stroke-linecap:square;stroke-width:0.8;"/>
    </g>
    <g id="text_15">
     <!-- 4.00 -->
     <g transform="translate(367.879803 243.215704)scale(0.1 -0.1)">
      <use xlink:href="#DejaVuSans-52"/>
      <use x="63.623047" xlink:href="#DejaVuSans-46"/>
      <use x="95.410156" xlink:href="#DejaVuSans-48"/>
      <use x="159.033203" xlink:href="#DejaVuSans-48"/>
     </g>
    </g>
   </g>
  </g>
  <g id="axis3d_3">
   <g id="line2d_18">
    <path d="M 372.72135 220.013954 
L 379.648599 91.582742 
" style="fill:none;stroke:#000000;stroke-linecap:square;stroke-width:0.8;"/>
   </g>
   <g id="Line3DCollection_3">
    <path d="M 373.602558 203.676351 
L 206.934506 167.648447 
L 104.001773 232.105743 
" style="fill:none;stroke:#b0b0b0;stroke-width:0.8;"/>
    <path d="M 374.465097 187.684882 
L 206.722336 152.104074 
L 103.081289 215.775112 
" style="fill:none;stroke:#b0b0b0;stroke-width:0.8;"/>
    <path d="M 375.338929 171.484034 
L 206.507506 136.364778 
L 102.14835 199.223524 
" style="fill:none;stroke:#b0b0b0;stroke-width:0.8;"/>
    <path d="M 376.224277 155.069668 
L 206.289965 120.426867 
L 101.202702 182.446464 
" style="fill:none;stroke:#b0b0b0;stroke-width:0.8;"/>
    <path d="M 377.121372 138.437535 
L 206.069661 104.28656 
L 100.244084 165.439293 
" style="fill:none;stroke:#b0b0b0;stroke-width:0.8;"/>
    <path d="M 378.030447 121.583272 
L 205.846542 87.939975 
L 99.272227 148.197246 
" style="fill:none;stroke:#b0b0b0;stroke-width:0.8;"/>
    <path d="M 378.951746 104.502399 
L 205.620552 71.383133 
L 98.286854 130.715421 
" style="fill:none;stroke:#b0b0b0;stroke-width:0.8;"/>
   </g>
   <g id="xtick_16">
    <g id="line2d_19">
     <path d="M 372.211626 203.375679 
L 376.387332 204.278323 
" style="fill:none;stroke:#000000;stroke-linecap:square;stroke-width:0.8;"/>
    </g>
    <g id="text_16">
     <!-- 1.00 -->
     <g transform="translate(380.921938 209.329005)scale(0.1 -0.1)">
      <use xlink:href="#DejaVuSans-49"/>
      <use x="63.623047" xlink:href="#DejaVuSans-46"/>
      <use x="95.410156" xlink:href="#DejaVuSans-48"/>
      <use x="159.033203" xlink:href="#DejaVuSans-48"/>
     </g>
    </g>
   </g>
   <g id="xtick_17">
    <g id="line2d_20">
     <path d="M 373.064819 187.387861 
L 377.268601 188.279548 
" style="fill:none;stroke:#000000;stroke-linecap:square;stroke-width:0.8;"/>
    </g>
    <g id="text_17">
     <!-- 1.01 -->
     <g transform="translate(381.90226 193.361189)scale(0.1 -0.1)">
      <use xlink:href="#DejaVuSans-49"/>
      <use x="63.623047" xlink:href="#DejaVuSans-46"/>
      <use x="95.410156" xlink:href="#DejaVuSans-48"/>
      <use x="159.033203" xlink:href="#DejaVuSans-49"/>
     </g>
    </g>
   </g>
   <g id="xtick_18">
    <g id="line2d_21">
     <path d="M 373.929178 171.190786 
L 378.161417 172.07115 
" style="fill:none;stroke:#000000;stroke-linecap:square;stroke-width:0.8;"/>
    </g>
    <g id="text_18">
     <!-- 1.02 -->
     <g transform="translate(382.895389 177.184782)scale(0.1 -0.1)">
      <use xlink:href="#DejaVuSans-49"/>
      <use x="63.623047" xlink:href="#DejaVuSans-46"/>
      <use x="95.410156" xlink:href="#DejaVuSans-48"/>
      <use x="159.033203" xlink:href="#DejaVuSans-50"/>
     </g>
    </g>
   </g>
   <g id="xtick_19">
    <g id="line2d_22">
     <path d="M 374.804926 154.780319 
L 379.066008 155.648983 
" style="fill:none;stroke:#000000;stroke-linecap:square;stroke-width:0.8;"/>
    </g>
    <g id="text_19">
     <!-- 1.03 -->
     <g transform="translate(383.901577 160.795668)scale(0.1 -0.1)">
      <use xlink:href="#DejaVuSans-49"/>
      <use x="63.623047" xlink:href="#DejaVuSans-46"/>
      <use x="95.410156" xlink:href="#DejaVuSans-48"/>
      <use x="159.033203" xlink:href="#DejaVuSans-51"/>
     </g>
    </g>
   </g>
   <g id="xtick_20">
    <g id="line2d_23">
     <path d="M 375.692288 138.152214 
L 379.982608 139.008789 
" style="fill:none;stroke:#000000;stroke-linecap:square;stroke-width:0.8;"/>
    </g>
    <g id="text_20">
     <!-- 1.04 -->
     <g transform="translate(384.921083 144.189626)scale(0.1 -0.1)">
      <use xlink:href="#DejaVuSans-49"/>
      <use x="63.623047" xlink:href="#DejaVuSans-46"/>
      <use x="95.410156" xlink:href="#DejaVuSans-48"/>
      <use x="159.033203" xlink:href="#DejaVuSans-52"/>
     </g>
    </g>
   </g>
   <g id="xtick_21">
    <g id="line2d_24">
     <path d="M 376.591497 121.302113 
L 380.911459 122.146198 
" style="fill:none;stroke:#000000;stroke-linecap:square;stroke-width:0.8;"/>
    </g>
    <g id="text_21">
     <!-- 1.05 -->
     <g transform="translate(385.954173 127.362318)scale(0.1 -0.1)">
      <use xlink:href="#DejaVuSans-49"/>
      <use x="63.623047" xlink:href="#DejaVuSans-46"/>
      <use x="95.410156" xlink:href="#DejaVuSans-48"/>
      <use x="159.033203" xlink:href="#DejaVuSans-53"/>
     </g>
    </g>
   </g>
   <g id="xtick_22">
    <g id="line2d_25">
     <path d="M 377.502791 104.22554 
L 381.852808 105.05672 
" style="fill:none;stroke:#000000;stroke-linecap:square;stroke-width:0.8;"/>
    </g>
    <g id="text_22">
     <!-- 1.06 -->
     <g transform="translate(387.00112 110.309294)scale(0.1 -0.1)">
      <use xlink:href="#DejaVuSans-49"/>
      <use x="63.623047" xlink:href="#DejaVuSans-46"/>
      <use x="95.410156" xlink:href="#DejaVuSans-48"/>
      <use x="159.033203" xlink:href="#DejaVuSans-54"/>
     </g>
    </g>
   </g>
  </g>
  <g id="axes_1">
   <g id="Poly3DCollection_1">
    <path clip-path="url(#p231de4f405)" d="M 201.652635 177.476622 
L 217.420968 180.963996 
L 226.732244 177.105454 
L 211.051114 173.694626 
z
" style="fill:#ff0e00;"/>
    <path clip-path="url(#p231de4f405)" d="M 217.420968 180.963996 
L 233.31974 184.546295 
L 242.54228 180.544321 
L 226.732244 177.105454 
z
" style="fill:#ff0e00;"/>
    <path clip-path="url(#p231de4f405)" d="M 192.097531 181.045226 
L 207.955914 184.615089 
L 217.420968 180.963996 
L 201.652635 177.476622 
z
" style="fill:#ff1500;"/>
    <path clip-path="url(#p231de4f405)" d="M 233.31974 184.546295 
L 249.349296 188.22068 
L 258.482819 184.011574 
L 242.54228 180.544321 
z
" style="fill:#ff0e00;"/>
    <path clip-path="url(#p231de4f405)" d="M 207.955914 184.615089 
L 223.946831 188.357845 
L 233.31974 184.546295 
L 217.420968 180.963996 
z
" style="fill:#ff1400;"/>
    <path clip-path="url(#p231de4f405)" d="M 249.349296 188.22068 
L 265.510089 191.98212 
L 274.555483 187.507565 
L 258.482819 184.011574 
z
" style="fill:#ff0d00;"/>
    <path clip-path="url(#p231de4f405)" d="M 223.946831 188.357845 
L 240.069123 192.266185 
L 249.349296 188.22068 
L 233.31974 184.546295 
z
" style="fill:#ff1400;"/>
    <path clip-path="url(#p231de4f405)" d="M 182.371164 184.075943 
L 198.32475 187.74089 
L 207.955914 184.615089 
L 192.097531 181.045226 
z
" style="fill:#ff1d00;"/>
    <path clip-path="url(#p231de4f405)" d="M 265.510089 191.98212 
L 281.802739 195.823791 
L 290.761921 191.032654 
L 274.555483 187.507565 
z
" style="fill:#ff0d00;"/>
    <path clip-path="url(#p231de4f405)" d="M 240.069123 192.266185 
L 256.321827 196.327765 
L 265.510089 191.98212 
L 249.349296 188.22068 
z
" style="fill:#ff1300;"/>
    <path clip-path="url(#p231de4f405)" d="M 198.32475 187.74089 
L 214.413766 191.68202 
L 223.946831 188.357845 
L 207.955914 184.615089 
z
" style="fill:#ff1c00;"/>
    <path clip-path="url(#p231de4f405)" d="M 281.802739 195.823791 
L 298.228094 199.737545 
L 307.103811 194.587205 
L 290.761921 191.032654 
z
" style="fill:#ff0c00;"/>
    <path clip-path="url(#p231de4f405)" d="M 256.321827 196.327765 
L 272.704335 200.526387 
L 281.802739 195.823791 
L 265.510089 191.98212 
z
" style="fill:#ff1200;"/>
    <path clip-path="url(#p231de4f405)" d="M 214.413766 191.68202 
L 230.634974 195.883831 
L 240.069123 192.266185 
L 223.946831 188.357845 
z
" style="fill:#ff1b00;"/>
    <path clip-path="url(#p231de4f405)" d="M 298.228094 199.737545 
L 314.787264 203.714347 
L 323.582857 198.171589 
L 307.103811 194.587205 
z
" style="fill:#ff0c00;"/>
    <path clip-path="url(#p231de4f405)" d="M 172.45016 186.127255 
L 188.507452 189.912498 
L 198.32475 187.74089 
L 182.371164 184.075943 
z
" style="fill:#ff2700;"/>
    <path clip-path="url(#p231de4f405)" d="M 272.704335 200.526387 
L 289.216509 204.843308 
L 298.228094 199.737545 
L 281.802739 195.823791 
z
" style="fill:#ff1000;"/>
    <path clip-path="url(#p231de4f405)" d="M 230.634974 195.883831 
L 246.985503 200.321243 
L 256.321827 196.327765 
L 240.069123 192.266185 
z
" style="fill:#ff1900;"/>
    <path clip-path="url(#p231de4f405)" d="M 314.787264 203.714347 
L 331.481645 207.744637 
L 340.200794 201.786184 
L 323.582857 198.171589 
z
" style="fill:#ff0b00;"/>
    <path clip-path="url(#p231de4f405)" d="M 188.507452 189.912498 
L 204.704427 194.128049 
L 214.413766 191.68202 
L 198.32475 187.74089 
z
" style="fill:#ff2600;"/>
    <path clip-path="url(#p231de4f405)" d="M 289.216509 204.843308 
L 305.858744 209.258428 
L 314.787264 203.714347 
L 298.228094 199.737545 
z
" style="fill:#ff0f00;"/>
    <path clip-path="url(#p231de4f405)" d="M 246.985503 200.321243 
L 263.463142 204.962699 
L 272.704335 200.526387 
L 256.321827 196.327765 
z
" style="fill:#ff1700;"/>
    <path clip-path="url(#p231de4f405)" d="M 331.481645 207.744637 
L 348.312935 211.818562 
L 356.959386 205.431373 
L 340.200794 201.786184 
z
" style="fill:#ff0b00;"/>
    <path clip-path="url(#p231de4f405)" d="M 204.704427 194.128049 
L 221.034593 198.740293 
L 230.634974 195.883831 
L 214.413766 191.68202 
z
" style="fill:#ff2400;"/>
    <path clip-path="url(#p231de4f405)" d="M 162.295807 186.517133 
L 178.47091 190.476598 
L 188.507452 189.912498 
L 172.45016 186.127255 
z
" style="fill:#ff3600;"/>
    <path clip-path="url(#p231de4f405)" d="M 263.463142 204.962699 
L 280.066533 209.773516 
L 289.216509 204.843308 
L 272.704335 200.526387 
z
" style="fill:#ff1500;"/>
    <path clip-path="url(#p231de4f405)" d="M 305.858744 209.258428 
L 322.632005 213.751141 
L 331.481645 207.744637 
L 314.787264 203.714347 
z
" style="fill:#ff0d00;"/>
    <path clip-path="url(#p231de4f405)" d="M 221.034593 198.740293 
L 237.492186 203.697202 
L 246.985503 200.321243 
L 230.634974 195.883831 
z
" style="fill:#ff2200;"/>
    <path clip-path="url(#p231de4f405)" d="M 178.47091 190.476598 
L 194.792655 195.126652 
L 204.704427 194.128049 
L 188.507452 189.912498 
z
" style="fill:#ff3400;"/>
    <path clip-path="url(#p231de4f405)" d="M 280.066533 209.773516 
L 296.795229 214.718714 
L 305.858744 209.258428 
L 289.216509 204.843308 
z
" style="fill:#ff1200;"/>
    <path clip-path="url(#p231de4f405)" d="M 322.632005 213.751141 
L 339.537841 218.300781 
L 348.312935 211.818562 
L 331.481645 207.744637 
z
" style="fill:#ff0c00;"/>
    <path clip-path="url(#p231de4f405)" d="M 237.492186 203.697202 
L 254.072767 208.936711 
L 263.463142 204.962699 
L 246.985503 200.321243 
z
" style="fill:#ff1e00;"/>
    <path clip-path="url(#p231de4f405)" d="M 194.792655 195.126652 
L 211.248659 200.388543 
L 221.034593 198.740293 
L 204.704427 194.128049 
z
" style="fill:#ff3100;"/>
    <path clip-path="url(#p231de4f405)" d="M 296.795229 214.718714 
L 313.649684 219.764791 
L 322.632005 213.751141 
L 305.858744 209.258428 
z
" style="fill:#ff0f00;"/>
    <path clip-path="url(#p231de4f405)" d="M 254.072767 208.936711 
L 270.773501 214.395485 
L 280.066533 209.773516 
L 263.463142 204.962699 
z
" style="fill:#ff1b00;"/>
    <path clip-path="url(#p231de4f405)" d="M 151.838597 184.043924 
L 168.156504 188.304116 
L 178.47091 190.476598 
L 162.295807 186.517133 
z
" style="fill:#ff4b00;"/>
    <path clip-path="url(#p231de4f405)" d="M 211.248659 200.388543 
L 227.828181 206.145086 
L 237.492186 203.697202 
L 221.034593 198.740293 
z
" style="fill:#ff2d00;"/>
    <path clip-path="url(#p231de4f405)" d="M 313.649684 219.764791 
L 330.631211 224.880167 
L 339.537841 218.300781 
L 322.632005 213.751141 
z
" style="fill:#ff0c00;"/>
    <path clip-path="url(#p231de4f405)" d="M 270.773501 214.395485 
L 287.593106 220.01596 
L 296.795229 214.718714 
L 280.066533 209.773516 
z
" style="fill:#ff1600;"/>
    <path clip-path="url(#p231de4f405)" d="M 168.156504 188.304116 
L 184.634299 193.757382 
L 194.792655 195.126652 
L 178.47091 190.476598 
z
" style="fill:#ff4800;"/>
    <path clip-path="url(#p231de4f405)" d="M 227.828181 206.145086 
L 244.52345 212.263937 
L 254.072767 208.936711 
L 237.492186 203.697202 
z
" style="fill:#ff2800;"/>
    <path clip-path="url(#p231de4f405)" d="M 287.593106 220.01596 
L 304.53161 225.750051 
L 313.649684 219.764791 
L 296.795229 214.718714 
z
" style="fill:#ff1200;"/>
    <path clip-path="url(#p231de4f405)" d="M 184.634299 193.757382 
L 201.247182 200.20551 
L 211.248659 200.388543 
L 194.792655 195.126652 
z
" style="fill:#ff4300;"/>
    <path clip-path="url(#p231de4f405)" d="M 244.52345 212.263937 
L 261.330079 218.621633 
L 270.773501 214.395485 
L 254.072767 208.936711 
z
" style="fill:#ff2200;"/>
    <path clip-path="url(#p231de4f405)" d="M 201.247182 200.20551 
L 217.974357 207.359351 
L 227.828181 206.145086 
L 211.248659 200.388543 
z
" style="fill:#ff3c00;"/>
    <path clip-path="url(#p231de4f405)" d="M 304.53161 225.750051 
L 321.590065 231.558921 
L 330.631211 224.880167 
L 313.649684 219.764791 
z
" style="fill:#ff0d00;"/>
    <path clip-path="url(#p231de4f405)" d="M 261.330079 218.621633 
L 278.246572 225.121929 
L 287.593106 220.01596 
L 270.773501 214.395485 
z
" style="fill:#ff1b00;"/>
    <path clip-path="url(#p231de4f405)" d="M 140.93836 176.286717 
L 157.448253 181.160257 
L 168.156504 188.304116 
L 151.838597 184.043924 
z
" style="fill:#ff6b00;"/>
    <path clip-path="url(#p231de4f405)" d="M 217.974357 207.359351 
L 234.802456 214.906416 
L 244.52345 212.263937 
L 227.828181 206.145086 
z
" style="fill:#ff3400;"/>
    <path clip-path="url(#p231de4f405)" d="M 278.246572 225.121929 
L 295.273285 231.704024 
L 304.53161 225.750051 
L 287.593106 220.01596 
z
" style="fill:#ff1500;"/>
    <path clip-path="url(#p231de4f405)" d="M 157.448253 181.160257 
L 174.148076 188.33113 
L 184.634299 193.757382 
L 168.156504 188.304116 
z
" style="fill:#ff6600;"/>
    <path clip-path="url(#p231de4f405)" d="M 234.802456 214.906416 
L 251.726268 222.581153 
L 261.330079 218.621633 
L 244.52345 212.263937 
z
" style="fill:#ff2b00;"/>
    <path clip-path="url(#p231de4f405)" d="M 295.273285 231.704024 
L 312.411333 238.33931 
L 321.590065 231.558921 
L 304.53161 225.750051 
z
" style="fill:#ff0e00;"/>
    <path clip-path="url(#p231de4f405)" d="M 174.148076 188.33113 
L 190.983488 197.295244 
L 201.247182 200.20551 
L 184.634299 193.757382 
z
" style="fill:#ff5c00;"/>
    <path clip-path="url(#p231de4f405)" d="M 251.726268 222.581153 
L 268.74678 230.213761 
L 278.246572 225.121929 
L 261.330079 218.621633 
z
" style="fill:#ff2100;"/>
    <path clip-path="url(#p231de4f405)" d="M 190.983488 197.295244 
L 207.90911 207.272659 
L 217.974357 207.359351 
L 201.247182 200.20551 
z
" style="fill:#ff5000;"/>
    <path clip-path="url(#p231de4f405)" d="M 268.74678 230.213761 
L 285.867691 237.747144 
L 295.273285 231.704024 
L 278.246572 225.121929 
z
" style="fill:#ff1800;"/>
    <path clip-path="url(#p231de4f405)" d="M 207.90911 207.272659 
L 224.899904 217.432981 
L 234.802456 214.906416 
L 217.974357 207.359351 
z
" style="fill:#ff4200;"/>
    <path clip-path="url(#p231de4f405)" d="M 224.899904 217.432981 
L 241.953446 227.156803 
L 251.726268 222.581153 
L 234.802456 214.906416 
z
" style="fill:#ff3400;"/>
    <path clip-path="url(#p231de4f405)" d="M 285.867691 237.747144 
L 303.09185 245.223673 
L 312.411333 238.33931 
L 295.273285 231.704024 
z
" style="fill:#ff0f00;"/>
    <path clip-path="url(#p231de4f405)" d="M 129.280036 157.889013 
L 146.08377 164.016178 
L 157.448253 181.160257 
L 140.93836 176.286717 
z
" style="fill:#ffa000;"/>
    <path clip-path="url(#p231de4f405)" d="M 241.953446 227.156803 
L 259.082346 236.145881 
L 268.74678 230.213761 
L 251.726268 222.581153 
z
" style="fill:#ff2700;"/>
    <path clip-path="url(#p231de4f405)" d="M 146.08377 164.016178 
L 163.157298 175.079769 
L 174.148076 188.33113 
L 157.448253 181.160257 
z
" style="fill:#ff9600;"/>
    <path clip-path="url(#p231de4f405)" d="M 259.082346 236.145881 
L 276.303592 244.40365 
L 285.867691 237.747144 
L 268.74678 230.213761 
z
" style="fill:#ff1b00;"/>
    <path clip-path="url(#p231de4f405)" d="M 163.157298 175.079769 
L 180.381737 190.238821 
L 190.983488 197.295244 
L 174.148076 188.33113 
z
" style="fill:#ff8300;"/>
    <path clip-path="url(#p231de4f405)" d="M 180.381737 190.238821 
L 197.63049 207.043358 
L 207.90911 207.272659 
L 190.983488 197.295244 
z
" style="fill:#ff6a00;"/>
    <path clip-path="url(#p231de4f405)" d="M 197.63049 207.043358 
L 214.837477 222.532675 
L 224.899904 217.432981 
L 207.90911 207.272659 
z
" style="fill:#ff5000;"/>
    <path clip-path="url(#p231de4f405)" d="M 276.303592 244.40365 
L 293.628353 252.21442 
L 303.09185 245.223673 
L 285.867691 237.747144 
z
" style="fill:#ff1000;"/>
    <path clip-path="url(#p231de4f405)" d="M 214.837477 222.532675 
L 232.025088 235.400001 
L 241.953446 227.156803 
L 224.899904 217.432981 
z
" style="fill:#ff3900;"/>
    <path clip-path="url(#p231de4f405)" d="M 232.025088 235.400001 
L 249.248639 245.774132 
L 259.082346 236.145881 
L 241.953446 227.156803 
z
" style="fill:#ff2600;"/>
    <path clip-path="url(#p231de4f405)" d="M 249.248639 245.774132 
L 266.56312 253.595388 
L 276.303592 244.40365 
L 259.082346 236.145881 
z
" style="fill:#ff1800;"/>
    <path clip-path="url(#p231de4f405)" d="M 204.819381 242.087601 
L 222.012961 251.279294 
L 232.025088 235.400001 
L 214.837477 222.532675 
z
" style="fill:#ff2900;"/>
    <path clip-path="url(#p231de4f405)" d="M 187.343348 216.399986 
L 204.819381 242.087601 
L 214.837477 222.532675 
L 197.63049 207.043358 
z
" style="fill:#ff4b00;"/>
    <path clip-path="url(#p231de4f405)" d="M 222.012961 251.279294 
L 239.291447 266.286548 
L 249.248639 245.774132 
L 232.025088 235.400001 
z
" style="fill:#ff1300;"/>
    <path clip-path="url(#p231de4f405)" d="M 266.56312 253.595388 
L 284.017478 259.314036 
L 293.628353 252.21442 
L 276.303592 244.40365 
z
" style="fill:#ff0f00;"/>
    <path clip-path="url(#p231de4f405)" d="M 239.291447 266.286548 
L 256.597124 276.82763 
L 266.56312 253.595388 
L 249.248639 245.774132 
z
" style="fill:#ff0000;"/>
    <path clip-path="url(#p231de4f405)" d="M 169.241254 174.197702 
L 187.343348 216.399986 
L 197.63049 207.043358 
L 180.381737 190.238821 
z
" style="fill:#ff8600;"/>
    <path clip-path="url(#p231de4f405)" d="M 256.597124 276.82763 
L 274.255755 266.525085 
L 284.017478 259.314036 
L 266.56312 253.595388 
z
" style="fill:#ff0100;"/>
    <path clip-path="url(#p231de4f405)" d="M 116.207433 118.54713 
L 133.437003 125.425512 
L 146.08377 164.016178 
L 129.280036 157.889013 
z
" style="fill:#ffff00;"/>
    <path clip-path="url(#p231de4f405)" d="M 151.064952 140.359827 
L 169.241254 174.197702 
L 180.381737 190.238821 
L 163.157298 175.079769 
z
" style="fill:#ffc600;"/>
    <path clip-path="url(#p231de4f405)" d="M 133.437003 125.425512 
L 151.064952 140.359827 
L 163.157298 175.079769 
L 146.08377 164.016178 
z
" style="fill:#ffef00;"/>
   </g>
  </g>
  <g id="text_23">
   <!-- Con nr=10- surf del potencial de la Reg.5-Er. -->
   <defs>
    <path d="M 64.40625 67.28125 
L 64.40625 56.890625 
Q 59.421875 61.53125 53.78125 63.8125 
Q 48.140625 66.109375 41.796875 66.109375 
Q 29.296875 66.109375 22.65625 58.46875 
Q 16.015625 50.828125 16.015625 36.375 
Q 16.015625 21.96875 22.65625 14.328125 
Q 29.296875 6.6875 41.796875 6.6875 
Q 48.140625 6.6875 53.78125 8.984375 
Q 59.421875 11.28125 64.40625 15.921875 
L 64.40625 5.609375 
Q 59.234375 2.09375 53.4375 0.328125 
Q 47.65625 -1.421875 41.21875 -1.421875 
Q 24.65625 -1.421875 15.125 8.703125 
Q 5.609375 18.84375 5.609375 36.375 
Q 5.609375 53.953125 15.125 64.078125 
Q 24.65625 74.21875 41.21875 74.21875 
Q 47.75 74.21875 53.53125 72.484375 
Q 59.328125 70.75 64.40625 67.28125 
z
" id="DejaVuSans-67"/>
    <path d="M 30.609375 48.390625 
Q 23.390625 48.390625 19.1875 42.75 
Q 14.984375 37.109375 14.984375 27.296875 
Q 14.984375 17.484375 19.15625 11.84375 
Q 23.34375 6.203125 30.609375 6.203125 
Q 37.796875 6.203125 41.984375 11.859375 
Q 46.1875 17.53125 46.1875 27.296875 
Q 46.1875 37.015625 41.984375 42.703125 
Q 37.796875 48.390625 30.609375 48.390625 
z
M 30.609375 56 
Q 42.328125 56 49.015625 48.375 
Q 55.71875 40.765625 55.71875 27.296875 
Q 55.71875 13.875 49.015625 6.21875 
Q 42.328125 -1.421875 30.609375 -1.421875 
Q 18.84375 -1.421875 12.171875 6.21875 
Q 5.515625 13.875 5.515625 27.296875 
Q 5.515625 40.765625 12.171875 48.375 
Q 18.84375 56 30.609375 56 
z
" id="DejaVuSans-111"/>
    <path d="M 54.890625 33.015625 
L 54.890625 0 
L 45.90625 0 
L 45.90625 32.71875 
Q 45.90625 40.484375 42.875 44.328125 
Q 39.84375 48.1875 33.796875 48.1875 
Q 26.515625 48.1875 22.3125 43.546875 
Q 18.109375 38.921875 18.109375 30.90625 
L 18.109375 0 
L 9.078125 0 
L 9.078125 54.6875 
L 18.109375 54.6875 
L 18.109375 46.1875 
Q 21.34375 51.125 25.703125 53.5625 
Q 30.078125 56 35.796875 56 
Q 45.21875 56 50.046875 50.171875 
Q 54.890625 44.34375 54.890625 33.015625 
z
" id="DejaVuSans-110"/>
    <path id="DejaVuSans-32"/>
    <path d="M 41.109375 46.296875 
Q 39.59375 47.171875 37.8125 47.578125 
Q 36.03125 48 33.890625 48 
Q 26.265625 48 22.1875 43.046875 
Q 18.109375 38.09375 18.109375 28.8125 
L 18.109375 0 
L 9.078125 0 
L 9.078125 54.6875 
L 18.109375 54.6875 
L 18.109375 46.1875 
Q 20.953125 51.171875 25.484375 53.578125 
Q 30.03125 56 36.53125 56 
Q 37.453125 56 38.578125 55.875 
Q 39.703125 55.765625 41.0625 55.515625 
z
" id="DejaVuSans-114"/>
    <path d="M 10.59375 45.40625 
L 73.1875 45.40625 
L 73.1875 37.203125 
L 10.59375 37.203125 
z
M 10.59375 25.484375 
L 73.1875 25.484375 
L 73.1875 17.1875 
L 10.59375 17.1875 
z
" id="DejaVuSans-61"/>
    <path d="M 4.890625 31.390625 
L 31.203125 31.390625 
L 31.203125 23.390625 
L 4.890625 23.390625 
z
" id="DejaVuSans-45"/>
    <path d="M 44.28125 53.078125 
L 44.28125 44.578125 
Q 40.484375 46.53125 36.375 47.5 
Q 32.28125 48.484375 27.875 48.484375 
Q 21.1875 48.484375 17.84375 46.4375 
Q 14.5 44.390625 14.5 40.28125 
Q 14.5 37.15625 16.890625 35.375 
Q 19.28125 33.59375 26.515625 31.984375 
L 29.59375 31.296875 
Q 39.15625 29.25 43.1875 25.515625 
Q 47.21875 21.78125 47.21875 15.09375 
Q 47.21875 7.46875 41.1875 3.015625 
Q 35.15625 -1.421875 24.609375 -1.421875 
Q 20.21875 -1.421875 15.453125 -0.5625 
Q 10.6875 0.296875 5.421875 2 
L 5.421875 11.28125 
Q 10.40625 8.6875 15.234375 7.390625 
Q 20.0625 6.109375 24.8125 6.109375 
Q 31.15625 6.109375 34.5625 8.28125 
Q 37.984375 10.453125 37.984375 14.40625 
Q 37.984375 18.0625 35.515625 20.015625 
Q 33.0625 21.96875 24.703125 23.78125 
L 21.578125 24.515625 
Q 13.234375 26.265625 9.515625 29.90625 
Q 5.8125 33.546875 5.8125 39.890625 
Q 5.8125 47.609375 11.28125 51.796875 
Q 16.75 56 26.8125 56 
Q 31.78125 56 36.171875 55.265625 
Q 40.578125 54.546875 44.28125 53.078125 
z
" id="DejaVuSans-115"/>
    <path d="M 8.5 21.578125 
L 8.5 54.6875 
L 17.484375 54.6875 
L 17.484375 21.921875 
Q 17.484375 14.15625 20.5 10.265625 
Q 23.53125 6.390625 29.59375 6.390625 
Q 36.859375 6.390625 41.078125 11.03125 
Q 45.3125 15.671875 45.3125 23.6875 
L 45.3125 54.6875 
L 54.296875 54.6875 
L 54.296875 0 
L 45.3125 0 
L 45.3125 8.40625 
Q 42.046875 3.421875 37.71875 1 
Q 33.40625 -1.421875 27.6875 -1.421875 
Q 18.265625 -1.421875 13.375 4.4375 
Q 8.5 10.296875 8.5 21.578125 
z
M 31.109375 56 
z
" id="DejaVuSans-117"/>
    <path d="M 37.109375 75.984375 
L 37.109375 68.5 
L 28.515625 68.5 
Q 23.6875 68.5 21.796875 66.546875 
Q 19.921875 64.59375 19.921875 59.515625 
L 19.921875 54.6875 
L 34.71875 54.6875 
L 34.71875 47.703125 
L 19.921875 47.703125 
L 19.921875 0 
L 10.890625 0 
L 10.890625 47.703125 
L 2.296875 47.703125 
L 2.296875 54.6875 
L 10.890625 54.6875 
L 10.890625 58.5 
Q 10.890625 67.625 15.140625 71.796875 
Q 19.390625 75.984375 28.609375 75.984375 
z
" id="DejaVuSans-102"/>
    <path d="M 45.40625 46.390625 
L 45.40625 75.984375 
L 54.390625 75.984375 
L 54.390625 0 
L 45.40625 0 
L 45.40625 8.203125 
Q 42.578125 3.328125 38.25 0.953125 
Q 33.9375 -1.421875 27.875 -1.421875 
Q 17.96875 -1.421875 11.734375 6.484375 
Q 5.515625 14.40625 5.515625 27.296875 
Q 5.515625 40.1875 11.734375 48.09375 
Q 17.96875 56 27.875 56 
Q 33.9375 56 38.25 53.625 
Q 42.578125 51.265625 45.40625 46.390625 
z
M 14.796875 27.296875 
Q 14.796875 17.390625 18.875 11.75 
Q 22.953125 6.109375 30.078125 6.109375 
Q 37.203125 6.109375 41.296875 11.75 
Q 45.40625 17.390625 45.40625 27.296875 
Q 45.40625 37.203125 41.296875 42.84375 
Q 37.203125 48.484375 30.078125 48.484375 
Q 22.953125 48.484375 18.875 42.84375 
Q 14.796875 37.203125 14.796875 27.296875 
z
" id="DejaVuSans-100"/>
    <path d="M 56.203125 29.59375 
L 56.203125 25.203125 
L 14.890625 25.203125 
Q 15.484375 15.921875 20.484375 11.0625 
Q 25.484375 6.203125 34.421875 6.203125 
Q 39.59375 6.203125 44.453125 7.46875 
Q 49.3125 8.734375 54.109375 11.28125 
L 54.109375 2.78125 
Q 49.265625 0.734375 44.1875 -0.34375 
Q 39.109375 -1.421875 33.890625 -1.421875 
Q 20.796875 -1.421875 13.15625 6.1875 
Q 5.515625 13.8125 5.515625 26.8125 
Q 5.515625 40.234375 12.765625 48.109375 
Q 20.015625 56 32.328125 56 
Q 43.359375 56 49.78125 48.890625 
Q 56.203125 41.796875 56.203125 29.59375 
z
M 47.21875 32.234375 
Q 47.125 39.59375 43.09375 43.984375 
Q 39.0625 48.390625 32.421875 48.390625 
Q 24.90625 48.390625 20.390625 44.140625 
Q 15.875 39.890625 15.1875 32.171875 
z
" id="DejaVuSans-101"/>
    <path d="M 9.421875 75.984375 
L 18.40625 75.984375 
L 18.40625 0 
L 9.421875 0 
z
" id="DejaVuSans-108"/>
    <path d="M 18.109375 8.203125 
L 18.109375 -20.796875 
L 9.078125 -20.796875 
L 9.078125 54.6875 
L 18.109375 54.6875 
L 18.109375 46.390625 
Q 20.953125 51.265625 25.265625 53.625 
Q 29.59375 56 35.59375 56 
Q 45.5625 56 51.78125 48.09375 
Q 58.015625 40.1875 58.015625 27.296875 
Q 58.015625 14.40625 51.78125 6.484375 
Q 45.5625 -1.421875 35.59375 -1.421875 
Q 29.59375 -1.421875 25.265625 0.953125 
Q 20.953125 3.328125 18.109375 8.203125 
z
M 48.6875 27.296875 
Q 48.6875 37.203125 44.609375 42.84375 
Q 40.53125 48.484375 33.40625 48.484375 
Q 26.265625 48.484375 22.1875 42.84375 
Q 18.109375 37.203125 18.109375 27.296875 
Q 18.109375 17.390625 22.1875 11.75 
Q 26.265625 6.109375 33.40625 6.109375 
Q 40.53125 6.109375 44.609375 11.75 
Q 48.6875 17.390625 48.6875 27.296875 
z
" id="DejaVuSans-112"/>
    <path d="M 18.3125 70.21875 
L 18.3125 54.6875 
L 36.8125 54.6875 
L 36.8125 47.703125 
L 18.3125 47.703125 
L 18.3125 18.015625 
Q 18.3125 11.328125 20.140625 9.421875 
Q 21.96875 7.515625 27.59375 7.515625 
L 36.8125 7.515625 
L 36.8125 0 
L 27.59375 0 
Q 17.1875 0 13.234375 3.875 
Q 9.28125 7.765625 9.28125 18.015625 
L 9.28125 47.703125 
L 2.6875 47.703125 
L 2.6875 54.6875 
L 9.28125 54.6875 
L 9.28125 70.21875 
z
" id="DejaVuSans-116"/>
    <path d="M 48.78125 52.59375 
L 48.78125 44.1875 
Q 44.96875 46.296875 41.140625 47.34375 
Q 37.3125 48.390625 33.40625 48.390625 
Q 24.65625 48.390625 19.8125 42.84375 
Q 14.984375 37.3125 14.984375 27.296875 
Q 14.984375 17.28125 19.8125 11.734375 
Q 24.65625 6.203125 33.40625 6.203125 
Q 37.3125 6.203125 41.140625 7.25 
Q 44.96875 8.296875 48.78125 10.40625 
L 48.78125 2.09375 
Q 45.015625 0.34375 40.984375 -0.53125 
Q 36.96875 -1.421875 32.421875 -1.421875 
Q 20.0625 -1.421875 12.78125 6.34375 
Q 5.515625 14.109375 5.515625 27.296875 
Q 5.515625 40.671875 12.859375 48.328125 
Q 20.21875 56 33.015625 56 
Q 37.15625 56 41.109375 55.140625 
Q 45.0625 54.296875 48.78125 52.59375 
z
" id="DejaVuSans-99"/>
    <path d="M 9.421875 54.6875 
L 18.40625 54.6875 
L 18.40625 0 
L 9.421875 0 
z
M 9.421875 75.984375 
L 18.40625 75.984375 
L 18.40625 64.59375 
L 9.421875 64.59375 
z
" id="DejaVuSans-105"/>
    <path d="M 34.28125 27.484375 
Q 23.390625 27.484375 19.1875 25 
Q 14.984375 22.515625 14.984375 16.5 
Q 14.984375 11.71875 18.140625 8.90625 
Q 21.296875 6.109375 26.703125 6.109375 
Q 34.1875 6.109375 38.703125 11.40625 
Q 43.21875 16.703125 43.21875 25.484375 
L 43.21875 27.484375 
z
M 52.203125 31.203125 
L 52.203125 0 
L 43.21875 0 
L 43.21875 8.296875 
Q 40.140625 3.328125 35.546875 0.953125 
Q 30.953125 -1.421875 24.3125 -1.421875 
Q 15.921875 -1.421875 10.953125 3.296875 
Q 6 8.015625 6 15.921875 
Q 6 25.140625 12.171875 29.828125 
Q 18.359375 34.515625 30.609375 34.515625 
L 43.21875 34.515625 
L 43.21875 35.40625 
Q 43.21875 41.609375 39.140625 45 
Q 35.0625 48.390625 27.6875 48.390625 
Q 23 48.390625 18.546875 47.265625 
Q 14.109375 46.140625 10.015625 43.890625 
L 10.015625 52.203125 
Q 14.9375 54.109375 19.578125 55.046875 
Q 24.21875 56 28.609375 56 
Q 40.484375 56 46.34375 49.84375 
Q 52.203125 43.703125 52.203125 31.203125 
z
" id="DejaVuSans-97"/>
    <path d="M 44.390625 34.1875 
Q 47.5625 33.109375 50.5625 29.59375 
Q 53.5625 26.078125 56.59375 19.921875 
L 66.609375 0 
L 56 0 
L 46.6875 18.703125 
Q 43.0625 26.03125 39.671875 28.421875 
Q 36.28125 30.8125 30.421875 30.8125 
L 19.671875 30.8125 
L 19.671875 0 
L 9.8125 0 
L 9.8125 72.90625 
L 32.078125 72.90625 
Q 44.578125 72.90625 50.734375 67.671875 
Q 56.890625 62.453125 56.890625 51.90625 
Q 56.890625 45.015625 53.6875 40.46875 
Q 50.484375 35.9375 44.390625 34.1875 
z
M 19.671875 64.796875 
L 19.671875 38.921875 
L 32.078125 38.921875 
Q 39.203125 38.921875 42.84375 42.21875 
Q 46.484375 45.515625 46.484375 51.90625 
Q 46.484375 58.296875 42.84375 61.546875 
Q 39.203125 64.796875 32.078125 64.796875 
z
" id="DejaVuSans-82"/>
    <path d="M 45.40625 27.984375 
Q 45.40625 37.75 41.375 43.109375 
Q 37.359375 48.484375 30.078125 48.484375 
Q 22.859375 48.484375 18.828125 43.109375 
Q 14.796875 37.75 14.796875 27.984375 
Q 14.796875 18.265625 18.828125 12.890625 
Q 22.859375 7.515625 30.078125 7.515625 
Q 37.359375 7.515625 41.375 12.890625 
Q 45.40625 18.265625 45.40625 27.984375 
z
M 54.390625 6.78125 
Q 54.390625 -7.171875 48.1875 -13.984375 
Q 42 -20.796875 29.203125 -20.796875 
Q 24.46875 -20.796875 20.265625 -20.09375 
Q 16.0625 -19.390625 12.109375 -17.921875 
L 12.109375 -9.1875 
Q 16.0625 -11.328125 19.921875 -12.34375 
Q 23.78125 -13.375 27.78125 -13.375 
Q 36.625 -13.375 41.015625 -8.765625 
Q 45.40625 -4.15625 45.40625 5.171875 
L 45.40625 9.625 
Q 42.625 4.78125 38.28125 2.390625 
Q 33.9375 0 27.875 0 
Q 17.828125 0 11.671875 7.65625 
Q 5.515625 15.328125 5.515625 27.984375 
Q 5.515625 40.671875 11.671875 48.328125 
Q 17.828125 56 27.875 56 
Q 33.9375 56 38.28125 53.609375 
Q 42.625 51.21875 45.40625 46.390625 
L 45.40625 54.6875 
L 54.390625 54.6875 
z
" id="DejaVuSans-103"/>
    <path d="M 9.8125 72.90625 
L 55.90625 72.90625 
L 55.90625 64.59375 
L 19.671875 64.59375 
L 19.671875 43.015625 
L 54.390625 43.015625 
L 54.390625 34.71875 
L 19.671875 34.71875 
L 19.671875 8.296875 
L 56.78125 8.296875 
L 56.78125 0 
L 9.8125 0 
z
" id="DejaVuSans-69"/>
   </defs>
   <g transform="translate(95.424375 16.030125)scale(0.12 -0.12)">
    <use xlink:href="#DejaVuSans-67"/>
    <use x="69.824219" xlink:href="#DejaVuSans-111"/>
    <use x="131.005859" xlink:href="#DejaVuSans-110"/>
    <use x="194.384766" xlink:href="#DejaVuSans-32"/>
    <use x="226.171875" xlink:href="#DejaVuSans-110"/>
    <use x="289.550781" xlink:href="#DejaVuSans-114"/>
    <use x="330.664062" xlink:href="#DejaVuSans-61"/>
    <use x="414.453125" xlink:href="#DejaVuSans-49"/>
    <use x="478.076172" xlink:href="#DejaVuSans-48"/>
    <use x="541.699219" xlink:href="#DejaVuSans-45"/>
    <use x="577.783203" xlink:href="#DejaVuSans-32"/>
    <use x="609.570312" xlink:href="#DejaVuSans-115"/>
    <use x="661.669922" xlink:href="#DejaVuSans-117"/>
    <use x="725.048828" xlink:href="#DejaVuSans-114"/>
    <use x="766.162109" xlink:href="#DejaVuSans-102"/>
    <use x="801.367188" xlink:href="#DejaVuSans-32"/>
    <use x="833.154297" xlink:href="#DejaVuSans-100"/>
    <use x="896.630859" xlink:href="#DejaVuSans-101"/>
    <use x="958.154297" xlink:href="#DejaVuSans-108"/>
    <use x="985.9375" xlink:href="#DejaVuSans-32"/>
    <use x="1017.724609" xlink:href="#DejaVuSans-112"/>
    <use x="1081.201172" xlink:href="#DejaVuSans-111"/>
    <use x="1142.382812" xlink:href="#DejaVuSans-116"/>
    <use x="1181.591797" xlink:href="#DejaVuSans-101"/>
    <use x="1243.115234" xlink:href="#DejaVuSans-110"/>
    <use x="1306.494141" xlink:href="#DejaVuSans-99"/>
    <use x="1361.474609" xlink:href="#DejaVuSans-105"/>
    <use x="1389.257812" xlink:href="#DejaVuSans-97"/>
    <use x="1450.537109" xlink:href="#DejaVuSans-108"/>
    <use x="1478.320312" xlink:href="#DejaVuSans-32"/>
    <use x="1510.107422" xlink:href="#DejaVuSans-100"/>
    <use x="1573.583984" xlink:href="#DejaVuSans-101"/>
    <use x="1635.107422" xlink:href="#DejaVuSans-32"/>
    <use x="1666.894531" xlink:href="#DejaVuSans-108"/>
    <use x="1694.677734" xlink:href="#DejaVuSans-97"/>
    <use x="1755.957031" xlink:href="#DejaVuSans-32"/>
    <use x="1787.744141" xlink:href="#DejaVuSans-82"/>
    <use x="1857.164062" xlink:href="#DejaVuSans-101"/>
    <use x="1918.6875" xlink:href="#DejaVuSans-103"/>
    <use x="1982.164062" xlink:href="#DejaVuSans-46"/>
    <use x="2013.951172" xlink:href="#DejaVuSans-53"/>
    <use x="2077.574219" xlink:href="#DejaVuSans-45"/>
    <use x="2113.658203" xlink:href="#DejaVuSans-69"/>
    <use x="2176.841797" xlink:href="#DejaVuSans-114"/>
    <use x="2217.814453" xlink:href="#DejaVuSans-46"/>
   </g>
  </g>
 </g>
 <defs>
  <clipPath id="p231de4f405">
   <rect height="266.112" width="357.12" x="57.6" y="41.472"/>
  </clipPath>
 </defs>
</svg>
