<?xml version="1.0" encoding="utf-8" standalone="no"?>
<!DOCTYPE svg PUBLIC "-//W3C//DTD SVG 1.1//EN"
  "http://www.w3.org/Graphics/SVG/1.1/DTD/svg11.dtd">
<!-- Created with matplotlib (https://matplotlib.org/) -->
<svg height="280.512pt" version="1.1" viewBox="0 0 371.52 280.512" width="371.52pt" xmlns="http://www.w3.org/2000/svg" xmlns:xlink="http://www.w3.org/1999/xlink">
 <defs>
  <style type="text/css">
*{stroke-linecap:butt;stroke-linejoin:round;}
  </style>
 </defs>
 <g id="figure_1">
  <g id="patch_1">
   <path d="M 0 280.512 
L 371.52 280.512 
L 371.52 0 
L 0 0 
z
" style="fill:#ffffff;"/>
  </g>
  <g id="patch_2">
   <path d="M 7.2 273.312 
L 364.32 273.312 
L 364.32 7.2 
L 7.2 7.2 
z
" style="fill:#ffffff;"/>
  </g>
  <g id="pane3d_1">
   <g id="patch_3">
    <path d="M 54.541774 214.510626 
L 156.751387 149.265994 
L 155.049705 24.594209 
L 47.141237 83.21517 
" style="fill:#f2f2f2;opacity:0.5;stroke:#f2f2f2;stroke-linejoin:miter;"/>
   </g>
  </g>
  <g id="pane3d_2">
   <g id="patch_4">
    <path d="M 156.751387 149.265994 
L 322.32135 185.741954 
L 329.248599 57.310742 
L 155.049705 24.594209 
" style="fill:#e6e6e6;opacity:0.5;stroke:#e6e6e6;stroke-linejoin:miter;"/>
   </g>
  </g>
  <g id="pane3d_3">
   <g id="patch_5">
    <path d="M 54.541774 214.510626 
L 228.743747 256.992825 
L 322.32135 185.741954 
L 156.751387 149.265994 
" style="fill:#ececec;opacity:0.5;stroke:#ececec;stroke-linejoin:miter;"/>
   </g>
  </g>
  <g id="axis3d_1">
   <g id="line2d_1">
    <path d="M 54.541774 214.510626 
L 228.743747 256.992825 
" style="fill:none;stroke:#000000;stroke-linecap:square;stroke-width:0.8;"/>
   </g>
   <g id="Line3DCollection_1">
    <path d="M 65.162252 217.100616 
L 166.877438 151.496818 
L 165.681723 26.591023 
" style="fill:none;stroke:#b0b0b0;stroke-width:0.8;"/>
    <path d="M 89.66655 223.076417 
L 190.225146 156.640444 
L 190.206833 31.197117 
" style="fill:none;stroke:#b0b0b0;stroke-width:0.8;"/>
    <path d="M 114.494475 229.131141 
L 213.858726 161.84705 
L 215.04757 35.86249 
" style="fill:none;stroke:#b0b0b0;stroke-width:0.8;"/>
    <path d="M 139.652479 235.266361 
L 237.783461 167.117799 
L 240.210069 40.588294 
" style="fill:none;stroke:#b0b0b0;stroke-width:0.8;"/>
    <path d="M 165.147191 241.483692 
L 262.004765 172.453883 
L 265.70062 45.375709 
" style="fill:none;stroke:#b0b0b0;stroke-width:0.8;"/>
    <path d="M 190.985413 247.784795 
L 286.528186 177.856526 
L 291.525682 50.225949 
" style="fill:none;stroke:#b0b0b0;stroke-width:0.8;"/>
    <path d="M 217.174137 254.171373 
L 311.359413 183.32698 
L 317.691882 55.140259 
" style="fill:none;stroke:#b0b0b0;stroke-width:0.8;"/>
   </g>
   <g id="xtick_1">
    <g id="line2d_2">
     <path d="M 66.038581 216.535405 
L 63.406326 218.233145 
" style="fill:none;stroke:#000000;stroke-linecap:square;stroke-width:0.8;"/>
    </g>
    <g id="text_1">
     <!-- 0 -->
     <defs>
      <path d="M 31.78125 66.40625 
Q 24.171875 66.40625 20.328125 58.90625 
Q 16.5 51.421875 16.5 36.375 
Q 16.5 21.390625 20.328125 13.890625 
Q 24.171875 6.390625 31.78125 6.390625 
Q 39.453125 6.390625 43.28125 13.890625 
Q 47.125 21.390625 47.125 36.375 
Q 47.125 51.421875 43.28125 58.90625 
Q 39.453125 66.40625 31.78125 66.40625 
z
M 31.78125 74.21875 
Q 44.046875 74.21875 50.515625 64.515625 
Q 56.984375 54.828125 56.984375 36.375 
Q 56.984375 17.96875 50.515625 8.265625 
Q 44.046875 -1.421875 31.78125 -1.421875 
Q 19.53125 -1.421875 13.0625 8.265625 
Q 6.59375 17.96875 6.59375 36.375 
Q 6.59375 54.828125 13.0625 64.515625 
Q 19.53125 74.21875 31.78125 74.21875 
z
" id="DejaVuSans-48"/>
     </defs>
     <g transform="translate(54.660879 238.57252)scale(0.1 -0.1)">
      <use xlink:href="#DejaVuSans-48"/>
     </g>
    </g>
   </g>
   <g id="xtick_2">
    <g id="line2d_3">
     <path d="M 90.53332 222.503769 
L 87.929756 224.223864 
" style="fill:none;stroke:#000000;stroke-linecap:square;stroke-width:0.8;"/>
    </g>
    <g id="text_2">
     <!-- 1 -->
     <defs>
      <path d="M 12.40625 8.296875 
L 28.515625 8.296875 
L 28.515625 63.921875 
L 10.984375 60.40625 
L 10.984375 69.390625 
L 28.421875 72.90625 
L 38.28125 72.90625 
L 38.28125 8.296875 
L 54.390625 8.296875 
L 54.390625 0 
L 12.40625 0 
z
" id="DejaVuSans-49"/>
     </defs>
     <g transform="translate(79.162363 244.650548)scale(0.1 -0.1)">
      <use xlink:href="#DejaVuSans-49"/>
     </g>
    </g>
   </g>
   <g id="xtick_3">
    <g id="line2d_4">
     <path d="M 115.351356 228.550908 
L 112.777474 230.293801 
" style="fill:none;stroke:#000000;stroke-linecap:square;stroke-width:0.8;"/>
    </g>
    <g id="text_3">
     <!-- 2 -->
     <defs>
      <path d="M 19.1875 8.296875 
L 53.609375 8.296875 
L 53.609375 0 
L 7.328125 0 
L 7.328125 8.296875 
Q 12.9375 14.109375 22.625 23.890625 
Q 32.328125 33.6875 34.8125 36.53125 
Q 39.546875 41.84375 41.421875 45.53125 
Q 43.3125 49.21875 43.3125 52.78125 
Q 43.3125 58.59375 39.234375 62.25 
Q 35.15625 65.921875 28.609375 65.921875 
Q 23.96875 65.921875 18.8125 64.3125 
Q 13.671875 62.703125 7.8125 59.421875 
L 7.8125 69.390625 
Q 13.765625 71.78125 18.9375 73 
Q 24.125 74.21875 28.421875 74.21875 
Q 39.75 74.21875 46.484375 68.546875 
Q 53.21875 62.890625 53.21875 53.421875 
Q 53.21875 48.921875 51.53125 44.890625 
Q 49.859375 40.875 45.40625 35.40625 
Q 44.1875 33.984375 37.640625 27.21875 
Q 31.109375 20.453125 19.1875 8.296875 
z
" id="DejaVuSans-50"/>
     </defs>
     <g transform="translate(103.988037 250.808998)scale(0.1 -0.1)">
      <use xlink:href="#DejaVuSans-50"/>
     </g>
    </g>
   </g>
   <g id="xtick_4">
    <g id="line2d_5">
     <path d="M 140.499132 234.67839 
L 137.955953 236.444539 
" style="fill:none;stroke:#000000;stroke-linecap:square;stroke-width:0.8;"/>
    </g>
    <g id="text_4">
     <!-- 3 -->
     <defs>
      <path d="M 40.578125 39.3125 
Q 47.65625 37.796875 51.625 33 
Q 55.609375 28.21875 55.609375 21.1875 
Q 55.609375 10.40625 48.1875 4.484375 
Q 40.765625 -1.421875 27.09375 -1.421875 
Q 22.515625 -1.421875 17.65625 -0.515625 
Q 12.796875 0.390625 7.625 2.203125 
L 7.625 11.71875 
Q 11.71875 9.328125 16.59375 8.109375 
Q 21.484375 6.890625 26.8125 6.890625 
Q 36.078125 6.890625 40.9375 10.546875 
Q 45.796875 14.203125 45.796875 21.1875 
Q 45.796875 27.640625 41.28125 31.265625 
Q 36.765625 34.90625 28.71875 34.90625 
L 20.21875 34.90625 
L 20.21875 43.015625 
L 29.109375 43.015625 
Q 36.375 43.015625 40.234375 45.921875 
Q 44.09375 48.828125 44.09375 54.296875 
Q 44.09375 59.90625 40.109375 62.90625 
Q 36.140625 65.921875 28.71875 65.921875 
Q 24.65625 65.921875 20.015625 65.03125 
Q 15.375 64.15625 9.8125 62.3125 
L 9.8125 71.09375 
Q 15.4375 72.65625 20.34375 73.4375 
Q 25.25 74.21875 29.59375 74.21875 
Q 40.828125 74.21875 47.359375 69.109375 
Q 53.90625 64.015625 53.90625 55.328125 
Q 53.90625 49.265625 50.4375 45.09375 
Q 46.96875 40.921875 40.578125 39.3125 
z
" id="DejaVuSans-51"/>
     </defs>
     <g transform="translate(129.14438 257.049475)scale(0.1 -0.1)">
      <use xlink:href="#DejaVuSans-51"/>
     </g>
    </g>
   </g>
   <g id="xtick_5">
    <g id="line2d_6">
     <path d="M 165.983263 240.887828 
L 163.471843 242.677702 
" style="fill:none;stroke:#000000;stroke-linecap:square;stroke-width:0.8;"/>
    </g>
    <g id="text_5">
     <!-- 4 -->
     <defs>
      <path d="M 37.796875 64.3125 
L 12.890625 25.390625 
L 37.796875 25.390625 
z
M 35.203125 72.90625 
L 47.609375 72.90625 
L 47.609375 25.390625 
L 58.015625 25.390625 
L 58.015625 17.1875 
L 47.609375 17.1875 
L 47.609375 0 
L 37.796875 0 
L 37.796875 17.1875 
L 4.890625 17.1875 
L 4.890625 26.703125 
z
" id="DejaVuSans-52"/>
     </defs>
     <g transform="translate(154.638042 263.37363)scale(0.1 -0.1)">
      <use xlink:href="#DejaVuSans-52"/>
     </g>
    </g>
   </g>
   <g id="xtick_6">
    <g id="line2d_7">
     <path d="M 191.810543 247.180878 
L 189.331972 248.994957 
" style="fill:none;stroke:#000000;stroke-linecap:square;stroke-width:0.8;"/>
    </g>
    <g id="text_6">
     <!-- 5 -->
     <defs>
      <path d="M 10.796875 72.90625 
L 49.515625 72.90625 
L 49.515625 64.59375 
L 19.828125 64.59375 
L 19.828125 46.734375 
Q 21.96875 47.46875 24.109375 47.828125 
Q 26.265625 48.1875 28.421875 48.1875 
Q 40.625 48.1875 47.75 41.5 
Q 54.890625 34.8125 54.890625 23.390625 
Q 54.890625 11.625 47.5625 5.09375 
Q 40.234375 -1.421875 26.90625 -1.421875 
Q 22.3125 -1.421875 17.546875 -0.640625 
Q 12.796875 0.140625 7.71875 1.703125 
L 7.71875 11.625 
Q 12.109375 9.234375 16.796875 8.0625 
Q 21.484375 6.890625 26.703125 6.890625 
Q 35.15625 6.890625 40.078125 11.328125 
Q 45.015625 15.765625 45.015625 23.390625 
Q 45.015625 31 40.078125 35.4375 
Q 35.15625 39.890625 26.703125 39.890625 
Q 22.75 39.890625 18.8125 39.015625 
Q 14.890625 38.140625 10.796875 36.28125 
z
" id="DejaVuSans-53"/>
     </defs>
     <g transform="translate(180.475853 269.783158)scale(0.1 -0.1)">
      <use xlink:href="#DejaVuSans-53"/>
     </g>
    </g>
   </g>
   <g id="xtick_7">
    <g id="line2d_8">
     <path d="M 217.987949 253.559239 
L 215.543353 255.398018 
" style="fill:none;stroke:#000000;stroke-linecap:square;stroke-width:0.8;"/>
    </g>
    <g id="text_7">
     <!-- 6 -->
     <defs>
      <path d="M 33.015625 40.375 
Q 26.375 40.375 22.484375 35.828125 
Q 18.609375 31.296875 18.609375 23.390625 
Q 18.609375 15.53125 22.484375 10.953125 
Q 26.375 6.390625 33.015625 6.390625 
Q 39.65625 6.390625 43.53125 10.953125 
Q 47.40625 15.53125 47.40625 23.390625 
Q 47.40625 31.296875 43.53125 35.828125 
Q 39.65625 40.375 33.015625 40.375 
z
M 52.59375 71.296875 
L 52.59375 62.3125 
Q 48.875 64.0625 45.09375 64.984375 
Q 41.3125 65.921875 37.59375 65.921875 
Q 27.828125 65.921875 22.671875 59.328125 
Q 17.53125 52.734375 16.796875 39.40625 
Q 19.671875 43.65625 24.015625 45.921875 
Q 28.375 48.1875 33.59375 48.1875 
Q 44.578125 48.1875 50.953125 41.515625 
Q 57.328125 34.859375 57.328125 23.390625 
Q 57.328125 12.15625 50.6875 5.359375 
Q 44.046875 -1.421875 33.015625 -1.421875 
Q 20.359375 -1.421875 13.671875 8.265625 
Q 6.984375 17.96875 6.984375 36.375 
Q 6.984375 53.65625 15.1875 63.9375 
Q 23.390625 74.21875 37.203125 74.21875 
Q 40.921875 74.21875 44.703125 73.484375 
Q 48.484375 72.75 52.59375 71.296875 
z
" id="DejaVuSans-54"/>
     </defs>
     <g transform="translate(206.66483 276.279799)scale(0.1 -0.1)">
      <use xlink:href="#DejaVuSans-54"/>
     </g>
    </g>
   </g>
  </g>
  <g id="axis3d_2">
   <g id="line2d_9">
    <path d="M 322.32135 185.741954 
L 228.743747 256.992825 
" style="fill:none;stroke:#000000;stroke-linecap:square;stroke-width:0.8;"/>
   </g>
   <g id="Line3DCollection_2">
    <path d="M 54.530092 79.201196 
L 61.515028 210.059309 
L 235.148062 252.11652 
" style="fill:none;stroke:#b0b0b0;stroke-width:0.8;"/>
    <path d="M 74.410294 68.401334 
L 80.295501 198.070955 
L 252.38167 238.994688 
" style="fill:none;stroke:#b0b0b0;stroke-width:0.8;"/>
    <path d="M 93.742663 57.899081 
L 98.584318 186.396445 
L 269.1437 226.231919 
" style="fill:none;stroke:#b0b0b0;stroke-width:0.8;"/>
    <path d="M 112.549534 47.682303 
L 116.400537 175.023614 
L 285.453248 213.813675 
" style="fill:none;stroke:#b0b0b0;stroke-width:0.8;"/>
    <path d="M 130.852048 37.739516 
L 133.762243 163.940917 
L 301.328392 201.726191 
" style="fill:none;stroke:#b0b0b0;stroke-width:0.8;"/>
    <path d="M 148.670224 28.059844 
L 150.686609 153.137393 
L 316.786258 189.956425 
" style="fill:none;stroke:#b0b0b0;stroke-width:0.8;"/>
   </g>
   <g id="xtick_8">
    <g id="line2d_10">
     <path d="M 233.694906 251.764538 
L 238.057621 252.82127 
" style="fill:none;stroke:#000000;stroke-linecap:square;stroke-width:0.8;"/>
    </g>
    <g id="text_8">
     <!-- 4.0 -->
     <defs>
      <path d="M 10.6875 12.40625 
L 21 12.40625 
L 21 0 
L 10.6875 0 
z
" id="DejaVuSans-46"/>
     </defs>
     <g transform="translate(239.895847 271.872728)scale(0.1 -0.1)">
      <use xlink:href="#DejaVuSans-52"/>
      <use x="63.623047" xlink:href="#DejaVuSans-46"/>
      <use x="95.410156" xlink:href="#DejaVuSans-48"/>
     </g>
    </g>
   </g>
   <g id="xtick_9">
    <g id="line2d_11">
     <path d="M 250.942341 238.652401 
L 255.2635 239.680014 
" style="fill:none;stroke:#000000;stroke-linecap:square;stroke-width:0.8;"/>
    </g>
    <g id="text_9">
     <!-- 4.2 -->
     <g transform="translate(256.944719 258.588928)scale(0.1 -0.1)">
      <use xlink:href="#DejaVuSans-52"/>
      <use x="63.623047" xlink:href="#DejaVuSans-46"/>
      <use x="95.410156" xlink:href="#DejaVuSans-50"/>
     </g>
    </g>
   </g>
   <g id="xtick_10">
    <g id="line2d_12">
     <path d="M 267.71799 225.898933 
L 271.998219 226.898614 
" style="fill:none;stroke:#000000;stroke-linecap:square;stroke-width:0.8;"/>
    </g>
    <g id="text_10">
     <!-- 4.4 -->
     <g transform="translate(273.527299 245.668443)scale(0.1 -0.1)">
      <use xlink:href="#DejaVuSans-52"/>
      <use x="63.623047" xlink:href="#DejaVuSans-46"/>
      <use x="95.410156" xlink:href="#DejaVuSans-52"/>
     </g>
    </g>
   </g>
   <g id="xtick_11">
    <g id="line2d_13">
     <path d="M 284.040952 213.489616 
L 288.28087 214.462488 
" style="fill:none;stroke:#000000;stroke-linecap:square;stroke-width:0.8;"/>
    </g>
    <g id="text_11">
     <!-- 4.6 -->
     <g transform="translate(289.66246 233.09657)scale(0.1 -0.1)">
      <use xlink:href="#DejaVuSans-52"/>
      <use x="63.623047" xlink:href="#DejaVuSans-46"/>
      <use x="95.410156" xlink:href="#DejaVuSans-54"/>
     </g>
    </g>
   </g>
   <g id="xtick_12">
    <g id="line2d_14">
     <path d="M 299.929304 201.410704 
L 304.129527 202.357832 
" style="fill:none;stroke:#000000;stroke-linecap:square;stroke-width:0.8;"/>
    </g>
    <g id="text_12">
     <!-- 4.8 -->
     <defs>
      <path d="M 31.78125 34.625 
Q 24.75 34.625 20.71875 30.859375 
Q 16.703125 27.09375 16.703125 20.515625 
Q 16.703125 13.921875 20.71875 10.15625 
Q 24.75 6.390625 31.78125 6.390625 
Q 38.8125 6.390625 42.859375 10.171875 
Q 46.921875 13.96875 46.921875 20.515625 
Q 46.921875 27.09375 42.890625 30.859375 
Q 38.875 34.625 31.78125 34.625 
z
M 21.921875 38.8125 
Q 15.578125 40.375 12.03125 44.71875 
Q 8.5 49.078125 8.5 55.328125 
Q 8.5 64.0625 14.71875 69.140625 
Q 20.953125 74.21875 31.78125 74.21875 
Q 42.671875 74.21875 48.875 69.140625 
Q 55.078125 64.0625 55.078125 55.328125 
Q 55.078125 49.078125 51.53125 44.71875 
Q 48 40.375 41.703125 38.8125 
Q 48.828125 37.15625 52.796875 32.3125 
Q 56.78125 27.484375 56.78125 20.515625 
Q 56.78125 9.90625 50.3125 4.234375 
Q 43.84375 -1.421875 31.78125 -1.421875 
Q 19.734375 -1.421875 13.25 4.234375 
Q 6.78125 9.90625 6.78125 20.515625 
Q 6.78125 27.484375 10.78125 32.3125 
Q 14.796875 37.15625 21.921875 38.8125 
z
M 18.3125 54.390625 
Q 18.3125 48.734375 21.84375 45.5625 
Q 25.390625 42.390625 31.78125 42.390625 
Q 38.140625 42.390625 41.71875 45.5625 
Q 45.3125 48.734375 45.3125 54.390625 
Q 45.3125 60.0625 41.71875 63.234375 
Q 38.140625 66.40625 31.78125 66.40625 
Q 25.390625 66.40625 21.84375 63.234375 
Q 18.3125 60.0625 18.3125 54.390625 
z
" id="DejaVuSans-56"/>
     </defs>
     <g transform="translate(305.368069 220.859387)scale(0.1 -0.1)">
      <use xlink:href="#DejaVuSans-52"/>
      <use x="63.623047" xlink:href="#DejaVuSans-46"/>
      <use x="95.410156" xlink:href="#DejaVuSans-56"/>
     </g>
    </g>
   </g>
   <g id="xtick_13">
    <g id="line2d_15">
     <path d="M 315.400177 189.649175 
L 319.561313 190.571567 
" style="fill:none;stroke:#000000;stroke-linecap:square;stroke-width:0.8;"/>
    </g>
    <g id="text_13">
     <!-- 5.0 -->
     <g transform="translate(320.661053 208.943704)scale(0.1 -0.1)">
      <use xlink:href="#DejaVuSans-53"/>
      <use x="63.623047" xlink:href="#DejaVuSans-46"/>
      <use x="95.410156" xlink:href="#DejaVuSans-48"/>
     </g>
    </g>
   </g>
  </g>
  <g id="axis3d_3">
   <g id="line2d_16">
    <path d="M 322.32135 185.741954 
L 329.248599 57.310742 
" style="fill:none;stroke:#000000;stroke-linecap:square;stroke-width:0.8;"/>
   </g>
   <g id="Line3DCollection_3">
    <path d="M 322.453747 183.287299 
L 156.718794 146.878095 
L 54.40057 212.005463 
" style="fill:none;stroke:#b0b0b0;stroke-width:0.8;"/>
    <path d="M 323.73178 159.592579 
L 156.404313 123.837997 
L 53.037045 187.814703 
" style="fill:none;stroke:#b0b0b0;stroke-width:0.8;"/>
    <path d="M 325.034827 135.434076 
L 156.083937 100.365999 
L 51.64594 163.134636 
" style="fill:none;stroke:#b0b0b0;stroke-width:0.8;"/>
    <path d="M 326.363631 110.79804 
L 155.757498 76.449845 
L 50.226409 137.950264 
" style="fill:none;stroke:#b0b0b0;stroke-width:0.8;"/>
    <path d="M 327.718964 85.67017 
L 155.424823 52.076805 
L 48.777573 112.245969 
" style="fill:none;stroke:#b0b0b0;stroke-width:0.8;"/>
    <path d="M 329.101627 60.035589 
L 155.085732 27.233661 
L 47.298515 86.005483 
" style="fill:none;stroke:#b0b0b0;stroke-width:0.8;"/>
   </g>
   <g id="xtick_14">
    <g id="line2d_17">
     <path d="M 321.070926 182.983516 
L 325.222267 183.895497 
" style="fill:none;stroke:#000000;stroke-linecap:square;stroke-width:0.8;"/>
    </g>
    <g id="text_14">
     <!-- 0.0 -->
     <g transform="translate(332.8521 188.919799)scale(0.1 -0.1)">
      <use xlink:href="#DejaVuSans-48"/>
      <use x="63.623047" xlink:href="#DejaVuSans-46"/>
      <use x="95.410156" xlink:href="#DejaVuSans-48"/>
     </g>
    </g>
   </g>
   <g id="xtick_15">
    <g id="line2d_18">
     <path d="M 322.335114 159.294139 
L 326.528045 160.190086 
" style="fill:none;stroke:#000000;stroke-linecap:square;stroke-width:0.8;"/>
    </g>
    <g id="text_15">
     <!-- 0.2 -->
     <g transform="translate(334.304681 165.259691)scale(0.1 -0.1)">
      <use xlink:href="#DejaVuSans-48"/>
      <use x="63.623047" xlink:href="#DejaVuSans-46"/>
      <use x="95.410156" xlink:href="#DejaVuSans-50"/>
     </g>
    </g>
   </g>
   <g id="xtick_16">
    <g id="line2d_19">
     <path d="M 323.624037 135.141247 
L 327.859399 136.020355 
" style="fill:none;stroke:#000000;stroke-linecap:square;stroke-width:0.8;"/>
    </g>
    <g id="text_16">
     <!-- 0.4 -->
     <g transform="translate(335.785628 141.137536)scale(0.1 -0.1)">
      <use xlink:href="#DejaVuSans-48"/>
      <use x="63.623047" xlink:href="#DejaVuSans-46"/>
      <use x="95.410156" xlink:href="#DejaVuSans-52"/>
     </g>
    </g>
   </g>
   <g id="xtick_17">
    <g id="line2d_20">
     <path d="M 324.938429 110.511103 
L 329.217088 111.372527 
" style="fill:none;stroke:#000000;stroke-linecap:square;stroke-width:0.8;"/>
    </g>
    <g id="text_17">
     <!-- 0.6 -->
     <g transform="translate(337.295781 116.539666)scale(0.1 -0.1)">
      <use xlink:href="#DejaVuSans-48"/>
      <use x="63.623047" xlink:href="#DejaVuSans-46"/>
      <use x="95.410156" xlink:href="#DejaVuSans-54"/>
     </g>
    </g>
   </g>
   <g id="xtick_18">
    <g id="line2d_21">
     <path d="M 326.279053 85.38942 
L 330.601902 86.232276 
" style="fill:none;stroke:#000000;stroke-linecap:square;stroke-width:0.8;"/>
    </g>
    <g id="text_18">
     <!-- 0.8 -->
     <g transform="translate(338.836013 91.451869)scale(0.1 -0.1)">
      <use xlink:href="#DejaVuSans-48"/>
      <use x="63.623047" xlink:href="#DejaVuSans-46"/>
      <use x="95.410156" xlink:href="#DejaVuSans-56"/>
     </g>
    </g>
   </g>
   <g id="xtick_19">
    <g id="line2d_22">
     <path d="M 327.6467 59.761336 
L 332.014661 60.584695 
" style="fill:none;stroke:#000000;stroke-linecap:square;stroke-width:0.8;"/>
    </g>
    <g id="text_19">
     <!-- 1.0 -->
     <g transform="translate(340.407231 65.85936)scale(0.1 -0.1)">
      <use xlink:href="#DejaVuSans-49"/>
      <use x="63.623047" xlink:href="#DejaVuSans-46"/>
      <use x="95.410156" xlink:href="#DejaVuSans-48"/>
     </g>
    </g>
   </g>
  </g>
  <g id="axes_1">
   <g id="Poly3DCollection_1">
    <path clip-path="url(#p95ff682301)" d="M 149.589263 38.119874 
L 166.020042 41.293072 
L 175.718556 35.830569 
L 159.367779 32.729967 
z
" style="fill:#ffff00;"/>
    <path clip-path="url(#p95ff682301)" d="M 232.647947 86.303686 
L 248.902023 119.263329 
L 258.013667 111.425751 
L 241.984895 76.180706 
z
" style="fill:#ff9f00;"/>
    <path clip-path="url(#p95ff682301)" d="M 166.020042 41.293072 
L 182.592924 44.642282 
L 192.209572 38.964372 
L 175.718556 35.830569 
z
" style="fill:#ffff00;"/>
    <path clip-path="url(#p95ff682301)" d="M 248.902023 119.263329 
L 266.362152 103.649385 
L 275.693656 88.99178 
L 258.013667 111.425751 
z
" style="fill:#ff9600;"/>
    <path clip-path="url(#p95ff682301)" d="M 139.664581 43.590348 
L 156.176069 46.832964 
L 166.020042 41.293072 
L 149.589263 38.119874 
z
" style="fill:#ffff00;"/>
    <path clip-path="url(#p95ff682301)" d="M 182.592924 44.642282 
L 199.303621 49.127266 
L 208.842432 42.142748 
L 192.209572 38.964372 
z
" style="fill:#ffff00;"/>
    <path clip-path="url(#p95ff682301)" d="M 223.200069 96.730909 
L 239.6436 128.427635 
L 248.902023 119.263329 
L 232.647947 86.303686 
z
" style="fill:#ff9700;"/>
    <path clip-path="url(#p95ff682301)" d="M 216.101209 57.870965 
L 232.647947 86.303686 
L 241.984895 76.180706 
L 225.57906 48.283775 
z
" style="fill:#ffdb00;"/>
    <path clip-path="url(#p95ff682301)" d="M 156.176069 46.832964 
L 172.832636 50.386659 
L 182.592924 44.642282 
L 166.020042 41.293072 
z
" style="fill:#ffff00;"/>
    <path clip-path="url(#p95ff682301)" d="M 239.6436 128.427635 
L 256.937305 119.075445 
L 266.362152 103.649385 
L 248.902023 119.263329 
z
" style="fill:#ff8a00;"/>
    <path clip-path="url(#p95ff682301)" d="M 199.303621 49.127266 
L 216.101209 57.870965 
L 225.57906 48.283775 
L 208.842432 42.142748 
z
" style="fill:#fff900;"/>
    <path clip-path="url(#p95ff682301)" d="M 129.590429 49.143209 
L 146.183272 52.450936 
L 156.176069 46.832964 
L 139.664581 43.590348 
z
" style="fill:#ffff00;"/>
    <path clip-path="url(#p95ff682301)" d="M 172.832636 50.386659 
L 189.631233 55.909964 
L 199.303621 49.127266 
L 182.592924 44.642282 
z
" style="fill:#fffd00;"/>
    <path clip-path="url(#p95ff682301)" d="M 213.643155 107.277984 
L 230.248903 138.953156 
L 239.6436 128.427635 
L 223.200069 96.730909 
z
" style="fill:#ff8f00;"/>
    <path clip-path="url(#p95ff682301)" d="M 206.510297 67.427875 
L 223.200069 96.730909 
L 232.647947 86.303686 
L 216.101209 57.870965 
z
" style="fill:#ffd200;"/>
    <path clip-path="url(#p95ff682301)" d="M 230.248903 138.953156 
L 247.430706 135.033002 
L 256.937305 119.075445 
L 239.6436 128.427635 
z
" style="fill:#ff7b00;"/>
    <path clip-path="url(#p95ff682301)" d="M 189.631233 55.909964 
L 206.510297 67.427875 
L 216.101209 57.870965 
L 199.303621 49.127266 
z
" style="fill:#fff400;"/>
    <path clip-path="url(#p95ff682301)" d="M 146.183272 52.450936 
L 162.925 56.175558 
L 172.832636 50.386659 
L 156.176069 46.832964 
z
" style="fill:#ffff00;"/>
    <path clip-path="url(#p95ff682301)" d="M 220.730829 150.757635 
L 237.848131 151.418438 
L 247.430706 135.033002 
L 230.248903 138.953156 
z
" style="fill:#ff6b00;"/>
    <path clip-path="url(#p95ff682301)" d="M 266.362152 103.649385 
L 284.538326 79.712135 
L 294.20218 58.356526 
L 275.693656 88.99178 
z
" style="fill:#ffcf00;"/>
    <path clip-path="url(#p95ff682301)" d="M 203.975663 117.879427 
L 220.730829 150.757635 
L 230.248903 138.953156 
L 213.643155 107.277984 
z
" style="fill:#ff8400;"/>
    <path clip-path="url(#p95ff682301)" d="M 196.80312 76.744324 
L 213.643155 107.277984 
L 223.200069 96.730909 
L 206.510297 67.427875 
z
" style="fill:#ffc900;"/>
    <path clip-path="url(#p95ff682301)" d="M 119.363406 54.780333 
L 136.038141 58.146814 
L 146.183272 52.450936 
L 129.590429 49.143209 
z
" style="fill:#ffff00;"/>
    <path clip-path="url(#p95ff682301)" d="M 162.925 56.175558 
L 179.819353 62.574696 
L 189.631233 55.909964 
L 172.832636 50.386659 
z
" style="fill:#fffc00;"/>
    <path clip-path="url(#p95ff682301)" d="M 256.937305 119.075445 
L 274.85232 100.893601 
L 284.538326 79.712135 
L 266.362152 103.649385 
z
" style="fill:#ffb500;"/>
    <path clip-path="url(#p95ff682301)" d="M 179.819353 62.574696 
L 196.80312 76.744324 
L 206.510297 67.427875 
L 189.631233 55.909964 
z
" style="fill:#ffef00;"/>
    <path clip-path="url(#p95ff682301)" d="M 211.101223 163.791554 
L 228.193049 168.186401 
L 237.848131 151.418438 
L 220.730829 150.757635 
z
" style="fill:#ff5a00;"/>
    <path clip-path="url(#p95ff682301)" d="M 136.038141 58.146814 
L 152.865928 61.993806 
L 162.925 56.175558 
L 146.183272 52.450936 
z
" style="fill:#ffff00;"/>
    <path clip-path="url(#p95ff682301)" d="M 247.430706 135.033002 
L 265.146524 121.729677 
L 274.85232 100.893601 
L 256.937305 119.075445 
z
" style="fill:#ff9b00;"/>
    <path clip-path="url(#p95ff682301)" d="M 194.194908 128.499079 
L 211.101223 163.791554 
L 220.730829 150.757635 
L 203.975663 117.879427 
z
" style="fill:#ff7900;"/>
    <path clip-path="url(#p95ff682301)" d="M 186.973283 85.749099 
L 203.975663 117.879427 
L 213.643155 107.277984 
L 196.80312 76.744324 
z
" style="fill:#ffc100;"/>
    <path clip-path="url(#p95ff682301)" d="M 201.371268 178.086828 
L 218.46815 185.308293 
L 228.193049 168.186401 
L 211.101223 163.791554 
z
" style="fill:#ff4700;"/>
    <path clip-path="url(#p95ff682301)" d="M 237.848131 151.418438 
L 255.415848 142.234366 
L 265.146524 121.729677 
L 247.430706 135.033002 
z
" style="fill:#ff8100;"/>
    <path clip-path="url(#p95ff682301)" d="M 108.980006 60.503651 
L 125.737051 63.92133 
L 136.038141 58.146814 
L 119.363406 54.780333 
z
" style="fill:#ffff00;"/>
    <path clip-path="url(#p95ff682301)" d="M 152.865928 61.993806 
L 169.862221 69.093695 
L 179.819353 62.574696 
L 162.925 56.175558 
z
" style="fill:#fffb00;"/>
    <path clip-path="url(#p95ff682301)" d="M 169.862221 69.093695 
L 186.973283 85.749099 
L 196.80312 76.744324 
L 179.819353 62.574696 
z
" style="fill:#ffeb00;"/>
    <path clip-path="url(#p95ff682301)" d="M 284.538326 79.712135 
L 302.092373 82.118507 
L 311.730221 61.612546 
L 294.20218 58.356526 
z
" style="fill:#fff000;"/>
    <path clip-path="url(#p95ff682301)" d="M 184.2975 139.091601 
L 201.371268 178.086828 
L 211.101223 163.791554 
L 194.194908 128.499079 
z
" style="fill:#ff6d00;"/>
    <path clip-path="url(#p95ff682301)" d="M 228.193049 168.186401 
L 245.653837 162.483241 
L 255.415848 142.234366 
L 237.848131 151.418438 
z
" style="fill:#ff6700;"/>
    <path clip-path="url(#p95ff682301)" d="M 191.553072 193.825026 
L 208.675817 202.749319 
L 218.46815 185.308293 
L 201.371268 178.086828 
z
" style="fill:#ff3200;"/>
    <path clip-path="url(#p95ff682301)" d="M 274.85232 100.893601 
L 292.419309 102.648344 
L 302.092373 82.118507 
L 284.538326 79.712135 
z
" style="fill:#ffd000;"/>
    <path clip-path="url(#p95ff682301)" d="M 125.737051 63.92133 
L 142.651026 67.831281 
L 152.865928 61.993806 
L 136.038141 58.146814 
z
" style="fill:#ffff00;"/>
    <path clip-path="url(#p95ff682301)" d="M 177.013312 94.426976 
L 194.194908 128.499079 
L 203.975663 117.879427 
L 186.973283 85.749099 
z
" style="fill:#ffb900;"/>
    <path clip-path="url(#p95ff682301)" d="M 218.46815 185.308293 
L 235.854778 182.563557 
L 245.653837 162.483241 
L 228.193049 168.186401 
z
" style="fill:#ff4d00;"/>
    <path clip-path="url(#p95ff682301)" d="M 265.146524 121.729677 
L 282.710312 123.199922 
L 292.419309 102.648344 
L 274.85232 100.893601 
z
" style="fill:#ffb200;"/>
    <path clip-path="url(#p95ff682301)" d="M 181.663564 211.5491 
L 198.818019 220.457855 
L 208.675817 202.749319 
L 191.553072 193.825026 
z
" style="fill:#ff1b00;"/>
    <path clip-path="url(#p95ff682301)" d="M 174.278979 149.582081 
L 191.553072 193.825026 
L 201.371268 178.086828 
L 184.2975 139.091601 
z
" style="fill:#ff5f00;"/>
    <path clip-path="url(#p95ff682301)" d="M 255.415848 142.234366 
L 272.965075 143.756818 
L 282.710312 123.199922 
L 265.146524 121.729677 
z
" style="fill:#ff9300;"/>
    <path clip-path="url(#p95ff682301)" d="M 98.436614 66.315157 
L 115.276272 69.776306 
L 125.737051 63.92133 
L 108.980006 60.503651 
z
" style="fill:#ffff00;"/>
    <path clip-path="url(#p95ff682301)" d="M 142.651026 67.831281 
L 159.753079 75.411636 
L 169.862221 69.093695 
L 152.865928 61.993806 
z
" style="fill:#fffa00;"/>
    <path clip-path="url(#p95ff682301)" d="M 208.675817 202.749319 
L 226.01425 202.555561 
L 235.854778 182.563557 
L 218.46815 185.308293 
z
" style="fill:#ff3300;"/>
    <path clip-path="url(#p95ff682301)" d="M 159.753079 75.411636 
L 177.013312 94.426976 
L 186.973283 85.749099 
L 169.862221 69.093695 
z
" style="fill:#ffe700;"/>
    <path clip-path="url(#p95ff682301)" d="M 245.653837 162.483241 
L 263.182691 164.313536 
L 272.965075 143.756818 
L 255.415848 142.234366 
z
" style="fill:#ff7500;"/>
    <path clip-path="url(#p95ff682301)" d="M 171.743667 233.617509 
L 188.895929 238.352947 
L 198.818019 220.457855 
L 181.663564 211.5491 
z
" style="fill:#ff0100;"/>
    <path clip-path="url(#p95ff682301)" d="M 198.818019 220.457855 
L 216.129085 222.528697 
L 226.01425 202.555561 
L 208.675817 202.749319 
z
" style="fill:#ff1900;"/>
    <path clip-path="url(#p95ff682301)" d="M 166.915363 102.78153 
L 184.2975 139.091601 
L 194.194908 128.499079 
L 177.013312 94.426976 
z
" style="fill:#ffb200;"/>
    <path clip-path="url(#p95ff682301)" d="M 235.854778 182.563557 
L 253.361851 184.875198 
L 263.182691 164.313536 
L 245.653837 162.483241 
z
" style="fill:#ff5800;"/>
    <path clip-path="url(#p95ff682301)" d="M 115.276272 69.776306 
L 132.275722 73.684797 
L 142.651026 67.831281 
L 125.737051 63.92133 
z
" style="fill:#ffff00;"/>
    <path clip-path="url(#p95ff682301)" d="M 164.133049 159.855183 
L 181.663564 211.5491 
L 191.553072 193.825026 
L 174.278979 149.582081 
z
" style="fill:#ff5000;"/>
    <path clip-path="url(#p95ff682301)" d="M 188.895929 238.352947 
L 206.197124 242.55563 
L 216.129085 222.528697 
L 198.818019 220.457855 
z
" style="fill:#ff0000;"/>
    <path clip-path="url(#p95ff682301)" d="M 226.01425 202.555561 
L 243.501082 205.455819 
L 253.361851 184.875198 
L 235.854778 182.563557 
z
" style="fill:#ff3b00;"/>
    <path clip-path="url(#p95ff682301)" d="M 87.729504 72.216903 
L 104.651991 75.714713 
L 115.276272 69.776306 
L 98.436614 66.315157 
z
" style="fill:#ffff00;"/>
    <path clip-path="url(#p95ff682301)" d="M 132.275722 73.684797 
L 149.483615 81.44793 
L 159.753079 75.411636 
L 142.651026 67.831281 
z
" style="fill:#fffa00;"/>
    <path clip-path="url(#p95ff682301)" d="M 149.483615 81.44793 
L 166.915363 102.78153 
L 177.013312 94.426976 
L 159.753079 75.411636 
z
" style="fill:#ffe400;"/>
    <path clip-path="url(#p95ff682301)" d="M 216.129085 222.528697 
L 233.598964 226.075906 
L 243.501082 205.455819 
L 226.01425 202.555561 
z
" style="fill:#ff1e00;"/>
    <path clip-path="url(#p95ff682301)" d="M 153.850421 169.740271 
L 171.743667 233.617509 
L 181.663564 211.5491 
L 164.133049 159.855183 
z
" style="fill:#ff3e00;"/>
    <path clip-path="url(#p95ff682301)" d="M 156.67137 110.81965 
L 174.278979 149.582081 
L 184.2975 139.091601 
L 166.915363 102.78153 
z
" style="fill:#ffab00;"/>
    <path clip-path="url(#p95ff682301)" d="M 206.197124 242.55563 
L 223.654482 246.747389 
L 233.598964 226.075906 
L 216.129085 222.528697 
z
" style="fill:#ff0100;"/>
    <path clip-path="url(#p95ff682301)" d="M 104.651991 75.714713 
L 121.735449 79.560113 
L 132.275722 73.684797 
L 115.276272 69.776306 
z
" style="fill:#ffff00;"/>
    <path clip-path="url(#p95ff682301)" d="M 76.854833 78.21101 
L 93.860325 81.740592 
L 104.651991 75.714713 
L 87.729504 72.216903 
z
" style="fill:#ffff00;"/>
    <path clip-path="url(#p95ff682301)" d="M 139.042927 87.074444 
L 156.67137 110.81965 
L 166.915363 102.78153 
L 149.483615 81.44793 
z
" style="fill:#ffe200;"/>
    <path clip-path="url(#p95ff682301)" d="M 121.735449 79.560113 
L 139.042927 87.074444 
L 149.483615 81.44793 
L 132.275722 73.684797 
z
" style="fill:#fffa00;"/>
    <path clip-path="url(#p95ff682301)" d="M 146.272965 118.543987 
L 164.133049 159.855183 
L 174.278979 149.582081 
L 156.67137 110.81965 
z
" style="fill:#ffa600;"/>
    <path clip-path="url(#p95ff682301)" d="M 93.860325 81.740592 
L 111.025869 85.473397 
L 121.735449 79.560113 
L 104.651991 75.714713 
z
" style="fill:#ffff00;"/>
    <path clip-path="url(#p95ff682301)" d="M 135.711087 125.939534 
L 153.850421 169.740271 
L 164.133049 159.855183 
L 146.272965 118.543987 
z
" style="fill:#ffa100;"/>
    <path clip-path="url(#p95ff682301)" d="M 65.808636 84.299661 
L 82.897235 87.856531 
L 93.860325 81.740592 
L 76.854833 78.21101 
z
" style="fill:#ffff00;"/>
    <path clip-path="url(#p95ff682301)" d="M 128.414335 92.029778 
L 146.272965 118.543987 
L 156.67137 110.81965 
L 139.042927 87.074444 
z
" style="fill:#ffe200;"/>
    <path clip-path="url(#p95ff682301)" d="M 111.025869 85.473397 
L 128.414335 92.029778 
L 139.042927 87.074444 
L 121.735449 79.560113 
z
" style="fill:#fffb00;"/>
    <path clip-path="url(#p95ff682301)" d="M 82.897235 87.856531 
L 100.143236 91.45517 
L 111.025869 85.473397 
L 93.860325 81.740592 
z
" style="fill:#ffff00;"/>
    <path clip-path="url(#p95ff682301)" d="M 117.555067 95.319207 
L 135.711087 125.939534 
L 146.272965 118.543987 
L 128.414335 92.029778 
z
" style="fill:#ffe300;"/>
    <path clip-path="url(#p95ff682301)" d="M 100.143236 91.45517 
L 117.555067 95.319207 
L 128.414335 92.029778 
L 111.025869 85.473397 
z
" style="fill:#fffe00;"/>
   </g>
   <g id="text_20">
    <!-- Con nr=100- surf del potencial de la Reg.5-Eo. -->
    <defs>
     <path d="M 64.40625 67.28125 
L 64.40625 56.890625 
Q 59.421875 61.53125 53.78125 63.8125 
Q 48.140625 66.109375 41.796875 66.109375 
Q 29.296875 66.109375 22.65625 58.46875 
Q 16.015625 50.828125 16.015625 36.375 
Q 16.015625 21.96875 22.65625 14.328125 
Q 29.296875 6.6875 41.796875 6.6875 
Q 48.140625 6.6875 53.78125 8.984375 
Q 59.421875 11.28125 64.40625 15.921875 
L 64.40625 5.609375 
Q 59.234375 2.09375 53.4375 0.328125 
Q 47.65625 -1.421875 41.21875 -1.421875 
Q 24.65625 -1.421875 15.125 8.703125 
Q 5.609375 18.84375 5.609375 36.375 
Q 5.609375 53.953125 15.125 64.078125 
Q 24.65625 74.21875 41.21875 74.21875 
Q 47.75 74.21875 53.53125 72.484375 
Q 59.328125 70.75 64.40625 67.28125 
z
" id="DejaVuSans-67"/>
     <path d="M 30.609375 48.390625 
Q 23.390625 48.390625 19.1875 42.75 
Q 14.984375 37.109375 14.984375 27.296875 
Q 14.984375 17.484375 19.15625 11.84375 
Q 23.34375 6.203125 30.609375 6.203125 
Q 37.796875 6.203125 41.984375 11.859375 
Q 46.1875 17.53125 46.1875 27.296875 
Q 46.1875 37.015625 41.984375 42.703125 
Q 37.796875 48.390625 30.609375 48.390625 
z
M 30.609375 56 
Q 42.328125 56 49.015625 48.375 
Q 55.71875 40.765625 55.71875 27.296875 
Q 55.71875 13.875 49.015625 6.21875 
Q 42.328125 -1.421875 30.609375 -1.421875 
Q 18.84375 -1.421875 12.171875 6.21875 
Q 5.515625 13.875 5.515625 27.296875 
Q 5.515625 40.765625 12.171875 48.375 
Q 18.84375 56 30.609375 56 
z
" id="DejaVuSans-111"/>
     <path d="M 54.890625 33.015625 
L 54.890625 0 
L 45.90625 0 
L 45.90625 32.71875 
Q 45.90625 40.484375 42.875 44.328125 
Q 39.84375 48.1875 33.796875 48.1875 
Q 26.515625 48.1875 22.3125 43.546875 
Q 18.109375 38.921875 18.109375 30.90625 
L 18.109375 0 
L 9.078125 0 
L 9.078125 54.6875 
L 18.109375 54.6875 
L 18.109375 46.1875 
Q 21.34375 51.125 25.703125 53.5625 
Q 30.078125 56 35.796875 56 
Q 45.21875 56 50.046875 50.171875 
Q 54.890625 44.34375 54.890625 33.015625 
z
" id="DejaVuSans-110"/>
     <path id="DejaVuSans-32"/>
     <path d="M 41.109375 46.296875 
Q 39.59375 47.171875 37.8125 47.578125 
Q 36.03125 48 33.890625 48 
Q 26.265625 48 22.1875 43.046875 
Q 18.109375 38.09375 18.109375 28.8125 
L 18.109375 0 
L 9.078125 0 
L 9.078125 54.6875 
L 18.109375 54.6875 
L 18.109375 46.1875 
Q 20.953125 51.171875 25.484375 53.578125 
Q 30.03125 56 36.53125 56 
Q 37.453125 56 38.578125 55.875 
Q 39.703125 55.765625 41.0625 55.515625 
z
" id="DejaVuSans-114"/>
     <path d="M 10.59375 45.40625 
L 73.1875 45.40625 
L 73.1875 37.203125 
L 10.59375 37.203125 
z
M 10.59375 25.484375 
L 73.1875 25.484375 
L 73.1875 17.1875 
L 10.59375 17.1875 
z
" id="DejaVuSans-61"/>
     <path d="M 4.890625 31.390625 
L 31.203125 31.390625 
L 31.203125 23.390625 
L 4.890625 23.390625 
z
" id="DejaVuSans-45"/>
     <path d="M 44.28125 53.078125 
L 44.28125 44.578125 
Q 40.484375 46.53125 36.375 47.5 
Q 32.28125 48.484375 27.875 48.484375 
Q 21.1875 48.484375 17.84375 46.4375 
Q 14.5 44.390625 14.5 40.28125 
Q 14.5 37.15625 16.890625 35.375 
Q 19.28125 33.59375 26.515625 31.984375 
L 29.59375 31.296875 
Q 39.15625 29.25 43.1875 25.515625 
Q 47.21875 21.78125 47.21875 15.09375 
Q 47.21875 7.46875 41.1875 3.015625 
Q 35.15625 -1.421875 24.609375 -1.421875 
Q 20.21875 -1.421875 15.453125 -0.5625 
Q 10.6875 0.296875 5.421875 2 
L 5.421875 11.28125 
Q 10.40625 8.6875 15.234375 7.390625 
Q 20.0625 6.109375 24.8125 6.109375 
Q 31.15625 6.109375 34.5625 8.28125 
Q 37.984375 10.453125 37.984375 14.40625 
Q 37.984375 18.0625 35.515625 20.015625 
Q 33.0625 21.96875 24.703125 23.78125 
L 21.578125 24.515625 
Q 13.234375 26.265625 9.515625 29.90625 
Q 5.8125 33.546875 5.8125 39.890625 
Q 5.8125 47.609375 11.28125 51.796875 
Q 16.75 56 26.8125 56 
Q 31.78125 56 36.171875 55.265625 
Q 40.578125 54.546875 44.28125 53.078125 
z
" id="DejaVuSans-115"/>
     <path d="M 8.5 21.578125 
L 8.5 54.6875 
L 17.484375 54.6875 
L 17.484375 21.921875 
Q 17.484375 14.15625 20.5 10.265625 
Q 23.53125 6.390625 29.59375 6.390625 
Q 36.859375 6.390625 41.078125 11.03125 
Q 45.3125 15.671875 45.3125 23.6875 
L 45.3125 54.6875 
L 54.296875 54.6875 
L 54.296875 0 
L 45.3125 0 
L 45.3125 8.40625 
Q 42.046875 3.421875 37.71875 1 
Q 33.40625 -1.421875 27.6875 -1.421875 
Q 18.265625 -1.421875 13.375 4.4375 
Q 8.5 10.296875 8.5 21.578125 
z
M 31.109375 56 
z
" id="DejaVuSans-117"/>
     <path d="M 37.109375 75.984375 
L 37.109375 68.5 
L 28.515625 68.5 
Q 23.6875 68.5 21.796875 66.546875 
Q 19.921875 64.59375 19.921875 59.515625 
L 19.921875 54.6875 
L 34.71875 54.6875 
L 34.71875 47.703125 
L 19.921875 47.703125 
L 19.921875 0 
L 10.890625 0 
L 10.890625 47.703125 
L 2.296875 47.703125 
L 2.296875 54.6875 
L 10.890625 54.6875 
L 10.890625 58.5 
Q 10.890625 67.625 15.140625 71.796875 
Q 19.390625 75.984375 28.609375 75.984375 
z
" id="DejaVuSans-102"/>
     <path d="M 45.40625 46.390625 
L 45.40625 75.984375 
L 54.390625 75.984375 
L 54.390625 0 
L 45.40625 0 
L 45.40625 8.203125 
Q 42.578125 3.328125 38.25 0.953125 
Q 33.9375 -1.421875 27.875 -1.421875 
Q 17.96875 -1.421875 11.734375 6.484375 
Q 5.515625 14.40625 5.515625 27.296875 
Q 5.515625 40.1875 11.734375 48.09375 
Q 17.96875 56 27.875 56 
Q 33.9375 56 38.25 53.625 
Q 42.578125 51.265625 45.40625 46.390625 
z
M 14.796875 27.296875 
Q 14.796875 17.390625 18.875 11.75 
Q 22.953125 6.109375 30.078125 6.109375 
Q 37.203125 6.109375 41.296875 11.75 
Q 45.40625 17.390625 45.40625 27.296875 
Q 45.40625 37.203125 41.296875 42.84375 
Q 37.203125 48.484375 30.078125 48.484375 
Q 22.953125 48.484375 18.875 42.84375 
Q 14.796875 37.203125 14.796875 27.296875 
z
" id="DejaVuSans-100"/>
     <path d="M 56.203125 29.59375 
L 56.203125 25.203125 
L 14.890625 25.203125 
Q 15.484375 15.921875 20.484375 11.0625 
Q 25.484375 6.203125 34.421875 6.203125 
Q 39.59375 6.203125 44.453125 7.46875 
Q 49.3125 8.734375 54.109375 11.28125 
L 54.109375 2.78125 
Q 49.265625 0.734375 44.1875 -0.34375 
Q 39.109375 -1.421875 33.890625 -1.421875 
Q 20.796875 -1.421875 13.15625 6.1875 
Q 5.515625 13.8125 5.515625 26.8125 
Q 5.515625 40.234375 12.765625 48.109375 
Q 20.015625 56 32.328125 56 
Q 43.359375 56 49.78125 48.890625 
Q 56.203125 41.796875 56.203125 29.59375 
z
M 47.21875 32.234375 
Q 47.125 39.59375 43.09375 43.984375 
Q 39.0625 48.390625 32.421875 48.390625 
Q 24.90625 48.390625 20.390625 44.140625 
Q 15.875 39.890625 15.1875 32.171875 
z
" id="DejaVuSans-101"/>
     <path d="M 9.421875 75.984375 
L 18.40625 75.984375 
L 18.40625 0 
L 9.421875 0 
z
" id="DejaVuSans-108"/>
     <path d="M 18.109375 8.203125 
L 18.109375 -20.796875 
L 9.078125 -20.796875 
L 9.078125 54.6875 
L 18.109375 54.6875 
L 18.109375 46.390625 
Q 20.953125 51.265625 25.265625 53.625 
Q 29.59375 56 35.59375 56 
Q 45.5625 56 51.78125 48.09375 
Q 58.015625 40.1875 58.015625 27.296875 
Q 58.015625 14.40625 51.78125 6.484375 
Q 45.5625 -1.421875 35.59375 -1.421875 
Q 29.59375 -1.421875 25.265625 0.953125 
Q 20.953125 3.328125 18.109375 8.203125 
z
M 48.6875 27.296875 
Q 48.6875 37.203125 44.609375 42.84375 
Q 40.53125 48.484375 33.40625 48.484375 
Q 26.265625 48.484375 22.1875 42.84375 
Q 18.109375 37.203125 18.109375 27.296875 
Q 18.109375 17.390625 22.1875 11.75 
Q 26.265625 6.109375 33.40625 6.109375 
Q 40.53125 6.109375 44.609375 11.75 
Q 48.6875 17.390625 48.6875 27.296875 
z
" id="DejaVuSans-112"/>
     <path d="M 18.3125 70.21875 
L 18.3125 54.6875 
L 36.8125 54.6875 
L 36.8125 47.703125 
L 18.3125 47.703125 
L 18.3125 18.015625 
Q 18.3125 11.328125 20.140625 9.421875 
Q 21.96875 7.515625 27.59375 7.515625 
L 36.8125 7.515625 
L 36.8125 0 
L 27.59375 0 
Q 17.1875 0 13.234375 3.875 
Q 9.28125 7.765625 9.28125 18.015625 
L 9.28125 47.703125 
L 2.6875 47.703125 
L 2.6875 54.6875 
L 9.28125 54.6875 
L 9.28125 70.21875 
z
" id="DejaVuSans-116"/>
     <path d="M 48.78125 52.59375 
L 48.78125 44.1875 
Q 44.96875 46.296875 41.140625 47.34375 
Q 37.3125 48.390625 33.40625 48.390625 
Q 24.65625 48.390625 19.8125 42.84375 
Q 14.984375 37.3125 14.984375 27.296875 
Q 14.984375 17.28125 19.8125 11.734375 
Q 24.65625 6.203125 33.40625 6.203125 
Q 37.3125 6.203125 41.140625 7.25 
Q 44.96875 8.296875 48.78125 10.40625 
L 48.78125 2.09375 
Q 45.015625 0.34375 40.984375 -0.53125 
Q 36.96875 -1.421875 32.421875 -1.421875 
Q 20.0625 -1.421875 12.78125 6.34375 
Q 5.515625 14.109375 5.515625 27.296875 
Q 5.515625 40.671875 12.859375 48.328125 
Q 20.21875 56 33.015625 56 
Q 37.15625 56 41.109375 55.140625 
Q 45.0625 54.296875 48.78125 52.59375 
z
" id="DejaVuSans-99"/>
     <path d="M 9.421875 54.6875 
L 18.40625 54.6875 
L 18.40625 0 
L 9.421875 0 
z
M 9.421875 75.984375 
L 18.40625 75.984375 
L 18.40625 64.59375 
L 9.421875 64.59375 
z
" id="DejaVuSans-105"/>
     <path d="M 34.28125 27.484375 
Q 23.390625 27.484375 19.1875 25 
Q 14.984375 22.515625 14.984375 16.5 
Q 14.984375 11.71875 18.140625 8.90625 
Q 21.296875 6.109375 26.703125 6.109375 
Q 34.1875 6.109375 38.703125 11.40625 
Q 43.21875 16.703125 43.21875 25.484375 
L 43.21875 27.484375 
z
M 52.203125 31.203125 
L 52.203125 0 
L 43.21875 0 
L 43.21875 8.296875 
Q 40.140625 3.328125 35.546875 0.953125 
Q 30.953125 -1.421875 24.3125 -1.421875 
Q 15.921875 -1.421875 10.953125 3.296875 
Q 6 8.015625 6 15.921875 
Q 6 25.140625 12.171875 29.828125 
Q 18.359375 34.515625 30.609375 34.515625 
L 43.21875 34.515625 
L 43.21875 35.40625 
Q 43.21875 41.609375 39.140625 45 
Q 35.0625 48.390625 27.6875 48.390625 
Q 23 48.390625 18.546875 47.265625 
Q 14.109375 46.140625 10.015625 43.890625 
L 10.015625 52.203125 
Q 14.9375 54.109375 19.578125 55.046875 
Q 24.21875 56 28.609375 56 
Q 40.484375 56 46.34375 49.84375 
Q 52.203125 43.703125 52.203125 31.203125 
z
" id="DejaVuSans-97"/>
     <path d="M 44.390625 34.1875 
Q 47.5625 33.109375 50.5625 29.59375 
Q 53.5625 26.078125 56.59375 19.921875 
L 66.609375 0 
L 56 0 
L 46.6875 18.703125 
Q 43.0625 26.03125 39.671875 28.421875 
Q 36.28125 30.8125 30.421875 30.8125 
L 19.671875 30.8125 
L 19.671875 0 
L 9.8125 0 
L 9.8125 72.90625 
L 32.078125 72.90625 
Q 44.578125 72.90625 50.734375 67.671875 
Q 56.890625 62.453125 56.890625 51.90625 
Q 56.890625 45.015625 53.6875 40.46875 
Q 50.484375 35.9375 44.390625 34.1875 
z
M 19.671875 64.796875 
L 19.671875 38.921875 
L 32.078125 38.921875 
Q 39.203125 38.921875 42.84375 42.21875 
Q 46.484375 45.515625 46.484375 51.90625 
Q 46.484375 58.296875 42.84375 61.546875 
Q 39.203125 64.796875 32.078125 64.796875 
z
" id="DejaVuSans-82"/>
     <path d="M 45.40625 27.984375 
Q 45.40625 37.75 41.375 43.109375 
Q 37.359375 48.484375 30.078125 48.484375 
Q 22.859375 48.484375 18.828125 43.109375 
Q 14.796875 37.75 14.796875 27.984375 
Q 14.796875 18.265625 18.828125 12.890625 
Q 22.859375 7.515625 30.078125 7.515625 
Q 37.359375 7.515625 41.375 12.890625 
Q 45.40625 18.265625 45.40625 27.984375 
z
M 54.390625 6.78125 
Q 54.390625 -7.171875 48.1875 -13.984375 
Q 42 -20.796875 29.203125 -20.796875 
Q 24.46875 -20.796875 20.265625 -20.09375 
Q 16.0625 -19.390625 12.109375 -17.921875 
L 12.109375 -9.1875 
Q 16.0625 -11.328125 19.921875 -12.34375 
Q 23.78125 -13.375 27.78125 -13.375 
Q 36.625 -13.375 41.015625 -8.765625 
Q 45.40625 -4.15625 45.40625 5.171875 
L 45.40625 9.625 
Q 42.625 4.78125 38.28125 2.390625 
Q 33.9375 0 27.875 0 
Q 17.828125 0 11.671875 7.65625 
Q 5.515625 15.328125 5.515625 27.984375 
Q 5.515625 40.671875 11.671875 48.328125 
Q 17.828125 56 27.875 56 
Q 33.9375 56 38.28125 53.609375 
Q 42.625 51.21875 45.40625 46.390625 
L 45.40625 54.6875 
L 54.390625 54.6875 
z
" id="DejaVuSans-103"/>
     <path d="M 9.8125 72.90625 
L 55.90625 72.90625 
L 55.90625 64.59375 
L 19.671875 64.59375 
L 19.671875 43.015625 
L 54.390625 43.015625 
L 54.390625 34.71875 
L 19.671875 34.71875 
L 19.671875 8.296875 
L 56.78125 8.296875 
L 56.78125 0 
L 9.8125 0 
z
" id="DejaVuSans-69"/>
    </defs>
    <g transform="translate(45.754688 22.48896)scale(0.12 -0.12)">
     <use xlink:href="#DejaVuSans-67"/>
     <use x="69.824219" xlink:href="#DejaVuSans-111"/>
     <use x="131.005859" xlink:href="#DejaVuSans-110"/>
     <use x="194.384766" xlink:href="#DejaVuSans-32"/>
     <use x="226.171875" xlink:href="#DejaVuSans-110"/>
     <use x="289.550781" xlink:href="#DejaVuSans-114"/>
     <use x="330.664062" xlink:href="#DejaVuSans-61"/>
     <use x="414.453125" xlink:href="#DejaVuSans-49"/>
     <use x="478.076172" xlink:href="#DejaVuSans-48"/>
     <use x="541.699219" xlink:href="#DejaVuSans-48"/>
     <use x="605.322266" xlink:href="#DejaVuSans-45"/>
     <use x="641.40625" xlink:href="#DejaVuSans-32"/>
     <use x="673.193359" xlink:href="#DejaVuSans-115"/>
     <use x="725.292969" xlink:href="#DejaVuSans-117"/>
     <use x="788.671875" xlink:href="#DejaVuSans-114"/>
     <use x="829.785156" xlink:href="#DejaVuSans-102"/>
     <use x="864.990234" xlink:href="#DejaVuSans-32"/>
     <use x="896.777344" xlink:href="#DejaVuSans-100"/>
     <use x="960.253906" xlink:href="#DejaVuSans-101"/>
     <use x="1021.777344" xlink:href="#DejaVuSans-108"/>
     <use x="1049.560547" xlink:href="#DejaVuSans-32"/>
     <use x="1081.347656" xlink:href="#DejaVuSans-112"/>
     <use x="1144.824219" xlink:href="#DejaVuSans-111"/>
     <use x="1206.005859" xlink:href="#DejaVuSans-116"/>
     <use x="1245.214844" xlink:href="#DejaVuSans-101"/>
     <use x="1306.738281" xlink:href="#DejaVuSans-110"/>
     <use x="1370.117188" xlink:href="#DejaVuSans-99"/>
     <use x="1425.097656" xlink:href="#DejaVuSans-105"/>
     <use x="1452.880859" xlink:href="#DejaVuSans-97"/>
     <use x="1514.160156" xlink:href="#DejaVuSans-108"/>
     <use x="1541.943359" xlink:href="#DejaVuSans-32"/>
     <use x="1573.730469" xlink:href="#DejaVuSans-100"/>
     <use x="1637.207031" xlink:href="#DejaVuSans-101"/>
     <use x="1698.730469" xlink:href="#DejaVuSans-32"/>
     <use x="1730.517578" xlink:href="#DejaVuSans-108"/>
     <use x="1758.300781" xlink:href="#DejaVuSans-97"/>
     <use x="1819.580078" xlink:href="#DejaVuSans-32"/>
     <use x="1851.367188" xlink:href="#DejaVuSans-82"/>
     <use x="1920.787109" xlink:href="#DejaVuSans-101"/>
     <use x="1982.310547" xlink:href="#DejaVuSans-103"/>
     <use x="2045.787109" xlink:href="#DejaVuSans-46"/>
     <use x="2077.574219" xlink:href="#DejaVuSans-53"/>
     <use x="2141.197266" xlink:href="#DejaVuSans-45"/>
     <use x="2177.28125" xlink:href="#DejaVuSans-69"/>
     <use x="2240.464844" xlink:href="#DejaVuSans-111"/>
     <use x="2301.630859" xlink:href="#DejaVuSans-46"/>
    </g>
   </g>
  </g>
 </g>
 <defs>
  <clipPath id="p95ff682301">
   <rect height="266.112" width="357.12" x="7.2" y="7.2"/>
  </clipPath>
 </defs>
</svg>
